<?xml version="1.0" standalone="no"?>
<!DOCTYPE svg PUBLIC "-//W3C//DTD SVG 20010904//EN"
 "http://www.w3.org/TR/2001/REC-SVG-20010904/DTD/svg10.dtd">
<svg version="1.0" xmlns="http://www.w3.org/2000/svg"
 width="601.000000pt" height="601.000000pt" viewBox="0 0 601.000000 601.000000"
 preserveAspectRatio="xMidYMid meet">
<metadata>
Created by potrace 1.11, written by Peter Selinger 2001-2013
</metadata>
<g transform="translate(0.000000,601.000000) scale(0.100000,-0.100000)"
fill="#000000" stroke="none">
<path d="M242 4997 l3 -982 220 -123 c121 -68 249 -139 285 -159 36 -20 71
-40 78 -45 9 -8 12 -65 12 -225 l0 -214 -52 30 c-29 16 -163 90 -297 165 -134
75 -245 136 -247 136 -2 0 -4 -442 -4 -983 l0 -983 27 -16 c16 -8 55 -30 88
-48 33 -18 76 -43 95 -55 19 -12 42 -25 50 -28 8 -4 31 -17 50 -28 61 -37
1429 -823 1509 -867 26 -14 58 -33 73 -43 14 -11 28 -19 31 -19 2 0 114 -63
247 -140 134 -77 245 -140 247 -140 3 0 17 -8 31 -19 15 -10 50 -31 77 -45 28
-15 64 -35 80 -45 17 -10 51 -29 76 -43 25 -14 55 -31 66 -39 18 -11 37 -3
169 71 82 47 151 88 152 92 2 4 8 8 13 8 4 0 100 52 211 117 112 64 230 131
263 150 33 19 67 38 75 43 28 18 125 73 160 92 19 10 42 23 50 28 14 9 137 80
240 138 25 14 77 44 115 67 39 22 77 44 85 48 8 4 24 13 35 20 11 7 83 48 160
92 77 44 149 85 160 92 11 6 35 19 53 29 25 12 30 19 20 25 -7 5 -184 95 -393
200 -209 105 -381 192 -382 193 -2 1 32 22 75 46 301 170 522 295 551 313 l33
20 -33 17 c-19 9 -117 59 -219 112 -102 53 -257 133 -345 178 -216 111 -493
254 -645 333 l-125 65 -3 217 -2 216 97 -52 c54 -28 130 -69 168 -89 135 -72
231 -123 300 -160 39 -21 115 -61 170 -90 108 -57 197 -104 315 -167 41 -22
120 -64 175 -93 55 -29 127 -67 160 -85 33 -18 98 -52 145 -77 47 -25 153 -81
235 -125 83 -44 188 -100 235 -125 47 -25 138 -73 203 -107 l117 -62 0 2075 0
2076 -32 -19 c-63 -35 -126 -70 -553 -306 -236 -131 -637 -352 -890 -493 -253
-140 -485 -268 -515 -285 -30 -17 -73 -40 -95 -52 -87 -48 -377 -209 -470
-261 -22 -13 -67 -37 -100 -55 -33 -17 -69 -38 -80 -45 -11 -8 -25 -14 -32
-14 -7 0 -176 91 -376 201 -199 111 -386 214 -414 230 -118 65 -170 93 -203
112 -58 33 -110 62 -210 117 -52 29 -117 65 -145 80 -27 15 -232 129 -455 252
-223 124 -430 238 -460 255 -30 16 -77 43 -105 58 -179 99 -254 141 -285 158
-19 11 -54 30 -78 43 l-42 22 2 -981z m796 231 c290 -160 543 -300 562 -311
47 -27 71 -40 400 -222 157 -86 303 -167 325 -180 22 -12 67 -37 100 -55 33
-18 139 -77 235 -130 96 -54 207 -114 245 -135 39 -21 76 -42 82 -48 15 -11
10 -13 303 150 241 134 251 140 515 285 105 58 210 117 235 130 25 14 117 65
205 113 88 49 176 97 195 108 19 11 55 31 80 45 25 13 104 57 175 97 72 40
195 109 275 152 173 96 192 107 381 212 81 44 150 81 153 81 3 0 6 -729 6
-1620 l0 -1620 -67 36 c-120 64 -228 122 -478 254 -151 80 -410 217 -500 266
-146 78 -289 153 -373 196 -45 24 -81 47 -79 52 2 6 402 231 732 410 279 152
418 231 421 240 2 6 3 250 2 543 l-3 532 -180 -101 c-99 -55 -250 -140 -335
-188 -85 -48 -177 -100 -205 -115 -27 -15 -99 -56 -160 -90 -276 -156 -897
-504 -985 -553 -25 -13 -60 -33 -77 -44 l-33 -20 0 -617 0 -617 153 -78 c83
-43 202 -104 262 -136 124 -65 523 -270 603 -311 l53 -26 -48 -30 c-26 -17
-113 -67 -193 -112 l-144 -81 -338 170 c-186 93 -340 170 -343 170 -3 0 -5
-232 -5 -515 0 -283 2 -515 5 -515 3 0 71 38 152 84 82 46 168 95 193 109 25
14 89 50 144 81 54 31 100 56 103 56 2 0 21 11 41 25 20 14 43 25 52 25 17 0
500 -241 500 -250 0 -3 -75 -48 -166 -100 -92 -52 -187 -107 -213 -122 -25
-15 -57 -33 -71 -41 -14 -7 -88 -50 -165 -94 -77 -44 -156 -90 -175 -100 -19
-11 -138 -80 -265 -153 -126 -73 -251 -144 -276 -158 l-47 -25 -223 128 c-123
71 -262 151 -309 177 -47 27 -92 53 -100 58 -21 13 -525 301 -597 341 -32 17
-70 40 -85 50 -14 11 -28 19 -30 19 -3 0 -72 39 -154 86 -82 47 -167 96 -189
109 -22 12 -69 39 -105 60 -36 21 -85 49 -110 63 -25 13 -49 28 -55 32 -5 5
-30 19 -55 32 -25 13 -145 82 -267 152 l-223 128 0 674 c0 371 4 674 9 674 4
0 50 -24 102 -54 52 -29 123 -69 159 -89 l65 -36 5 -417 5 -418 60 -34 c33
-18 89 -50 125 -69 36 -20 70 -39 75 -43 6 -4 51 -29 100 -55 50 -27 105 -57
123 -67 17 -10 47 -26 65 -36 27 -16 313 -174 457 -254 25 -14 194 -108 375
-208 182 -101 355 -197 385 -213 30 -17 87 -48 125 -70 39 -22 73 -42 78 -44
4 -2 7 250 7 560 l0 565 -102 58 c-108 60 -468 261 -553 309 -266 149 -988
553 -1017 569 l-38 21 0 218 0 217 49 -24 c27 -14 71 -38 99 -55 27 -16 76
-44 108 -62 33 -17 129 -71 214 -119 85 -48 175 -98 200 -112 25 -14 61 -34
80 -45 19 -11 58 -32 85 -47 142 -80 331 -185 423 -237 57 -33 105 -59 107
-59 2 0 32 -16 66 -36 81 -48 272 -154 276 -154 2 0 2 253 1 561 -3 487 -5
563 -18 570 -47 27 -302 170 -340 191 -58 32 -407 228 -492 276 -18 11 -89 50
-158 89 -113 64 -403 227 -490 276 -67 38 -196 110 -255 142 -33 18 -96 54
-140 79 l-80 46 -5 -409 -5 -408 -165 93 -165 93 -3 670 c-1 369 0 671 3 671
3 0 243 -131 533 -292z m135 -913 c32 -19 60 -35 62 -35 3 0 26 -13 52 -28 27
-16 93 -54 148 -85 55 -30 276 -154 490 -275 215 -120 415 -233 445 -249 30
-17 82 -46 115 -65 l60 -34 3 -257 2 -258 -42 24 c-205 115 -542 304 -578 324
-25 13 -52 28 -60 33 -18 12 -346 196 -445 250 -38 21 -126 70 -195 109 l-125
69 -3 256 c-1 141 1 256 5 256 5 0 34 -16 66 -35z m3737 -192 l0 -228 -33 -19
c-17 -11 -66 -37 -107 -59 -41 -22 -92 -51 -112 -64 -21 -12 -40 -23 -43 -23
-3 0 -56 -29 -118 -64 -61 -34 -148 -82 -192 -106 -44 -23 -93 -50 -110 -60
-33 -19 -97 -54 -195 -108 -36 -19 -78 -43 -95 -52 -16 -10 -55 -31 -85 -48
-30 -16 -121 -66 -202 -111 -81 -44 -149 -81 -153 -81 -3 0 -4 100 -3 222 l3
222 175 99 c96 54 209 117 250 140 41 22 92 51 112 64 21 13 40 23 42 23 3 0
71 38 152 85 81 47 149 85 150 85 2 0 86 47 186 104 101 57 215 120 253 141
39 21 79 44 90 52 11 7 23 13 27 13 5 0 8 -102 8 -227z m-3705 -1393 c33 -18
116 -65 185 -103 69 -39 145 -81 170 -95 25 -14 79 -44 120 -67 75 -42 104
-59 190 -107 25 -14 188 -105 363 -203 l317 -177 0 -254 c0 -140 -3 -254 -6
-254 -3 0 -51 25 -107 57 -56 31 -127 69 -157 86 -30 16 -68 38 -85 47 -30 18
-43 25 -160 90 -33 18 -91 50 -128 71 -38 22 -70 39 -72 39 -2 0 -42 23 -90
50 -48 28 -88 50 -90 50 -2 0 -72 39 -157 86 -84 48 -187 105 -228 127 -41 22
-95 52 -120 67 l-45 26 -3 263 -2 264 22 -15 c13 -8 50 -30 83 -48z m2338
-1171 c26 -13 47 -26 47 -29 0 -3 -29 -22 -65 -42 l-65 -37 0 75 c0 68 2 74
18 66 9 -4 38 -19 65 -33z"/>
</g>
</svg>
