<svg xmlns="http://www.w3.org/2000/svg" xmlns:xlink="http://www.w3.org/1999/xlink" viewBox="0 0 581.95 562.9"><defs><style>.cls-1{fill:#414042;}.cls-2{fill:#a6a8ab;}.cls-3{fill:url(#linear-gradient);}.cls-4{fill:url(#linear-gradient-2);}.cls-5{fill:url(#linear-gradient-3);}.cls-6{fill:url(#linear-gradient-4);}.cls-7{fill:url(#Ciao);}.cls-8{fill:url(#linear-gradient-5);}.cls-9{fill:url(#linear-gradient-6);}.cls-10{fill:url(#linear-gradient-7);}</style><linearGradient id="linear-gradient" x1="268.02" y1="165.31" x2="268.02" y2="298.34" gradientUnits="userSpaceOnUse"><stop offset="0" stop-color="#292929"/><stop offset="1"/></linearGradient><linearGradient id="linear-gradient-2" x1="312.13" y1="110.31" x2="312.13" y2="153.31" xlink:href="#linear-gradient"/><linearGradient id="linear-gradient-3" x1="288.65" y1="382.3" x2="288.65" y2="491.96" xlink:href="#linear-gradient"/><linearGradient id="linear-gradient-4" x1="291.17" y1="96.31" x2="291.17" y2="584.45" gradientUnits="userSpaceOnUse"><stop offset="0" stop-color="#9e9e9e"/><stop offset="1" stop-color="#2b2b2b"/></linearGradient><linearGradient id="Ciao" x1="84.66" y1="444.31" x2="84.66" y2="548.54" xlink:href="#linear-gradient"/><linearGradient id="linear-gradient-5" x1="183.78" y1="388.3" x2="183.78" y2="503.8" xlink:href="#linear-gradient"/><linearGradient id="linear-gradient-6" x1="393.16" y1="154.31" x2="393.16" y2="473.46" xlink:href="#linear-gradient"/><linearGradient id="linear-gradient-7" x1="494.6" y1="459.31" x2="494.6" y2="585.98" xlink:href="#linear-gradient"/></defs><title>A</title><rect class="cls-1" x="227.6" y="17.43" width="133.96" height="125.36"/><polygon class="cls-2" points="290.57 108.33 290.58 233.7 216.82 404.64 216.81 279.27 290.57 108.33"/><polygon class="cls-3" points="290.34 158.38 290.35 283.75 245.69 387.23 245.68 261.87 290.34 158.38"/><polygon class="cls-2" points="362.54 279.3 362.55 404.66 290.58 233.7 290.57 108.33 362.54 279.3"/><polygon class="cls-4" points="333.91 261.88 333.92 387.24 290.35 283.75 290.34 158.38 333.91 261.88"/><rect class="cls-1" x="216.81" y="279.29" width="145.74" height="125.36"/><rect class="cls-2" x="184.39" y="352.95" width="208.65" height="125.36"/><polygon class="cls-1" points="227.6 17.42 227.61 142.78 30.28 545.38 30.27 420.01 227.6 17.42"/><rect class="cls-2" x="30.28" y="420.03" width="125.19" height="125.36"/><polygon class="cls-2" points="184.39 352.93 184.4 478.29 155.47 545.4 155.46 420.04 184.39 352.93"/><polygon class="cls-2" points="421.23 420.09 421.24 545.45 393.04 478.33 393.03 352.97 421.23 420.09"/><polygon class="cls-1" points="552.06 420.11 552.07 545.47 361.56 142.8 361.55 17.44 552.06 420.11"/><rect class="cls-2" x="421.24" y="420.1" width="130.83" height="125.36"/><path class="cls-1" d="M375,0l207,437.51-174.69,0-28.2-67.13-180.82,0-28.91,67.11L0,437.43,214.39,0ZM393,353l28.2,67.12,130.83,0L361.55,17.44l-134,0L30.27,420l125.19,0,28.93-67.11L393,353"/><path class="cls-1" d="M216.81,279.27l73.76-170.94,72,171Zm28.87-17.4h88.23l-43.57-103.5L245.68,261.87"/><rect class="cls-5" x="198.24" y="370.36" width="180.82" height="125.36"/><path class="cls-6" d="M361.55,17.44,552.06,420.11l-130.83,0L393,353l-208.64,0L155.46,420,30.27,420,227.6,17.42ZM216.81,279.27l145.73,0-72-171L216.81,279.27"/><rect class="cls-7" x="0.01" y="437.45" width="169.32" height="125.36"/><polygon class="cls-8" points="198.23 370.35 198.24 495.71 169.33 562.83 169.32 437.46 198.23 370.35"/><polygon class="cls-9" points="407.25 437.51 407.26 562.87 379.06 495.74 379.05 370.38 407.25 437.51"/><rect class="cls-10" x="407.25" y="437.52" width="174.69" height="125.36"/></svg>
