<?xml version="1.0" encoding="UTF-8"?>
<svg id="Layer_1" xmlns="http://www.w3.org/2000/svg" xmlns:xlink="http://www.w3.org/1999/xlink" version="1.1" viewBox="0 0 2015.9 893.9">
  <!-- Generator: Adobe Illustrator 30.0.0, SVG Export Plug-In . SVG Version: 2.1.1 Build 123)  -->
  <defs>
    <style>
      .st0 {
        opacity: .6;
      }

      .st0, .st1 {
        isolation: isolate;
      }

      .st2 {
        fill: url(#linear-gradient2);
      }

      .st3 {
        fill: url(#linear-gradient1);
      }

      .st4 {
        fill: url(#linear-gradient9);
      }

      .st5 {
        fill: url(#linear-gradient3);
      }

      .st6 {
        fill: url(#linear-gradient6);
      }

      .st7 {
        fill: url(#linear-gradient8);
      }

      .st8 {
        fill: url(#linear-gradient7);
      }

      .st9 {
        fill: url(#linear-gradient5);
      }

      .st10 {
        fill: url(#linear-gradient4);
      }

      .st11 {
        fill: url(#linear-gradient31);
      }

      .st12 {
        fill: url(#linear-gradient30);
      }

      .st13 {
        fill: url(#linear-gradient38);
      }

      .st14 {
        fill: url(#linear-gradient32);
      }

      .st15 {
        fill: url(#linear-gradient61);
      }

      .st16 {
        fill: url(#linear-gradient60);
      }

      .st17 {
        fill: url(#linear-gradient62);
      }

      .st18 {
        fill: url(#linear-gradient69);
      }

      .st19 {
        fill: url(#linear-gradient65);
      }

      .st20 {
        fill: url(#linear-gradient68);
      }

      .st21 {
        fill: url(#linear-gradient67);
      }

      .st22 {
        fill: url(#linear-gradient64);
      }

      .st23 {
        fill: url(#linear-gradient63);
      }

      .st24 {
        fill: url(#linear-gradient66);
      }

      .st25 {
        fill: url(#linear-gradient71);
      }

      .st26 {
        fill: url(#linear-gradient70);
      }

      .st27 {
        fill: url(#linear-gradient39);
      }

      .st28 {
        fill: url(#linear-gradient34);
      }

      .st29 {
        fill: url(#linear-gradient37);
      }

      .st30 {
        fill: url(#linear-gradient35);
      }

      .st31 {
        fill: url(#linear-gradient33);
      }

      .st32 {
        fill: url(#linear-gradient36);
      }

      .st33 {
        fill: url(#linear-gradient80);
      }

      .st34 {
        fill: url(#linear-gradient81);
      }

      .st35 {
        fill: url(#linear-gradient40);
      }

      .st36 {
        fill: url(#linear-gradient41);
      }

      .st37 {
        fill: url(#linear-gradient42);
      }

      .st38 {
        fill: url(#linear-gradient46);
      }

      .st39 {
        fill: url(#linear-gradient48);
      }

      .st40 {
        fill: url(#linear-gradient43);
      }

      .st41 {
        fill: url(#linear-gradient44);
      }

      .st42 {
        fill: url(#linear-gradient47);
      }

      .st43 {
        fill: url(#linear-gradient45);
      }

      .st44 {
        fill: url(#linear-gradient49);
      }

      .st45 {
        fill: url(#linear-gradient79);
      }

      .st46 {
        fill: url(#linear-gradient78);
      }

      .st47 {
        fill: url(#linear-gradient77);
      }

      .st48 {
        fill: url(#linear-gradient76);
      }

      .st49 {
        fill: url(#linear-gradient75);
      }

      .st50 {
        fill: url(#linear-gradient73);
      }

      .st51 {
        fill: url(#linear-gradient74);
      }

      .st52 {
        fill: url(#linear-gradient72);
      }

      .st53 {
        fill: url(#linear-gradient50);
      }

      .st54 {
        fill: url(#linear-gradient51);
      }

      .st55 {
        fill: url(#linear-gradient52);
      }

      .st56 {
        fill: url(#linear-gradient59);
      }

      .st57 {
        fill: url(#linear-gradient53);
      }

      .st58 {
        fill: url(#linear-gradient56);
      }

      .st59 {
        fill: url(#linear-gradient54);
      }

      .st60 {
        fill: url(#linear-gradient57);
      }

      .st61 {
        fill: url(#linear-gradient55);
      }

      .st62 {
        fill: url(#linear-gradient58);
      }

      .st63 {
        fill: url(#linear-gradient28);
      }

      .st64 {
        fill: url(#linear-gradient29);
      }

      .st65 {
        fill: url(#linear-gradient18);
      }

      .st66 {
        fill: url(#linear-gradient13);
      }

      .st67 {
        fill: url(#linear-gradient12);
      }

      .st68 {
        fill: url(#linear-gradient15);
      }

      .st69 {
        fill: url(#linear-gradient16);
      }

      .st70 {
        fill: url(#linear-gradient11);
      }

      .st71 {
        fill: url(#linear-gradient10);
      }

      .st72 {
        fill: url(#linear-gradient17);
      }

      .st73 {
        fill: url(#linear-gradient14);
      }

      .st74 {
        fill: url(#linear-gradient19);
      }

      .st75 {
        fill: url(#linear-gradient23);
      }

      .st76 {
        fill: url(#linear-gradient22);
      }

      .st77 {
        fill: url(#linear-gradient24);
      }

      .st78 {
        fill: url(#linear-gradient25);
      }

      .st79 {
        fill: url(#linear-gradient21);
      }

      .st80 {
        fill: url(#linear-gradient20);
      }

      .st81 {
        fill: url(#linear-gradient27);
      }

      .st82 {
        fill: url(#linear-gradient26);
      }

      .st83 {
        fill: #d3d0c4;
      }

      .st84 {
        fill: #414042;
      }

      .st85 {
        fill: url(#linear-gradient);
      }
    </style>
    <linearGradient id="linear-gradient" x1="852.2" y1="319.6" x2="1142.4" y2="319.6" gradientTransform="translate(0 896) scale(1 -1)" gradientUnits="userSpaceOnUse">
      <stop offset="0" stop-color="#fff" stop-opacity="0"/>
      <stop offset="1" stop-color="#fff" stop-opacity="0"/>
    </linearGradient>
    <linearGradient id="linear-gradient1" x1="1106" y1="319.2" x2="1416.1" y2="319.2" gradientTransform="translate(0 896) scale(1 -1)" gradientUnits="userSpaceOnUse">
      <stop offset="0" stop-color="#fff" stop-opacity="0"/>
      <stop offset="1" stop-color="#fff" stop-opacity="0"/>
    </linearGradient>
    <linearGradient id="linear-gradient2" x1="1593.5" y1="319.2" x2="1891.7" y2="319.2" gradientTransform="translate(0 896) scale(1 -1)" gradientUnits="userSpaceOnUse">
      <stop offset="0" stop-color="#fff" stop-opacity="0"/>
      <stop offset="1" stop-color="#fff" stop-opacity="0"/>
    </linearGradient>
    <linearGradient id="linear-gradient3" x1="218.5" y1="319.2" x2="626.7" y2="319.2" gradientTransform="translate(0 896) scale(1 -1)" gradientUnits="userSpaceOnUse">
      <stop offset="0" stop-color="#fff" stop-opacity="0"/>
      <stop offset="1" stop-color="#fff" stop-opacity="0"/>
    </linearGradient>
    <linearGradient id="linear-gradient4" x1="645.5" y1="319.2" x2="923.3" y2="319.2" gradientTransform="translate(0 896) scale(1 -1)" gradientUnits="userSpaceOnUse">
      <stop offset="0" stop-color="#fff" stop-opacity="0"/>
      <stop offset="1" stop-color="#fff" stop-opacity="0"/>
    </linearGradient>
    <linearGradient id="linear-gradient5" x1="1368.2" y1="319.2" x2="1580" y2="319.2" gradientTransform="translate(0 896) scale(1 -1)" gradientUnits="userSpaceOnUse">
      <stop offset="0" stop-color="#fff" stop-opacity="0"/>
      <stop offset="1" stop-color="#fff" stop-opacity="0"/>
    </linearGradient>
    <linearGradient id="linear-gradient6" x1="218.5" y1="318.6" x2="626.7" y2="318.6" gradientTransform="translate(0 896) scale(1 -1)" gradientUnits="userSpaceOnUse">
      <stop offset="0" stop-color="#cecece"/>
      <stop offset="1" stop-color="#000"/>
    </linearGradient>
    <linearGradient id="linear-gradient7" x1="241.2" y1="504" x2="384.5" y2="504" gradientTransform="translate(0 896) scale(1 -1)" gradientUnits="userSpaceOnUse">
      <stop offset="0" stop-color="#cecece"/>
      <stop offset="1" stop-color="#000"/>
    </linearGradient>
    <linearGradient id="linear-gradient8" x1="483" y1="504" x2="626.7" y2="504" gradientTransform="translate(0 896) scale(1 -1)" gradientUnits="userSpaceOnUse">
      <stop offset="0" stop-color="#cecece"/>
      <stop offset="1" stop-color="#000"/>
    </linearGradient>
    <linearGradient id="linear-gradient9" x1="154" y1="370.7" x2="305.6" y2="370.7" gradientTransform="translate(0 896) scale(1 -1)" gradientUnits="userSpaceOnUse">
      <stop offset="0" stop-color="#cecece"/>
      <stop offset="1" stop-color="#000"/>
    </linearGradient>
    <linearGradient id="linear-gradient10" x1="285.9" y1="334" x2="448.2" y2="606.6" gradientUnits="userSpaceOnUse">
      <stop offset="0" stop-color="#cecece"/>
      <stop offset="1" stop-color="#000"/>
    </linearGradient>
    <linearGradient id="linear-gradient11" x1="350.3" y1="425.1" x2="547.4" y2="425.1" gradientTransform="translate(0 896) scale(1 -1)" gradientUnits="userSpaceOnUse">
      <stop offset="0" stop-color="#cecece"/>
      <stop offset="1" stop-color="#000"/>
    </linearGradient>
    <linearGradient id="linear-gradient12" x1="268.7" y1="690.1" x2="297.1" y2="361.8" gradientUnits="userSpaceOnUse">
      <stop offset="0" stop-color="#cecece"/>
      <stop offset="1" stop-color="#000"/>
    </linearGradient>
    <linearGradient id="linear-gradient13" x1="314.6" y1="733.3" x2="-8.9" y2="482.1" gradientTransform="translate(1.6 -.5) rotate(.1)" gradientUnits="userSpaceOnUse">
      <stop offset="0" stop-color="#cecece"/>
      <stop offset="1" stop-color="#000"/>
    </linearGradient>
    <linearGradient id="linear-gradient14" x1="274.7" y1="336.4" x2="364.2" y2="336.4" gradientTransform="translate(0 896) scale(1 -1)" gradientUnits="userSpaceOnUse">
      <stop offset="0" stop-color="#cecece"/>
      <stop offset="1" stop-color="#000"/>
    </linearGradient>
    <linearGradient id="linear-gradient15" x1="425.3" y1="694.1" x2="170.5" y2="467.7" gradientUnits="userSpaceOnUse">
      <stop offset="0" stop-color="#cecece"/>
      <stop offset="1" stop-color="#000"/>
    </linearGradient>
    <linearGradient id="linear-gradient16" x1="396.2" y1="724.3" x2="512.3" y2="277.5" gradientUnits="userSpaceOnUse">
      <stop offset="0" stop-color="#cecece"/>
      <stop offset="1" stop-color="#000"/>
    </linearGradient>
    <linearGradient id="linear-gradient17" x1="410.6" y1="322.9" x2="531.3" y2="322.9" gradientTransform="translate(0 896) scale(1 -1)" gradientUnits="userSpaceOnUse">
      <stop offset="0" stop-color="#cecece"/>
      <stop offset="1" stop-color="#000"/>
    </linearGradient>
    <linearGradient id="linear-gradient18" x1="154" y1="422.7" x2="562.2" y2="422.7" gradientTransform="translate(0 896) scale(1 -1)" gradientUnits="userSpaceOnUse">
      <stop offset="0" stop-color="#9e9e9e"/>
      <stop offset="1" stop-color="#e5e5e5"/>
    </linearGradient>
    <linearGradient id="linear-gradient19" x1="707.8" y1="597" x2="310.5" y2="415.6" gradientUnits="userSpaceOnUse">
      <stop offset="0" stop-color="#cecece"/>
      <stop offset="1" stop-color="#000"/>
    </linearGradient>
    <linearGradient id="linear-gradient20" x1="616.1" y1="760.7" x2="200.1" y2="459.7" gradientUnits="userSpaceOnUse">
      <stop offset="0" stop-color="#fff"/>
      <stop offset="1" stop-color="#000"/>
    </linearGradient>
    <linearGradient id="linear-gradient21" x1="645.5" y1="318.6" x2="923.3" y2="318.6" gradientTransform="translate(0 896) scale(1 -1)" gradientUnits="userSpaceOnUse">
      <stop offset="0" stop-color="#cecece"/>
      <stop offset="1" stop-color="#000"/>
    </linearGradient>
    <linearGradient id="linear-gradient22" x1="852.1" y1="319" x2="1142.4" y2="319" gradientTransform="translate(0 896) scale(1 -1)" gradientUnits="userSpaceOnUse">
      <stop offset="0" stop-color="#cecece"/>
      <stop offset="1" stop-color="#000"/>
    </linearGradient>
    <linearGradient id="linear-gradient23" x1="581" y1="504" x2="718.8" y2="504" gradientTransform="translate(0 896) scale(1 -1)" gradientUnits="userSpaceOnUse">
      <stop offset="0" stop-color="#cecece"/>
      <stop offset="1" stop-color="#000"/>
    </linearGradient>
    <linearGradient id="linear-gradient24" x1="785.6" y1="504" x2="923.3" y2="504" gradientTransform="translate(0 896) scale(1 -1)" gradientUnits="userSpaceOnUse">
      <stop offset="0" stop-color="#cecece"/>
      <stop offset="1" stop-color="#000"/>
    </linearGradient>
    <linearGradient id="linear-gradient25" x1="653.8" y1="338" x2="740.9" y2="537.1" gradientUnits="userSpaceOnUse">
      <stop offset="0" stop-color="#cecece"/>
      <stop offset="1" stop-color="#000"/>
    </linearGradient>
    <linearGradient id="linear-gradient26" x1="686.6" y1="446.4" x2="850" y2="446.4" gradientTransform="translate(0 896) scale(1 -1)" gradientUnits="userSpaceOnUse">
      <stop offset="0" stop-color="#cecece"/>
      <stop offset="1" stop-color="#000"/>
    </linearGradient>
    <linearGradient id="linear-gradient27" x1="1105.9" y1="318.6" x2="1416.1" y2="318.6" gradientTransform="translate(0 896) scale(1 -1)" gradientUnits="userSpaceOnUse">
      <stop offset="0" stop-color="#cecece"/>
      <stop offset="1" stop-color="#000"/>
    </linearGradient>
    <linearGradient id="linear-gradient28" x1="581" y1="413.3" x2="694.5" y2="413.3" gradientTransform="translate(0 896) scale(1 -1)" gradientUnits="userSpaceOnUse">
      <stop offset="0" stop-color="#cecece"/>
      <stop offset="1" stop-color="#000"/>
    </linearGradient>
    <linearGradient id="linear-gradient29" x1="907.7" y1="582" x2="642.8" y2="302" gradientUnits="userSpaceOnUse">
      <stop offset="0" stop-color="#cecece"/>
      <stop offset="1" stop-color="#000"/>
    </linearGradient>
    <linearGradient id="linear-gradient30" x1="605.2" y1="279.9" x2="694.5" y2="279.9" gradientTransform="translate(0 896) scale(1 -1)" gradientUnits="userSpaceOnUse">
      <stop offset="0" stop-color="#cecece"/>
      <stop offset="1" stop-color="#000"/>
    </linearGradient>
    <linearGradient id="linear-gradient31" x1="839.7" y1="446.4" x2="1037.2" y2="446.4" gradientTransform="translate(0 896) scale(1 -1)" gradientUnits="userSpaceOnUse">
      <stop offset="0" stop-color="#cecece"/>
      <stop offset="1" stop-color="#000"/>
    </linearGradient>
    <linearGradient id="linear-gradient32" x1="1045.5" y1="374.7" x2="902.8" y2="520.5" gradientUnits="userSpaceOnUse">
      <stop offset="0" stop-color="#cecece"/>
      <stop offset="1" stop-color="#000"/>
    </linearGradient>
    <linearGradient id="linear-gradient33" x1="581" y1="422.7" x2="858.8" y2="422.7" gradientTransform="translate(0 896) scale(1 -1)" gradientUnits="userSpaceOnUse">
      <stop offset="0" stop-color="#9e9e9e"/>
      <stop offset="1" stop-color="#e5e5e5"/>
    </linearGradient>
    <linearGradient id="linear-gradient34" x1="848.9" y1="709.2" x2="383.1" y2="363.1" gradientUnits="userSpaceOnUse">
      <stop offset="0" stop-color="#cecece"/>
      <stop offset=".7" stop-color="#000"/>
    </linearGradient>
    <linearGradient id="linear-gradient35" x1="770.4" y1="733.7" x2="446" y2="481.2" gradientUnits="userSpaceOnUse">
      <stop offset="0" stop-color="#cecece"/>
      <stop offset="1" stop-color="#000"/>
    </linearGradient>
    <linearGradient id="linear-gradient36" x1="972.7" y1="493.9" x2="1142.4" y2="493.9" gradientTransform="translate(0 896) scale(1 -1)" gradientUnits="userSpaceOnUse">
      <stop offset="0" stop-color="#cecece"/>
      <stop offset="1" stop-color="#000"/>
    </linearGradient>
    <linearGradient id="linear-gradient37" x1="1368.1" y1="318.6" x2="1580" y2="318.6" gradientTransform="translate(0 896) scale(1 -1)" gradientUnits="userSpaceOnUse">
      <stop offset="0" stop-color="#cecece"/>
      <stop offset="1" stop-color="#000"/>
    </linearGradient>
    <linearGradient id="linear-gradient38" x1="787.6" y1="303.5" x2="892.9" y2="303.5" gradientTransform="translate(0 896) scale(1 -1)" gradientUnits="userSpaceOnUse">
      <stop offset="0" stop-color="#cecece"/>
      <stop offset="1" stop-color="#000"/>
    </linearGradient>
    <linearGradient id="linear-gradient39" x1="1073.1" y1="401.7" x2="930.4" y2="547.5" gradientUnits="userSpaceOnUse">
      <stop offset="0" stop-color="#cecece"/>
      <stop offset="1" stop-color="#000"/>
    </linearGradient>
    <linearGradient id="linear-gradient40" x1="1017.7" y1="416.5" x2="1128.3" y2="460.1" gradientUnits="userSpaceOnUse">
      <stop offset="0" stop-color="#cecece"/>
      <stop offset="1" stop-color="#000"/>
    </linearGradient>
    <linearGradient id="linear-gradient41" x1="816.7" y1="385.8" x2="1026.4" y2="702.3" gradientUnits="userSpaceOnUse">
      <stop offset="0" stop-color="#cecece"/>
      <stop offset="1" stop-color="#000"/>
    </linearGradient>
    <linearGradient id="linear-gradient42" x1="842.4" y1="368.8" x2="1052.2" y2="685.2" gradientUnits="userSpaceOnUse">
      <stop offset="0" stop-color="#cecece"/>
      <stop offset="1" stop-color="#000"/>
    </linearGradient>
    <linearGradient id="linear-gradient43" x1="921.8" y1="390.9" x2="1098.6" y2="390.9" gradientTransform="translate(0 896) scale(1 -1)" gradientUnits="userSpaceOnUse">
      <stop offset="0" stop-color="#cecece"/>
      <stop offset="1" stop-color="#000"/>
    </linearGradient>
    <linearGradient id="linear-gradient44" x1="828.4" y1="310.4" x2="1025.9" y2="310.4" gradientTransform="translate(0 896) scale(1 -1)" gradientUnits="userSpaceOnUse">
      <stop offset="0" stop-color="#cecece"/>
      <stop offset="1" stop-color="#000"/>
    </linearGradient>
    <linearGradient id="linear-gradient45" x1="1130.2" y1="504" x2="1416.1" y2="504" gradientTransform="translate(0 896) scale(1 -1)" gradientUnits="userSpaceOnUse">
      <stop offset="0" stop-color="#cecece"/>
      <stop offset="1" stop-color="#000"/>
    </linearGradient>
    <linearGradient id="linear-gradient46" x1="925.8" y1="739.1" x2="973.8" y2="401.3" gradientUnits="userSpaceOnUse">
      <stop offset="0" stop-color="#cecece"/>
      <stop offset="1" stop-color="#000"/>
    </linearGradient>
    <linearGradient id="linear-gradient47" x1="1041.5" y1="370.7" x2="1194.7" y2="370.7" gradientTransform="translate(0 896) scale(1 -1)" gradientUnits="userSpaceOnUse">
      <stop offset="0" stop-color="#cecece"/>
      <stop offset="1" stop-color="#000"/>
    </linearGradient>
    <linearGradient id="linear-gradient48" x1="1157.6" y1="391.2" x2="1245.6" y2="530.8" gradientUnits="userSpaceOnUse">
      <stop offset="0" stop-color="#cecece"/>
      <stop offset="1" stop-color="#000"/>
    </linearGradient>
    <linearGradient id="linear-gradient49" x1="787.7" y1="423.1" x2="1077.9" y2="423.1" gradientTransform="translate(0 896) scale(1 -1)" gradientUnits="userSpaceOnUse">
      <stop offset="0" stop-color="#9e9e9e"/>
      <stop offset="1" stop-color="#e5e5e5"/>
    </linearGradient>
    <linearGradient id="linear-gradient50" x1="1310.9" y1="399.2" x2="1393.6" y2="425.9" gradientUnits="userSpaceOnUse">
      <stop offset="0" stop-color="#cecece"/>
      <stop offset="1" stop-color="#000"/>
    </linearGradient>
    <linearGradient id="linear-gradient51" x1="1300.5" y1="544.7" x2="1277.4" y2="299.4" gradientUnits="userSpaceOnUse">
      <stop offset="0" stop-color="#cecece"/>
      <stop offset="1" stop-color="#000"/>
    </linearGradient>
    <linearGradient id="linear-gradient52" x1="1392.4" y1="504" x2="1530.2" y2="504" gradientTransform="translate(0 896) scale(1 -1)" gradientUnits="userSpaceOnUse">
      <stop offset="0" stop-color="#cecece"/>
      <stop offset="1" stop-color="#000"/>
    </linearGradient>
    <linearGradient id="linear-gradient53" x1="1168.2" y1="398.6" x2="1366.7" y2="398.6" gradientTransform="translate(0 896) scale(1 -1)" gradientUnits="userSpaceOnUse">
      <stop offset="0" stop-color="#cecece"/>
      <stop offset="1" stop-color="#000"/>
    </linearGradient>
    <linearGradient id="linear-gradient54" x1="1096.2" y1="502.4" x2="1210" y2="613.5" gradientUnits="userSpaceOnUse">
      <stop offset="0" stop-color="#cecece"/>
      <stop offset="1" stop-color="#000"/>
    </linearGradient>
    <linearGradient id="linear-gradient55" x1="1261.1" y1="642.2" x2="1232.7" y2="430.6" gradientUnits="userSpaceOnUse">
      <stop offset="0" stop-color="#cecece"/>
      <stop offset="1" stop-color="#000"/>
    </linearGradient>
    <linearGradient id="linear-gradient56" x1="1275.5" y1="508.9" x2="1358.2" y2="535.6" gradientUnits="userSpaceOnUse">
      <stop offset="0" stop-color="#cecece"/>
      <stop offset="1" stop-color="#000"/>
    </linearGradient>
    <linearGradient id="linear-gradient57" x1="1132.8" y1="292.9" x2="1349.7" y2="292.9" gradientTransform="translate(0 896) scale(1 -1)" gradientUnits="userSpaceOnUse">
      <stop offset="0" stop-color="#cecece"/>
      <stop offset="1" stop-color="#000"/>
    </linearGradient>
    <linearGradient id="linear-gradient58" x1="1185" y1="781.8" x2="1188.6" y2="458.3" gradientUnits="userSpaceOnUse">
      <stop offset="0" stop-color="#cecece"/>
      <stop offset="1" stop-color="#000"/>
    </linearGradient>
    <linearGradient id="linear-gradient59" x1="1259.7" y1="655.6" x2="1378.8" y2="595.1" gradientUnits="userSpaceOnUse">
      <stop offset="0" stop-color="#cecece"/>
      <stop offset="1" stop-color="#000"/>
    </linearGradient>
    <linearGradient id="linear-gradient60" x1="1041.5" y1="422.7" x2="1351.6" y2="422.7" gradientTransform="translate(0 896) scale(1 -1)" gradientUnits="userSpaceOnUse">
      <stop offset="0" stop-color="#9e9e9e"/>
      <stop offset="1" stop-color="#e5e5e5"/>
    </linearGradient>
    <linearGradient id="linear-gradient61" x1="1303.7" y1="370.7" x2="1456.9" y2="370.7" gradientTransform="translate(0 896) scale(1 -1)" gradientUnits="userSpaceOnUse">
      <stop offset="0" stop-color="#cecece"/>
      <stop offset="1" stop-color="#000"/>
    </linearGradient>
    <linearGradient id="linear-gradient62" x1="1645.7" y1="582" x2="1204.8" y2="373.1" gradientUnits="userSpaceOnUse">
      <stop offset="0" stop-color="#cecece"/>
      <stop offset="1" stop-color="#000"/>
    </linearGradient>
    <linearGradient id="linear-gradient63" x1="1396.6" y1="296.7" x2="1580" y2="296.7" gradientTransform="translate(0 896) scale(1 -1)" gradientUnits="userSpaceOnUse">
      <stop offset="0" stop-color="#cecece"/>
      <stop offset="1" stop-color="#000"/>
    </linearGradient>
    <linearGradient id="linear-gradient64" x1="1448.6" y1="611.8" x2="1587.3" y2="638.5" gradientUnits="userSpaceOnUse">
      <stop offset="0" stop-color="#cecece"/>
      <stop offset="1" stop-color="#000"/>
    </linearGradient>
    <linearGradient id="linear-gradient65" x1="1430.6" y1="784.5" x2="1434.2" y2="460.9" gradientUnits="userSpaceOnUse">
      <stop offset="0" stop-color="#cecece"/>
      <stop offset="1" stop-color="#000"/>
    </linearGradient>
    <linearGradient id="linear-gradient66" x1="1303.7" y1="422.7" x2="1515.5" y2="422.7" gradientTransform="translate(0 896) scale(1 -1)" gradientUnits="userSpaceOnUse">
      <stop offset="0" stop-color="#9e9e9e"/>
      <stop offset="1" stop-color="#e5e5e5"/>
    </linearGradient>
    <linearGradient id="linear-gradient67" x1="1593.5" y1="318.6" x2="1891.6" y2="318.6" gradientTransform="translate(0 896) scale(1 -1)" gradientUnits="userSpaceOnUse">
      <stop offset="0" stop-color="#cecece"/>
      <stop offset="1" stop-color="#000"/>
    </linearGradient>
    <linearGradient id="linear-gradient68" x1="1617.8" y1="504" x2="1891.6" y2="504" gradientTransform="translate(0 896) scale(1 -1)" gradientUnits="userSpaceOnUse">
      <stop offset="0" stop-color="#cecece"/>
      <stop offset="1" stop-color="#000"/>
    </linearGradient>
    <linearGradient id="linear-gradient69" x1="1529.1" y1="370.7" x2="1682.3" y2="370.7" gradientTransform="translate(0 896) scale(1 -1)" gradientUnits="userSpaceOnUse">
      <stop offset="0" stop-color="#cecece"/>
      <stop offset="1" stop-color="#000"/>
    </linearGradient>
    <linearGradient id="linear-gradient70" x1="1835.7" y1="605" x2="1545" y2="341" gradientUnits="userSpaceOnUse">
      <stop offset="0" stop-color="#cecece"/>
      <stop offset="1" stop-color="#000"/>
    </linearGradient>
    <linearGradient id="linear-gradient71" x1="1858.6" y1="422.9" x2="1679.9" y2="355.4" gradientUnits="userSpaceOnUse">
      <stop offset="0" stop-color="#cecece"/>
      <stop offset="1" stop-color="#000"/>
    </linearGradient>
    <linearGradient id="linear-gradient72" x1="1811.7" y1="648.9" x2="1723.7" y2="192.1" gradientUnits="userSpaceOnUse">
      <stop offset="0" stop-color="#cecece"/>
      <stop offset="1" stop-color="#000"/>
    </linearGradient>
    <linearGradient id="linear-gradient73" x1="1652.9" y1="389.1" x2="1843.1" y2="389.1" gradientTransform="translate(0 896) scale(1 -1)" gradientUnits="userSpaceOnUse">
      <stop offset="0" stop-color="#cecece"/>
      <stop offset="1" stop-color="#000"/>
    </linearGradient>
    <linearGradient id="linear-gradient74" x1="1669.3" y1="766" x2="1461.3" y2="453.1" gradientUnits="userSpaceOnUse">
      <stop offset="0" stop-color="#cecece"/>
      <stop offset="1" stop-color="#000"/>
    </linearGradient>
    <linearGradient id="linear-gradient75" x1="1749.3" y1="700.1" x2="1458.6" y2="436.1" gradientUnits="userSpaceOnUse">
      <stop offset="0" stop-color="#cecece"/>
      <stop offset="1" stop-color="#000"/>
    </linearGradient>
    <linearGradient id="linear-gradient76" x1="1529.1" y1="422.7" x2="1827.2" y2="422.7" gradientTransform="translate(0 896) scale(1 -1)" gradientUnits="userSpaceOnUse">
      <stop offset="0" stop-color="#9e9e9e"/>
      <stop offset="1" stop-color="#e5e5e5"/>
    </linearGradient>
    <linearGradient id="linear-gradient77" x1="1814.5" y1="539.5" x2="1635.9" y2="472" gradientUnits="userSpaceOnUse">
      <stop offset="0" stop-color="#cecece"/>
      <stop offset="1" stop-color="#000"/>
    </linearGradient>
    <linearGradient id="linear-gradient78" x1="1748.6" y1="661.1" x2="1660.6" y2="204.2" gradientUnits="userSpaceOnUse">
      <stop offset="0" stop-color="#cecece"/>
      <stop offset="1" stop-color="#000"/>
    </linearGradient>
    <linearGradient id="linear-gradient79" x1="581" y1="422.7" x2="858.8" y2="422.7" gradientTransform="translate(0 896) scale(1 -1)" gradientUnits="userSpaceOnUse">
      <stop offset="0" stop-color="#9e9e9e"/>
      <stop offset="1" stop-color="#e5e5e5"/>
    </linearGradient>
    <linearGradient id="linear-gradient80" x1="1303.7" y1="422.7" x2="1515.5" y2="422.7" gradientTransform="translate(0 896) scale(1 -1)" gradientUnits="userSpaceOnUse">
      <stop offset="0" stop-color="#9e9e9e"/>
      <stop offset="1" stop-color="#e5e5e5"/>
    </linearGradient>
    <linearGradient id="linear-gradient81" x1="154" y1="422.7" x2="562.2" y2="422.7" gradientTransform="translate(0 896) scale(1 -1)" gradientUnits="userSpaceOnUse">
      <stop offset="0" stop-color="#9e9e9e"/>
      <stop offset="1" stop-color="#e5e5e5"/>
    </linearGradient>
  </defs>
  <image class="st0" width="1915" height="516" transform="translate(147.5 368.5)" xlink:href="about-1.png"/>
  <path class="st85" d="M1037.2,438.5c19.6,0,39.1,2.7,57.8,8.2,18.5,5.5,34.3,12.7,47.3,21.9l-40.8,55.5c-13.2-8.7-27.5-15.6-42.5-20.7-15.7-5.5-29.4-8.2-40.8-8.2s-17,1.7-23,5c-6,3.3-9.7,8.1-11,14.4-1.3,8.1,1.8,14.3,9.1,18.6,7.3,4.3,19.4,9,36.1,14.1s30.4,10.1,41.2,15c10.6,4.9,19.8,12.5,26.5,22.1,6.9,9.8,9.4,22.5,7.5,38.2-2.4,19.5-9.9,36.2-22.4,50s-28.5,24.2-47.8,31.2c-20.1,7.1-41.4,10.6-62.7,10.5-22.8.1-45.5-3.8-67-11.4-21.2-7.6-38.8-18.1-52.6-31.6l40.8-54.8c11.3,11.9,25.8,21.7,43.4,29.5s33.9,11.6,48.8,11.6c11.7,0,21.2-2.1,28.4-6.3,6.9-3.7,11.5-10.6,12.3-18.5.8-5.1-.9-10.3-4.7-13.9-4.3-4-9.4-7-14.9-8.9-6.1-2.3-15-5.2-26.5-8.8-16.8-4.6-30.5-9.3-41.1-14.1-10.5-4.7-19.5-12-26.2-21.3-6.9-9.3-9.4-21.6-7.5-36.9,2-17.7,9.3-34.4,21.1-47.7,11.8-13.6,27.3-24.1,46.5-31.6,19.2-7.5,40.8-11.2,64.8-11.2Z"/>
  <polygon class="st3" points="1416.1 443.4 1397.7 499 1249.6 499 1232.7 548.8 1366.8 548.8 1348.4 604 1214.3 604 1197.3 654.6 1349.8 654.6 1331.3 710.1 1106 710.1 1194.8 443.4 1416.1 443.4"/>
  <polygon class="st2" points="1891.7 443.4 1873.2 499 1737.1 499 1717.4 558.3 1843.1 558.3 1824.7 613.9 1699 613.9 1666.8 710.1 1593.5 710.1 1682.3 443.4 1891.7 443.4"/>
  <polygon class="st5" points="626.7 443.4 539.5 710.1 475.1 710.1 531.3 538.9 411.1 683.5 364.3 683.5 339.2 538.5 283 710.1 218.5 710.1 305.7 443.4 384.5 443.4 414.8 601.3 547.5 443.4 626.7 443.4"/>
  <polygon class="st10" points="923.3 443.4 768.2 624.5 742.9 710.1 669.6 710.1 694.5 624.9 645.5 443.4 718.8 443.4 751.1 558.7 850.1 443.4 923.3 443.4"/>
  <polygon class="st9" points="1530.2 443.4 1461.1 650.8 1580 650.8 1560.3 710.1 1368.2 710.1 1456.9 443.4 1530.2 443.4"/>
  <g class="st1">
    <polygon class="st6" points="626.7 444.1 539.5 710.7 475.1 710.7 531.3 539.5 411.1 684.1 364.2 684.1 339.2 539.2 282.9 710.7 218.5 710.7 305.6 444.1 384.5 444.1 414.8 601.9 547.4 444.1 626.7 444.1"/>
    <polygon class="st8" points="241.2 339.9 320 339.9 384.5 444.1 305.6 444.1 241.2 339.9"/>
    <polygon class="st7" points="483 339.9 562.2 339.9 626.7 444.1 547.4 444.1 483 339.9"/>
    <polygon class="st4" points="154 606.6 241.2 339.9 305.6 444.1 218.5 710.7 154 606.6"/>
    <polygon class="st71" points="320 339.9 384.5 444.1 414.8 601.9 350.3 497.8 320 339.9"/>
    <polygon class="st70" points="350.3 497.8 483 339.9 547.4 444.1 414.8 601.9 350.3 497.8"/>
    <polygon class="st67" points="274.7 435 339.2 539.2 282.9 710.7 218.5 606.6 274.7 435"/>
    <polygon class="st66" points="218.6 606.6 282.8 710.9 218.4 710.7 154.1 606.5 218.6 606.6"/>
    <polygon class="st73" points="299.8 580 274.7 435 339.2 539.2 364.2 684.1 299.8 580"/>
    <polygon class="st68" points="346.6 580 411.1 684.1 364.2 684.1 299.8 580 346.6 580"/>
    <polygon class="st69" points="466.8 435.4 531.3 539.5 411.1 684.1 346.6 580 466.8 435.4"/>
    <polygon class="st72" points="410.6 606.6 466.8 435.4 531.3 539.5 475.1 710.7 410.6 606.6"/>
    <polygon class="st65" points="562.2 339.9 475.1 606.6 410.6 606.6 466.8 435.4 346.6 580 299.8 580 274.7 435 218.5 606.6 154 606.6 241.2 339.9 320 339.9 350.3 497.8 483 339.9 562.2 339.9"/>
    <polygon class="st74" points="562.2 339.9 626.7 444.1 539.5 710.7 475.1 606.6 562.2 339.9"/>
    <polygon class="st80" points="475.1 606.6 539.5 710.7 475.1 710.7 410.6 606.6 475.1 606.6"/>
  </g>
  <g class="st1">
    <polygon class="st79" points="923.3 444.1 768.2 625.1 742.9 710.7 669.6 710.7 694.5 625.5 645.5 444.1 718.8 444.1 751 559.3 850 444.1 923.3 444.1"/>
    <path class="st76" d="M1037.2,439.1c19.6,0,39,2.7,57.8,8.2,18.5,5.5,34.3,12.7,47.4,21.9l-40.8,55.5c-13.2-8.7-27.5-15.6-42.5-20.7-15.7-5.5-29.4-8.2-40.8-8.2-9.3,0-17,1.6-23,5s-9.7,8.1-11,14.5c-1.3,8.1,1.8,14.3,9.1,18.6,7.3,4.3,19.4,9,36.1,14.1,16.7,5.1,30.5,10.1,41.2,15,10.6,4.9,19.8,12.5,26.5,22.1,6.9,9.8,9.4,22.5,7.5,38.2-2.4,19.5-9.8,36.2-22.3,50s-28.5,24.2-47.8,31.2c-20.1,7.1-41.4,10.6-62.7,10.5-22.8.1-45.5-3.8-67-11.4-21.2-7.6-38.7-18.1-52.6-31.6l40.8-54.8c11.3,11.9,25.8,21.8,43.4,29.5,17.6,7.7,33.9,11.6,48.8,11.6,11.7,0,21.2-2.1,28.4-6.3,6.9-3.7,11.5-10.7,12.3-18.5.8-5.1-.9-10.3-4.7-13.9-4.3-4-9.4-7-14.9-8.9-6.1-2.3-15-5.2-26.5-8.8-16.8-4.6-30.5-9.3-41.1-14.1-10.5-4.7-19.5-12-26.2-21.3-6.9-9.4-9.4-21.7-7.5-36.9,2-17.7,9.3-34.4,21.1-47.8,11.8-13.6,27.3-24.1,46.5-31.6,19.2-7.5,40.8-11.2,64.8-11.2Z"/>
    <polygon class="st75" points="581 339.9 654.3 339.9 718.8 444.1 645.5 444.1 581 339.9"/>
    <polygon class="st77" points="785.6 339.9 858.8 339.9 923.3 444.1 850 444.1 785.6 339.9"/>
    <polygon class="st78" points="654.3 339.9 718.8 444.1 751 559.3 686.6 455.2 654.3 339.9"/>
    <polygon class="st82" points="686.6 455.2 785.6 339.9 850 444.1 751 559.3 686.6 455.2"/>
    <polygon class="st81" points="1416.1 444.1 1397.7 499.6 1249.6 499.6 1232.6 549.4 1366.7 549.4 1348.3 604.6 1214.2 604.6 1197.2 655.2 1349.7 655.2 1331.3 710.7 1105.9 710.7 1194.7 444.1 1416.1 444.1"/>
    <polygon class="st63" points="630 521.4 581 339.9 645.5 444.1 694.5 625.5 630 521.4"/>
    <polygon class="st64" points="858.8 339.9 923.3 444.1 768.2 625.1 703.7 521 858.8 339.9"/>
    <polygon class="st12" points="605.2 606.6 630 521.4 694.5 625.5 669.6 710.7 605.2 606.6"/>
    <path class="st11" d="M846.2,460c-5.6-9-7.5-20.5-5.8-34.5,2-17.7,9.4-34.3,21.1-47.7,11.8-13.6,27.3-24.1,46.5-31.6,19.2-7.5,40.8-11.2,64.8-11.2l64.5,104.1c-24,0-45.6,3.7-64.8,11.2-19.2,7.5-34.7,18-46.5,31.6-11.7,13.4-19.1,30.1-21.1,47.8-1.7,13.9.2,25.4,5.8,34.5l-64.5-104.1Z"/>
    <path class="st14" d="M986.3,527.3l-64.5-104.1c-2.1-3.6-2.9-7.9-2.1-12.1l64.5,104.1c-.8,4.1,0,8.4,2.1,12.1Z"/>
    <polygon class="st31" points="858.8 339.9 703.7 521 678.4 606.6 605.2 606.6 630 521.4 581 339.9 654.3 339.9 686.6 455.2 785.6 339.9 858.8 339.9"/>
    <polygon class="st28" points="703.7 521 768.2 625.1 742.9 710.7 678.4 606.6 703.7 521"/>
    <polygon class="st30" points="678.4 606.6 742.9 710.7 669.6 710.7 605.2 606.6 678.4 606.6"/>
    <path class="st32" d="M972.7,335c19.6,0,39.1,2.7,57.8,8.2,18.6,5.5,34.3,12.7,47.4,21.9l64.5,104.1c-13-9.1-28.8-16.4-47.4-21.9-18.8-5.5-38.3-8.2-57.8-8.2l-64.5-104.1Z"/>
    <polygon class="st29" points="1530.2 444.1 1461.1 651.4 1580 651.4 1560.3 710.7 1368.1 710.7 1456.9 444.1 1530.2 444.1"/>
    <polygon class="st13" points="787.6 567.8 828.4 513 892.9 617.2 852.1 671.9 787.6 567.8"/>
    <path class="st27" d="M1037.1,420.6l64.5,104.1c-13.2-8.7-27.5-15.6-42.5-20.7-15.7-5.5-29.4-8.2-40.8-8.2-9.3,0-17,1.6-23,5s-9.7,8.1-11,14.5l-64.5-104.1c1.3-6.3,5-11.2,11-14.5s13.7-4.9,23-5c11.5,0,25.1,2.7,40.8,8.2,15,5.1,29.3,12.1,42.5,20.7Z"/>
    <polygon class="st35" points="1077.9 365 1142.4 469.2 1101.6 524.7 1037.1 420.6 1077.9 365"/>
    <path class="st36" d="M910.6,564.1l-64.5-104.1c.5.8,1.1,1.6,1.6,2.4,6.7,9.3,15.7,16.6,26.2,21.3,10.7,4.8,24.4,9.5,41.1,14.1l64.5,104.1c-16.8-4.6-30.5-9.3-41.1-14.1-10.5-4.7-19.5-12-26.2-21.3-.6-.8-1.1-1.6-1.7-2.4Z"/>
    <path class="st37" d="M959.2,518.7l64.5,104.1c-.7-1.2-1.6-2.3-2.6-3.2-4.3-4-9.4-7-14.9-8.9-6.1-2.3-15-5.2-26.5-8.8l-64.5-104.1c11.6,3.5,20.4,6.5,26.5,8.8,5.5,1.9,10.6,5,14.9,8.9,1,1,1.9,2,2.6,3.2Z"/>
    <path class="st40" d="M921.8,423.2c1.8,2.7,4.2,5,7.1,6.6,7.3,4.3,19.4,9,36.1,14.1,16.7,5.1,30.5,10.1,41.2,15,10.6,4.9,19.8,12.5,26.5,22.1.5.7,1,1.4,1.4,2.1l64.5,104.1c-.4-.7-.9-1.4-1.4-2.1-6.7-9.5-15.9-17.1-26.5-22-10.7-5-24.5-10-41.2-15-16.7-5-28.8-9.7-36.1-14.1-2.9-1.6-5.3-3.8-7.1-6.5l-64.5-104.2Z"/>
    <path class="st41" d="M1023.7,622.8c1.9,3.2,2.7,7,2.1,10.7-.8,7.8-5.4,14.7-12.3,18.5-7.2,4.2-16.6,6.3-28.4,6.3-15,0-31.2-3.9-48.8-11.6-17.6-7.7-32.1-17.6-43.4-29.5l-64.5-104.2c11.3,11.9,25.8,21.7,43.4,29.5,17.6,7.7,33.9,11.6,48.8,11.6s21.2-2.1,28.4-6.3c6.9-3.7,11.5-10.6,12.3-18.5.6-3.7-.2-7.5-2.1-10.7l64.5,104.2Z"/>
    <polygon class="st43" points="1130.2 339.9 1351.6 339.9 1416.1 444.1 1194.7 444.1 1130.2 339.9"/>
    <path class="st38" d="M1034.1,483l64.5,104.1c5.9,9.5,7.9,21.5,6.1,36.1-2.4,19.5-9.8,36.2-22.3,50-12.5,13.8-28.5,24.2-47.8,31.2-20.1,7.1-41.4,10.6-62.7,10.5-22.8.1-45.5-3.8-67-11.4-21.2-7.6-38.7-18.1-52.6-31.6l-64.5-104.1c13.8,13.4,31.4,24,52.6,31.6,21.5,7.7,44.2,11.5,67,11.4,22.4,0,43.3-3.5,62.7-10.5,19.4-7,35.4-17.4,47.9-31.2,12.5-13.8,20-30.5,22.4-50,1.8-14.6-.2-26.7-6.1-36.1Z"/>
    <polygon class="st42" points="1041.5 606.6 1130.2 339.9 1194.7 444.1 1105.9 710.7 1041.5 606.6"/>
    <polygon class="st39" points="1185.1 395.5 1249.6 499.6 1232.6 549.4 1168.2 445.3 1185.1 395.5"/>
    <path class="st44" d="M972.7,335c19.6,0,39.1,2.7,57.8,8.2,18.6,5.5,34.3,12.7,47.4,21.9l-40.8,55.5c-13.2-8.7-27.5-15.7-42.5-20.7-15.7-5.5-29.4-8.2-40.8-8.2-9.3,0-17,1.6-23,5s-9.7,8.1-11,14.5c-1.3,8.1,1.8,14.3,9.1,18.6s19.4,9,36.1,14.1c16.7,5.1,30.5,10.1,41.2,15,10.6,4.9,19.8,12.5,26.5,22.1,7,9.8,9.5,22.5,7.5,38.2-2.4,19.5-9.8,36.2-22.3,50-12.5,13.8-28.5,24.2-47.9,31.3-19.4,7-40.3,10.5-62.7,10.5-22.8.1-45.5-3.8-67-11.4-21.2-7.6-38.7-18.1-52.6-31.6l40.7-54.8c11.3,11.9,25.8,21.7,43.4,29.5,17.6,7.7,33.9,11.6,48.8,11.6s21.2-2.1,28.4-6.3c6.9-3.7,11.5-10.6,12.3-18.5.8-5.1-.9-10.3-4.7-13.9-4.3-4-9.4-7-14.9-8.9-6.1-2.3-15-5.2-26.5-8.8-16.8-4.5-30.5-9.2-41.1-14-10.4-4.7-19.5-12-26.2-21.3-6.8-9.4-9.3-21.7-7.5-36.9,2-17.7,9.4-34.3,21.1-47.7,11.8-13.6,27.3-24.1,46.5-31.6,19.2-7.5,40.8-11.2,64.8-11.2Z"/>
    <polygon class="st53" points="1351.6 339.9 1416.1 444.1 1397.7 499.6 1333.2 395.5 1351.6 339.9"/>
    <polygon class="st54" points="1333.2 395.5 1397.7 499.6 1249.6 499.6 1185.1 395.5 1333.2 395.5"/>
    <polygon class="st55" points="1392.4 339.9 1465.7 339.9 1530.2 444.1 1456.9 444.1 1392.4 339.9"/>
    <polygon class="st57" points="1168.2 445.3 1302.3 445.3 1366.7 549.4 1232.6 549.4 1168.2 445.3"/>
    <polygon class="st59" points="1149.8 500.5 1214.2 604.6 1197.2 655.2 1132.8 551.1 1149.8 500.5"/>
    <polygon class="st61" points="1283.9 500.5 1348.3 604.6 1214.2 604.6 1149.8 500.5 1283.9 500.5"/>
    <polygon class="st58" points="1302.3 445.3 1366.7 549.4 1348.3 604.6 1283.9 500.5 1302.3 445.3"/>
    <polygon class="st60" points="1132.8 551.1 1285.3 551.1 1349.7 655.2 1197.2 655.2 1132.8 551.1"/>
    <polygon class="st62" points="1266.9 606.6 1331.3 710.7 1105.9 710.7 1041.5 606.6 1266.9 606.6"/>
    <polygon class="st56" points="1285.3 551.1 1349.7 655.2 1331.3 710.7 1266.9 606.6 1285.3 551.1"/>
    <polygon class="st16" points="1351.6 339.9 1333.2 395.5 1185.1 395.5 1168.2 445.3 1302.3 445.3 1283.9 500.5 1149.8 500.5 1132.8 551.1 1285.3 551.1 1266.9 606.6 1041.5 606.6 1130.2 339.9 1351.6 339.9"/>
    <polygon class="st15" points="1303.7 606.6 1392.4 339.9 1456.9 444.1 1368.1 710.7 1303.7 606.6"/>
    <polygon class="st17" points="1465.7 339.9 1530.2 444.1 1461.1 651.4 1396.6 547.3 1465.7 339.9"/>
    <polygon class="st23" points="1396.6 547.3 1515.5 547.3 1580 651.4 1461.1 651.4 1396.6 547.3"/>
    <polygon class="st22" points="1515.5 547.3 1580 651.4 1560.3 710.7 1495.8 606.6 1515.5 547.3"/>
    <polygon class="st19" points="1495.8 606.6 1560.3 710.7 1368.1 710.7 1303.7 606.6 1495.8 606.6"/>
    <polygon class="st24" points="1465.7 339.9 1396.6 547.3 1515.5 547.3 1495.8 606.6 1303.7 606.6 1392.4 339.9 1465.7 339.9"/>
  </g>
  <g class="st1">
    <polygon class="st21" points="1891.6 444.1 1873.2 499.6 1737.1 499.6 1717.4 559 1843.1 559 1824.7 614.5 1699 614.5 1666.8 710.7 1593.5 710.7 1682.3 444.1 1891.6 444.1"/>
    <polygon class="st20" points="1617.8 339.9 1827.2 339.9 1891.6 444.1 1682.3 444.1 1617.8 339.9"/>
    <polygon class="st18" points="1529.1 606.6 1617.8 339.9 1682.3 444.1 1593.5 710.7 1529.1 606.6"/>
    <polygon class="st26" points="1672.7 395.5 1737.1 499.6 1717.4 559 1652.9 454.8 1672.7 395.5"/>
    <polygon class="st25" points="1827.2 339.9 1891.6 444.1 1873.2 499.6 1808.8 395.5 1827.2 339.9"/>
    <polygon class="st52" points="1808.8 395.5 1873.2 499.6 1737.1 499.6 1672.7 395.5 1808.8 395.5"/>
    <polygon class="st50" points="1652.9 454.8 1778.7 454.8 1843.1 559 1717.4 559 1652.9 454.8"/>
    <polygon class="st51" points="1602.3 606.6 1666.8 710.7 1593.5 710.7 1529.1 606.6 1602.3 606.6"/>
    <polygon class="st49" points="1634.5 510.4 1699 614.5 1666.8 710.7 1602.3 606.6 1634.5 510.4"/>
    <polygon class="st48" points="1827.2 339.9 1808.8 395.5 1672.7 395.5 1652.9 454.8 1778.7 454.8 1760.2 510.4 1634.5 510.4 1602.3 606.6 1529.1 606.6 1617.8 339.9 1827.2 339.9"/>
    <polygon class="st47" points="1778.7 454.8 1843.1 559 1824.7 614.5 1760.2 510.4 1778.7 454.8"/>
    <polygon class="st46" points="1760.2 510.4 1824.7 614.5 1699 614.5 1634.5 510.4 1760.2 510.4"/>
  </g>
  <polygon class="st45" points="858.8 339.9 703.7 521 678.4 606.6 605.2 606.6 630 521.4 581 339.9 654.3 339.9 686.6 455.2 785.6 339.9 858.8 339.9"/>
  <polygon class="st33" points="1465.7 339.9 1396.6 547.3 1515.5 547.3 1495.8 606.6 1303.7 606.6 1392.4 339.9 1465.7 339.9"/>
  <polygon class="st34" points="562.2 339.9 475.1 606.6 410.6 606.6 466.8 435.4 346.6 580 299.8 580 274.7 435 218.5 606.6 154 606.6 241.2 339.9 320 339.9 350.3 497.8 483 339.9 562.2 339.9"/>
  <path class="st84" d="M972.6,347.1c18.4,0,36.8,2.5,54.5,7.7,11.6,3.3,22.8,7.9,33.4,13.7l-26.6,36.2c-11.3-6.5-23.2-11.8-35.5-16.1-17.2-5.9-31.8-8.8-44.8-8.8s-21,2.2-28.8,6.4c-8.8,4.6-15,12.9-17,22.6v.3c0,0-.1.3-.1.3-2,13.1,3.3,24,14.9,30.8,8.2,4.9,20.9,9.8,38.7,15.2,16.2,4.9,29.5,9.8,39.7,14.5,8.7,4,16.3,10.2,21.8,18.1,5.2,7.3,7,17.1,5.4,29.8-2.1,17.2-8.4,31.4-19.3,43.4-11.1,12.3-25.6,21.7-43,28-18.9,6.6-38.7,9.9-58.7,9.8-21.5,0-42.8-3.5-63-10.7-15.7-5.6-29.2-13-40.4-22l26.2-35.2c11.2,9.2,23.7,16.8,37,22.5,19,8.4,37.1,12.6,53.7,12.6s25.4-2.7,34.4-7.9c10.1-5.6,16.9-15.8,18.2-27.4,1.3-8.9-1.8-17.8-8.3-24-5.5-5.1-11.9-9-19-11.5-6.3-2.4-15.2-5.3-27.2-9h-.2c0,0-.2-.1-.2-.1-16.1-4.4-29.3-8.9-39.3-13.4-8.6-3.8-16-9.8-21.5-17.4-5-6.9-6.8-16.2-5.2-28.4,1.7-15.3,8.1-29.8,18.2-41.3,10.5-12,24.5-21.5,41.8-28.3,17.7-6.9,38.1-10.4,60.5-10.4M972.7,335.1c-24,0-45.6,3.7-64.8,11.2-19.2,7.5-34.7,18-46.5,31.6-11.7,13.4-19.1,30-21.1,47.7-1.9,15.2.6,27.5,7.5,36.9,6.7,9.3,15.8,16.6,26.2,21.3,10.6,4.8,24.3,9.5,41.1,14.1,11.6,3.5,20.4,6.5,26.5,8.8,5.5,1.9,10.6,5,14.9,9,3.8,3.6,5.5,8.8,4.7,13.9-.8,7.8-5.4,14.7-12.3,18.5-7.2,4.2-16.6,6.3-28.4,6.3s-31.2-3.9-48.8-11.6c-17.6-7.7-32.1-17.6-43.4-29.5l-40.8,54.8c13.8,13.4,31.4,24,52.6,31.6,21.5,7.7,44.2,11.5,67,11.4,22.4,0,43.3-3.5,62.7-10.5,19.4-7,35.4-17.4,47.9-31.2,12.5-13.8,20-30.5,22.4-50,1.9-15.7-.6-28.5-7.5-38.2-6.7-9.6-15.9-17.2-26.5-22.1-10.7-5-24.5-10-41.2-15-16.7-5-28.7-9.8-36-14.1-7.3-4.3-10.4-10.5-9.1-18.6,1.3-6.3,5-11.2,11-14.5s13.7-4.9,23-5c11.5,0,25.1,2.7,40.8,8.2,15,5.1,29.3,12.1,42.5,20.7l40.8-55.5c-13-9.1-28.8-16.4-47.4-21.9-18.8-5.5-38.3-8.2-57.8-8.2h0Z"/>
  <path class="st84" d="M1334.9,352l-10.5,31.6h-148l-2.8,8.1-16.9,49.9-5.4,15.9h134.2l-10.4,31.1h-134.1l-2.8,8.2-17,50.6-5.3,15.8h152.6l-10.5,31.5h-200.1l80.8-242.7h196.1M1351.5,340h-221.4l-88.8,266.7h225.4l18.4-55.5h-152.5l17-50.6h134.1l18.4-55.2h-134.1l16.9-49.8h148.1l18.4-55.5Z"/>
  <path class="st84" d="M1810.5,352l-10.5,31.6h-136.1l-2.7,8.2-19.7,59.4-5.2,15.8h125.7l-10.5,31.5h-125.7l-2.7,8.2-29.5,88.1h-48l80.8-242.7h184.1M1827.1,340h-209.4l-88.8,266.7h73.2l32.2-96.2h125.7l18.4-55.5h-125.7l19.7-59.4h136.1l18.4-55.5h0Z"/>
  <path class="st84" d="M545.6,352l-79.3,242.7h-39.2l51.1-155.5,19.7-59.9-40.3,48.5-116.6,140.2h-31.1l-23.3-135-8.2-47.5-15,45.8-53.6,163.3h-39.2l79.3-242.7h60.2l28.4,148.1,4.8,24.8,16.2-19.3,129.1-153.6h57.1M562.1,340h-79.3l-132.7,157.9-30.3-157.9h-78.9l-87.2,266.7h64.5l56.3-171.6,25,145h46.8l120.2-144.6-56.2,171.2h64.5l87.2-266.7Z"/>
  <path class="st84" d="M832.7,352l-138.2,161.3-1.7,2-.7,2.5-22.8,77h-48.3l20.3-69.9,1-3.3-.9-3.2-44.9-166.4h48.5l29.8,106.5,6,21.6,14.6-17,95.4-111.1h41.7M858.8,340h-73.3l-99,115.3-32.3-115.3h-73.3l49,181.5-24.9,85.2h73.3l25.3-85.6,155.1-181.1Z"/>
  <path class="st84" d="M1449,352l-63.8,191.6-5.3,15.8h118.9l-11.7,35.3h-166.8l80.8-242.7h48M1465.7,340h-73.2l-88.8,266.7h192.1l19.7-59.3h-118.9l69.1-207.3h0Z"/>
  <g>
    <path class="st83" d="M521.3,243.8c2.3,2.3,3.5,5.5,3.4,8.8.1,3.3-1.1,6.5-3.4,8.9-2.3,2.3-5.5,3.6-8.8,3.5-3.2.1-6.4-1.2-8.7-3.5-2.3-2.4-3.5-5.6-3.4-8.9-.1-3.3,1.1-6.5,3.3-8.8,2.3-2.3,5.5-3.5,8.7-3.4,3.3-.1,6.5,1.1,8.8,3.4Z"/>
    <path class="st83" d="M556.1,243.8c2.3,2.3,3.5,5.5,3.4,8.8.1,3.3-1.1,6.5-3.4,8.9-2.3,2.3-5.5,3.6-8.8,3.5-3.2.1-6.4-1.2-8.7-3.5-2.3-2.4-3.5-5.6-3.4-8.9-.1-3.3,1.1-6.5,3.3-8.8,2.3-2.3,5.5-3.5,8.7-3.4,3.3-.1,6.5,1.1,8.8,3.4Z"/>
    <path class="st83" d="M590.9,243.8c2.3,2.3,3.5,5.5,3.4,8.8.1,3.3-1.1,6.5-3.4,8.9-2.3,2.3-5.5,3.6-8.8,3.5-3.2.1-6.4-1.2-8.7-3.5-2.3-2.4-3.5-5.6-3.4-8.9-.1-3.3,1.1-6.5,3.3-8.8,2.3-2.3,5.5-3.5,8.7-3.4,3.3-.1,6.5,1.1,8.8,3.4Z"/>
    <g>
      <path class="st83" d="M275.5,164.2h28.3l28.8,58.3,28.7-58.3h28.3v99.6h-23v-63.1c-.1,0-25.6,53.1-25.6,53.1h-16.8l-25.6-53.1v63.1h-23.2v-99.6Z"/>
      <path class="st83" d="M408.9,164.2h78.6v20.8h-52.6v18.6h47.5v20.6h-47.5v18.9h54v20.7h-80v-99.6Z"/>
      <path class="st83" d="M632.1,164.2h85.4v21.5h-29.8v78.1h-26v-78.1h-29.5v-21.5Z"/>
      <path class="st83" d="M790.6,263.8l-6.8-17.6h-43l-7,17.6h-26.7l42.8-99.6h26.7l41.8,99.6h-27.7ZM748.5,226.3h27.6l-13.6-35.5-13.9,35.5Z"/>
      <path class="st83" d="M827.2,164.2h26v77.4h42.2v22.2h-68.2v-99.6Z"/>
      <path class="st83" d="M1003,263.8h-31.1l-26.2-38.6-12.5,13.9v24.7h-26v-99.6h26v43.2l37.4-43.2h30.1l-36.9,41.1,39.2,58.5Z"/>
      <path class="st83" d="M1013.6,164.2h26v99.6h-26v-99.6Z"/>
      <path class="st83" d="M1127,164.2h24.2v99.6h-22.7l-45.2-59.5v59.5h-24.2v-99.6h22.9l45.3,60-.2-60Z"/>
      <path class="st83" d="M1236.6,212.9h22.4v39.6c-6,4.2-12.6,7.4-19.5,9.4-7.1,2.3-14.5,3.5-22,3.6-9.5.1-18.9-2.2-27.2-6.8-7.9-4.3-14.5-10.7-19.1-18.5-4.7-8-7.1-17.1-7-26.4-.1-9.2,2.4-18.3,7.2-26.2,4.8-7.8,11.6-14.2,19.8-18.4,8.7-4.5,18.3-6.8,28.1-6.7,7.6,0,15.1,1.4,22.2,4.1,6.9,2.4,13.3,6.1,18.8,10.9l-14.8,18.2c-3.6-3.4-7.8-6.2-12.4-8.1-4.4-1.9-9.1-2.9-13.8-3-10.2,0-19.5,5.4-24.4,14.4-2.5,4.6-3.8,9.7-3.7,14.9,0,5.3,1.2,10.5,3.7,15.1,2.4,4.4,5.9,8.1,10.2,10.6,4.4,2.6,9.4,3.9,14.5,3.8,5,0,10.8-1.6,17.2-4.8v-25.7Z"/>
      <path class="st83" d="M1380.9,263.8l-6.8-17.6h-43.1l-7,17.6h-26.7l42.8-99.6h26.7l41.8,99.6h-27.6ZM1338.8,226.3h27.6l-13.6-35.5-13.9,35.5Z"/>
      <path class="st83" d="M1484.4,167.2c5,1.7,9.5,4.7,12.9,8.7,3,3.8,4.6,8.5,4.6,13.4,0,5-1.5,9.8-4.6,13.7-3.2,4-7.6,6.8-12.6,8,5.9,1,11.2,4,15,8.7,3.7,4.7,5.6,10.5,5.5,16.5,0,5.3-1.6,10.4-4.7,14.7-3.4,4.4-8.1,7.8-13.4,9.7-6.5,2.4-13.4,3.5-20.3,3.3h-49.2v-99.6h47.3c6.6-.2,13.2.9,19.5,3ZM1472,201.2c2.1-1.8,3.3-4.5,3.1-7.3.1-2.7-1-5.3-3.1-7-2.1-1.7-4.9-2.4-8.5-2.4h-19.9v19.3h19.9c3.6,0,6.5-.9,8.6-2.7h0ZM1474.2,240.8c2.6-1.8,4.1-4.8,4-8,0-3-1.5-5.8-4-7.5-2.7-1.9-6.3-2.7-10.8-2.6h-19.9v20.9h19.9c4.6,0,8.2-.9,10.8-2.8h0Z"/>
      <path class="st83" d="M1594.2,169.3c16.4,8.7,26.6,25.9,26.4,44.5.3,18.7-9.9,36.1-26.4,45-17.2,9.1-37.8,9.1-55,0-8-4.3-14.7-10.8-19.3-18.6-4.7-8-7.1-17.2-7-26.5-.3-18.6,9.9-35.8,26.3-44.5,17.3-8.9,37.7-8.9,55,0h0ZM1553.3,188.5c-4.2,2.6-7.7,6.2-10,10.6-4.9,9.3-4.9,20.5,0,29.8,2.4,4.3,5.8,8,10,10.7,4.1,2.6,8.8,3.9,13.6,3.9,4.8,0,9.5-1.3,13.6-3.9,4.1-2.6,7.5-6.3,9.7-10.7,4.8-9.4,4.8-20.5,0-29.8-2.2-4.3-5.6-8-9.7-10.6-4.1-2.5-8.8-3.9-13.6-3.8-4.8,0-9.6,1.3-13.7,3.8h0Z"/>
      <path class="st83" d="M1663.4,237.8c3.7,3.8,8.8,5.9,14.1,5.7,5.1.2,10.1-1.9,13.6-5.6,3.5-3.7,5.2-8.8,5.2-15.1v-58.5h26v58.5c0,8.6-1.8,16.2-5.5,22.7-3.6,6.4-9,11.7-15.6,15-6.8,3.5-14.7,5.3-23.8,5.3s-17.1-1.8-24-5.3c-6.7-3.3-12.2-8.5-15.9-15-3.7-6.5-5.6-14-5.6-22.7v-58.5h26v58.5c0,6.3,1.9,11.3,5.6,15.1Z"/>
      <path class="st83" d="M1731.3,164.2h85.4v21.5h-29.8v78.1h-26v-78.1h-29.6v-21.5Z"/>
      <path class="st83" d="M903.2,5.3c.6,0,1.1.3,1.5.7.4.4.6,1,.5,1.5,0,.6-.3,1.1-.7,1.5-.4.4-1,.6-1.5.6-2.2-.2-4.3,0-6.4.7-2.1.7-4.1,1.6-5.9,2.8,3.2,2,6,4.7,8.1,7.8,1.7,2.5,2.9,5.3,3.7,8.3.9,3.2,1.2,6.6.9,9.9-.3,5.1-1.5,10.1-3.7,14.8-.8,1.8-1.8,3.4-2.9,5-.9,1.2-2,2.4-3.1,3.5-2.4,2.3-5.1,4-8.1,5.2-2.6,1-5.4,1.5-8.2,1.5-2.5,0-5-.8-7.1-2.2-2.1-1.4-3.3-3.8-3.3-6.3,0-1.2.2-2.4.8-3.5.4-.8,1-1.4,1.7-2,1.3-1.2,2.9-1.8,4.7-1.8,1.1,0,2.2.3,3.2,1,.8.6,1.3,1.6,1.3,2.6,0,.6-.2,1.1-.6,1.5-.4.4-1,.6-1.6.6-.9,0-1.8-.5-2.1-1.4-.2,0-.5,0-.7,0-.3,0-.7.2-.9.4-.8.6-1.3,1.6-1.2,2.6,0,.7.2,1.3.6,1.9.4.5.9,1,1.5,1.2.6.3,1.3.6,2,.7.7.2,1.5.3,2.2.3,2.2,0,4.4-.4,6.5-1.2,2.5-1,4.8-2.4,6.7-4.4,2.3-2.3,4.2-5.1,5.5-8.1,1.7-3.9,2.6-8.1,2.8-12.3,1-9.4-3.8-18.5-12.1-23-3,2.6-5.6,5.6-7.9,8.8-2.6,3.7-4.9,7.5-7.1,11.4-2.3,4.1-4.5,8.3-6.6,12.8-2.1,4.4-4.2,8.8-6.2,13.2-2.2,4.9-4.4,9.6-6.6,14s-4.3,8.5-6.6,12.3c-2.2,3.7-4.7,7.2-7.6,10.3-2.1,2.2-4.6,4-7.4,5.2-4.7,1.7-8.9,2.1-12.7,1.2-3.2-.8-6.1-2.6-8.1-5.2-.8-1-1.5-2.1-2-3.2-.5-1.1-.9-2.2-1-3.4-.2-1-.2-2.1,0-3.1,0-.9.4-1.8.9-2.6.3-.5.8-.8,1.3-.9.6-.1,1.2,0,1.6.3.5.3.8.8.9,1.3.1.6,0,1.2-.3,1.6-.2.3-.3.6-.3,1,0,.6,0,1.2.2,1.7.2.7.4,1.4.7,2.1.4.8.9,1.6,1.5,2.3.6.8,1.2,1.4,2,2,1,.7,2.1,1.3,3.2,1.7,1.5.4,3,.6,4.6.5,2.1-.1,4.2-.6,6.1-1.4,2.6-1.1,4.9-2.8,6.7-5,2.4-2.8,4.6-5.8,6.5-9.1,2.1-3.6,4.2-7.6,6.3-12,2.1-4.4,4.2-8.9,6.3-13.6,1.5-3.3,3-6.7,4.6-10,1.6-3.3,3.2-6.6,4.8-9.8,1.6-3.2,3.3-6.3,5.1-9.3s3.6-5.8,5.4-8.4c1.1-1.6,2.4-3.2,3.7-4.7,1.3-1.4,2.5-2.7,3.7-3.9-2.2-.7-4.5-1.2-6.8-1.3-2.3-.1-4.6,0-6.8.6-5.2,1-9.8,3.8-13,7.9-1.7,2.1-3.2,4.4-4.2,6.9-.8,1.9-1.2,3.9-1.3,5.9,0,1.6.1,3.3.7,4.8.4,1.3,1,2.5,1.7,3.6.5.8,1.1,1.6,1.8,2.3.3.3.6.7,1,.9.4.3.7.9.8,1.4,0,.6-.1,1.1-.5,1.6-.4.4-.9.7-1.5.8-.6,0-1.1-.1-1.6-.5-.3-.2-.5-.4-.7-.6-.5-.5-1.1-1.1-1.5-1.7-.7-.8-1.3-1.7-1.8-2.6-.7-1.1-1.3-2.3-1.7-3.5-1.1-3.1-1.3-6.5-.7-9.8,1-4.5,3.1-8.8,6.1-12.3,1.9-2.4,4.3-4.5,6.9-6.1,2.7-1.6,5.6-2.8,8.6-3.4,2.9-.6,5.9-.8,8.9-.6,3,.2,5.9.9,8.7,2,.3.1.5.2.8.3.3-.2.5-.3.7-.5l.7-.5c4.5-3.2,10-4.7,15.5-4.5Z"/>
      <path class="st83" d="M950.5,48.7c.5.2,1,.6,1.2,1.2.2.5.2,1.1,0,1.7-1.5,3.8-3.2,7.4-5.2,10.9-1.7,3-3.7,5.9-6,8.4-4,4.6-8,7.2-12,7.8-3.3.6-6.7-.7-8.8-3.4-1-1.2-1.6-2.7-1.8-4.3-.2-1.7,0-3.4.3-5,.4-1.8.9-3.6,1.7-5.3.8-1.8,1.5-3.6,2.3-5.3.4-.9.8-1.9,1.3-2.9s.8-2,1.1-2.8c.3-.8.5-1.6.7-2.4.2-.6.2-1.2,0-1.7,0,0-.2-.3-.7-.5s-1-.5-1.7-.8-1.4-.6-2.1-.9c-.6-.3-1.2-.6-1.8-.9,0,.2,0,.4-.2.5l-.2.5c-.4,1.1-.8,2.2-1.2,3.2s-.8,2-1.1,2.7-.7,1.4-.9,1.9c-.1.3-.3.5-.3.8-.2.5-.6,1-1.2,1.2-1.1.4-2.4-.2-2.8-1.3-.2-.6-.1-1.2.1-1.7.9-1.9,1.7-3.7,2.4-5.6s1.3-3.5,1.8-5c-2-2-3-3.9-3-5.7-.2-1.5.7-3,2.1-3.6,1-.5,2.1-.7,3.2-.5.7.2,1.3.5,1.8,1,.7.8,1.1,1.7,1.2,2.8,0,1.5,0,3.1-.5,4.6.8.6,1.7,1.1,2.6,1.6,1.1.6,2.2,1,3.3,1.4,1.3.5,2.4,1.4,3,2.7.4.9.5,1.8.5,2.7,0,1.1-.3,2.2-.6,3.2-.4,1.2-.8,2.4-1.3,3.6-.5,1.2-1.1,2.6-1.7,3.9s-1.3,2.9-1.9,4.4c-.6,1.4-1.1,2.8-1.5,4.3-.3,1.2-.5,2.5-.6,3.8,0,1,.3,2.1.9,2.9,1.2,1.5,3.1,2.2,4.9,1.8,1.5-.3,3-.8,4.3-1.7,1.9-1.2,3.6-2.7,5-4.4,2-2.3,3.8-4.8,5.4-7.5,2-3.5,3.8-7.1,5.3-10.9.2-.5.6-1,1.2-1.2.5-.2,1.1-.3,1.6,0Z"/>
      <path class="st83" d="M982.1,48.8c.5.2,1,.6,1.2,1.1.2.5.2,1.1,0,1.7-1.4,3.7-3.2,7.3-5.4,10.7-1.9,3.1-4.2,6-6.8,8.6-2,2.1-4.3,3.8-6.8,5.3-2.1,1.3-4.4,2.2-6.8,2.7-1.9.4-3.9.4-5.8-.2-1.7-.5-3.3-1.5-4.5-2.8-2.5-2.8-3.9-6.4-4.1-10.2-.1-3.7.6-7.4,2-10.8,1.6-4.3,4.1-8.2,7.2-11.6,1.4-1.5,3.1-2.9,4.9-4,1.4-.9,3-1.5,4.6-1.6,1.5-.2,3,.2,4.2,1,1.2.9,2,2.1,2.3,3.5.4,1.6.4,3.3,0,4.9-.3,2-.9,3.8-1.8,5.6-.9,1.9-2.1,3.6-3.4,5.2-1.2,1.3-2.6,2.4-4.3,3.1-.6.3-1.2.5-1.9.6-.7.1-1.5.2-2.3.2-.8,0-1.5,0-2.3-.3-.8-.2-1.5-.5-2.1-1-.9-.7-1.5-1.6-1.8-2.7-.9,2.4-1.3,5-1.2,7.6,0,2.8,1.1,5.4,3,7.5.8.9,1.9,1.5,3.1,1.7,1.1.1,2.2.1,3.2,0,1.8-.4,3.6-1.1,5.2-2.1,2.2-1.2,4.1-2.8,5.9-4.6,2.2-2.3,4.2-4.8,5.9-7.4,2.1-3.3,3.9-6.9,5.4-10.6.2-.5.6-1,1.2-1.2.5-.2,1.1-.2,1.7,0ZM962.4,42c-1,.1-2,.5-2.9,1-1.2.8-2.3,1.6-3.3,2.6-1.2,1.2-2.3,2.5-3.3,3.9-1.1,1.5-2.1,3.2-2.9,4.9.9-.3,1.8,0,2.4.7.4.4.6,1,.5,1.6,0,.2,0,.3.2.5.6.3,1.2.4,1.9.4.8,0,1.6-.1,2.3-.4,1.2-.6,2.3-1.4,3.1-2.4.9-1.1,1.8-2.4,2.4-3.8.6-1.3,1.1-2.7,1.4-4.1.3-1.2.3-2.4.1-3.5,0-.8-.8-1.5-1.7-1.4-.1,0-.2,0-.3,0Z"/>
      <path class="st83" d="M1008.2,48.7c.5.2,1,.6,1.2,1.1.3.5.3,1.1,0,1.6-.2.5-.4.9-.6,1.4-.3.9-.8,2-1.5,3.4s-1.5,2.9-2.5,4.6c-1,1.8-2.2,3.6-3.4,5.2-2.8,3.9-6.4,7.1-10.5,9.6-4.6,2.7-10,3.8-15.3,3l-.5-.2c-.8,0-1.5-.3-2.2-.5-.7-.3-1.5-.6-2.2-.9-2.6-1.4-4.7-3.6-5.9-6.3-1.2-3.1-1-6.5.6-9.4.2-.5.7-.9,1.2-1.1.6-.2,1.2,0,1.7.2.5.2.9.7,1.1,1.2.2.5,0,1.1-.2,1.6-1,1.8-1.2,4-.4,5.9.7,1.8,2.1,3.2,3.8,4.1.9.5,1.9.8,2.9,1,1,.2,2.1.2,3.2,0,2.4-.5,4.4-2.1,5.5-4.2.7-1.3,1.2-2.7,1.5-4.2.2-1.4.2-2.7.1-4.1-.1-1.4-.4-2.7-.7-4.1-.4-1.3-.8-2.7-1.2-4.1l-.7-2.1-.4.9c-.2.5-.6.9-1.1,1-.5.1-1.1,0-1.6-.2-.5-.2-1-.6-1.2-1.2-.2-.5-.2-1.1,0-1.6l3.3-7.4c.4-1.7,1.2-3.3,2.4-4.5.5-.5,1.1-1,1.8-1.3.8-.4,1.7-.5,2.5-.4,1.2,0,2.3.5,3,1.5.4.4.6,1,.5,1.6,0,.6-.4,1.1-.8,1.5-.4.3-1,.5-1.5.4-.6,0-1.1-.3-1.5-.8-.2,0-.4,0-.6.2-.2,0-.4.2-.5.3-.6.7-1.1,1.5-1.3,2.4v.2c-.1,1.2,0,2.4.2,3.6.3,1.3.8,2.9,1.3,4.7.5,1.4.9,2.9,1.3,4.5.4,1.6.7,3.2.8,4.9.1,1.7,0,3.5-.2,5.2-.3,1.9-1,3.7-1.9,5.3l-.2.3c1.9-1,3.7-2.2,5.3-3.7,1.6-1.5,3.1-3,4.4-4.7,1.2-1.6,2.4-3.3,3.4-5,1-1.6,1.8-3.1,2.4-4.5.7-1.3,1.2-2.4,1.5-3.2.2-.4.4-.9.5-1.3.2-.5.6-1,1.1-1.2.5-.2,1.1-.2,1.6,0Z"/>
      <path class="st83" d="M1040,48.8c.5.2,1,.6,1.2,1.1.2.5.2,1.1,0,1.7-1.4,3.7-3.2,7.3-5.3,10.7-1.9,3.1-4.2,6-6.8,8.6-2,2.1-4.3,3.8-6.8,5.3-2.1,1.3-4.4,2.2-6.8,2.7-1.9.4-3.9.4-5.8-.2-1.7-.5-3.3-1.5-4.5-2.8-2.5-2.8-3.9-6.4-4.1-10.2-.1-3.7.6-7.4,2-10.8,1.6-4.3,4.1-8.2,7.2-11.6,1.5-1.5,3.1-2.9,4.9-4,1.4-.9,3-1.5,4.7-1.6,1.5-.2,3,.2,4.2,1,1.2.9,2,2.1,2.3,3.5.4,1.6.4,3.3,0,4.9-.3,1.9-.9,3.8-1.8,5.6-.9,1.9-2.1,3.6-3.5,5.2-1.2,1.3-2.6,2.4-4.3,3.1-.6.3-1.2.5-1.9.6-.7.1-1.5.2-2.3.2-.8,0-1.5,0-2.3-.3-.8-.2-1.5-.5-2.1-1-.9-.7-1.5-1.6-1.8-2.7-.9,2.4-1.3,5-1.2,7.6,0,2.8,1.1,5.4,3,7.5.8.9,1.9,1.5,3.1,1.7,1.1.1,2.2.1,3.2,0,1.8-.4,3.6-1.1,5.2-2.1,2.2-1.2,4.1-2.8,5.9-4.6,2.2-2.3,4.2-4.8,5.9-7.4,2.1-3.3,3.9-6.9,5.3-10.6.2-.5.6-1,1.2-1.2.5-.3,1.2-.2,1.7,0ZM1020.3,42c-1,.1-2,.5-2.8,1-1.2.8-2.3,1.6-3.3,2.6-1.2,1.2-2.3,2.5-3.3,3.9-1.1,1.5-2.1,3.2-2.8,4.9.3,0,.6-.1.9,0,.6,0,1.1.3,1.5.8.4.4.5,1,.4,1.6,0,.2,0,.3.2.5.6.3,1.2.4,1.9.4.8,0,1.6-.1,2.3-.4,1.2-.6,2.3-1.4,3.1-2.4,1.9-2.3,3.2-5,3.8-7.9.3-1.2.3-2.4.1-3.5,0-.8-.8-1.5-1.6-1.4-.1,0-.2,0-.3,0h0Z"/>
      <path class="st83" d="M1082.3,48.8c.5.2,1,.6,1.2,1.1.2.5.2,1.1,0,1.7-3.3,8.2-6.8,14.7-10.6,19.5s-7.6,7.4-11.3,8c-3.2.5-5.8-.7-8-3.4s-2.8-6.4-2-10.8c.4-1.9.9-3.7,1.6-5.4.7-1.8,1.4-3.6,2.2-5.3.5-1.1.9-2.2,1.4-3.4.4-1.1.8-2.1,1.1-3.2.3-.9.4-1.8.5-2.7,0-.7,0-1.4-.5-1.9-.4-.6-1-.9-1.6-.9-1.5.1-2.8.7-4,1.6-1.7,1.2-3.3,2.5-4.7,3.9-1.7,1.6-3.2,3.3-4.7,5.1-1.5,1.8-2.8,3.5-3.9,5-2,6.6-3.7,13.2-5.2,19.8,0,.6-.4,1-.9,1.3-.5.3-1,.4-1.6.3-.6-.1-1.1-.4-1.4-.9-.3-.5-.4-1.1-.3-1.6,1.3-6.5,3-12.9,4.9-19.1,1.9-6.2,4.1-12.3,6.6-18.3.3-1.1,1.5-1.6,2.5-1.3.1,0,.2,0,.3.1.5.2,1,.6,1.2,1.2.2.5.2,1.1,0,1.6l-2.2,5.5c5.4-5.6,9.8-8.4,13.3-8.4,3.3,0,6.1,2.5,6.4,5.8,0,1.3,0,2.5-.3,3.8-.3,1.4-.7,2.8-1.3,4.1-.6,1.4-1.2,2.9-1.8,4.4-.6,1.6-1.2,3.1-1.9,4.7-.6,1.5-1.1,3.1-1.4,4.7-.3,1.4-.4,2.9-.3,4.3,0,1.3.5,2.5,1.3,3.5.9,1.3,2.5,2,4.1,1.8,1.4-.3,2.6-.8,3.8-1.6,1.7-1.2,3.2-2.7,4.5-4.3,1.9-2.4,3.5-4.9,5-7.5,2-3.6,3.7-7.3,5.2-11.1.2-.6.7-1,1.2-1.3.5-.3,1.1-.3,1.7,0Z"/>
      <path class="st83" d="M1109.1,48.8c.5.2.9.6,1.1,1.1.2.5.2,1.1,0,1.7-3.2,8-6.9,14.4-10.9,19.1-3.9,4.5-7.9,7.2-11.8,8-.7.2-1.5.2-2.2.2-2.7.1-5.4-1-7.3-3-2.7-2.7-3.3-7.5-1.8-14.5,1.6-6.5,3.7-12.9,6.5-19l2.1-4.7h-7.4c-1.2,0-2.1-.9-2.1-2.1v-.2c0-.5.3-1,.7-1.4.4-.4.9-.6,1.4-.5h9.5l.3-.6c1-2.1,2-4,3-5.8s1.8-3.3,2.5-4.6c.7-1.3,1.3-2.3,1.7-3.1.3-.4.5-.8.7-1.2.4-.7,1.1-1.1,1.9-1,.4,0,.8,0,1.1.2.5.3.9.8,1,1.3.1.6,0,1.1-.2,1.6-1.2,2-2.4,4.1-3.6,6.3s-2.3,4.5-3.5,6.8h4c.6,0,1.1.2,1.5.6.4.4.7.9.7,1.4v.2c0,.6-.2,1.1-.7,1.5-.4.4-.9.6-1.5.6h-1.4c-.8.1-1.6.1-2.3,0h-2.3c-1.8,3.9-3.5,7.7-5,11.4-1.4,3.4-2.5,6.9-3.5,10.4-.8,2.7-1.3,5.5-1.4,8.3,0,2.4.4,4,1.4,5,1.1,1.2,2.7,1.8,4.4,1.7.4,0,.8,0,1.2-.2,1.5-.4,3-1.1,4.3-2,1.8-1.3,3.5-2.8,4.9-4.5,2-2.3,3.7-4.7,5.2-7.3,2-3.4,3.7-6.9,5.1-10.5.2-.4.5-.8.9-1,.6-.4,1.3-.4,2-.2Z"/>
      <path class="st83" d="M1111.4,38.7c.2-.5.7-.9,1.2-1.1.6-.2,1.2,0,1.7.2.5.3.9.7,1,1.2.2.5.1,1.1-.2,1.6-.5,1-1.2,2.4-2,4-.8,1.6-1.6,3.4-2.3,5.3s-1.5,3.9-2.3,6c-.7,2-1.3,4-1.8,6.1-.4,1.8-.7,3.7-.9,5.5-.2,1.5,0,3,.5,4.4.4,1.1,1.2,1.9,2.2,2.3,1.5.5,3.2.4,4.6-.2,2.1-1,3.9-2.5,5.3-4.4,1.8-2.1,3.4-4.4,4.8-6.8,1.4-2.3,2.7-4.7,3.9-7.2,1.1-2.3,1.9-4.2,2.4-5.6.2-.5.6-1,1.2-1.2.5-.2,1.1-.2,1.7,0,.5.2,1,.6,1.2,1.1.2.5.2,1.1,0,1.7-.1.4-.2.7-.4,1-.3.7-.6,1.5-1.1,2.5s-1,2.2-1.7,3.5-1.4,2.7-2.2,4.2c-4.4,8.1-8.9,13.2-13.4,15.2-2.5,1.2-5.3,1.4-7.9.3-2.2-.8-3.9-2.6-4.6-4.8-1.7-4.5-.7-11.7,3-21.7.7-1.8,1.3-3.4,2-5s1.3-3,1.8-4.2,1-2.2,1.4-2.8c.2-.4.4-.8.7-1.2ZM1116.4,32.2c-.5-.2-1-.6-1.2-1.2-.2-.5-.2-1.1,0-1.6l.7-1.6c.2-.5.6-1,1.2-1.2.5-.2,1.1-.2,1.6,0,.5.2,1,.6,1.2,1.2.2.5.2,1.1,0,1.6l-.7,1.6c-.2.5-.6,1-1.1,1.2-.5.2-1.2.2-1.7,0Z"/>
      <path class="st83" d="M1175,48.8c.5.2,1,.6,1.2,1.1.2.5.2,1.1,0,1.7-3.3,8.2-6.8,14.7-10.6,19.5s-7.6,7.4-11.3,8c-3.1.5-6.2-.9-8-3.4-2.2-2.8-2.9-6.4-2-10.8.4-1.8.9-3.7,1.6-5.4.7-1.8,1.4-3.6,2.2-5.3.5-1.1.9-2.2,1.4-3.4.4-1.1.8-2.1,1.1-3.2.3-.9.4-1.8.5-2.7,0-.7,0-1.4-.5-1.9-.4-.6-1-.9-1.6-.9-1.5.1-2.8.7-4,1.6-1.7,1.2-3.3,2.5-4.7,3.9-1.7,1.6-3.2,3.3-4.7,5.1-1.5,1.8-2.8,3.5-3.9,5-2,6.6-3.7,13.2-5.2,19.8,0,.6-.4,1-.9,1.3-.5.3-1,.4-1.6.3-.6-.1-1.1-.4-1.4-.9-.3-.5-.4-1.1-.3-1.6,1.3-6.5,3-12.9,4.9-19.1,1.9-6.2,4.1-12.3,6.6-18.3.2-.5.6-1,1.1-1.2.5-.2,1.1-.2,1.7,0,.5.2,1,.6,1.2,1.2.2.5.2,1.1,0,1.6l-2.2,5.5c5.3-5.6,9.8-8.4,13.3-8.4,2.1,0,4,1,5.2,2.7.7.9,1.1,2,1.2,3.2.1,1.3,0,2.5-.3,3.8-.3,1.4-.7,2.8-1.3,4.1-.6,1.4-1.2,2.9-1.8,4.4-.6,1.6-1.2,3.1-1.9,4.7-.6,1.5-1.1,3.1-1.4,4.7-.3,1.4-.5,2.9-.3,4.3,0,1.3.5,2.5,1.3,3.5.9,1.3,2.5,2,4.1,1.8,1.4-.3,2.6-.8,3.8-1.6,1.7-1.2,3.2-2.7,4.5-4.3,1.9-2.4,3.5-4.9,5-7.5,2-3.6,3.7-7.3,5.2-11.1.2-.6.7-1,1.2-1.3.5-.3,1.1-.3,1.7,0Z"/>
      <path class="st83" d="M1212.6,48.8c.5.2,1,.6,1.2,1.1.2.5.2,1.1,0,1.7-2,5.2-4.4,10.3-7.1,15.2-1.9,3.6-4.3,6.9-7,9.8-2.2,2.4-4.8,4.3-7.7,5.6-.6.2-1.1.4-1.7.6-.6.2-1.1.3-1.7.4,0,.4-.2.8-.4,1.2-1.4,4-3.5,7.7-6.3,10.9-2.8,3.1-6.7,4.9-10.9,4.9-2.5,0-4.8-.8-6.7-2.3-.9-.8-1.7-1.7-2.3-2.8-.5-1-.8-2.1-.9-3.2,0-.6,0-1.2.2-1.7.1-.8.4-1.5.8-2.2.5-.8,1.1-1.6,1.8-2.3.9-.9,2-1.7,3.1-2.3,2.4-1.3,5.1-2.3,7.8-2.9,3.5-.8,7-1.2,10.6-1.4h0c.5-1.8,1-3.6,1.3-5.4.3-1.8.6-3.6.9-5.4-5.9,7.6-10.7,11-14.5,10.2-1-.2-1.9-.7-2.6-1.3-1-.8-1.8-2.2-2.3-4.3-.5-2.5-.7-5-.3-7.5.3-3.1,1-6.1,2-9,1.1-3.3,2.5-6.4,4.3-9.3,1.6-2.6,3.6-4.8,5.9-6.7,3.4-2.7,6.6-3.7,9.6-2.9,1.1.3,2.1.8,2.9,1.5.7.6,1.4,1.3,2,2,.5.5.9,1.2,1.2,1.8.2.3.3.6.4.9.2.5.2,1.1,0,1.6-.2.5-.7.9-1.2,1.2-.5.2-1.1.2-1.6,0-.5-.2-1-.6-1.2-1.2-.3-.5-.6-1-.9-1.5-.3-.4-.7-.8-1.2-1.2-.5-.4-1-.7-1.6-.8-1.6-.5-3.6.2-5.9,2-2.1,1.8-3.9,3.9-5.3,6.3-1.5,2.5-2.7,5.1-3.6,7.8-.9,2.6-1.4,5.2-1.8,7.9-.3,2.1-.2,4.2.2,6.2.1.5.3.9.5,1.4.2.5.5.8,1,1h.9c.8-.3,1.5-.6,2.1-1.1,1.3-.9,2.5-1.9,3.5-3.1,1.8-2,3.5-4,5.1-6.2,0-.2.4-.6.9-1.4l1.9-2.9c0-1.3.3-2.5.5-3.8.2-1.1.4-1.9.5-2.4,0-.1,0-.3.2-.4,0,0,0-.2,0-.2.4-1.1,1-2.1,1.7-3.1.5-.6,1.2-1,2-1.1.4-.1.9,0,1.3.2.4.2.8.5,1.1.9.6.9.8,2,.6,3-.1,1.2-.5,2.4-1.1,3.4-.4.7-.8,1.5-1.2,2.3s-.9,1.6-1.4,2.4c0,.7,0,1.7-.2,2.9,0,1.2-.2,2.6-.4,4.1s-.4,3.2-.8,5-.7,3.6-1.2,5.5c1.7-.7,3.3-1.7,4.7-2.9,1.8-1.5,3.4-3.3,4.8-5.3,1.9-2.7,3.6-5.5,5-8.4,1.7-3.3,3.5-7.3,5.4-12,.2-.5.6-1,1.1-1.2.6-.2,1.2-.2,1.7,0ZM1170.9,96c1.5,0,2.9-.3,4.2-.9,1.3-.6,2.5-1.5,3.5-2.6,1.1-1.2,2.1-2.5,2.9-3.9.9-1.6,1.7-3.2,2.3-4.8h-.4c-3,.2-6,.6-8.9,1.4-1.9.5-3.8,1.2-5.6,2.2-1.1.6-2.1,1.4-2.8,2.4-.5.6-.7,1.4-.8,2.2,0,1.2.7,2.3,1.7,3,1.1.8,2.5,1.3,3.8,1.2Z"/>
    </g>
  </g>
</svg>