<svg id="Layer_1" data-name="Layer 1" xmlns="http://www.w3.org/2000/svg" xmlns:xlink="http://www.w3.org/1999/xlink" viewBox="0 0 1762.63 714.93"><defs><style>.cls-1{fill:none;}.cls-2{isolation:isolate;}.cls-3{fill:url(#Ciao);}.cls-4{fill:url(#Ciao-2);}.cls-5{fill:url(#Ciao-3);}.cls-6{fill:url(#Ciao-4);}.cls-7{fill:url(#Ciao-5);}.cls-8{fill:url(#Ciao-6);}.cls-9{fill:url(#Ciao-7);}.cls-10{fill:url(#Ciao-8);}.cls-11{fill:url(#Ciao-9);}.cls-12{fill:url(#Ciao-10);}.cls-13{fill:url(#Ciao-11);}.cls-14{fill:url(#Ciao-12);}.cls-15{fill:url(#linear-gradient);}.cls-16{fill:url(#Ciao-13);}.cls-17{fill:url(#Ciao-14);}.cls-18{fill:url(#Ciao-15);}.cls-19{fill:url(#Ciao-16);}.cls-20{fill:url(#Ciao-17);}.cls-21{fill:url(#Ciao-18);}.cls-22{fill:url(#Ciao-19);}.cls-23{fill:url(#Ciao-20);}.cls-24{fill:url(#Ciao-21);}.cls-25{fill:url(#Ciao-22);}.cls-26{fill:url(#Ciao-23);}.cls-27{fill:url(#Ciao-24);}.cls-28{fill:url(#Ciao-25);}.cls-29{fill:url(#Ciao-26);}.cls-30{fill:url(#linear-gradient-2);}.cls-31{fill:url(#Ciao-27);}.cls-32{fill:url(#Ciao-28);}.cls-33{fill:url(#Ciao-29);}.cls-34{fill:url(#Ciao-30);}.cls-35{fill:url(#Ciao-31);}.cls-36{fill:url(#Ciao-32);}.cls-37{fill:url(#Ciao-33);}.cls-38{fill:url(#Ciao-34);}.cls-39{fill:url(#Ciao-35);}.cls-40{fill:url(#Ciao-36);}.cls-41{fill:url(#Ciao-37);}.cls-42{fill:url(#Ciao-38);}.cls-43{fill:url(#Ciao-39);}.cls-44{fill:url(#Ciao-40);}.cls-45{fill:url(#Ciao-41);}.cls-46{fill:url(#linear-gradient-3);}.cls-47{fill:url(#Ciao-42);}.cls-48{fill:url(#Ciao-43);}.cls-49{fill:url(#Ciao-44);}.cls-50{fill:url(#Ciao-45);}.cls-51{fill:url(#Ciao-46);}.cls-52{fill:url(#Ciao-47);}.cls-53{fill:url(#Ciao-48);}.cls-54{fill:url(#Ciao-49);}.cls-55{fill:url(#Ciao-50);}.cls-56{fill:url(#Ciao-51);}.cls-57{fill:url(#linear-gradient-4);}.cls-58{fill:url(#Ciao-52);}.cls-59{fill:url(#Ciao-53);}.cls-60{fill:url(#Ciao-54);}.cls-61{fill:url(#Ciao-55);}.cls-62{fill:url(#Ciao-56);}.cls-63{fill:url(#linear-gradient-5);}.cls-64{fill:url(#Ciao-57);}.cls-65{fill:url(#Ciao-58);}.cls-66{fill:url(#Ciao-59);}.cls-67{fill:url(#Ciao-60);}.cls-68{fill:url(#Ciao-61);}.cls-69{fill:url(#Ciao-62);}.cls-70{fill:url(#Ciao-63);}.cls-71{fill:url(#Ciao-64);}.cls-72{fill:url(#Ciao-65);}.cls-73{fill:url(#linear-gradient-6);}.cls-74{fill:url(#Ciao-66);}.cls-75{fill:url(#Ciao-67);}.cls-76{fill:#181716;}.cls-77{clip-path:url(#clip-path);}.cls-78{fill:#ccc;}.cls-79{fill:#333;}</style><linearGradient id="Ciao" x1="89.47" y1="577.4" x2="497.68" y2="577.4" gradientUnits="userSpaceOnUse"><stop offset="0" stop-color="#292929"/><stop offset="1"/></linearGradient><linearGradient id="Ciao-2" x1="112.17" y1="392" x2="255.49" y2="392" xlink:href="#Ciao"/><linearGradient id="Ciao-3" x1="353.95" y1="392" x2="497.68" y2="392" xlink:href="#Ciao"/><linearGradient id="Ciao-4" x1="25" y1="525.34" x2="176.64" y2="525.34" xlink:href="#Ciao"/><linearGradient id="Ciao-5" x1="191.03" y1="470.94" x2="285.76" y2="470.94" xlink:href="#Ciao"/><linearGradient id="Ciao-6" x1="221.3" y1="470.94" x2="418.42" y2="470.94" xlink:href="#Ciao"/><linearGradient id="Ciao-7" x1="89.45" y1="572.89" x2="210.19" y2="572.89" xlink:href="#Ciao"/><linearGradient id="Ciao-8" x1="25" y1="658.68" x2="153.91" y2="658.68" xlink:href="#Ciao"/><linearGradient id="Ciao-9" x1="145.73" y1="559.58" x2="235.24" y2="559.58" xlink:href="#Ciao"/><linearGradient id="Ciao-10" x1="170.78" y1="632.05" x2="282.08" y2="632.05" xlink:href="#Ciao"/><linearGradient id="Ciao-11" x1="217.61" y1="559.77" x2="402.29" y2="559.77" xlink:href="#Ciao"/><linearGradient id="Ciao-12" x1="281.59" y1="573.08" x2="402.29" y2="573.08" xlink:href="#Ciao"/><linearGradient id="linear-gradient" x1="25" y1="473.28" x2="433.22" y2="473.28" gradientUnits="userSpaceOnUse"><stop offset="0" stop-color="#9e9e9e"/><stop offset="1" stop-color="#2b2b2b"/></linearGradient><linearGradient id="Ciao-13" x1="346.05" y1="525.34" x2="497.68" y2="525.34" xlink:href="#Ciao"/><linearGradient id="Ciao-14" x1="281.59" y1="658.68" x2="410.51" y2="658.68" xlink:href="#Ciao"/><linearGradient id="Ciao-15" x1="516.49" y1="577.4" x2="794.3" y2="577.4" xlink:href="#Ciao"/><linearGradient id="Ciao-16" x1="723.09" y1="577.02" x2="1013.39" y2="577.02" xlink:href="#Ciao"/><linearGradient id="Ciao-17" x1="452.02" y1="392" x2="589.75" y2="392" xlink:href="#Ciao"/><linearGradient id="Ciao-18" x1="656.58" y1="392" x2="794.3" y2="392" xlink:href="#Ciao"/><linearGradient id="Ciao-19" x1="525.28" y1="449.63" x2="622.03" y2="449.63" xlink:href="#Ciao"/><linearGradient id="Ciao-20" x1="557.57" y1="449.63" x2="721.04" y2="449.63" xlink:href="#Ciao"/><linearGradient id="Ciao-21" x1="976.93" y1="577.4" x2="1287.07" y2="577.4" xlink:href="#Ciao"/><linearGradient id="Ciao-22" x1="452.02" y1="482.73" x2="565.47" y2="482.73" xlink:href="#Ciao"/><linearGradient id="Ciao-23" x1="574.71" y1="482.54" x2="794.3" y2="482.54" xlink:href="#Ciao"/><linearGradient id="Ciao-24" x1="476.14" y1="616.08" x2="565.47" y2="616.08" xlink:href="#Ciao"/><linearGradient id="Ciao-25" x1="710.72" y1="449.56" x2="908.19" y2="449.56" xlink:href="#Ciao"/><linearGradient id="Ciao-26" x1="790.48" y1="469.18" x2="857.29" y2="469.18" xlink:href="#Ciao"/><linearGradient id="linear-gradient-2" x1="452.02" y1="473.28" x2="729.84" y2="473.28" xlink:href="#linear-gradient"/><linearGradient id="Ciao-27" x1="549.4" y1="615.88" x2="639.17" y2="615.88" xlink:href="#Ciao"/><linearGradient id="Ciao-28" x1="476.14" y1="658.68" x2="613.86" y2="658.68" xlink:href="#Ciao"/><linearGradient id="Ciao-29" x1="843.72" y1="402.08" x2="1013.39" y2="402.08" xlink:href="#Ciao"/><linearGradient id="Ciao-30" x1="1239.13" y1="577.4" x2="1450.97" y2="577.4" xlink:href="#Ciao"/><linearGradient id="Ciao-31" x1="658.63" y1="592.49" x2="763.84" y2="592.49" xlink:href="#Ciao"/><linearGradient id="Ciao-32" x1="790.76" y1="458.19" x2="972.54" y2="458.19" xlink:href="#Ciao"/><linearGradient id="Ciao-33" x1="908.08" y1="444.88" x2="1013.39" y2="444.88" xlink:href="#Ciao"/><linearGradient id="Ciao-34" x1="717.16" y1="530.97" x2="850.58" y2="530.97" xlink:href="#Ciao"/><linearGradient id="Ciao-35" x1="786.12" y1="560.33" x2="894.65" y2="560.33" xlink:href="#Ciao"/><linearGradient id="Ciao-36" x1="792.83" y1="505.16" x2="969.56" y2="505.16" xlink:href="#Ciao"/><linearGradient id="Ciao-37" x1="699.38" y1="585.64" x2="896.9" y2="585.64" xlink:href="#Ciao"/><linearGradient id="Ciao-38" x1="1001.24" y1="392" x2="1287.07" y2="392" xlink:href="#Ciao"/><linearGradient id="Ciao-39" x1="658.63" y1="598.98" x2="976.29" y2="598.98" xlink:href="#Ciao"/><linearGradient id="Ciao-40" x1="912.47" y1="525.34" x2="1065.7" y2="525.34" xlink:href="#Ciao"/><linearGradient id="Ciao-41" x1="1039.15" y1="472.46" x2="1120.53" y2="472.46" xlink:href="#Ciao"/><linearGradient id="linear-gradient-3" x1="658.63" y1="472.9" x2="948.92" y2="472.9" xlink:href="#linear-gradient"/><linearGradient id="Ciao-42" x1="1204.18" y1="419.77" x2="1287.07" y2="419.77" xlink:href="#Ciao"/><linearGradient id="Ciao-43" x1="1056.07" y1="447.54" x2="1268.65" y2="447.54" xlink:href="#Ciao"/><linearGradient id="Ciao-44" x1="1263.44" y1="392" x2="1401.16" y2="392" xlink:href="#Ciao"/><linearGradient id="Ciao-45" x1="1039.15" y1="497.38" x2="1237.71" y2="497.38" xlink:href="#Ciao"/><linearGradient id="Ciao-46" x1="1003.75" y1="577.84" x2="1085.23" y2="577.84" xlink:href="#Ciao"/><linearGradient id="Ciao-47" x1="1020.77" y1="552.54" x2="1219.33" y2="552.54" xlink:href="#Ciao"/><linearGradient id="Ciao-48" x1="1154.87" y1="524.96" x2="1237.71" y2="524.96" xlink:href="#Ciao"/><linearGradient id="Ciao-49" x1="1003.75" y1="603.14" x2="1220.73" y2="603.14" xlink:href="#Ciao"/><linearGradient id="Ciao-50" x1="912.47" y1="658.68" x2="1202.31" y2="658.68" xlink:href="#Ciao"/><linearGradient id="Ciao-51" x1="1137.84" y1="630.91" x2="1220.73" y2="630.91" xlink:href="#Ciao"/><linearGradient id="linear-gradient-4" x1="912.47" y1="473.28" x2="1222.61" y2="473.28" xlink:href="#linear-gradient"/><linearGradient id="Ciao-52" x1="1174.66" y1="525.34" x2="1327.9" y2="525.34" xlink:href="#Ciao"/><linearGradient id="Ciao-53" x1="1267.61" y1="495.67" x2="1401.16" y2="495.67" xlink:href="#Ciao"/><linearGradient id="Ciao-54" x1="1267.61" y1="599.34" x2="1450.97" y2="599.34" xlink:href="#Ciao"/><linearGradient id="Ciao-55" x1="1366.81" y1="629.01" x2="1450.97" y2="629.01" xlink:href="#Ciao"/><linearGradient id="Ciao-56" x1="1174.66" y1="658.68" x2="1431.27" y2="658.68" xlink:href="#Ciao"/><linearGradient id="linear-gradient-5" x1="1174.66" y1="473.28" x2="1386.51" y2="473.28" xlink:href="#linear-gradient"/><linearGradient id="Ciao-57" x1="1464.49" y1="577.4" x2="1762.63" y2="577.4" xlink:href="#Ciao"/><linearGradient id="Ciao-58" x1="1488.8" y1="392" x2="1762.63" y2="392" xlink:href="#Ciao"/><linearGradient id="Ciao-59" x1="1400.03" y1="525.34" x2="1553.27" y2="525.34" xlink:href="#Ciao"/><linearGradient id="Ciao-60" x1="1523.94" y1="477.22" x2="1608.1" y2="477.22" xlink:href="#Ciao"/><linearGradient id="Ciao-61" x1="1679.74" y1="419.77" x2="1762.63" y2="419.77" xlink:href="#Ciao"/><linearGradient id="Ciao-62" x1="1543.64" y1="447.54" x2="1744.2" y2="447.54" xlink:href="#Ciao"/><linearGradient id="Ciao-63" x1="1523.94" y1="506.89" x2="1714.1" y2="506.89" xlink:href="#Ciao"/><linearGradient id="Ciao-64" x1="1400.03" y1="658.68" x2="1537.75" y2="658.68" xlink:href="#Ciao"/><linearGradient id="Ciao-65" x1="1473.29" y1="610.56" x2="1569.97" y2="610.56" xlink:href="#Ciao"/><linearGradient id="linear-gradient-6" x1="1400.03" y1="473.28" x2="1698.17" y2="473.28" xlink:href="#linear-gradient"/><linearGradient id="Ciao-66" x1="1631.22" y1="534.66" x2="1714.1" y2="534.66" xlink:href="#Ciao"/><linearGradient id="Ciao-67" x1="1505.51" y1="562.44" x2="1695.68" y2="562.44" xlink:href="#Ciao"/><clipPath id="clip-path"><rect class="cls-1" y="477.22" width="1672.93" height="171.96"/></clipPath></defs><title>about</title><g class="cls-2"><polygon class="cls-3" points="497.68 444.06 410.51 710.74 346.06 710.74 402.29 539.55 282.08 684.11 235.24 684.11 210.19 539.17 153.91 710.74 89.47 710.74 176.64 444.06 255.49 444.06 285.76 601.94 418.42 444.06 497.68 444.06"/><polygon class="cls-4" points="112.17 339.93 191.03 339.93 255.49 444.06 176.64 444.06 112.17 339.93"/><polygon class="cls-5" points="353.95 339.93 433.22 339.93 497.68 444.06 418.42 444.06 353.95 339.93"/><polygon class="cls-6" points="25 606.62 112.17 339.93 176.64 444.06 89.47 710.74 25 606.62"/><polygon class="cls-7" points="191.03 339.93 255.49 444.06 285.76 601.94 221.3 497.82 191.03 339.93"/><polygon class="cls-8" points="221.3 497.82 353.95 339.93 418.42 444.06 285.76 601.94 221.3 497.82"/><polygon class="cls-9" points="145.73 435.04 210.19 539.17 153.91 710.74 89.45 606.62 145.73 435.04"/><polygon class="cls-10" points="89.45 606.62 153.91 710.74 89.47 710.74 25 606.62 89.45 606.62"/><polygon class="cls-11" points="170.78 579.99 145.73 435.04 210.19 539.17 235.24 684.11 170.78 579.99"/><polygon class="cls-12" points="217.61 579.99 282.08 684.11 235.24 684.11 170.78 579.99 217.61 579.99"/><polygon class="cls-13" points="337.83 435.42 402.29 539.55 282.08 684.11 217.61 579.99 337.83 435.42"/><polygon class="cls-14" points="281.59 606.62 337.83 435.42 402.29 539.55 346.06 710.74 281.59 606.62"/><polygon class="cls-15" points="433.22 339.93 346.05 606.62 281.59 606.62 337.83 435.42 217.61 579.99 170.78 579.99 145.73 435.04 89.45 606.62 25 606.62 112.17 339.93 191.03 339.93 221.3 497.82 353.95 339.93 433.22 339.93"/><polygon class="cls-16" points="433.22 339.93 497.68 444.06 410.51 710.74 346.05 606.62 433.22 339.93"/><polygon class="cls-17" points="346.05 606.62 410.51 710.74 346.06 710.74 281.59 606.62 346.05 606.62"/></g><g class="cls-2"><polygon class="cls-18" points="794.3 444.06 639.17 625.14 613.86 710.74 540.6 710.74 565.47 625.53 516.49 444.06 589.75 444.06 622.03 559.33 721.04 444.06 794.3 444.06"/><path class="cls-19" d="M908.19,439.12A204.07,204.07,0,0,1,966,447.3q27.83,8.18,47.36,21.87l-40.85,55.54A186.78,186.78,0,0,0,930.06,504q-23.62-8.18-40.84-8.18-14,0-23,4.95t-11,14.45q-1.89,12.19,9.12,18.64t36.1,14.08q25.08,7.62,41.19,15A65.83,65.83,0,0,1,968.14,585q10.43,14.65,7.52,38.24-3.6,29.29-22.35,50t-47.86,31.2a184.26,184.26,0,0,1-62.73,10.46,197.26,197.26,0,0,1-67.05-11.41q-31.83-11.41-52.58-31.58l40.75-54.78q17,17.88,43.42,29.49t48.82,11.6q17.61,0,28.39-6.28a23.7,23.7,0,0,0,12.27-18.46,15.61,15.61,0,0,0-4.7-13.88,42.74,42.74,0,0,0-14.91-8.94q-9.2-3.42-26.55-8.75-25.19-6.86-41.11-14.07a65.38,65.38,0,0,1-26.21-21.31q-10.28-14.07-7.48-36.9a87.38,87.38,0,0,1,21.08-47.75q17.71-20.34,46.5-31.57T908.19,439.12Z"/><polygon class="cls-20" points="452.02 339.93 525.28 339.93 589.75 444.06 516.49 444.06 452.02 339.93"/><polygon class="cls-21" points="656.58 339.93 729.84 339.93 794.3 444.06 721.04 444.06 656.58 339.93"/><polygon class="cls-22" points="525.28 339.93 589.75 444.06 622.03 559.33 557.57 455.2 525.28 339.93"/><polygon class="cls-23" points="557.57 455.2 656.58 339.93 721.04 444.06 622.03 559.33 557.57 455.2"/><polygon class="cls-24" points="1287.07 444.06 1268.65 499.61 1120.53 499.61 1103.61 549.44 1237.71 549.44 1219.33 604.61 1085.23 604.61 1068.21 655.2 1220.73 655.2 1202.31 710.74 976.93 710.74 1065.7 444.06 1287.07 444.06"/><polygon class="cls-25" points="501.01 521.41 452.02 339.93 516.49 444.06 565.47 625.53 501.01 521.41"/><polygon class="cls-26" points="729.84 339.93 794.3 444.06 639.17 625.14 574.71 521.02 729.84 339.93"/><polygon class="cls-27" points="476.14 606.62 501.01 521.41 565.47 625.53 540.6 710.74 476.14 606.62"/><path class="cls-28" d="M717.16,460q-8.4-13.56-5.84-34.47a87.17,87.17,0,0,1,21.08-47.74q17.7-20.35,46.5-31.58T843.72,335l64.47,104.13q-36,0-64.83,11.22t-46.5,31.57a87.38,87.38,0,0,0-21.08,47.75q-2.56,20.9,5.84,34.46Z"/><path class="cls-29" d="M857.29,527.29,792.83,423.16a17.16,17.16,0,0,1-2.07-12.08L855.22,515.2A17.23,17.23,0,0,0,857.29,527.29Z"/><polygon class="cls-30" points="729.84 339.93 574.71 521.02 549.4 606.62 476.14 606.62 501.01 521.41 452.02 339.93 525.28 339.93 557.57 455.2 656.58 339.93 729.84 339.93"/><polygon class="cls-31" points="574.71 521.02 639.17 625.14 613.86 710.74 549.4 606.62 574.71 521.02"/><polygon class="cls-32" points="549.4 606.62 613.86 710.74 540.6 710.74 476.14 606.62 549.4 606.62"/><path class="cls-33" d="M843.72,335a204.14,204.14,0,0,1,57.85,8.18q27.81,8.18,47.35,21.87l64.47,104.13Q993.85,455.48,966,447.3a204.07,204.07,0,0,0-57.84-8.18Z"/><polygon class="cls-34" points="1401.16 444.06 1332.08 651.4 1450.97 651.4 1431.27 710.74 1239.13 710.74 1327.9 444.06 1401.16 444.06"/><polygon class="cls-35" points="658.63 567.82 699.38 513.04 763.84 617.16 723.09 671.94 658.63 567.82"/><path class="cls-36" d="M908.08,420.59l64.46,104.12A186.78,186.78,0,0,0,930.06,504q-23.62-8.18-40.84-8.18-14,0-23,4.95t-11,14.45L790.76,411.08q1.95-9.51,11-14.46t23-4.95q17.21,0,40.83,8.18A186.67,186.67,0,0,1,908.08,420.59Z"/><polygon class="cls-37" points="948.92 365.04 1013.38 469.17 972.54 524.72 908.08 420.59 948.92 365.04"/><path class="cls-38" d="M781.62,564.12,717.16,460c.51.83,1.06,1.65,1.64,2.44A65.44,65.44,0,0,0,745,483.74q15.91,7.23,41.11,14.08l64.46,104.12q-25.19-6.86-41.11-14.07a65.38,65.38,0,0,1-26.21-21.31C782.68,565.77,782.13,565,781.62,564.12Z"/><path class="cls-39" d="M830.19,518.71l64.46,104.13a17,17,0,0,0-2.61-3.21,42.74,42.74,0,0,0-14.91-8.94q-9.2-3.42-26.55-8.75L786.12,497.82q17.36,5.32,26.55,8.75a42.73,42.73,0,0,1,14.91,8.93A17,17,0,0,1,830.19,518.71Z"/><path class="cls-40" d="M792.83,423.16a19.87,19.87,0,0,0,7,6.56q11,6.46,36.1,14.07t41.19,15a65.86,65.86,0,0,1,26.51,22.07c.5.7,1,1.41,1.42,2.13l64.46,104.13c-.45-.73-.92-1.44-1.42-2.14A65.83,65.83,0,0,0,941.63,563q-16.11-7.43-41.19-15t-36.1-14.08a19.94,19.94,0,0,1-7.05-6.55Z"/><path class="cls-41" d="M894.65,622.84a16,16,0,0,1,2.09,10.67A23.7,23.7,0,0,1,884.47,652q-10.77,6.27-28.39,6.28-22.43,0-48.82-11.6t-43.42-29.49L699.38,513q17,17.88,43.42,29.48t48.81,11.6q17.61,0,28.4-6.28a23.68,23.68,0,0,0,12.27-18.45,16,16,0,0,0-2.09-10.68C849.52,550,875.31,591.6,894.65,622.84Z"/><polygon class="cls-42" points="1001.24 339.93 1222.61 339.93 1287.07 444.06 1065.7 444.06 1001.24 339.93"/><path class="cls-43" d="M905.1,483l64.46,104.13q8.79,14.19,6.1,36.1-3.6,29.29-22.35,50t-47.86,31.2a184.26,184.26,0,0,1-62.73,10.46,197.26,197.26,0,0,1-67.05-11.41q-31.83-11.41-52.58-31.58L658.63,567.82q20.75,20.16,52.58,31.57a197,197,0,0,0,67,11.41q33.62,0,62.73-10.45t47.86-31.21q18.76-20.71,22.35-50Q913.89,497.22,905.1,483Z"/><polygon class="cls-44" points="912.47 606.62 1001.24 339.93 1065.7 444.06 976.93 710.74 912.47 606.62"/><polygon class="cls-45" points="1056.07 395.48 1120.53 499.61 1103.61 549.44 1039.15 445.31 1056.07 395.48"/><path class="cls-46" d="M843.72,335a204.14,204.14,0,0,1,57.85,8.18q27.81,8.18,47.35,21.87l-40.84,55.55a186.67,186.67,0,0,0-42.49-20.74q-23.62-8.18-40.83-8.18-14,0-23,4.95t-11,14.46q-1.9,12.18,9.12,18.64T836,443.79q25.08,7.62,41.19,15a65.86,65.86,0,0,1,26.51,22.07q10.41,14.66,7.52,38.23-3.6,29.31-22.35,50T841,600.35q-29.12,10.46-62.73,10.45a197,197,0,0,1-67-11.41q-31.85-11.4-52.58-31.57L699.38,513q17,17.88,43.42,29.48t48.81,11.6q17.61,0,28.4-6.28a23.68,23.68,0,0,0,12.27-18.45,15.64,15.64,0,0,0-4.7-13.89,42.73,42.73,0,0,0-14.91-8.93q-9.2-3.44-26.55-8.75Q760.92,491,745,483.74a65.44,65.44,0,0,1-26.21-21.3q-10.27-14.07-7.48-36.91a87.17,87.17,0,0,1,21.08-47.74q17.7-20.35,46.5-31.58T843.72,335Z"/><polygon class="cls-47" points="1222.61 339.93 1287.07 444.06 1268.65 499.61 1204.18 395.48 1222.61 339.93"/><polygon class="cls-48" points="1204.18 395.48 1268.65 499.61 1120.53 499.61 1056.07 395.48 1204.18 395.48"/><polygon class="cls-49" points="1263.44 339.93 1336.69 339.93 1401.16 444.06 1327.9 444.06 1263.44 339.93"/><polygon class="cls-50" points="1039.15 445.31 1173.25 445.31 1237.71 549.44 1103.61 549.44 1039.15 445.31"/><polygon class="cls-51" points="1020.77 500.48 1085.23 604.61 1068.21 655.2 1003.75 551.08 1020.77 500.48"/><polygon class="cls-52" points="1154.87 500.48 1219.33 604.61 1085.23 604.61 1020.77 500.48 1154.87 500.48"/><polygon class="cls-53" points="1173.25 445.31 1237.71 549.44 1219.33 604.61 1154.87 500.48 1173.25 445.31"/><polygon class="cls-54" points="1003.75 551.08 1156.27 551.08 1220.73 655.2 1068.21 655.2 1003.75 551.08"/><polygon class="cls-55" points="1137.84 606.62 1202.31 710.74 976.93 710.74 912.47 606.62 1137.84 606.62"/><polygon class="cls-56" points="1156.27 551.08 1220.73 655.2 1202.31 710.74 1137.84 606.62 1156.27 551.08"/><polygon class="cls-57" points="1222.61 339.93 1204.18 395.48 1056.07 395.48 1039.15 445.31 1173.25 445.31 1154.87 500.48 1020.77 500.48 1003.75 551.08 1156.27 551.08 1137.84 606.62 912.47 606.62 1001.24 339.93 1222.61 339.93"/><polygon class="cls-58" points="1174.66 606.62 1263.44 339.93 1327.9 444.06 1239.13 710.74 1174.66 606.62"/><polygon class="cls-59" points="1336.69 339.93 1401.16 444.06 1332.08 651.4 1267.61 547.27 1336.69 339.93"/><polygon class="cls-60" points="1267.61 547.27 1386.51 547.27 1450.97 651.4 1332.08 651.4 1267.61 547.27"/><polygon class="cls-61" points="1386.51 547.27 1450.97 651.4 1431.27 710.74 1366.81 606.62 1386.51 547.27"/><polygon class="cls-62" points="1366.81 606.62 1431.27 710.74 1239.13 710.74 1174.66 606.62 1366.81 606.62"/><polygon class="cls-63" points="1336.69 339.93 1267.61 547.27 1386.51 547.27 1366.81 606.62 1174.66 606.62 1263.44 339.93 1336.69 339.93"/></g><g class="cls-2"><polygon class="cls-64" points="1762.63 444.06 1744.2 499.61 1608.1 499.61 1588.4 558.95 1714.1 558.95 1695.68 614.5 1569.97 614.5 1537.75 710.74 1464.49 710.74 1553.27 444.06 1762.63 444.06"/><polygon class="cls-65" points="1488.8 339.93 1698.17 339.93 1762.63 444.06 1553.27 444.06 1488.8 339.93"/><polygon class="cls-66" points="1400.03 606.62 1488.8 339.93 1553.27 444.06 1464.49 710.74 1400.03 606.62"/><polygon class="cls-67" points="1543.64 395.48 1608.1 499.61 1588.4 558.95 1523.94 454.83 1543.64 395.48"/><polygon class="cls-68" points="1698.17 339.93 1762.63 444.06 1744.2 499.61 1679.74 395.48 1698.17 339.93"/><polygon class="cls-69" points="1679.74 395.48 1744.2 499.61 1608.1 499.61 1543.64 395.48 1679.74 395.48"/><polygon class="cls-70" points="1523.94 454.83 1649.63 454.83 1714.1 558.95 1588.4 558.95 1523.94 454.83"/><polygon class="cls-71" points="1473.29 606.62 1537.75 710.74 1464.49 710.74 1400.03 606.62 1473.29 606.62"/><polygon class="cls-72" points="1505.51 510.37 1569.97 614.5 1537.75 710.74 1473.29 606.62 1505.51 510.37"/><polygon class="cls-73" points="1698.17 339.93 1679.74 395.48 1543.64 395.48 1523.94 454.83 1649.63 454.83 1631.22 510.37 1505.51 510.37 1473.29 606.62 1400.03 606.62 1488.8 339.93 1698.17 339.93"/><polygon class="cls-74" points="1649.63 454.83 1714.1 558.95 1695.68 614.5 1631.22 510.37 1649.63 454.83"/><polygon class="cls-75" points="1631.22 510.37 1695.68 614.5 1569.97 614.5 1505.51 510.37 1631.22 510.37"/></g><polygon class="cls-30" points="729.84 339.93 574.71 521.02 549.4 606.62 476.14 606.62 501.01 521.41 452.02 339.93 525.28 339.93 557.57 455.2 656.58 339.93 729.84 339.93"/><polygon class="cls-63" points="1336.69 339.93 1267.61 547.27 1386.51 547.27 1366.81 606.62 1174.66 606.62 1263.44 339.93 1336.69 339.93"/><path class="cls-76" d="M146.5,164.19h28.28l28.84,58.26,28.7-58.26H260.6v99.6h-23l-.14-63.08L212,253.85H195.24l-25.58-53.14v63.08H146.5Z"/><path class="cls-76" d="M279.92,164.19h78.57v20.75H305.92v18.61h47.46v20.6l-47.46.14v18.76h54v20.74h-80Z"/><path class="cls-76" d="M392.3,243.76a11.89,11.89,0,0,1,3.41,8.81,12.13,12.13,0,0,1-3.41,8.88,11.78,11.78,0,0,1-8.8,3.48,11.61,11.61,0,0,1-8.67-3.48,13.28,13.28,0,0,1-.07-17.69,11.67,11.67,0,0,1,8.74-3.41A11.92,11.92,0,0,1,392.3,243.76Z"/><path class="cls-76" d="M427.11,243.76a11.89,11.89,0,0,1,3.41,8.81,12.13,12.13,0,0,1-3.41,8.88,11.79,11.79,0,0,1-8.81,3.48,11.6,11.6,0,0,1-8.66-3.48,13.28,13.28,0,0,1-.07-17.69,11.67,11.67,0,0,1,8.73-3.41A11.93,11.93,0,0,1,427.11,243.76Z"/><path class="cls-76" d="M461.92,243.76a11.89,11.89,0,0,1,3.41,8.81,12.13,12.13,0,0,1-3.41,8.88,11.79,11.79,0,0,1-8.81,3.48,11.6,11.6,0,0,1-8.66-3.48,13.28,13.28,0,0,1-.07-17.69,11.67,11.67,0,0,1,8.73-3.41A11.93,11.93,0,0,1,461.92,243.76Z"/><path class="cls-76" d="M503.12,164.19h85.4v21.46H558.68v78.14h-26V185.65H503.12Z"/><path class="cls-76" d="M661.55,263.79l-6.82-17.61H611.68l-7,17.61H578l42.77-99.6h26.71l41.77,99.6Zm-42.06-37.51h27.56l-13.64-35.52Z"/><path class="cls-76" d="M698.2,164.19h26v77.44H766.4v22.16H698.2Z"/><path class="cls-76" d="M874,263.79H842.84L816.7,225.15l-12.5,13.92v24.72h-26v-99.6h26v43.2l37.36-43.2h30.13l-37,41.07Z"/><path class="cls-76" d="M884.61,164.19h26v99.6h-26Z"/><path class="cls-76" d="M998,164.19h24.16v99.6H999.41l-45.18-59.53v59.53H929.94v-99.6h22.87l45.33,60Z"/><path class="cls-76" d="M1107.54,212.93H1130v39.64a66.7,66.7,0,0,1-19.54,9.45,73.75,73.75,0,0,1-22,3.62,55.07,55.07,0,0,1-27.21-6.75,49.92,49.92,0,0,1-19.11-18.54,51,51,0,0,1-7-26.43,49.22,49.22,0,0,1,7.17-26.21,50.35,50.35,0,0,1,19.75-18.4,58.94,58.94,0,0,1,28.06-6.68,64.22,64.22,0,0,1,22.17,4.05,57.5,57.5,0,0,1,18.75,10.87l-14.77,18.19a41.57,41.57,0,0,0-12.43-8.1,35.31,35.31,0,0,0-13.86-3,27.36,27.36,0,0,0-14.35,3.84A27.7,27.7,0,0,0,1065.62,199a30.36,30.36,0,0,0-3.69,14.92,31,31,0,0,0,3.69,15.13,27.27,27.27,0,0,0,10.23,10.59,28.1,28.1,0,0,0,14.5,3.84q7.53,0,17.19-4.84Z"/><path class="cls-76" d="M1251.89,263.79l-6.82-17.61h-43l-7,17.61h-26.71l42.76-99.6h26.72l41.77,99.6Zm-42.05-37.51h27.56l-13.64-35.52Z"/><path class="cls-76" d="M1355.4,167.25a28.66,28.66,0,0,1,12.86,8.74,20.74,20.74,0,0,1,4.54,13.35,21.35,21.35,0,0,1-4.61,13.64,23.12,23.12,0,0,1-12.58,8,24.43,24.43,0,0,1,15,8.67,25.48,25.48,0,0,1,5.47,16.48,24,24,0,0,1-4.69,14.7,29.06,29.06,0,0,1-13.35,9.66,56.31,56.31,0,0,1-20.32,3.34h-49.16v-99.6h47.31A56.54,56.54,0,0,1,1355.4,167.25Zm-12.43,34a9.07,9.07,0,0,0,3.12-7.32,8.46,8.46,0,0,0-3.12-7q-3.13-2.49-8.53-2.35h-19.89v19.32h19.89Q1339.84,203.83,1343,201.21Zm2.27,39.57a9.24,9.24,0,0,0,4-8,8.65,8.65,0,0,0-4-7.46q-4-2.78-10.8-2.63h-19.89v20.89h19.89Q1341.27,243.62,1345.24,240.78Z"/><path class="cls-76" d="M1465.23,169.31a49.53,49.53,0,0,1,26.35,44.47,50.4,50.4,0,0,1-26.35,45,59.1,59.1,0,0,1-55,.07,50,50,0,0,1-19.32-18.61,51,51,0,0,1-7-26.5,49.56,49.56,0,0,1,26.36-44.47,59.92,59.92,0,0,1,55,0Zm-40.92,19.18a27.66,27.66,0,0,0-10,10.58,31.74,31.74,0,0,0,.07,29.84,29,29,0,0,0,10,10.66,25.28,25.28,0,0,0,13.64,3.91,25,25,0,0,0,13.57-3.91,27.53,27.53,0,0,0,9.73-10.66,33.13,33.13,0,0,0,0-29.84,27,27,0,0,0-9.73-10.58,25.23,25.23,0,0,0-13.57-3.84A25.91,25.91,0,0,0,1424.31,188.49Z"/><path class="cls-76" d="M1534.35,237.79a18.79,18.79,0,0,0,14.06,5.69q8.38,0,13.57-5.62t5.19-15.13V164.19h26v58.54q0,12.93-5.47,22.66a37,37,0,0,1-15.63,15q-10.15,5.26-23.8,5.26t-23.94-5.26a37.66,37.66,0,0,1-15.91-15q-5.61-9.72-5.61-22.66V164.19h26v58.54Q1528.81,232.11,1534.35,237.79Z"/><path class="cls-76" d="M1602.26,164.19h85.4v21.46h-29.84v78.14h-26V185.65h-29.56Z"/><polygon class="cls-15" points="433.22 339.93 346.05 606.62 281.59 606.62 337.83 435.42 217.61 579.99 170.78 579.99 145.73 435.04 89.45 606.62 25 606.62 112.17 339.93 191.03 339.93 221.3 497.82 353.95 339.93 433.22 339.93"/><g class="cls-77"><path class="cls-78" d="M877.17,458.82q-16.11-7.43-41.19-15t-36.1-14.07q-11-6.47-9.12-18.64,1.95-9.51,11-14.46t23-4.95q17.21,0,40.83,8.18a186.67,186.67,0,0,1,42.49,20.74L948.92,365q-19.53-13.68-47.35-21.87A204.14,204.14,0,0,0,843.72,335q-36,0-64.82,11.22t-46.5,31.58a87.17,87.17,0,0,0-21.08,47.74q-2.8,22.83,7.48,36.91A65.44,65.44,0,0,0,745,483.74q15.91,7.23,41.11,14.08,17.36,5.32,26.55,8.75a42.73,42.73,0,0,1,14.91,8.93,15.64,15.64,0,0,1,4.7,13.89A23.68,23.68,0,0,1,820,547.84q-10.78,6.28-28.4,6.28-22.43,0-48.81-11.6T699.38,513l-40.75,54.78q20.75,20.16,52.58,31.57a197,197,0,0,0,67,11.41q33.62,0,62.73-10.45t47.86-31.21q18.76-20.71,22.35-50,2.89-23.58-7.52-38.23A65.86,65.86,0,0,0,877.17,458.82Z"/><polygon class="cls-78" points="1154.87 500.48 1173.25 445.31 1039.15 445.31 1056.07 395.48 1204.18 395.48 1222.61 339.93 1001.24 339.93 912.47 606.62 1137.84 606.62 1156.27 551.08 1003.75 551.08 1020.77 500.48 1154.87 500.48"/><polygon class="cls-78" points="1679.74 395.48 1698.17 339.93 1488.8 339.93 1400.03 606.62 1473.29 606.62 1505.51 510.37 1631.22 510.37 1649.63 454.83 1523.94 454.83 1543.64 395.48 1679.74 395.48"/><polygon class="cls-78" points="221.3 497.82 191.03 339.93 112.17 339.93 25 606.62 89.45 606.62 145.73 435.04 170.78 579.99 217.61 579.99 337.83 435.42 281.59 606.62 346.05 606.62 433.22 339.93 353.95 339.93 221.3 497.82"/><polygon class="cls-78" points="656.58 339.93 557.57 455.2 525.28 339.93 452.02 339.93 501.01 521.41 476.14 606.62 549.4 606.62 574.71 521.02 729.84 339.93 656.58 339.93"/><polygon class="cls-78" points="1336.69 339.93 1263.44 339.93 1174.66 606.62 1366.81 606.62 1386.51 547.27 1267.61 547.27 1336.69 339.93"/></g><path class="cls-79" d="M837.23,340.49a192.82,192.82,0,0,1,54.45,7.7,163.15,163.15,0,0,1,33.41,13.66l-26.62,36.21A207.4,207.4,0,0,0,863,382c-17.19-5.94-31.83-8.84-44.76-8.84-11.33,0-21,2.17-28.79,6.43a32.68,32.68,0,0,0-17,22.56l-.06.28-.05.29c-2,13.06,3.26,24,14.9,30.83,8.24,4.85,20.9,9.83,38.69,15.21,16.2,4.93,29.54,9.79,39.66,14.45a53.53,53.53,0,0,1,21.75,18.12c5.19,7.3,7,17.06,5.39,29.82-2.11,17.19-8.44,31.39-19.35,43.44-11.1,12.28-25.57,21.68-43,27.95a173.13,173.13,0,0,1-58.67,9.75,186.22,186.22,0,0,1-63-10.7c-15.66-5.61-29.2-13-40.42-22l26.16-35.16a153.94,153.94,0,0,0,37,22.54c19,8.37,37.09,12.61,53.64,12.61,13.84,0,25.43-2.66,34.44-7.91a35.7,35.7,0,0,0,18.14-27.36,27.48,27.48,0,0,0-8.29-24,54.68,54.68,0,0,0-19-11.54c-6.33-2.36-15.24-5.3-27.22-9l-.18-.06-.19-.05c-16.12-4.39-29.34-8.91-39.3-13.42A53.25,53.25,0,0,1,722,448.86c-5-6.89-6.75-16.17-5.26-28.37A74.88,74.88,0,0,1,735,379.16c10.46-12,24.53-21.53,41.81-28.26,17.71-6.91,38.06-10.41,60.47-10.41m0-12q-36,0-64.83,11.23t-46.5,31.57A87.17,87.17,0,0,0,704.82,419q-2.8,22.83,7.48,36.91a65.44,65.44,0,0,0,26.21,21.3q15.91,7.23,41.11,14.08,17.36,5.32,26.55,8.75A42.73,42.73,0,0,1,821.08,509a15.64,15.64,0,0,1,4.7,13.89,23.68,23.68,0,0,1-12.27,18.45q-10.77,6.28-28.4,6.28-22.43,0-48.81-11.6t-43.42-29.48l-40.75,54.78q20.75,20.16,52.58,31.57a197,197,0,0,0,67,11.41q33.62,0,62.73-10.45t47.86-31.21q18.76-20.71,22.35-50,2.89-23.58-7.52-38.23a65.86,65.86,0,0,0-26.51-22.07q-16.11-7.43-41.19-15t-36.1-14.07q-11-6.47-9.12-18.64,1.95-9.51,11-14.46t23-4.95q17.21,0,40.83,8.18a186.67,186.67,0,0,1,42.49,20.74l40.84-55.55q-19.53-13.68-47.35-21.87a204.13,204.13,0,0,0-57.84-8.18Z"/><path class="cls-79" d="M1199.49,345.43,1189,377H1041l-2.76,8.14L1021.29,435l-5.39,15.85h134.2L1139.72,482H1005.65l-2.75,8.18-17,50.59-5.32,15.83h152.6l-10.47,31.54H922.61l80.78-242.69h196.1m16.62-12H994.74L906,600.12h225.37l18.43-55.54H997.25l17-50.6h134.1l18.38-55.17h-134.1L1049.57,389h148.11l18.43-55.55Z"/><path class="cls-79" d="M1675,345.43,1664.58,377h-136.1l-2.73,8.22-19.7,59.35-5.24,15.78h125.7l-10.46,31.54H1490.37l-2.74,8.19-29.48,88.06h-48L1491,345.43H1675m16.63-12H1482.3l-88.77,266.69h73.26L1499,503.87h125.71l18.41-55.54H1517.44l19.7-59.35h136.1l18.43-55.55Z"/><path class="cls-79" d="M410.17,345.43,330.84,588.12H291.67l51.06-155.45,19.67-59.88-40.3,48.46L205.49,561.49H174.38l-23.32-135L142.85,379l-15,45.79L74.25,588.12H35.05l79.33-242.69h60.23L203,493.58l4.75,24.77L224,499,353,345.43h57.13m16.55-12H347.45L214.8,491.32,184.53,333.43H105.67L18.5,600.12H83l56.28-171.58,25.05,145h46.83L331.33,428.92l-56.24,171.2h64.46l87.17-266.69Z"/><path class="cls-79" d="M697.26,345.43,559.1,506.71l-1.67,2-.73,2.46-22.77,77H485.64L506,518.27,507,515l-.88-3.25-44.9-166.35h48.49l29.84,106.51,6,21.59,14.61-17,95.42-111.09h41.67m26.08-12H650.08l-99,115.27L518.79,333.43H445.53l49,181.48-24.87,85.21H542.9l25.31-85.6L723.34,333.43Z"/><path class="cls-79" d="M1313.55,345.43,1249.73,537l-5.26,15.79h118.91l-11.73,35.35H1184.81l80.78-242.69h48m16.65-12h-73.26l-88.78,266.69h192.15l19.7-59.35h-118.9l69.09-207.34Z"/><path d="M774.16,5.27a2.27,2.27,0,0,1,1.48.74,1.9,1.9,0,0,1,.55,1.53A2.26,2.26,0,0,1,775.44,9a1.88,1.88,0,0,1-1.52.55,17.51,17.51,0,0,0-6.41.7A25.59,25.59,0,0,0,761.57,13a27.88,27.88,0,0,1,8.13,7.82,28,28,0,0,1,3.67,8.28,28.34,28.34,0,0,1,.94,9.93A41.57,41.57,0,0,1,773,47.32a42.87,42.87,0,0,1-2.34,6.53,28.09,28.09,0,0,1-2.93,5,29.81,29.81,0,0,1-3.09,3.51,25.45,25.45,0,0,1-8.13,5.24,22.54,22.54,0,0,1-8.21,1.48,12.62,12.62,0,0,1-7.11-2.18,7.46,7.46,0,0,1-3.29-6.26,6.86,6.86,0,0,1,.79-3.51,7.77,7.77,0,0,1,1.65-2A6.88,6.88,0,0,1,745,53.34a4.84,4.84,0,0,1,3.15,1,3.21,3.21,0,0,1,1.26,2.58,2,2,0,0,1-.64,1.48,2.19,2.19,0,0,1-1.59.63,2.05,2.05,0,0,1-2.07-1.41,1.65,1.65,0,0,0-.71,0,2.77,2.77,0,0,0-.94.39,3,3,0,0,0-1.25,2.58,3.05,3.05,0,0,0,.59,1.88,4.32,4.32,0,0,0,1.49,1.25,8.83,8.83,0,0,0,2,.74,9.13,9.13,0,0,0,2.19.28A17.91,17.91,0,0,0,755,63.54a18.88,18.88,0,0,0,6.73-4.37,27.63,27.63,0,0,0,5.51-8.09A34.13,34.13,0,0,0,770,38.8a23.4,23.4,0,0,0-12.11-23,49.66,49.66,0,0,0-7.86,8.8A114.46,114.46,0,0,0,742.93,36q-3.4,6.13-6.57,12.78t-6.21,13.21q-3.36,7.35-6.57,14T717,88.28a58,58,0,0,1-7.62,10.32,20.56,20.56,0,0,1-7.38,5.16q-7,2.58-12.75,1.17a14.91,14.91,0,0,1-8.13-5.23,15.46,15.46,0,0,1-2-3.21,13.72,13.72,0,0,1-1.06-3.36A11.47,11.47,0,0,1,678,90a5.76,5.76,0,0,1,.86-2.58,2.09,2.09,0,0,1,1.33-.89,1.94,1.94,0,0,1,1.64.35,2.07,2.07,0,0,1,.9,1.33,2.13,2.13,0,0,1-.28,1.64,1.61,1.61,0,0,0-.27,1,5.8,5.8,0,0,0,.2,1.71,11.47,11.47,0,0,0,.74,2.12,11.1,11.1,0,0,0,1.44,2.3,10.65,10.65,0,0,0,2,2,10.25,10.25,0,0,0,3.2,1.65,13.5,13.5,0,0,0,4.57.54,18.8,18.8,0,0,0,6.1-1.4,17,17,0,0,0,6.72-5,59.06,59.06,0,0,0,6.45-9.06q3.17-5.36,6.3-12t6.33-13.57q2.26-5,4.61-10t4.81-9.81q2.46-4.81,5.08-9.3t5.43-8.41a56.59,56.59,0,0,1,3.67-4.73q1.88-2.14,3.68-3.94a26.83,26.83,0,0,0-6.84-1.29,24.12,24.12,0,0,0-6.84.58,21.81,21.81,0,0,0-13.06,7.9A25.74,25.74,0,0,0,722.6,28a18.15,18.15,0,0,0-1.29,5.9,13.45,13.45,0,0,0,.67,4.84,15.62,15.62,0,0,0,1.72,3.64,17.09,17.09,0,0,0,1.79,2.34,7.41,7.41,0,0,0,1,.94,2,2,0,0,1,.78,1.41,2.09,2.09,0,0,1-.47,1.56,2.31,2.31,0,0,1-1.48.82,1.88,1.88,0,0,1-1.56-.5,3.34,3.34,0,0,1-.71-.59,17.82,17.82,0,0,1-1.52-1.68,24,24,0,0,1-1.84-2.62A18.4,18.4,0,0,1,718,40.52a18.83,18.83,0,0,1-.7-9.77,28,28,0,0,1,6.09-12.27,26.75,26.75,0,0,1,6.88-6.06A27.67,27.67,0,0,1,738.9,9a30.69,30.69,0,0,1,8.87-.58,30.19,30.19,0,0,1,8.72,2,6.32,6.32,0,0,0,.78.31,7.08,7.08,0,0,0,.7-.47l.71-.54A24.57,24.57,0,0,1,774.16,5.27Z"/><path d="M821.45,48.73a2.35,2.35,0,0,1,1.21,1.17,2,2,0,0,1,0,1.65,89.2,89.2,0,0,1-5.24,10.94,47.34,47.34,0,0,1-6,8.44q-6,6.88-12,7.82a9.22,9.22,0,0,1-8.83-3.36,7.74,7.74,0,0,1-1.8-4.26,16.59,16.59,0,0,1,.32-5,28.51,28.51,0,0,1,1.68-5.31q1.13-2.7,2.3-5.28c.42-.94.85-1.91,1.29-2.93s.82-2,1.14-2.85a16,16,0,0,0,.66-2.43,3.32,3.32,0,0,0,0-1.72c0-.1-.23-.27-.7-.5s-1.05-.51-1.72-.82-1.37-.63-2.07-.94a11.68,11.68,0,0,1-1.76-.94c0,.21-.11.39-.16.55s-.1.31-.16.47l-1.21,3.2c-.39,1-.77,2-1.13,2.74s-.66,1.4-.9,1.87a5.31,5.31,0,0,0-.35.78,2.15,2.15,0,0,1-1.17,1.18,2.21,2.21,0,0,1-2.78-1.29,2.24,2.24,0,0,1,.12-1.68c.88-1.88,1.68-3.74,2.38-5.59s1.29-3.53,1.76-5q-3-3.06-3.05-5.71a3.39,3.39,0,0,1,2.11-3.6,5.05,5.05,0,0,1,3.25-.5,4.16,4.16,0,0,1,1.83,1,4.37,4.37,0,0,1,1.18,2.78A16,16,0,0,1,791,38.1a22.48,22.48,0,0,0,2.58,1.56,23.1,23.1,0,0,0,3.28,1.41A5,5,0,0,1,800,43.88a6.08,6.08,0,0,1,.47,2.74,14.42,14.42,0,0,1-.59,3.21,36.68,36.68,0,0,1-1.29,3.59c-.52,1.25-1.09,2.56-1.72,3.91s-1.26,2.87-1.91,4.38a29.88,29.88,0,0,0-1.53,4.3,16.3,16.3,0,0,0-.59,3.75,4.36,4.36,0,0,0,.9,2.89,5,5,0,0,0,4.93,1.8A11,11,0,0,0,803,72.73a23.86,23.86,0,0,0,5-4.42,50.11,50.11,0,0,0,5.36-7.46A78.91,78.91,0,0,0,818.63,50a2.31,2.31,0,0,1,1.17-1.21A2.14,2.14,0,0,1,821.45,48.73Z"/><path d="M853.1,48.81a2,2,0,0,1,1.21,1.09,2,2,0,0,1,0,1.65,62.21,62.21,0,0,1-5.36,10.74,49.19,49.19,0,0,1-6.76,8.56,33.76,33.76,0,0,1-6.76,5.32,21.55,21.55,0,0,1-6.84,2.66,12.08,12.08,0,0,1-5.79-.16,9.37,9.37,0,0,1-4.45-2.81,16.22,16.22,0,0,1-4.07-10.17,25.73,25.73,0,0,1,2-10.78,36.41,36.41,0,0,1,3.09-6.22,34.79,34.79,0,0,1,4.11-5.35,24.33,24.33,0,0,1,4.88-4A10.49,10.49,0,0,1,833,37.71a6,6,0,0,1,4.19,1,6.14,6.14,0,0,1,2.3,3.55,12,12,0,0,1,.08,4.93,21.29,21.29,0,0,1-1.8,5.63A22.35,22.35,0,0,1,834.3,58,12,12,0,0,1,830,61.08a6.86,6.86,0,0,1-1.87.59,13,13,0,0,1-2.27.19,10,10,0,0,1-2.31-.27,5.64,5.64,0,0,1-2.07-1,4.8,4.8,0,0,1-1.8-2.73,21.22,21.22,0,0,0-1.17,7.58,11.61,11.61,0,0,0,3,7.5,4.8,4.8,0,0,0,3.09,1.68,12.46,12.46,0,0,0,3.24,0,18.76,18.76,0,0,0,5.24-2.08A26.53,26.53,0,0,0,839,68a47.49,47.49,0,0,0,5.91-7.43A62.34,62.34,0,0,0,850.29,50a2.31,2.31,0,0,1,1.17-1.21A1.93,1.93,0,0,1,853.1,48.81ZM833.4,42a6.42,6.42,0,0,0-2.85,1.05,19.27,19.27,0,0,0-3.28,2.62A30.27,30.27,0,0,0,824,49.55a31.49,31.49,0,0,0-2.85,4.89,2.06,2.06,0,0,1,.94-.08,2.09,2.09,0,0,1,1.45.78A1.84,1.84,0,0,1,824,56.7a.65.65,0,0,0,.15.47,3.37,3.37,0,0,0,1.88.39,6.48,6.48,0,0,0,2.34-.39,8.35,8.35,0,0,0,3.09-2.42A18.07,18.07,0,0,0,833.83,51a17.62,17.62,0,0,0,1.41-4.14,8.55,8.55,0,0,0,.12-3.52A1.53,1.53,0,0,0,833.4,42Z"/><path d="M879.21,48.73a2.19,2.19,0,0,1,1.25,1.1,2,2,0,0,1,.08,1.64,11.36,11.36,0,0,0-.59,1.4c-.34.89-.83,2-1.48,3.37S877,59.13,876,60.85a54.46,54.46,0,0,1-3.44,5.23,36.88,36.88,0,0,1-10.47,9.62,23.62,23.62,0,0,1-15.32,3l-.55-.16A10.45,10.45,0,0,1,844,78a21.28,21.28,0,0,1-2.18-.93,12.75,12.75,0,0,1-5.87-6.34,11,11,0,0,1,.63-9.38,1.86,1.86,0,0,1,1.21-1.09,2.36,2.36,0,0,1,1.68.16,1.88,1.88,0,0,1,1.1,1.21,2.17,2.17,0,0,1-.16,1.6,6.9,6.9,0,0,0-.39,5.94,7.82,7.82,0,0,0,3.83,4.07,10.9,10.9,0,0,0,2.93,1,7.53,7.53,0,0,0,3.17,0,8.39,8.39,0,0,0,5.55-4.18,12.51,12.51,0,0,0,1.48-4.18,16.67,16.67,0,0,0,.12-4.11,25.33,25.33,0,0,0-.74-4.06c-.37-1.35-.76-2.71-1.18-4.06l-.7-2.11-.39.86a1.61,1.61,0,0,1-1.13,1,2.54,2.54,0,0,1-1.61-.23A2.15,2.15,0,0,1,850.13,52a2,2,0,0,1,.08-1.64L853.49,43a9.24,9.24,0,0,1,2.42-4.54,5.82,5.82,0,0,1,1.84-1.29,4.56,4.56,0,0,1,2.54-.43,3.58,3.58,0,0,1,3.05,1.49,1.92,1.92,0,0,1,.51,1.6,2.13,2.13,0,0,1-.82,1.45,2,2,0,0,1-1.53.43,2.5,2.5,0,0,1-1.44-.75,1.45,1.45,0,0,0-.59.16,1.89,1.89,0,0,0-.51.31,6.63,6.63,0,0,0-1.33,2.42v.24a9.7,9.7,0,0,0,.24,3.56c.31,1.32.75,2.88,1.33,4.65.47,1.4.91,2.89,1.33,4.45a27.74,27.74,0,0,1,.82,4.89,21.79,21.79,0,0,1-.24,5.2,16,16,0,0,1-1.91,5.31l-.24.31a24,24,0,0,0,5.32-3.71,39.73,39.73,0,0,0,4.38-4.73,47.24,47.24,0,0,0,3.4-5q1.44-2.46,2.42-4.46c.65-1.33,1.14-2.41,1.48-3.24a14.17,14.17,0,0,0,.51-1.33,2.19,2.19,0,0,1,1.1-1.25A2,2,0,0,1,879.21,48.73Z"/><path d="M910.94,48.81a2,2,0,0,1,1.22,1.09,2,2,0,0,1,0,1.65,62.21,62.21,0,0,1-5.36,10.74A49.19,49.19,0,0,1,900,70.85a33.76,33.76,0,0,1-6.76,5.32,21.55,21.55,0,0,1-6.84,2.66,12.08,12.08,0,0,1-5.79-.16,9.37,9.37,0,0,1-4.45-2.81,16.22,16.22,0,0,1-4.07-10.17,25.6,25.6,0,0,1,2-10.78,35.1,35.1,0,0,1,7.19-11.57,24.33,24.33,0,0,1,4.88-4,10.57,10.57,0,0,1,4.66-1.64,5.94,5.94,0,0,1,4.18,1,6.14,6.14,0,0,1,2.3,3.55,11.86,11.86,0,0,1,.08,4.93,21.29,21.29,0,0,1-1.8,5.63A22.35,22.35,0,0,1,892.14,58a11.83,11.83,0,0,1-4.26,3.13,6.86,6.86,0,0,1-1.87.59,13,13,0,0,1-2.27.19,9.84,9.84,0,0,1-2.3-.27,5.61,5.61,0,0,1-2.08-1,4.83,4.83,0,0,1-1.79-2.73,21,21,0,0,0-1.18,7.58,11.61,11.61,0,0,0,3,7.5,4.8,4.8,0,0,0,3.09,1.68,12.54,12.54,0,0,0,3.25,0,18.83,18.83,0,0,0,5.23-2.08A26.8,26.8,0,0,0,896.8,68a47.47,47.47,0,0,0,5.9-7.43A62.34,62.34,0,0,0,908.13,50a2.31,2.31,0,0,1,1.17-1.21A1.93,1.93,0,0,1,910.94,48.81ZM891.25,42a6.42,6.42,0,0,0-2.86,1.05,19.27,19.27,0,0,0-3.28,2.62,29.45,29.45,0,0,0-3.28,3.87A31.53,31.53,0,0,0,879,54.44a2.28,2.28,0,0,1,2.39.7,1.84,1.84,0,0,1,.43,1.56.65.65,0,0,0,.15.47,3.37,3.37,0,0,0,1.88.39,6.48,6.48,0,0,0,2.34-.39,8.35,8.35,0,0,0,3.09-2.42A18.11,18.11,0,0,0,891.68,51a17.59,17.59,0,0,0,1.4-4.14,8.55,8.55,0,0,0,.12-3.52A1.53,1.53,0,0,0,891.25,42Z"/><path d="M953.31,48.81a2,2,0,0,1,1.21,1.09,1.91,1.91,0,0,1,0,1.65q-4.92,12.35-10.63,19.5t-11.33,8q-4.77.7-8-3.44t-2-10.79a35.16,35.16,0,0,1,1.57-5.43q1-2.7,2.19-5.35c.46-1.1.93-2.22,1.4-3.36a31.15,31.15,0,0,0,1.14-3.25,13.6,13.6,0,0,0,.5-2.73,2.74,2.74,0,0,0-.47-1.92,2,2,0,0,0-1.64-.94,7.46,7.46,0,0,0-4,1.57,35.11,35.11,0,0,0-4.73,3.9,62.15,62.15,0,0,0-4.69,5.09c-1.51,1.82-2.82,3.49-3.91,5q-3,9.84-5.16,19.77a1.87,1.87,0,0,1-.9,1.33,2.16,2.16,0,0,1-1.6.32,2.1,2.1,0,0,1-1.37-.9,1.83,1.83,0,0,1-.27-1.6q2-9.78,4.88-19.12T912,38.88a2,2,0,0,1,2.81-1.17A2.15,2.15,0,0,1,916,38.88a2.05,2.05,0,0,1-.08,1.64L913.84,46q8-8.43,13.28-8.44a6.31,6.31,0,0,1,5.24,2.66,6.19,6.19,0,0,1,1.17,3.17,12.22,12.22,0,0,1-.27,3.75A26.4,26.4,0,0,1,932,51.27q-.86,2.16-1.8,4.42c-.62,1.56-1.25,3.14-1.87,4.73a30.66,30.66,0,0,0-1.45,4.69,14.62,14.62,0,0,0-.35,4.34A6.29,6.29,0,0,0,927.83,73a4.37,4.37,0,0,0,4.14,1.8,9.26,9.26,0,0,0,3.75-1.64,21.29,21.29,0,0,0,4.5-4.34,56.47,56.47,0,0,0,5-7.5,87.41,87.41,0,0,0,5.2-11.06,2.79,2.79,0,0,1,1.21-1.33A1.76,1.76,0,0,1,953.31,48.81Z"/><path d="M980,48.81a1.77,1.77,0,0,1,1.14,1.09,2.47,2.47,0,0,1,0,1.65q-4.85,12-10.95,19.07-5.87,6.8-11.8,8a10.2,10.2,0,0,1-2.19.24,9.17,9.17,0,0,1-7.27-3q-4-4-1.8-14.47a111.74,111.74,0,0,1,6.49-19l2.11-4.69h-7.42a2,2,0,0,1-1.49-.63,2,2,0,0,1-.62-1.48v-.24a2.08,2.08,0,0,1,.66-1.4,2,2,0,0,1,1.45-.55h9.46l.31-.63q1.56-3.12,3-5.78t2.46-4.61c.7-1.3,1.28-2.33,1.72-3.09a9.91,9.91,0,0,0,.66-1.21,2,2,0,0,1,1.88-1,3.08,3.08,0,0,1,1.09.24,2,2,0,0,1,1,1.33,2.38,2.38,0,0,1-.19,1.64q-1.8,3-3.56,6.29t-3.48,6.84h4a2.09,2.09,0,0,1,1.48.59,2.21,2.21,0,0,1,.71,1.44v.16a2,2,0,0,1-.67,1.48,2.14,2.14,0,0,1-1.52.63h-1.41a9.07,9.07,0,0,1-2.34,0H960.5q-2.73,5.79-5,11.41A96.89,96.89,0,0,0,952,59.52a37.29,37.29,0,0,0-1.41,8.28q-.12,3.53,1.37,5a5.5,5.5,0,0,0,4.38,1.72,6.13,6.13,0,0,0,1.17-.16,12.34,12.34,0,0,0,4.3-2,26.23,26.23,0,0,0,4.92-4.5A50.17,50.17,0,0,0,972,60.57,76,76,0,0,0,977.15,50a2,2,0,0,1,.94-1A2.16,2.16,0,0,1,980,48.81Z"/><path d="M982.39,38.65a1.88,1.88,0,0,1,1.21-1.1,2.41,2.41,0,0,1,1.68.16,1.92,1.92,0,0,1,1,1.25,2.27,2.27,0,0,1-.16,1.64q-.78,1.56-1.95,4c-.78,1.61-1.57,3.39-2.35,5.31s-1.54,3.94-2.27,6A55.32,55.32,0,0,0,977.82,62a37,37,0,0,0-.86,5.55,10.23,10.23,0,0,0,.5,4.42,4.07,4.07,0,0,0,2.19,2.34,6.21,6.21,0,0,0,4.62-.23,15.84,15.84,0,0,0,5.35-4.38,55.65,55.65,0,0,0,4.85-6.8,78.68,78.68,0,0,0,3.87-7.19c1.09-2.35,1.9-4.22,2.42-5.63a2.31,2.31,0,0,1,1.17-1.21,2.07,2.07,0,0,1,1.64,0,2,2,0,0,1,1.21,1.09,2.1,2.1,0,0,1,0,1.65,9.72,9.72,0,0,1-.39,1.05c-.26.65-.62,1.49-1.09,2.5s-1,2.19-1.68,3.52-1.37,2.72-2.15,4.18Q992.79,75,986,78a9.54,9.54,0,0,1-7.9.31,7.72,7.72,0,0,1-4.61-4.85q-2.51-6.72,3-21.65,1-2.66,2-5t1.84-4.15c.54-1.19,1-2.15,1.36-2.85A12.43,12.43,0,0,1,982.39,38.65Zm5-6.49A2.16,2.16,0,0,1,986.22,31a2,2,0,0,1,.08-1.64l.7-1.65a2.16,2.16,0,0,1,1.17-1.17,2,2,0,0,1,1.65.08A2.16,2.16,0,0,1,991,27.78a2,2,0,0,1-.08,1.64l-.7,1.65a1.89,1.89,0,0,1-1.14,1.17A2.1,2.1,0,0,1,987.39,32.16Z"/><path d="M1046,48.81a2,2,0,0,1,1.21,1.09,2,2,0,0,1,0,1.65q-4.92,12.35-10.63,19.5t-11.34,8q-4.76.7-8.05-3.44t-1.95-10.79a34,34,0,0,1,1.56-5.43q1-2.7,2.19-5.35.71-1.65,1.41-3.36a31,31,0,0,0,1.13-3.25,13,13,0,0,0,.51-2.73,2.79,2.79,0,0,0-.47-1.92,2,2,0,0,0-1.64-.94,7.49,7.49,0,0,0-4,1.57,36.4,36.4,0,0,0-4.73,3.9,65.92,65.92,0,0,0-4.69,5.09q-2.26,2.73-3.9,5-3.06,9.84-5.16,19.77a1.93,1.93,0,0,1-.9,1.33,2.17,2.17,0,0,1-1.6.32,2.08,2.08,0,0,1-1.37-.9,1.87,1.87,0,0,1-.28-1.6q2-9.78,4.89-19.12t6.6-18.33a2.05,2.05,0,0,1,2.82-1.17,2.16,2.16,0,0,1,1.17,1.17,2,2,0,0,1-.08,1.64L1006.54,46q8.06-8.43,13.29-8.44a6.37,6.37,0,0,1,6.41,5.83,12.87,12.87,0,0,1-.27,3.75,26.4,26.4,0,0,1-1.29,4.14q-.87,2.16-1.8,4.42c-.63,1.56-1.25,3.14-1.88,4.73a31.75,31.75,0,0,0-1.44,4.69,14.62,14.62,0,0,0-.35,4.34,6.28,6.28,0,0,0,1.32,3.51,4.39,4.39,0,0,0,4.15,1.8,9.37,9.37,0,0,0,3.75-1.64,21.27,21.27,0,0,0,4.49-4.34,56.43,56.43,0,0,0,5-7.5,87.48,87.48,0,0,0,5.19-11.06,2.87,2.87,0,0,1,1.22-1.33A1.76,1.76,0,0,1,1046,48.81Z"/><path d="M1083.54,48.81a2,2,0,0,1,1.21,1.09,2.14,2.14,0,0,1,0,1.65,130.36,130.36,0,0,1-7.12,15.24,48.94,48.94,0,0,1-7,9.85,23.23,23.23,0,0,1-7.74,5.63c-.57.2-1.15.4-1.72.58a13.51,13.51,0,0,1-1.72.43,7.06,7.06,0,0,1-.39,1.17,31.75,31.75,0,0,1-6.33,10.87,14.6,14.6,0,0,1-10.87,4.92,10.19,10.19,0,0,1-6.72-2.34,8.89,8.89,0,0,1-2.27-2.82,8.09,8.09,0,0,1-.86-3.2,12.32,12.32,0,0,1,.16-1.72A6.87,6.87,0,0,1,1033,88a11.51,11.51,0,0,1,1.76-2.31,13.58,13.58,0,0,1,3.09-2.26,29.63,29.63,0,0,1,7.78-2.86,61.21,61.21,0,0,1,10.59-1.36h.08a54.39,54.39,0,0,0,1.29-5.4q.5-2.73.9-5.39-8.76,11.41-14.47,10.24a6,6,0,0,1-2.61-1.29c-1-.76-1.79-2.2-2.31-4.34a22.17,22.17,0,0,1-.35-7.5,39.93,39.93,0,0,1,2-9,42.36,42.36,0,0,1,4.34-9.3,26.06,26.06,0,0,1,5.9-6.73q5.16-4.07,9.62-2.89a8,8,0,0,1,2.93,1.45,15.25,15.25,0,0,1,2,2,8.46,8.46,0,0,1,1.21,1.8,6.59,6.59,0,0,1,.39.9,1.89,1.89,0,0,1,0,1.64,2.31,2.31,0,0,1-1.21,1.17,2.21,2.21,0,0,1-1.64,0,2.16,2.16,0,0,1-1.17-1.17,9,9,0,0,0-.94-1.52,8.65,8.65,0,0,0-1.17-1.18,4.23,4.23,0,0,0-1.57-.82c-1.61-.47-3.57.21-5.86,2a23.75,23.75,0,0,0-5.28,6.26A40.38,40.38,0,0,0,1043,65.81a17.44,17.44,0,0,0,.19,6.22,11.83,11.83,0,0,0,.55,1.4,1.62,1.62,0,0,0,1,1l.86-.08a5.63,5.63,0,0,0,2.11-1,23.89,23.89,0,0,0,3.51-3.08,58.54,58.54,0,0,0,5.08-6.22c.11-.15.42-.64.94-1.44l1.88-2.94a25.64,25.64,0,0,1,.51-3.79c.23-1.06.4-1.86.5-2.38a1.67,1.67,0,0,1,.16-.39.35.35,0,0,1,.08-.24,10.94,10.94,0,0,1,1.72-3.08,3.21,3.21,0,0,1,2-1.14,2,2,0,0,1,1.33.16,3.15,3.15,0,0,1,1.1.94,4.12,4.12,0,0,1,.62,3,9.5,9.5,0,0,1-1.09,3.44c-.37.73-.78,1.49-1.25,2.3s-.94,1.6-1.41,2.39c0,.73,0,1.7-.16,2.93s-.24,2.6-.43,4.14-.43,3.19-.74,5-.7,3.6-1.17,5.48a18.36,18.36,0,0,0,4.69-2.86,28.81,28.81,0,0,0,4.81-5.27,63.51,63.51,0,0,0,5-8.37q2.58-5,5.39-12a2,2,0,0,1,1.1-1.21A1.93,1.93,0,0,1,1083.54,48.81ZM1041.87,96a9.69,9.69,0,0,0,4.22-.94,12.06,12.06,0,0,0,3.52-2.58,20.24,20.24,0,0,0,2.86-3.91,39.46,39.46,0,0,0,2.3-4.85h-.39a46.6,46.6,0,0,0-8.91,1.37,24.26,24.26,0,0,0-5.55,2.15,8.17,8.17,0,0,0-2.81,2.38,4.08,4.08,0,0,0-.79,2.15,3.92,3.92,0,0,0,1.72,3A6.12,6.12,0,0,0,1041.87,96Z"/></svg>