<svg id="Layer_1" data-name="Layer 1" xmlns="http://www.w3.org/2000/svg" xmlns:xlink="http://www.w3.org/1999/xlink" viewBox="0 0 600 600"><defs><style>.cls-1{fill:url(#radial-gradient);}.cls-2{fill:url(#radial-gradient-2);}.cls-3{fill:url(#radial-gradient-3);}.cls-4{fill:url(#radial-gradient-4);}.cls-5{fill:url(#radial-gradient-5);}.cls-6{fill:url(#radial-gradient-6);}.cls-7{fill:url(#radial-gradient-7);}.cls-8{fill:url(#radial-gradient-8);}</style><radialGradient id="radial-gradient" cx="299.5" cy="297" r="283.07" gradientUnits="userSpaceOnUse"><stop offset="0" stop-color="#fff"/><stop offset="1" stop-color="#e6e7e8" stop-opacity="0"/></radialGradient><radialGradient id="radial-gradient-2" cx="299.5" r="283.07" gradientTransform="translate(-124.26 300) rotate(-45)" xlink:href="#radial-gradient"/><radialGradient id="radial-gradient-3" cx="299.5" r="283.07" gradientTransform="translate(0 600) rotate(-90)" xlink:href="#radial-gradient"/><radialGradient id="radial-gradient-4" cx="299.5" r="283.07" gradientTransform="translate(300 724.26) rotate(-135)" xlink:href="#radial-gradient"/><radialGradient id="radial-gradient-5" cx="299.5" r="283.07" gradientTransform="translate(600 600) rotate(180)" xlink:href="#radial-gradient"/><radialGradient id="radial-gradient-6" cx="299.5" r="283.07" gradientTransform="translate(724.26 300) rotate(135)" xlink:href="#radial-gradient"/><radialGradient id="radial-gradient-7" cx="299.5" r="283.07" gradientTransform="translate(600) rotate(90)" xlink:href="#radial-gradient"/><radialGradient id="radial-gradient-8" cx="299.5" r="283.07" gradientTransform="translate(300 -124.26) rotate(45)" xlink:href="#radial-gradient"/></defs><title>big-burst</title><polygon class="cls-1" points="349.5 0 300 300 250.5 0 349.5 0"/><polygon class="cls-2" points="122.87 52.87 300 300 52.87 122.87 122.87 52.87"/><polygon class="cls-3" points="0 250.5 300 300 0 349.5 0 250.5"/><polygon class="cls-4" points="52.87 477.13 300 300 122.87 547.13 52.87 477.13"/><polygon class="cls-5" points="250.5 600 300 300 349.5 600 250.5 600"/><polygon class="cls-6" points="477.13 547.13 300 300 547.13 477.13 477.13 547.13"/><polygon class="cls-7" points="600 349.5 300 300 600 250.5 600 349.5"/><polygon class="cls-8" points="547.13 122.87 300 300 477.13 52.87 547.13 122.87"/></svg>