<?xml version="1.0" encoding="UTF-8"?><svg id="eye-l" xmlns="http://www.w3.org/2000/svg" viewBox="0 0 545.5 576.38"><defs><style>.cls-1{fill:#414042;}</style></defs><path class="cls-1" d="M279.86,67.77c16.52,19.73,41.05,31.43,67.54,31.43,11.51,0,22.77-2.24,33.28-6.56,3.52,16.28,11.62,31.24,23.66,43.31,14.72,14.77,33.69,23.68,54.1,25.55-4.9,17.84-4.1,36.95,2.57,54.54,6.68,17.6,18.76,32.44,34.26,42.55-12.64,13.52-20.82,30.82-23.09,49.51-2.27,18.69,1.53,37.44,10.57,53.6-17.47,6.1-32.76,17.62-43.45,33.11-10.69,15.49-16.04,33.85-15.55,52.34-4.28-.64-8.6-.96-12.95-.96-19.3,0-38.39,6.52-53.77,18.35-10.86,8.36-19.42,18.84-25.29,30.88-14.94-10.9-33.08-16.92-51.89-16.92s-36.96,6.02-51.89,16.92c-5.87-12.03-14.42-22.52-25.29-30.88-15.38-11.83-34.47-18.35-53.77-18.35-4.35,0-8.67.32-12.94.96.49-18.49-4.86-36.85-15.55-52.34-10.69-15.49-25.98-27.01-43.45-33.11,9.04-16.15,12.84-34.91,10.57-53.6-2.27-18.69-10.45-35.99-23.09-49.51,15.51-10.1,27.59-24.94,34.26-42.55,6.67-17.59,7.47-36.7,2.57-54.54,20.41-1.87,39.38-10.78,54.1-25.55,12.04-12.08,20.14-27.03,23.66-43.31,10.51,4.32,21.76,6.56,33.28,6.56,26.49,0,51.02-11.7,67.54-31.43M279.86,46.28h0s0,0,0,0h0ZM279.86,46.28c-13.69,26.28-40.28,40.93-67.54,40.93-14.89,0-29.99-4.37-43.28-13.61h0s0,0,0,0c.13,42.58-34.5,76.28-75.89,76.28-3.14,0-6.33-.19-9.54-.59h0s0,0,0,0c21.42,40.5,2.42,90.61-40.47,106.72h0s0,0,0,0c37.79,25.91,44.25,79.11,13.76,113.31h0s0,0,0,0c45.5,5.38,75.94,49.48,64.84,93.93h0s0,0,0,0c8.99-3.44,18.17-5.06,27.19-5.06,33.91,0,65.33,22.93,73.88,58.1h0s0,0,0,0c15.14-17.2,36.1-25.79,57.07-25.79s41.93,8.6,57.07,25.79h0s0,0,0,0c8.55-35.17,39.96-58.1,73.88-58.1,9.01,0,18.2,1.62,27.19,5.06h0s0,0,0,0c-11.1-44.45,19.34-88.55,64.84-93.93h0,0c-30.49-34.2-24.03-87.4,13.76-113.31h0,0c-42.89-16.11-61.89-66.22-40.47-106.72h0s0,0,0,0c-3.21.4-6.39.59-9.54.59-41.39,0-76.03-33.7-75.89-76.28h0s0,0,0,0c-13.29,9.24-28.39,13.61-43.28,13.61-27.26,0-53.85-14.65-67.54-40.93h0Z"/></svg>