<svg xmlns="http://www.w3.org/2000/svg" xmlns:xlink="http://www.w3.org/1999/xlink" viewBox="0 0 482.58 579.01"><defs><style>.cls-1{fill:#a6a8ab;}.cls-2{fill:url(#linear-gradient);}.cls-3{fill:url(#linear-gradient-2);}.cls-4{fill:#414042;}.cls-5{fill:url(#linear-gradient-3);}.cls-6{fill:url(#linear-gradient-4);}.cls-7{fill:url(#linear-gradient-5);}</style><linearGradient id="linear-gradient" x1="373.8" y1="241.62" x2="359.14" y2="241.62" gradientUnits="userSpaceOnUse"><stop offset="0" stop-color="#292929"/><stop offset="1"/></linearGradient><linearGradient id="linear-gradient-2" x1="455.53" y1="177.55" x2="367.04" y2="254.05" xlink:href="#linear-gradient"/><linearGradient id="linear-gradient-3" x1="374.14" y1="235.13" x2="158.44" y2="235.13" xlink:href="#linear-gradient"/><linearGradient id="linear-gradient-4" x1="237.78" y1="50.31" x2="237.78" y2="572.41" gradientUnits="userSpaceOnUse"><stop offset="0" stop-color="#9e9e9e"/><stop offset="1" stop-color="#2b2b2b"/></linearGradient><linearGradient id="linear-gradient-5" x1="437.15" y1="401.99" x2="52.13" y2="401.99" xlink:href="#linear-gradient"/></defs><title>C</title><path class="cls-1" d="M374.8,269.93q0-62.69,0-125.36l.74.63q0,62.69,0,125.36Z"/><polygon class="cls-1" points="455.56 84.06 455.57 209.42 386.61 280.95 386.6 155.58 455.56 84.06"/><path class="cls-1" d="M386.61,281q-5.33-5.44-11.07-10.39,0-62.67,0-125.36,5.73,5,11.07,10.38C386.6,193.19,386.6,243.34,386.61,281Z"/><polygon class="cls-2" points="385.97 183.33 385.98 308.69 378.42 299.91 378.41 174.55 385.97 183.33"/><polygon class="cls-3" points="482.35 83.36 482.36 208.72 385.98 308.69 385.97 183.33 482.35 83.36"/><polygon class="cls-4" points="455.18 363.43 455.19 488.8 386.17 424.66 386.16 299.3 455.18 363.43"/><path class="cls-1" d="M337.31,245.43a169.11,169.11,0,0,0-33.24-12.28q0-62.68,0-125.36a169.11,169.11,0,0,1,33.24,12.28,178.57,178.57,0,0,1,37.49,24.5q0,62.67,0,125.36A178.57,178.57,0,0,0,337.31,245.43Z"/><path class="cls-1" d="M162.86,287.94c-10.8,18.15-16.27,38.75-16.27,61.23V223.8c0-22.47,5.47-43.07,16.27-61.22a116.8,116.8,0,0,1,44.84-43.2c19-10.43,40.45-15.72,63.83-15.72a134.83,134.83,0,0,1,32.54,4.13q0,62.69,0,125.36A134.31,134.31,0,0,0,271.53,229c-23.38,0-44.86,5.29-63.83,15.71A116.8,116.8,0,0,0,162.86,287.94Z"/><path class="cls-5" d="M378.41,174.55V299.91a158.72,158.72,0,0,0-50.89-39.28c-19.27-9.41-38.11-14.18-56-14.18-19.54,0-37.42,4.37-53.15,13A98.58,98.58,0,0,0,180.62,296c-9.31,15.65-14,33.55-14,53.22V223.81c0-19.67,4.73-37.58,14-53.22a98.51,98.51,0,0,1,37.75-36.48c15.73-8.65,33.61-13,53.15-13,17.9,0,36.74,4.77,56,14.18A158.58,158.58,0,0,1,378.41,174.55Z"/><path class="cls-1" d="M35.7,429C25.27,404.65,20,378.33,20,350.34V225c0,28,5.26,54.31,15.69,78.61Q35.69,366.28,35.7,429Z"/><path class="cls-4" d="M386.16,299.3V424.66a203.63,203.63,0,0,1-51.52,31.25c-22.15,9.32-43.4,14-63.19,14-23.42,0-44.93-5.41-63.9-16.08a119,119,0,0,1-44.74-43.48c-10.78-18.13-16.24-38.73-16.24-61.23V223.8c0,22.49,5.46,43.1,16.24,61.23a118.89,118.89,0,0,0,44.74,43.47c19,10.67,40.48,16.09,63.9,16.09,19.79,0,41-4.72,63.19-14A204.21,204.21,0,0,0,386.16,299.3Z"/><path class="cls-6" d="M269.48,17.42c34.68,0,69.93,6.63,104.76,19.69,31.79,11.92,59.11,27.7,81.32,47l-69,71.52a178,178,0,0,0-49.3-35.51c-22.29-10.88-44.42-16.4-65.78-16.41-23.38,0-44.86,5.29-63.83,15.72a116.8,116.8,0,0,0-44.84,43.2c-10.8,18.15-16.27,38.75-16.27,61.22S152,266.9,162.81,285a119,119,0,0,0,44.74,43.47c19,10.67,40.48,16.09,63.9,16.09,19.79,0,41.05-4.72,63.19-14a204.21,204.21,0,0,0,51.52-31.25l69,64.13c-23.89,21.13-52.46,38.41-85.05,51.44-35.46,14.18-71,21.37-105.59,21.36-46.2,0-88.43-9.22-125.48-27.37s-66.37-43.51-87.37-75.54S20,264.8,20,225c0-39,10.89-74.67,32.35-106.1s51.42-56.46,89.11-74.39S222.32,17.41,269.48,17.42Z"/><path class="cls-1" d="M35.7,429c-8.59-41.79,0-83.58,0-125.37a192.68,192.68,0,0,0,16,29.73c21,32,50.4,57.45,87.37,75.54s79.28,27.36,125.48,27.37c34.61,0,70.13-7.18,105.59-21.36,32.59-13,61.16-30.31,85.05-51.44V488.8c-23.89,21.12-52.46,38.4-85.05,51.43-35.46,14.18-71,21.37-105.59,21.36-46.2,0-88.43-9.21-125.48-27.36S72.7,490.71,51.7,458.68A193,193,0,0,1,35.7,429Z"/><path class="cls-7" d="M482.58,363.42l-.22,125.38c-26.93,25.49-65.89,52.08-103.87,67.27S302.05,579,264.55,579c-49.69,0-95.2-10-135.29-29.6s-72.11-47.29-94.93-82.09S0,393.22,0,350.34V225c0,42.89,11.53,82.25,34.32,117S89.09,404.38,129.25,424s85.6,29.6,135.29,29.61c37.5,0,75.83-7.72,113.94-22.95S455.65,388.92,482.58,363.42Z"/><path class="cls-4" d="M386.42,274.07l96.16,89.35-6.28,6c-26.93,25.5-59.84,46.13-97.82,61.32S302,453.65,264.54,453.65c-49.69,0-95.2-10-135.29-29.61S57.14,376.76,34.32,342,0,267.86,0,225c0-42.15,11.84-80.84,35.15-115S91,48.66,131.88,29.21,218.93,0,269.49,0C306.9,0,344.8,7.11,382.15,21.1s69,33.06,94.19,56.62l6,5.64L386,183.33l-7.56-8.78a158.58,158.58,0,0,0-50.89-39.28c-19.27-9.41-38.11-14.18-56-14.18-19.54,0-37.42,4.37-53.15,13a98.51,98.51,0,0,0-37.75,36.48c-9.31,15.64-14,33.55-14,53.22s4.71,37.58,14,53.22a100.65,100.65,0,0,0,37.82,36.84c15.69,8.82,33.55,13.3,53.07,13.31,16.74,0,35.07-4.14,54.48-12.31a183.59,183.59,0,0,0,53.18-34.1Zm-16.29,140.8c32.59-13,61.16-30.31,85.05-51.44l-69-64.13a204.21,204.21,0,0,1-51.52,31.25c-22.15,9.32-43.4,14-63.19,14-23.42,0-44.93-5.42-63.9-16.09A118.89,118.89,0,0,1,162.81,285C152,266.9,146.57,246.29,146.57,223.8s5.48-43.07,16.28-61.22a116.8,116.8,0,0,1,44.84-43.2c19-10.43,40.45-15.72,63.83-15.72,21.36,0,43.48,5.53,65.77,16.41a177.92,177.92,0,0,1,49.31,35.51l69-71.52C433.35,64.8,406,49,374.23,37.11c-34.82-13.06-70.07-19.68-104.75-19.69-47.16,0-90.23,9.1-128,27.07s-67.68,43-89.11,74.38S20,186,20,225c0,39.82,10.65,76.26,31.69,108.34s50.4,57.45,87.36,75.54,79.29,27.36,125.49,27.37c34.61,0,70.13-7.18,105.59-21.36"/></svg>
