<?xml version="1.0" encoding="UTF-8" standalone="no"?>
<!DOCTYPE svg PUBLIC "-//W3C//DTD SVG 1.1//EN" "http://www.w3.org/Graphics/SVG/1.1/DTD/svg11.dtd">
<svg width="100%" height="100%" viewBox="0 0 320 80" version="1.1" xmlns="http://www.w3.org/2000/svg" xmlns:xlink="http://www.w3.org/1999/xlink" xml:space="preserve" xmlns:serif="http://www.serif.com/" style="fill-rule:evenodd;clip-rule:evenodd;stroke-linejoin:round;stroke-miterlimit:1.41421;">
    <g id="Layer1">
        <g transform="matrix(1.26323,0,0,1.26323,-10.4571,-10.4194)">
            <g transform="matrix(1,0,0,1,3.82324,0)">
                <path d="M36.589,12.182C37.455,12.297 38.128,12.966 38.198,13.864C38.713,14.22 39.229,14.575 39.746,14.928C46.025,19.193 52.375,23.248 58.915,27.207C59.112,27.327 59.309,27.448 59.506,27.569C60.92,28.453 62.68,29.023 63.115,30.557C63.115,30.557 62.578,32.326 58.485,34.98C52.602,38.825 46.818,42.934 41.081,46.921C39.659,47.967 38.339,49.565 36.732,49.564C34.656,49.562 33.343,47.378 32.038,46.414C25.07,41.463 17.05,37.878 10.554,33.379C10.032,33.017 9.466,32.268 9.466,32.268C9.262,31.791 9.384,32.257 9.299,31.673C9.299,31.673 10.606,29.53 13.198,27.875C20.462,22.968 27.465,17.405 35.124,12.686C35.124,12.686 35.605,12.156 36.589,12.182ZM35.743,16.421C28.664,20.876 22.003,25.916 15.194,30.75C13.436,31.938 13.653,31.178 15.225,32.208C21.391,36.199 27.983,39.24 34.092,43.58C35.29,44.465 35.709,45.06 36.749,45.864C36.749,45.864 45.048,40.022 51.327,35.598C53.638,33.981 55.765,32.365 58.332,30.968C58.109,30.825 57.884,30.683 57.659,30.543C50.347,26.032 43.062,21.496 36.017,16.611C35.925,16.548 35.837,16.363 35.743,16.421Z" style="fill:rgb(51,51,51);fill-rule:nonzero;"/>
            </g>
            <g transform="matrix(1,0,0,1,3.82324,0)">
                <path d="M36.915,46.825C38.602,46.994 38.523,47.61 38.543,48.587C38.491,53.987 38.341,59.364 38.101,64.738C38.101,64.738 37.976,65.708 37.281,66.143C36.209,66.814 34.582,66.096 34.604,64.581C34.842,59.254 34.992,53.905 35.043,48.554C35.043,48.554 35.155,46.755 36.915,46.825Z" style="fill:rgb(51,51,51);fill-rule:nonzero;"/>
            </g>
            <g transform="matrix(1,0,0,1,3.82324,0)">
                <path d="M11.201,30.144C12.16,30.226 12.88,30.896 12.853,31.987C12.559,37.337 12.283,42.684 11.979,48.038C11.979,48.038 11.693,49.377 10.657,49.637C9.581,49.906 8.451,49.108 8.485,47.84C8.788,42.496 9.065,37.145 9.358,31.796C9.358,31.796 9.524,30.103 11.201,30.144Z" style="fill:rgb(51,51,51);fill-rule:nonzero;"/>
            </g>
            <g transform="matrix(1,0,0,1,3.82324,0)">
                <path d="M62.041,29.863C62.938,29.97 63.605,30.572 63.636,31.606L63.636,47.371C63.596,48.724 63.118,48.76 62.543,48.993C61.487,49.421 60.172,48.599 60.136,47.371L60.136,31.606C60.166,30.592 60.637,29.78 62.041,29.863Z" style="fill:rgb(51,51,51);fill-rule:nonzero;"/>
            </g>
            <g transform="matrix(1,0,0,1,3.82324,0)">
                <path d="M36.83,13.175C38.554,13.283 38.495,13.946 38.524,14.926C38.519,20.153 38.358,25.363 38.139,30.579L38.094,31.62C38.026,32.535 37.792,32.599 37.508,32.852C36.518,33.732 34.577,33.042 34.597,31.468C34.837,25.945 35.019,20.438 35.024,14.922C35.024,14.922 35.086,13.173 36.83,13.175Z" style="fill:rgb(51,51,51);fill-rule:nonzero;"/>
            </g>
            <g transform="matrix(1,0,0,1,3.82324,0)">
                <path d="M35.863,28.985C35.863,28.985 38.97,30.462 41.336,32.206C48.037,37.145 55.642,41.087 61.861,46.357C61.861,46.357 63.38,48.663 60.767,49.833C60.767,49.833 55.721,53.822 51.704,56.519C47.917,59.06 43.903,61.255 40.234,63.993C38.381,65.43 36.945,67.564 34.472,66.839C24.289,63.778 16.13,56.135 8.644,48.342C8.644,48.342 7.979,47.493 8.226,46.642C8.58,45.419 10.25,44.96 11.346,46.101C18.016,40.64 25.234,36.072 32.136,31.085C33.3,30.248 34.367,29.062 35.59,28.977C35.59,28.977 35.718,28.975 35.863,28.985ZM35.625,32.87C28.617,38.427 20.818,42.917 13.787,48.626C19.927,54.899 26.79,60.811 35.228,63.412C35.228,63.412 36.549,62.515 37.917,61.364C37.917,61.364 45.422,56.573 50.121,53.363C52.684,51.613 55.167,49.747 57.614,47.836L57.875,47.63C51.98,43.067 45.448,39.61 39.26,35.024C37.921,34.042 35.959,32.607 35.625,32.87Z" style="fill:rgb(51,51,51);fill-rule:nonzero;"/>
            </g>
        </g>
        <g transform="matrix(1.26323,0,0,1.26323,69.0886,-10.4194)">
            <g transform="matrix(1,0,0,1,3.82324,0)">
                <path d="M36.589,12.182C37.455,12.297 38.128,12.966 38.198,13.864C38.713,14.22 39.229,14.575 39.746,14.928C46.025,19.193 52.375,23.248 58.915,27.207C59.112,27.327 59.309,27.448 59.506,27.569C60.92,28.453 62.68,29.023 63.115,30.557C63.115,30.557 62.578,32.326 58.485,34.98C52.602,38.825 46.818,42.934 41.081,46.921C39.659,47.967 38.339,49.565 36.732,49.564C34.656,49.562 33.343,47.378 32.038,46.414C25.07,41.463 17.05,37.878 10.554,33.379C10.032,33.017 9.466,32.268 9.466,32.268C9.262,31.791 9.384,32.257 9.299,31.673C9.299,31.673 10.606,29.53 13.198,27.875C20.462,22.968 27.465,17.405 35.124,12.686C35.124,12.686 35.605,12.156 36.589,12.182ZM35.743,16.421C28.664,20.876 22.003,25.916 15.194,30.75C13.436,31.938 13.653,31.178 15.225,32.208C21.391,36.199 27.983,39.24 34.092,43.58C35.29,44.465 35.709,45.06 36.749,45.864C36.749,45.864 45.048,40.022 51.327,35.598C53.638,33.981 55.765,32.365 58.332,30.968C58.109,30.825 57.884,30.683 57.659,30.543C50.347,26.032 43.062,21.496 36.017,16.611C35.925,16.548 35.837,16.363 35.743,16.421Z" style="fill:rgb(51,51,51);fill-rule:nonzero;"/>
            </g>
            <g transform="matrix(1,0,0,1,3.82324,0)">
                <path d="M36.915,46.825C38.602,46.994 38.523,47.61 38.543,48.587C38.491,53.987 38.341,59.364 38.101,64.738C38.101,64.738 37.976,65.708 37.281,66.143C36.209,66.814 34.582,66.096 34.604,64.581C34.842,59.254 34.992,53.905 35.043,48.554C35.043,48.554 35.155,46.755 36.915,46.825Z" style="fill:rgb(51,51,51);fill-rule:nonzero;"/>
            </g>
            <g transform="matrix(1,0,0,1,3.82324,0)">
                <path d="M11.201,30.144C12.16,30.226 12.88,30.896 12.853,31.987C12.559,37.337 12.283,42.684 11.979,48.038C11.979,48.038 11.693,49.377 10.657,49.637C9.581,49.906 8.451,49.108 8.485,47.84C8.788,42.496 9.065,37.145 9.358,31.796C9.358,31.796 9.524,30.103 11.201,30.144Z" style="fill:rgb(51,51,51);fill-rule:nonzero;"/>
            </g>
            <g transform="matrix(1,0,0,1,3.82324,0)">
                <path d="M62.041,29.863C62.938,29.97 63.605,30.572 63.636,31.606L63.636,47.371C63.596,48.724 63.118,48.76 62.543,48.993C61.487,49.421 60.172,48.599 60.136,47.371L60.136,31.606C60.166,30.592 60.637,29.78 62.041,29.863Z" style="fill:rgb(51,51,51);fill-rule:nonzero;"/>
            </g>
            <g transform="matrix(1,0,0,1,3.82324,0)">
                <path d="M36.83,13.175C38.554,13.283 38.495,13.946 38.524,14.926C38.519,20.153 38.358,25.363 38.139,30.579L38.094,31.62C38.026,32.535 37.792,32.599 37.508,32.852C36.518,33.732 34.577,33.042 34.597,31.468C34.837,25.945 35.019,20.438 35.024,14.922C35.024,14.922 35.086,13.173 36.83,13.175Z" style="fill:rgb(51,51,51);fill-rule:nonzero;"/>
            </g>
            <g transform="matrix(1,0,0,1,3.82324,0)">
                <path d="M35.863,28.985C35.863,28.985 38.97,30.462 41.336,32.206C48.037,37.145 55.642,41.087 61.861,46.357C61.861,46.357 63.38,48.663 60.767,49.833C60.767,49.833 55.721,53.822 51.704,56.519C47.917,59.06 43.903,61.255 40.234,63.993C38.381,65.43 36.945,67.564 34.472,66.839C24.289,63.778 16.13,56.135 8.644,48.342C8.644,48.342 7.979,47.493 8.226,46.642C8.58,45.419 10.25,44.96 11.346,46.101C18.016,40.64 25.234,36.072 32.136,31.085C33.3,30.248 34.367,29.062 35.59,28.977C35.59,28.977 35.718,28.975 35.863,28.985ZM35.625,32.87C28.617,38.427 20.818,42.917 13.787,48.626C19.927,54.899 26.79,60.811 35.228,63.412C35.228,63.412 36.549,62.515 37.917,61.364C37.917,61.364 45.422,56.573 50.121,53.363C52.684,51.613 55.167,49.747 57.614,47.836L57.875,47.63C51.98,43.067 45.448,39.61 39.26,35.024C37.921,34.042 35.959,32.607 35.625,32.87Z" style="fill:rgb(51,51,51);fill-rule:nonzero;"/>
            </g>
        </g>
        <g transform="matrix(1.26941,0,0,1.26941,148.806,-10.5659)">
            <g transform="matrix(1,0,0,1,3.82324,6.04688)">
                <path d="M36.589,12.182C37.455,12.297 38.128,12.966 38.198,13.864C38.713,14.22 39.229,14.574 39.746,14.928C46.025,19.193 52.375,23.248 58.915,27.207C59.112,27.327 59.309,27.448 59.506,27.569C60.92,28.453 62.681,29.027 63.115,30.556C63.115,30.556 62.683,32.258 58.485,34.98C52.602,38.825 46.818,42.934 41.081,46.921C39.659,47.967 38.339,49.565 36.732,49.564C34.656,49.562 33.343,47.378 32.038,46.414C25.07,41.463 17.049,37.878 10.554,33.379C10.032,33.018 9.466,32.268 9.466,32.268C9.262,31.791 9.384,32.257 9.299,31.673C9.299,31.673 10.606,29.53 13.198,27.875C20.462,22.968 27.465,17.405 35.124,12.686C35.124,12.686 35.753,12.16 36.589,12.182ZM35.743,16.421C28.664,20.876 22.003,25.916 15.194,30.75C13.433,31.94 13.651,31.177 15.225,32.208C21.391,36.199 27.984,39.24 34.092,43.58C35.289,44.464 35.702,45.054 36.749,45.864C36.749,45.864 45.048,40.022 51.327,35.598C53.638,33.981 55.765,32.365 58.332,30.968C58.109,30.825 57.884,30.683 57.659,30.543C50.347,26.032 43.062,21.496 36.017,16.611C35.925,16.548 35.837,16.363 35.743,16.421Z" style="fill:rgb(51,51,51);fill-rule:nonzero;"/>
            </g>
            <g transform="matrix(1,0,0,1,3.82324,0)">
                <path d="M36.644,52.212C39.128,52.413 38.311,57.071 38.264,60.1C38.229,62.012 38.095,64.823 38.095,64.823C37.88,66.635 34.48,67.493 34.646,63.638C34.786,60.405 34.772,57.17 34.795,53.947C34.795,53.947 34.993,52.16 36.644,52.212Z" style="fill:rgb(51,51,51);fill-rule:nonzero;"/>
            </g>
            <g transform="matrix(1,0,0,1,3.82324,0)">
                <path d="M10.919,35.494C12.791,35.644 12.509,38.422 12.396,40.513C12.26,43.02 12.122,45.529 11.979,48.039C11.979,48.039 11.764,49.207 10.889,49.561C9.832,49.989 8.502,49.158 8.482,47.925C8.598,44.336 8.877,40.742 9.075,37.145C9.151,36.195 9.789,35.46 10.919,35.494Z" style="fill:rgb(51,51,51);fill-rule:nonzero;"/>
            </g>
            <g transform="matrix(1,0,0,1,3.82324,0)">
                <path d="M62.009,35.774C62.873,35.855 63.572,36.566 63.634,37.438C63.711,40.748 63.636,44.06 63.636,47.371C63.596,49.055 60.319,50.022 60.138,47.453C60.06,44.143 60.136,40.831 60.136,37.52C60.159,36.525 60.838,35.719 62.009,35.774Z" style="fill:rgb(51,51,51);fill-rule:nonzero;"/>
            </g>
            <g transform="matrix(1,0,0,1,3.82324,0)">
                <path d="M36.595,19.03C39.099,19.212 38.339,23.714 38.249,27.473C38.208,29.188 38.088,31.705 38.088,31.705C37.87,33.56 34.478,34.287 34.639,30.496C34.662,29.965 34.683,29.434 34.703,28.903C34.797,26.193 34.763,23.486 34.76,20.779C34.784,19.799 35.414,19.002 36.595,19.03Z" style="fill:rgb(51,51,51);fill-rule:nonzero;"/>
            </g>
            <g transform="matrix(1,0,0,1,3.82324,0)">
                <path d="M35.863,28.985C35.863,28.985 38.795,30.354 41.025,31.978C47.804,36.916 55.603,41.054 61.861,46.357C61.861,46.357 63.381,48.663 60.767,49.833C60.767,49.833 55.721,53.822 51.704,56.519C47.917,59.06 43.903,61.255 40.234,63.993C38.381,65.43 36.945,67.564 34.472,66.839C24.289,63.778 16.13,56.135 8.644,48.342C8.644,48.342 7.616,45.452 9.85,45.38C10.415,45.362 10.932,45.671 11.346,46.101C18.497,40.246 26.746,35.318 33.8,29.854C34.696,29.172 35.544,28.963 35.863,28.985ZM35.625,32.87C28.666,38.388 20.818,42.917 13.787,48.626C19.927,54.899 26.79,60.811 35.228,63.412C35.228,63.412 36.55,62.514 37.917,61.364C37.917,61.364 45.422,56.573 50.121,53.363C52.684,51.613 55.167,49.747 57.614,47.836L57.875,47.63C51.98,43.067 45.448,39.61 39.26,35.024C37.921,34.042 35.959,32.607 35.625,32.87Z" style="fill:rgb(51,51,51);fill-rule:nonzero;"/>
            </g>
        </g>
        <g transform="matrix(1.25887,0,0,1.25887,229.479,-10.417)">
            <g transform="matrix(1,0,0,1,3.82324,14.282)">
                <path d="M36.589,12.182C37.455,12.297 38.128,12.966 38.198,13.864C38.713,14.22 39.229,14.575 39.746,14.928C46.025,19.193 52.375,23.248 58.915,27.207C59.112,27.327 59.309,27.448 59.506,27.569C60.921,28.454 62.684,29.035 63.116,30.559C63.116,30.559 62.579,32.325 58.485,34.98C52.602,38.825 46.818,42.935 41.081,46.921C39.659,47.967 38.339,49.565 36.732,49.564C34.656,49.562 33.344,47.379 32.038,46.414C25.071,41.463 17.05,37.878 10.554,33.379C10.036,33.02 9.466,32.268 9.466,32.268C8.944,31.048 8.84,31.797 9.541,30.556C10.64,28.615 13.095,27.97 15.533,26.189C21.905,21.509 28.358,16.855 35.124,12.686C35.124,12.686 35.753,12.16 36.589,12.182ZM35.743,16.421C28.664,20.876 22.002,25.916 15.194,30.75C13.796,31.695 13.021,30.764 15.225,32.208C21.391,36.199 27.983,39.239 34.092,43.58C35.288,44.464 35.709,45.06 36.749,45.864C36.749,45.864 45.048,40.022 51.327,35.598C53.636,33.983 55.727,32.386 58.332,30.968C58.109,30.825 57.884,30.683 57.659,30.543C56.896,30.072 56.125,29.614 55.358,29.15C48.849,25.176 42.305,20.97 36.017,16.611C35.925,16.548 35.837,16.363 35.743,16.421Z" style="fill:rgb(51,51,51);fill-rule:nonzero;"/>
            </g>
            <g transform="matrix(1,0,0,1,3.82324,0)">
                <path d="M36.701,60.348C38.505,60.43 38.9,63.573 38.11,64.922C38.11,64.922 37.637,66.24 36.606,66.391C35.109,66.61 34.094,64.817 34.802,62.296C35.127,61.142 35.629,60.325 36.701,60.348Z" style="fill:rgb(51,51,51);fill-rule:nonzero;"/>
            </g>
            <g transform="matrix(1,0,0,1,3.82324,0)">
                <path d="M10.174,44.21C11.7,44.244 12.154,46.058 11.973,48.111C11.83,49.415 10.014,50.225 8.978,49.16C7.478,47.619 8.078,44.207 10.174,44.21Z" style="fill:rgb(51,51,51);fill-rule:nonzero;"/>
            </g>
            <g transform="matrix(1,0,0,1,3.82324,0)">
                <path d="M62.019,43.764C64.356,43.814 64.443,48.699 62.188,49.095C59.908,49.495 59.019,43.762 62.019,43.764Z" style="fill:rgb(51,51,51);fill-rule:nonzero;"/>
            </g>
            <g transform="matrix(1,0,0,1,3.82324,0)">
                <path d="M36.458,27.099C37.898,27.169 38.294,28.774 38.191,30.783C38.191,30.783 37.3,34.928 35.121,32.794C34.368,32.056 34.652,30.306 34.652,30.306C34.633,28.777 34.894,27.062 36.458,27.099Z" style="fill:rgb(51,51,51);fill-rule:nonzero;"/>
            </g>
            <g transform="matrix(1,0,0,1,3.82324,0)">
                <path d="M35.863,28.985C35.863,28.985 38.795,30.354 41.025,31.978C47.933,37.01 55.634,41.081 61.861,46.357C61.861,46.357 63.38,48.663 60.767,49.833C60.767,49.833 55.721,53.822 51.703,56.519C47.917,59.06 43.903,61.255 40.234,63.993C38.381,65.431 36.945,67.564 34.472,66.839C24.289,63.778 16.13,56.135 8.644,48.342C8.644,48.342 7.815,47.095 8.458,46.147C9.072,45.242 10.4,45.117 11.346,46.101C18.016,40.64 25.234,36.073 32.136,31.085C33.3,30.248 34.367,29.062 35.59,28.977C35.59,28.977 35.718,28.975 35.863,28.985ZM35.625,32.87C28.616,38.428 20.818,42.917 13.787,48.626C19.927,54.899 26.79,60.811 35.228,63.412C35.228,63.412 36.549,62.515 37.917,61.364C37.917,61.364 45.422,56.573 50.121,53.363C52.684,51.613 55.167,49.747 57.614,47.836L57.875,47.63C51.98,43.067 45.448,39.609 39.26,35.024C37.921,34.042 35.959,32.607 35.625,32.87Z" style="fill:rgb(51,51,51);fill-rule:nonzero;"/>
            </g>
        </g>
    </g>
</svg>
