<?xml version="1.0" encoding="UTF-8" standalone="no"?>
<!DOCTYPE svg PUBLIC "-//W3C//DTD SVG 1.1//EN" "http://www.w3.org/Graphics/SVG/1.1/DTD/svg11.dtd">
<svg width="100%" height="100%" viewBox="0 0 80 80" version="1.1" xmlns="http://www.w3.org/2000/svg" xmlns:xlink="http://www.w3.org/1999/xlink" xml:space="preserve" xmlns:serif="http://www.serif.com/" style="fill-rule:evenodd;clip-rule:evenodd;stroke-linejoin:round;stroke-miterlimit:1.41421;">
    <g transform="matrix(1.26323,0,0,1.26323,-10.4571,-10.4194)">
        <g transform="matrix(1,0,0,1,3.82324,0)">
            <path d="M36.589,12.182C37.455,12.297 38.128,12.966 38.198,13.864C38.713,14.22 39.229,14.575 39.746,14.928C46.025,19.193 52.375,23.248 58.915,27.207C59.112,27.327 59.309,27.448 59.506,27.569C60.92,28.453 62.68,29.023 63.115,30.557C63.115,30.557 62.578,32.326 58.485,34.98C52.602,38.825 46.818,42.934 41.081,46.921C39.659,47.967 38.339,49.565 36.732,49.564C34.656,49.562 33.343,47.378 32.038,46.414C25.07,41.463 17.05,37.878 10.554,33.379C10.032,33.017 9.466,32.268 9.466,32.268C9.262,31.791 9.384,32.257 9.299,31.673C9.299,31.673 10.606,29.53 13.198,27.875C20.462,22.968 27.465,17.405 35.124,12.686C35.124,12.686 35.605,12.156 36.589,12.182ZM35.743,16.421C28.664,20.876 22.003,25.916 15.194,30.75C13.436,31.938 13.653,31.178 15.225,32.208C21.391,36.199 27.983,39.24 34.092,43.58C35.29,44.465 35.709,45.06 36.749,45.864C36.749,45.864 45.048,40.022 51.327,35.598C53.638,33.981 55.765,32.365 58.332,30.968C58.109,30.825 57.884,30.683 57.659,30.543C50.347,26.032 43.062,21.496 36.017,16.611C35.925,16.548 35.837,16.363 35.743,16.421Z" style="fill:rgb(51,51,51);fill-rule:nonzero;"/>
        </g>
        <g transform="matrix(1,0,0,1,3.82324,0)">
            <path d="M36.915,46.825C38.602,46.994 38.523,47.61 38.543,48.587C38.491,53.987 38.341,59.364 38.101,64.738C38.101,64.738 37.976,65.708 37.281,66.143C36.209,66.814 34.582,66.096 34.604,64.581C34.842,59.254 34.992,53.905 35.043,48.554C35.043,48.554 35.155,46.755 36.915,46.825Z" style="fill:rgb(51,51,51);fill-rule:nonzero;"/>
        </g>
        <g transform="matrix(1,0,0,1,3.82324,0)">
            <path d="M11.201,30.144C12.16,30.226 12.88,30.896 12.853,31.987C12.559,37.337 12.283,42.684 11.979,48.038C11.979,48.038 11.693,49.377 10.657,49.637C9.581,49.906 8.451,49.108 8.485,47.84C8.788,42.496 9.065,37.145 9.358,31.796C9.358,31.796 9.524,30.103 11.201,30.144Z" style="fill:rgb(51,51,51);fill-rule:nonzero;"/>
        </g>
        <g transform="matrix(1,0,0,1,3.82324,0)">
            <path d="M62.041,29.863C62.938,29.97 63.605,30.572 63.636,31.606L63.636,47.371C63.596,48.724 63.118,48.76 62.543,48.993C61.487,49.421 60.172,48.599 60.136,47.371L60.136,31.606C60.166,30.592 60.637,29.78 62.041,29.863Z" style="fill:rgb(51,51,51);fill-rule:nonzero;"/>
        </g>
        <g transform="matrix(1,0,0,1,3.82324,0)">
            <path d="M36.83,13.175C38.554,13.283 38.495,13.946 38.524,14.926C38.519,20.153 38.358,25.363 38.139,30.579L38.094,31.62C38.026,32.535 37.792,32.599 37.508,32.852C36.518,33.732 34.577,33.042 34.597,31.468C34.837,25.945 35.019,20.438 35.024,14.922C35.024,14.922 35.086,13.173 36.83,13.175Z" style="fill:rgb(51,51,51);fill-rule:nonzero;"/>
        </g>
        <g transform="matrix(1,0,0,1,3.82324,0)">
            <path d="M35.863,28.985C35.863,28.985 38.97,30.462 41.336,32.206C48.037,37.145 55.642,41.087 61.861,46.357C61.861,46.357 63.38,48.663 60.767,49.833C60.767,49.833 55.721,53.822 51.704,56.519C47.917,59.06 43.903,61.255 40.234,63.993C38.381,65.43 36.945,67.564 34.472,66.839C24.289,63.778 16.13,56.135 8.644,48.342C8.644,48.342 7.979,47.493 8.226,46.642C8.58,45.419 10.25,44.96 11.346,46.101C18.016,40.64 25.234,36.072 32.136,31.085C33.3,30.248 34.367,29.062 35.59,28.977C35.59,28.977 35.718,28.975 35.863,28.985ZM35.625,32.87C28.617,38.427 20.818,42.917 13.787,48.626C19.927,54.899 26.79,60.811 35.228,63.412C35.228,63.412 36.549,62.515 37.917,61.364C37.917,61.364 45.422,56.573 50.121,53.363C52.684,51.613 55.167,49.747 57.614,47.836L57.875,47.63C51.98,43.067 45.448,39.61 39.26,35.024C37.921,34.042 35.959,32.607 35.625,32.87Z" style="fill:rgb(51,51,51);fill-rule:nonzero;"/>
        </g>
    </g>
</svg>
