<svg id="Layer_1" data-name="Layer 1" xmlns="http://www.w3.org/2000/svg" viewBox="0 0 1571.37 700.65"><defs><style>.cls-1{fill:none;stroke:#ccc;stroke-linecap:round;stroke-miterlimit:10;stroke-width:4px;}.cls-2{fill:#b3b3b3;}.cls-3{fill:#181716;}.cls-4{fill:#f2f2f2;}</style></defs><title>contact</title><line class="cls-1" x1="805.53" y1="611.47" x2="805.53" y2="698.65"/><line class="cls-1" x1="805.53" y1="520.47" x2="805.53" y2="571.47"/><polyline class="cls-1" points="805.53 107.16 805.53 129.47 805.53 156.47"/><line class="cls-1" x1="805.53" y1="2" x2="805.53" y2="55.47"/><line class="cls-1" x1="883.12" y1="639.53" x2="895.78" y2="686.77"/><line class="cls-1" x1="867.77" y1="582.22" x2="875.61" y2="611.47"/><line class="cls-1" x1="840.31" y1="479.73" x2="853.06" y2="527.34"/><line class="cls-1" x1="760.68" y1="182.56" x2="771.6" y2="223.3"/><line class="cls-1" x1="735.71" y1="89.37" x2="747.08" y2="131.82"/><line class="cls-1" x1="956.52" y1="611.47" x2="979.88" y2="651.93"/><line class="cls-1" x1="888.3" y1="493.3" x2="939.34" y2="581.71"/><line class="cls-1" x1="704.43" y1="174.82" x2="723.34" y2="207.58"/><line class="cls-1" x1="679.6" y1="131.82" x2="692.14" y2="153.55"/><line class="cls-1" x1="631.56" y1="48.61" x2="667.34" y2="110.59"/><line class="cls-1" x1="999" y1="543.41" x2="1027.06" y2="571.47"/><line class="cls-1" x1="903.85" y1="448.26" x2="948.89" y2="493.3"/><line class="cls-1" x1="678.21" y1="222.62" x2="710.84" y2="255.25"/><line class="cls-1" x1="587.41" y1="131.82" x2="646.7" y2="191.11"/><line class="cls-1" x1="1065.32" y1="499.93" x2="1107.52" y2="524.29"/><line class="cls-1" x1="943.17" y1="429.41" x2="993.38" y2="458.4"/><line class="cls-1" x1="524.69" y1="187.8" x2="645.33" y2="257.45"/><line class="cls-1" x1="1065.32" y1="419.55" x2="1107.52" y2="430.86"/><line class="cls-1" x1="980.71" y1="396.88" x2="1036.16" y2="411.74"/><line class="cls-1" x1="617.08" y1="299.44" x2="645.33" y2="307.01"/><line class="cls-1" x1="517.53" y1="272.77" x2="579.62" y2="289.41"/><line class="cls-1" x1="1107.52" y1="349.94" x2="1154.24" y2="349.94"/><line class="cls-1" x1="967.67" y1="349.94" x2="1030.34" y2="349.94"/><line class="cls-1" x1="600.34" y1="349.94" x2="645.33" y2="349.94"/><line class="cls-1" x1="504.2" y1="349.94" x2="545.34" y2="349.94"/><line class="cls-1" x1="1062.48" y1="281.09" x2="1142.36" y2="259.69"/><line class="cls-1" x1="964.48" y1="307.35" x2="993.98" y2="299.44"/><line class="cls-1" x1="590.82" y1="407.47" x2="635.22" y2="395.57"/><line class="cls-1" x1="545.37" y1="419.65" x2="565.05" y2="414.38"/><line class="cls-1" x1="469.45" y1="439.99" x2="508.95" y2="429.41"/><line class="cls-1" x1="1083.35" y1="189.54" x2="1107.52" y2="175.58"/><line class="cls-1" x1="1005.82" y1="234.3" x2="1052.1" y2="207.58"/><line class="cls-1" x1="932.13" y1="276.84" x2="980.71" y2="248.8"/><line class="cls-1" x1="635.22" y1="448.26" x2="676.36" y2="424.51"/><line class="cls-1" x1="504.2" y1="523.91" x2="572.7" y2="484.36"/><line class="cls-1" x1="967.67" y1="187.8" x2="1036.16" y2="119.31"/><line class="cls-1" x1="921.17" y1="234.3" x2="943.17" y2="212.3"/><line class="cls-1" x1="609.5" y1="545.97" x2="681.15" y2="474.31"/><line class="cls-1" x1="948.89" y1="101.63" x2="979.88" y2="47.95"/><line class="cls-1" x1="681.15" y1="565.36" x2="725.06" y2="489.31"/><line class="cls-1" x1="631.56" y1="651.26" x2="664.96" y2="593.41"/><line class="cls-1" x1="845.38" y1="201.21" x2="895.78" y2="13.11"/><line class="cls-1" x1="715.48" y1="686.02" x2="745.05" y2="575.66"/><path class="cls-2" d="M6.5,314H66v13.58h-44v20.07H61.49v13.57H22.05V381.6H67.41v13.58H6.5Z"/><path class="cls-2" d="M113.35,314H128.9v67.18h35v14H113.35Z"/><path class="cls-2" d="M206.28,314H265.8v13.58h-44v20.07h39.45v13.57H221.83V381.6h45.36v13.58H206.28Z"/><path class="cls-2" d="M361.81,329.62a27.59,27.59,0,0,0-11.9-2.78,27.17,27.17,0,0,0-13.8,3.6,26,26,0,0,0-9.86,9.92,28.48,28.48,0,0,0,0,27.72,26.39,26.39,0,0,0,9.86,10,26.83,26.83,0,0,0,13.8,3.66,28.85,28.85,0,0,0,11.66-2.56A33.54,33.54,0,0,0,372,372.09l9.16,10.21a47.79,47.79,0,0,1-14.85,10.26,41.74,41.74,0,0,1-17.17,3.78,42.53,42.53,0,0,1-21.46-5.57,40.93,40.93,0,0,1-15.32-15.14,41.4,41.4,0,0,1-5.57-21.18,40.37,40.37,0,0,1,5.69-21.11,40.87,40.87,0,0,1,15.49-15,45,45,0,0,1,38.81-2A41.92,41.92,0,0,1,381,326L372,337.4A30.74,30.74,0,0,0,361.81,329.62Z"/><path class="cls-2" d="M415,314h66.25v13.81H456v67.41H440.29V327.77H415Z"/><path class="cls-2" d="M573.25,395.18l-14-24a25.53,25.53,0,0,1-2.9.11H538v23.91H522.43V314h33.88q15.78,0,24.36,7.31t8.59,20.65q0,9.52-4.12,16.25a25.2,25.2,0,0,1-12,10.09L591,395.18ZM538,357.59h18.33q8.82,0,13.46-3.83c3.09-2.56,4.64-6.34,4.64-11.37s-1.55-8.66-4.64-11.14-7.58-3.71-13.46-3.71H538Z"/><path class="cls-2" d="M695.36,318.37A41.55,41.55,0,0,1,711,375.63a41.4,41.4,0,0,1-15.6,15.14,46.17,46.17,0,0,1-44,0,41.43,41.43,0,0,1-15.61-15.14,41.12,41.12,0,0,1,15.61-57.26,47.07,47.07,0,0,1,44,0ZM659.8,330.49a27.8,27.8,0,0,0-10,38,28,28,0,0,0,10.1,10.09,26.63,26.63,0,0,0,13.75,3.72,26.12,26.12,0,0,0,13.57-3.72,27.21,27.21,0,0,0,9.92-10.09,28.71,28.71,0,0,0,0-28,27.06,27.06,0,0,0-9.92-10,26.53,26.53,0,0,0-13.57-3.65A27.38,27.38,0,0,0,659.8,330.49Z"/><path class="cls-2" d="M962.27,314h15.09v81.22H962.62l-41.77-55.93v55.93H905.66V314h14.73l41.88,56Z"/><path class="cls-2" d="M1027.48,314H1043v81.22h-15.54Z"/><path class="cls-2" d="M1141.81,329.62a27.51,27.51,0,0,0-11.89-2.78,27.24,27.24,0,0,0-13.81,3.6,26.16,26.16,0,0,0-9.86,9.92,28.55,28.55,0,0,0,0,27.72,26.54,26.54,0,0,0,9.86,10,26.89,26.89,0,0,0,13.81,3.66,28.88,28.88,0,0,0,11.66-2.56,33.38,33.38,0,0,0,10.38-7.07l9.17,10.21a47.9,47.9,0,0,1-14.85,10.26,41.78,41.78,0,0,1-17.17,3.78,42.5,42.5,0,0,1-21.46-5.57,40.86,40.86,0,0,1-15.32-15.14,41.4,41.4,0,0,1-5.57-21.18,40.37,40.37,0,0,1,5.69-21.11,40.87,40.87,0,0,1,15.49-15,45,45,0,0,1,38.8-2A41.82,41.82,0,0,1,1161,326l-9,11.37A30.53,30.53,0,0,0,1141.81,329.62Z"/><path class="cls-2" d="M1263.46,395.18l-7.2-17.18h-39.67l-7.2,17.18h-16.12L1228.88,314H1245l35.16,81.22Zm-41.3-30.52h28.54l-14.16-34.11Z"/><path class="cls-2" d="M1320.19,314h15.55v67.18h35v14h-50.59Z"/><path class="cls-2" d="M1413.12,314h15.55v67.18h35v14h-50.58Z"/><path class="cls-2" d="M1571.37,314l-29.59,54.65v26.57h-15.54v-26L1496,314h15.77l22.16,38.17L1555.71,314Z"/><path class="cls-3" d="M0,307.46H59.52V321h-44v20.07H55v13.57H15.55V375.1H60.91v13.58H0Z"/><path class="cls-3" d="M106.85,307.46H122.4v67.18h35v14H106.85Z"/><path class="cls-3" d="M199.78,307.46H259.3V321h-44v20.07h39.45v13.57H215.33V375.1h45.36v13.58H199.78Z"/><path class="cls-3" d="M355.31,323.12a27.59,27.59,0,0,0-11.9-2.78,27.17,27.17,0,0,0-13.8,3.6,26,26,0,0,0-9.86,9.92,28.48,28.48,0,0,0,0,27.72,26.39,26.39,0,0,0,9.86,10,26.83,26.83,0,0,0,13.8,3.66,28.85,28.85,0,0,0,11.66-2.56,33.54,33.54,0,0,0,10.39-7.07l9.16,10.21a47.79,47.79,0,0,1-14.85,10.26,41.74,41.74,0,0,1-17.17,3.78,42.53,42.53,0,0,1-21.46-5.57,40.93,40.93,0,0,1-15.32-15.14A41.4,41.4,0,0,1,300.25,348a40.37,40.37,0,0,1,5.69-21.11,40.87,40.87,0,0,1,15.49-15,45,45,0,0,1,38.81-2,41.92,41.92,0,0,1,14.27,9.63l-9.05,11.37A30.74,30.74,0,0,0,355.31,323.12Z"/><path class="cls-3" d="M408.5,307.46h66.25v13.81H449.46v67.41H433.79V321.27H408.5Z"/><path class="cls-3" d="M566.75,388.68l-14-24a25.53,25.53,0,0,1-2.9.11H531.48v23.91H515.93V307.46h33.88q15.78,0,24.36,7.31t8.59,20.65q0,9.52-4.12,16.25a25.2,25.2,0,0,1-12,10.09l17.87,26.92Zm-35.27-37.59h18.33q8.82,0,13.46-3.83c3.09-2.56,4.64-6.34,4.64-11.37s-1.55-8.66-4.64-11.14S555.69,321,549.81,321H531.48Z"/><path class="cls-3" d="M688.86,311.87a41.55,41.55,0,0,1,15.6,57.26,41.4,41.4,0,0,1-15.6,15.14,46.17,46.17,0,0,1-44,0,41.43,41.43,0,0,1-15.61-15.14,41.12,41.12,0,0,1,15.61-57.26,47.07,47.07,0,0,1,44,0ZM653.3,324a27.8,27.8,0,0,0-10,38,28,28,0,0,0,10.1,10.09,26.63,26.63,0,0,0,13.75,3.72,26.12,26.12,0,0,0,13.57-3.72A27.21,27.21,0,0,0,690.6,362a28.71,28.71,0,0,0,0-28,27.06,27.06,0,0,0-9.92-10,26.53,26.53,0,0,0-13.57-3.65A27.38,27.38,0,0,0,653.3,324Z"/><path class="cls-3" d="M955.77,307.46h15.09v81.22H956.12l-41.76-55.93v55.93h-15.2V307.46h14.73l41.88,56Z"/><path class="cls-3" d="M1021,307.46h15.54v81.22H1021Z"/><path class="cls-3" d="M1135.31,323.12a27.51,27.51,0,0,0-11.89-2.78,27.17,27.17,0,0,0-13.8,3.6,26.12,26.12,0,0,0-9.87,9.92,28.55,28.55,0,0,0,0,27.72,26.49,26.49,0,0,0,9.87,10,26.83,26.83,0,0,0,13.8,3.66,28.88,28.88,0,0,0,11.66-2.56,33.38,33.38,0,0,0,10.38-7.07l9.17,10.21a47.79,47.79,0,0,1-14.85,10.26,41.78,41.78,0,0,1-17.17,3.78,42.5,42.5,0,0,1-21.46-5.57,40.86,40.86,0,0,1-15.32-15.14,41.4,41.4,0,0,1-5.57-21.18,40.37,40.37,0,0,1,5.69-21.11,40.87,40.87,0,0,1,15.49-15,45,45,0,0,1,38.8-2,41.82,41.82,0,0,1,14.27,9.63l-9,11.37A30.53,30.53,0,0,0,1135.31,323.12Z"/><path class="cls-3" d="M1257,388.68l-7.19-17.18h-39.68l-7.2,17.18h-16.12l35.62-81.22h16.12l35.16,81.22Zm-41.3-30.52h28.54L1230,324.05Z"/><path class="cls-3" d="M1313.69,307.46h15.55v67.18h35v14h-50.59Z"/><path class="cls-3" d="M1406.62,307.46h15.55v67.18h35v14h-50.59Z"/><path class="cls-3" d="M1564.87,307.46l-29.58,54.65v26.57h-15.55v-26l-30.28-55.23h15.78l22.16,38.17,21.81-38.17Z"/><polygon points="871.57 277.46 751.45 364.77 799.36 364.77 740.94 423.19 871.57 343.1 815.01 343.1 871.57 277.46"/><path class="cls-3" d="M525.76,209.7a9.94,9.94,0,0,0-4.53-1.14,9.73,9.73,0,0,0-8.59,5,10.36,10.36,0,0,0-1.3,5.16,10.49,10.49,0,0,0,1.3,5.18,9.81,9.81,0,0,0,3.58,3.71,9.53,9.53,0,0,0,5,1.37,10.61,10.61,0,0,0,4.44-1,14,14,0,0,0,4-2.81l4.32,4.69a19.55,19.55,0,0,1-6.11,4.27,17,17,0,0,1-7,1.58,17.32,17.32,0,0,1-8.68-2.21,16.17,16.17,0,0,1-6.14-6.06,16.89,16.89,0,0,1-2.22-8.59,16.19,16.19,0,0,1,8.52-14.49,18,18,0,0,1,8.8-2.18A18.37,18.37,0,0,1,534,207.58l-4.28,5.25A12.17,12.17,0,0,0,525.76,209.7Z"/><path class="cls-3" d="M595.21,204.33a16.61,16.61,0,0,1,0,29.14,18.91,18.91,0,0,1-17.74,0,16.34,16.34,0,0,1-8.59-14.6,16.24,16.24,0,0,1,2.29-8.52,16.48,16.48,0,0,1,6.27-6,19.2,19.2,0,0,1,17.77,0Zm-13.8,5.6a10,10,0,0,0-3.66,3.74,10.7,10.7,0,0,0,0,10.44,10.45,10.45,0,0,0,3.67,3.77,9.64,9.64,0,0,0,9.94,0,9.93,9.93,0,0,0,3.57-3.76,10.74,10.74,0,0,0,1.32-5.27,10.5,10.5,0,0,0-1.32-5.2,10,10,0,0,0-3.57-3.74,9.42,9.42,0,0,0-5-1.37A9.74,9.74,0,0,0,581.41,209.93Z"/><path class="cls-3" d="M665.47,202.66h7v32.51h-6.68L650,214.27v20.9h-7V202.66h6.69l15.79,21Z"/><path class="cls-3" d="M710.75,202.66h27.16v6.22H728v26.29h-7.34V208.88h-9.89Z"/><path class="cls-3" d="M796.84,235.17l-2.55-6.32h-15l-2.55,6.32h-7.57l14.12-32.51h7.57l13.88,32.51ZM781.66,223h10.26l-5.11-12.63Z"/><path class="cls-3" d="M861.18,209.7a9.93,9.93,0,0,0-4.52-1.14,9.7,9.7,0,0,0-8.59,5,10.36,10.36,0,0,0-1.3,5.16,10.49,10.49,0,0,0,1.3,5.18,9.71,9.71,0,0,0,3.57,3.71,9.59,9.59,0,0,0,5,1.37,10.56,10.56,0,0,0,4.43-1,14.21,14.21,0,0,0,4-2.81l4.32,4.69a19.67,19.67,0,0,1-6.11,4.27,17,17,0,0,1-7,1.58,17.36,17.36,0,0,1-8.69-2.21,16.14,16.14,0,0,1-6.13-6.06,16.9,16.9,0,0,1-2.23-8.59,16.25,16.25,0,0,1,8.52-14.49,18,18,0,0,1,8.8-2.18,18.32,18.32,0,0,1,12.82,5.43l-4.27,5.25A12.21,12.21,0,0,0,861.18,209.7Z"/><path class="cls-3" d="M905,202.66h27.17v6.22h-9.94v26.29h-7.34V208.88H905Z"/><path class="cls-3" d="M1015.66,202.66h8.17l10.13,20,10-20h8.13v32.51h-6.6v-22l-9.24,18.67h-4.74l-9.28-18.67v22h-6.6Z"/><path class="cls-3" d="M1093.68,202.66h24.75v6.08H1101v7.06h15.65v6.09H1101v7.19h17.92v6.09h-25.26Z"/><path class="cls-3" d="M426.11,107.73h0c9.07-7.93,22.7,1.56,18.43,12.82h0A11.57,11.57,0,0,0,457.6,136h0c11.82-2.32,18.88,12.71,9.55,20.33h0a11.57,11.57,0,0,0,3.57,19.92h0c11.4,3.9,10,20.44-1.88,22.38h0a11.57,11.57,0,0,0-6.87,19h0c7.92,9.08-1.56,22.71-12.82,18.44h0a11.58,11.58,0,0,0-15.47,13h0C436,261,421,268.05,413.36,258.72h0a11.57,11.57,0,0,0-19.92,3.57h0c-3.9,11.4-20.45,10-22.38-1.89h0a11.57,11.57,0,0,0-19-6.86h0c-9.08,7.92-22.71-1.56-18.44-12.83h0a11.57,11.57,0,0,0-13-15.46h0c-11.82,2.32-18.89-12.71-9.56-20.32h0A11.57,11.57,0,0,0,307.41,185h0c-11.4-3.9-10-20.45,1.89-22.38h0a11.58,11.58,0,0,0,6.86-19h0c-7.92-9.07,1.56-22.71,12.83-18.43h0a11.58,11.58,0,0,0,15.46-13.06h0c-2.32-11.82,12.71-18.88,20.32-9.55h0A11.58,11.58,0,0,0,384.69,99h0c3.9-11.39,20.45-10,22.38,1.89h0A11.58,11.58,0,0,0,426.11,107.73Z"/><path class="cls-4" d="M385.19,156a1.08,1.08,0,0,1,.74.42,1.21,1.21,0,0,1,.23.86,1.05,1.05,0,0,1-.43.74,1.08,1.08,0,0,1-.82.21,2.41,2.41,0,0,0-.5.05,1.57,1.57,0,0,0-.69.41,7.6,7.6,0,0,0-1.78,2.76A28.06,28.06,0,0,0,380.5,166q-.64,2.64-1.17,5.86c-.35,2.15-.65,4.38-.92,6.7s-.48,4.67-.65,7.06-.33,4.72-.46,7-.22,4.4-.29,6.42-.12,3.8-.14,5.35v1.53a1.29,1.29,0,0,1-.38.81,1.24,1.24,0,0,1-1.62-.08,1.06,1.06,0,0,1-.3-.81,1.38,1.38,0,0,1,0-.35,2.57,2.57,0,0,0,0-.4v-.57a30.8,30.8,0,0,0-1.6-8.66q-.81-2.61-1.88-5.14t-2.16-5q-1.68-3.84-3-7.36a23.56,23.56,0,0,1-1.63-6.67,5.64,5.64,0,0,1-.08-.93c0-.32,0-.64,0-1a44,44,0,0,0-1.39,4.83q-.58,2.58-1,5.09c-.28,1.67-.51,3.24-.67,4.71s-.27,2.71-.33,3.72v0l0,.06v.26l-.08.9-.41,3.24c-.14,1.28-.37,2.8-.69,4.59s-.7,3.66-1.15,5.62q-3.6,15.52-10.07,18.16a9.62,9.62,0,0,1-5.4.68,7.82,7.82,0,0,1-2.07-.76,6.48,6.48,0,0,1-1.78-1.4,7.21,7.21,0,0,1-1.81-3.48,5.52,5.52,0,0,1,.36-3.62,1.15,1.15,0,0,1,1.53-.53,1.1,1.1,0,0,1,.57.66,1.07,1.07,0,0,1-.05.86,3.43,3.43,0,0,0-.16,2.27,4.87,4.87,0,0,0,3.86,3.75,7.27,7.27,0,0,0,4.13-.55,7.47,7.47,0,0,0,3.27-2.75,24.38,24.38,0,0,0,2.63-4.84,49.19,49.19,0,0,0,2-6.08q.87-3.27,1.49-6.48t1-6c.25-1.88.43-3.46.54-4.75,0-.09,0-.47.08-1.16s.15-1.58.28-2.68.29-2.34.49-3.75.46-2.87.78-4.38q.58-2.73,1.25-5a37.44,37.44,0,0,1,1.45-4,17.72,17.72,0,0,1,2-3.59,7.64,7.64,0,0,1,2.88-2.3,1,1,0,0,1,.84,0,1.06,1.06,0,0,1,.61.58,1,1,0,0,1,.09.82,1.1,1.1,0,0,1-.54.64s-.22.21-.51.48a4.49,4.49,0,0,0-.9,1.39,11.36,11.36,0,0,0-.76,2.55,14.8,14.8,0,0,0-.09,4,22.29,22.29,0,0,0,1.57,6.24c.88,2.25,1.86,4.61,2.94,7.06.7,1.59,1.38,3.21,2.06,4.84s1.29,3.26,1.83,4.91c.09-1.6.19-3.28.29-5s.24-3.54.4-5.37q.42-5,1-9t1.24-7.33q1.76-8.34,4.43-10.71A3.7,3.7,0,0,1,385.19,156Z"/><path class="cls-4" d="M401.81,172.2a1,1,0,0,1,.79.34,1,1,0,0,1,.27.82,32.27,32.27,0,0,1-.82,6.29,26.18,26.18,0,0,1-1.9,5.44,17.19,17.19,0,0,1-2.46,3.82,11.15,11.15,0,0,1-2.95,2.51,6.35,6.35,0,0,1-2.92.92,4.9,4.9,0,0,1-2.71-.64,8.53,8.53,0,0,1-3.78-4.37,13.51,13.51,0,0,1-.85-5.73A19.19,19.19,0,0,1,385,178a17.89,17.89,0,0,1,1.13-3.38,12.42,12.42,0,0,1,1.75-2.83,5.58,5.58,0,0,1,2-1.63,3.16,3.16,0,0,1,2.25-.23,3.26,3.26,0,0,1,1.77,1.38,6.37,6.37,0,0,1,.89,2.44A11.34,11.34,0,0,1,394,180a6.34,6.34,0,0,1-1.58,2.29,3.52,3.52,0,0,1-.84.62,6.44,6.44,0,0,1-1.1.49,5,5,0,0,1-1.2.26,2.89,2.89,0,0,1-1.2-.13,2.54,2.54,0,0,1-1.37-1,11.28,11.28,0,0,0,.72,4,6.18,6.18,0,0,0,2.78,3.24,2.54,2.54,0,0,0,1.84.3,6.24,6.24,0,0,0,1.61-.58,9.71,9.71,0,0,0,2.25-1.93,14,14,0,0,0,2.14-3.3,25.05,25.05,0,0,0,1.67-4.72,33.1,33.1,0,0,0,.89-6.21,1.23,1.23,0,0,1,.37-.81A1,1,0,0,1,401.81,172.2Zm-11,0a3.45,3.45,0,0,0-1.24,1,10,10,0,0,0-1.19,1.88,16,16,0,0,0-1,2.49,17,17,0,0,0-.58,2.94,1,1,0,0,1,.46-.2,1,1,0,0,1,.85.14,1,1,0,0,1,.49.7.28.28,0,0,0,.16.21,1.76,1.76,0,0,0,1-.13,3.3,3.3,0,0,0,1.1-.6,4.46,4.46,0,0,0,1.13-1.74,9.58,9.58,0,0,0,.55-4.6,4.62,4.62,0,0,0-.55-1.78A.82.82,0,0,0,390.8,172.2Z"/><path class="cls-4" d="M430,162.77a1.09,1.09,0,0,1,.8.34,1.12,1.12,0,0,1,.3.81,8.83,8.83,0,0,1-.87,3.82,11.46,11.46,0,0,1-1.57,2.4,8,8,0,0,1-2.3,1.73,7.11,7.11,0,0,1-2.65.76,5.13,5.13,0,0,1-1.71-.1,6.45,6.45,0,0,1-1.53-.56c-.21,1.32-.45,2.55-.71,3.69s-.53,2.17-.8,3.07q-1.11,3.72-2.63,5a3,3,0,0,1-1.42.71,3.54,3.54,0,0,1-1.13,0,3.84,3.84,0,0,1-1.41-.61,5.24,5.24,0,0,1-1.46-1.5c-.37,2.14-1.1,3.55-2.2,4.25A4.06,4.06,0,0,1,407,187a4.64,4.64,0,0,1-2.56-.84c-1.81-1.09-3-3.7-3.57-7.81a38.1,38.1,0,0,1-.31-5.44c0-2,.11-4.06.29-6.22a1,1,0,0,1,.41-.77,1.18,1.18,0,0,1,.86-.24,1.2,1.2,0,0,1,.75.4,1.05,1.05,0,0,1,.25.83,58.14,58.14,0,0,0-.29,6.18,38,38,0,0,0,.35,5.2,17.27,17.27,0,0,0,1,3.85,4.23,4.23,0,0,0,1.5,2.08,10.24,10.24,0,0,0,.94.44,1,1,0,0,0,.87,0,2.14,2.14,0,0,0,.45-.48,4,4,0,0,0,.54-1.39,16.52,16.52,0,0,0,.36-2.77,36.82,36.82,0,0,0-.08-4.58l0-.28a30.77,30.77,0,0,1-.16-4.24c0-1.49.16-3,.35-4.56a1,1,0,0,1,.43-.76,1.18,1.18,0,0,1,.85-.21,1,1,0,0,1,.77.41,1.06,1.06,0,0,1,.22.82,40,40,0,0,0-.35,5.76,29.74,29.74,0,0,0,.46,4.86,12.31,12.31,0,0,0,1.13,3.46,2.76,2.76,0,0,0,1.72,1.55.77.77,0,0,0,.21,0,1.14,1.14,0,0,0,.37-.2,5.45,5.45,0,0,0,1.2-1.83,19.5,19.5,0,0,0,1-2.93c.3-1.11.57-2.3.82-3.58s.45-2.54.63-3.8a5.72,5.72,0,0,1-.8-2.17c-.16-.82-.29-1.68-.39-2.6a19.23,19.23,0,0,1-.11-2.58,9.81,9.81,0,0,1,.31-2.21,2.7,2.7,0,0,1,.89-1.46,1.58,1.58,0,0,1,1.71-.24,2.37,2.37,0,0,1,1,.93,3.67,3.67,0,0,1,.44,1.6,8.35,8.35,0,0,1,0,1.11q0,.78-.12,1.86t-.21,2.43c-.08.9-.19,1.83-.33,2.78a1.86,1.86,0,0,0,.45.41,3.09,3.09,0,0,0,2.27.62,4.66,4.66,0,0,0,1.84-.53,6,6,0,0,0,1.68-1.3,6.76,6.76,0,0,0,1.23-2,8.07,8.07,0,0,0,.52-2.67,1.32,1.32,0,0,1,.36-.82A1,1,0,0,1,430,162.77Z"/><path class="cls-4" d="M433.86,145.22a1,1,0,0,1,.8.29,1.06,1.06,0,0,1,.32.8l.41,24.2a1.09,1.09,0,0,1-.28.82,1.05,1.05,0,0,1-.8.34,1.27,1.27,0,0,1-.84-.32,1.05,1.05,0,0,1-.34-.8l-.41-24.2a1.1,1.1,0,0,1,.33-.81A1,1,0,0,1,433.86,145.22Zm.29,28.38a1.43,1.43,0,0,1,1.13.07,1.37,1.37,0,0,1,.74.81,1.46,1.46,0,0,1-.06,1.14,1.42,1.42,0,0,1-.86.75,1.34,1.34,0,0,1-1.11-.07,1.49,1.49,0,0,1-.68-2A1.39,1.39,0,0,1,434.15,173.6Z"/></svg>