<svg id="Layer_1" data-name="Layer 1" xmlns="http://www.w3.org/2000/svg" viewBox="0 0 80 80"><defs><style>.cls-1{fill:#333;}</style></defs><title>dribbble-noframes</title><path class="cls-1" d="M29.31,3.62C13.36,8,2.69,21.89,2,38.53A38.33,38.33,0,0,0,66.84,67.89c11.24-10.68,14.75-30,8.17-44.11C71,15.3,63.71,8.87,55.24,5.08A42.33,42.33,0,0,0,43.36,1.51C38,.85,33.22,2.81,28,3.79c-1.89.36-1.09,3.25.8,2.9,5.47-1,10.28-3,16-1.91A43.22,43.22,0,0,1,58,9.83c7.91,4.6,14.27,12,16.36,21.09,4.39,19-6.3,38.52-25.25,43.59C31.37,79.25,12.3,68.77,6.69,51.35A36.29,36.29,0,0,1,8.54,24.56C13,15.08,20.05,9.3,30.11,6.51a1.5,1.5,0,0,0-.8-2.89Z"/><path class="cls-1" d="M25.12,7.71C33,16.57,39.19,27,44.53,37.54c5.65,11.18,9.41,23.2,8.2,35.83-.18,1.93,2.82,1.91,3,0,1.2-12.53-2.36-24.58-7.82-35.75-5.56-11.38-12.22-22.56-20.67-32-1.28-1.44-3.4.69-2.12,2.12Z"/><path class="cls-1" d="M17.66,67.94a52.7,52.7,0,0,1,24.78-21c11-4.52,22-3.84,33.68-3.07,1.93.13,1.92-2.87,0-3-12.44-.82-24-1.36-35.7,3.67A55.83,55.83,0,0,0,15.07,66.43c-1,1.65,1.57,3.15,2.59,1.51Z"/><path class="cls-1" d="M4.44,37.73c11.49,2.69,24.57.75,35.65-3.11,10-3.48,20.65-10.61,26.7-19.42,1.09-1.6-1.51-3.1-2.6-1.52-5.91,8.63-16.72,15.56-26.62,18.61-10.22,3.16-21.86,5-32.33,2.55-1.88-.44-2.68,2.45-.8,2.89Z"/></svg>