<svg id="Layer_1" data-name="Layer 1" xmlns="http://www.w3.org/2000/svg" viewBox="0 0 320 80"><defs><style>.cls-1{fill:#333;}</style></defs><title>dribbble</title><path class="cls-1" d="M29.31,3.68C13.36,8.1,2.69,22,2,38.59A38.33,38.33,0,0,0,66.84,68c11.24-10.68,14.75-30,8.17-44.11-4-8.48-11.3-14.91-19.77-18.7A42.33,42.33,0,0,0,43.36,1.57C38,.91,33.22,2.87,28,3.85c-1.89.36-1.09,3.25.8,2.9,5.47-1,10.28-3,16-1.91A43.22,43.22,0,0,1,58,9.89C65.89,14.49,72.25,21.94,74.34,31c4.39,19-6.3,38.52-25.25,43.59C31.37,79.31,12.3,68.83,6.69,51.41A36.29,36.29,0,0,1,8.54,24.62C13,15.14,20.05,9.36,30.11,6.57a1.5,1.5,0,0,0-.8-2.89Z"/><path class="cls-1" d="M25.12,7.77C33,16.63,39.19,27,44.53,37.6c5.65,11.18,9.41,23.2,8.2,35.83-.18,1.93,2.82,1.91,3,0,1.2-12.53-2.36-24.58-7.82-35.75-5.56-11.38-12.22-22.56-20.67-32-1.28-1.44-3.4.69-2.12,2.12Z"/><path class="cls-1" d="M17.66,68A52.7,52.7,0,0,1,42.44,47c11-4.52,22-3.84,33.68-3.07,1.93.13,1.92-2.87,0-3-12.44-.82-24-1.36-35.7,3.67A55.83,55.83,0,0,0,15.07,66.49c-1,1.64,1.57,3.15,2.59,1.51Z"/><path class="cls-1" d="M4.44,37.79c11.49,2.69,24.57.75,35.65-3.11,10-3.48,20.65-10.61,26.7-19.42,1.09-1.6-1.51-3.1-2.6-1.52C58.28,22.37,47.47,29.3,37.57,32.35c-10.22,3.16-21.86,5-32.33,2.55-1.88-.44-2.68,2.45-.8,2.89Z"/><path class="cls-1" d="M108.44,13c-14.86,4.46-25.89,14.87-26.32,31.1-.38,14.65,9.93,26.77,23.26,31.77a41.69,41.69,0,0,0,40.9-6.75c11.81-9.76,15.47-27.64,7.34-41-4.3-7.08-11.48-11.82-19.16-14.56a47,47,0,0,0-12.92-2.77c-5-.27-9.56,1.53-14.36,2.37-1.9.34-1.1,3.23.8,2.9,4.53-.8,8.9-2.51,13.56-2.27A44,44,0,0,1,135.21,17c8.08,3.24,15,9.05,18.11,17.36s2,20.2-3.66,27.27a38.08,38.08,0,0,1-20,12.72c-15.8,4-35.17-2.66-42.22-18.16a28.68,28.68,0,0,1,.7-24.47c4.64-8.73,11.83-13,21.11-15.83,1.84-.55,1.06-3.45-.8-2.89Z"/><path class="cls-1" d="M104.32,17.09c6.73,8,13.4,16.31,19.5,24.83A48.4,48.4,0,0,1,133,73.57c-.09,1.93,2.91,1.92,3,0,.54-11.57-2.1-22.22-8.66-31.82C121,32.46,113.66,23.58,106.44,15c-1.24-1.48-3.36.65-2.12,2.12Z"/><path class="cls-1" d="M97.88,69.33c6.16-8.86,14.25-15.6,24.53-19.1,11.13-3.79,22-3.23,33.58-2.83,1.93.07,1.93-2.93,0-3-12.7-.44-24.73-.9-36.81,3.82-10,3.91-17.81,10.84-23.89,19.59-1.1,1.59,1.5,3.09,2.59,1.52Z"/><path class="cls-1" d="M84.21,43.2c11.58,2.11,24.2.54,35.52-2.61a47.83,47.83,0,0,0,26.39-18.38c1.1-1.59-1.5-3.09-2.59-1.52-6.18,8.86-15.9,14.91-26.33,17.46S95.59,42.23,85,40.3c-1.89-.34-2.7,2.55-.8,2.9Z"/><path class="cls-1" d="M188.28,24.39c-13.92,3.13-26,10.15-26,25.89,0,13.43,11.46,22.42,23.38,26.1A48,48,0,0,0,228,69.31a24.75,24.75,0,0,0,5.68-33.08c-4.29-6.42-11.54-10-18.84-11.83a88,88,0,0,0-12.49-2.09c-5.14-.52-9.84,1.52-14.9,2-1.9.19-1.92,3.19,0,3,3.41-.35,6.63-1.41,10-1.92,4.61-.71,10.38.49,14.92,1.48,7.58,1.66,15.31,5,19.42,12,4,6.76,3.68,15.48-.09,22.33S218.51,72.2,211.37,74c-14.55,3.75-34.94.33-43.41-13.5-3.56-5.82-3.86-14.91-.32-20.75,4.81-7.94,12.85-10.57,21.43-12.51,1.89-.42,1.09-3.31-.79-2.89Z"/><path class="cls-1" d="M184,27.9c5.48,7.37,11,13.7,18.19,19.4,9,7.06,11,16,10.62,27-.07,1.93,2.93,1.93,3,0,.34-9-.64-18.3-7.07-25.18-3.27-3.5-7.42-6.09-10.95-9.32-4.32-4-7.71-8.71-11.2-13.4-1.14-1.53-3.74,0-2.59,1.51Z"/><path class="cls-1" d="M177.68,70.81C184,62.24,191.51,56,202.06,53.75c11.21-2.38,22.43-1.83,33.77-1.26,1.92.09,1.92-2.91,0-3-12.25-.61-24.72-1.27-36.73,1.88-10.36,2.7-17.8,9.44-24,17.92-1.14,1.56,1.46,3.06,2.59,1.52Z"/><path class="cls-1" d="M164,49.11c11.15,1.78,22.63.73,33.77-1a41.78,41.78,0,0,0,28-16.45c1.18-1.5-.93-3.64-2.12-2.12a39.79,39.79,0,0,1-27.33,15.76c-10.38,1.46-21.1,2.54-31.5.88-1.88-.31-2.7,2.58-.79,2.89Z"/><path class="cls-1" d="M267.26,32.68c-6.55,1.26-14,2.34-19,7.28-4.5,4.49-5.92,8.58-5.74,14.83.37,13.24,12.13,19.84,23.94,22.47a57.18,57.18,0,0,0,42.06-7.05C318.84,63.77,320.1,49,312.61,39.8c-4.8-5.86-12.2-7.92-19.44-8.82a102.07,102.07,0,0,0-12.72-1c-4.79,0-9.23,2.24-14,2.59-1.91.14-1.93,3.14,0,3,3.46-.26,6.54-1.3,9.9-2s6.64-.41,10.09-.15c7.77.57,16.91,1.18,22.75,7.06s6.51,14.14,3.18,21.42c-3.17,6.94-13.5,10.45-20.45,12.13-13.4,3.23-34.54,2.43-43.62-9.86-3.9-5.29-4-14.51,0-19.54,5-6.32,12.2-7.56,19.75-9,1.9-.36,1.1-3.25-.79-2.89Z"/><path class="cls-1" d="M263.05,36.1c4.79,6.51,9.13,12.36,16.74,15.62,4.93,2.1,9.56,3.79,11.63,9.24,1.65,4.33,1.72,9.15,1.64,13.72,0,1.93,3,1.93,3,0,.13-7.83-.42-16.85-7.22-21.94-3.18-2.38-7.19-3.32-10.68-5.13-5.46-2.84-9-8.18-12.52-13-1.13-1.54-3.73,0-2.59,1.52Z"/><path class="cls-1" d="M258,72.75c6.14-8.56,13.06-14.94,23.76-16.5,11.13-1.61,22.78-1.53,34-1.22,1.93,0,1.93-3,0-3-12.1-.34-25.14-.68-37.08,1.71-10.38,2.08-17.29,9.16-23.27,17.49-1.13,1.57,1.47,3.07,2.59,1.52Z"/><path class="cls-1" d="M244.22,54.43A160,160,0,0,0,280,52.88c11.22-1.67,18.77-7.21,25.13-16.36,1.1-1.59-1.49-3.09-2.59-1.52-3.26,4.7-6.59,8.8-11.78,11.47s-11,3.6-16.9,4.07c-9.87.8-19.75,1.7-29.64.89-1.92-.16-1.91,2.84,0,3Z"/></svg>