<svg xmlns="http://www.w3.org/2000/svg" viewBox="0 0 225.89 573.55"><defs><style>.cls-1{fill:#414042;}</style></defs><title>exclamation</title><path class="cls-1" d="M41.08,495.71A35.74,35.74,0,0,1,66.8,506q10.68,10.31,10.68,24.57A35.16,35.16,0,0,1,66.8,556.35a35,35,0,0,1-25.72,10.7,33.73,33.73,0,0,1-25.33-10.7A35.84,35.84,0,0,1,5.46,530.59,33.57,33.57,0,0,1,15.75,506,34.4,34.4,0,0,1,41.08,495.71Z"/><path class="cls-1" d="M91.88,446.16c12.55-52.84,26.82-105.3,43.25-157.08,7.1-22.39,14.61-44.65,22.7-66.7q5.4-14.67,11.17-29.2,2.44-6.13,5-12.23c.8-1.9,2.88-6.63-.85,2,.34-.77.66-1.54,1-2.31q1.56-3.66,3.16-7.29c6.74-15.27,13.94-30.43,22.64-44.69,7.63-12.53,3.15-31.34-10-38.31-13.63-7.2-30.16-3.33-38.31,10-18.75,30.78-32,65.21-44.66,98.84C89.7,245.07,75,291.87,61.77,339q-12.9,45.88-23.89,92.29c-3.38,14.22,4.45,31,19.55,34.44,14.36,3.27,30.82-4.31,34.45-19.56Z"/></svg>
