<?xml version="1.0" encoding="UTF-8"?><svg xmlns="http://www.w3.org/2000/svg" viewBox="0 0 156.64 165.51"><defs><style>.cls-1{fill:#414042;}</style></defs><g id="face"><path id="face-2" class="cls-1" d="M140.94,69.88s-.06,0-.09,0c-.03,0-.06,0-.09,0-1.33,0-2.42,1.08-2.42,2.42v27.34c0,33.72-27.37,61.58-61.08,60.98s-58.92-27.27-58.92-59.98v-33.48s-.67-1.88-1.4-2.6c-2.86-3.26-4.38-7.41-4.25-11.77.14-4.57,2.05-8.81,5.37-11.95,6.87-6.47,17.73-6.15,24.2.72.04.05.1.08.14.12h0c.06.06.12.11.19.16.07.05.15.1.23.14.06.03.11.07.17.1h0c.05.02.11.04.16.06.05.02.1.04.15.06.04.01.07.03.11.04,0,0,.02,0,.03,0,.03,0,.06,0,.08.01.1.02.19.04.29.05.03,0,.06.01.1.01.15,0,.3,0,.45-.02,0,0,0,0,0,0h0c.15-.02.3-.06.44-.11.14-.05.27-.11.4-.18,0,0,0,0,0,0h0s.03-.01.04-.02c.08-.05.16-.11.24-.17.05-.04.11-.08.16-.12,0,0,0,0,0,0,.01-.01.02-.02.04-.03.04-.04.07-.09.11-.13h0c.06-.07.12-.13.18-.21.04-.06.08-.12.12-.18.04-.07.09-.14.13-.22h0c.04-.08.06-.16.09-.25.02-.05.04-.1.06-.16C53.07,15,79.28-.3,104.82,6.42c10.84,2.85,20.63,9.86,27.38,19.02.24.32.46.64.69.97,3.29,4.69,5.79,9.9,7.25,15.38l.21.74c1.64,5.84-.41,13.89-7.98,17.5-2.73,1.3-5.8,1.47-8.65.45-2.85-1.01-5.14-3.07-6.44-5.8-.99-2.07-1.11-4.4-.35-6.56.77-2.16,2.32-3.89,4.39-4.87,1.55-.73,3.29-.83,4.91-.25,1.6.57,2.87,1.72,3.6,3.27.54,1.11.6,2.37.19,3.53-.41,1.16-1.25,2.09-2.36,2.61-1.21.57-1.72,2.01-1.15,3.22.57,1.21,2.02,1.7,3.22,1.15,2.28-1.08,4.01-2.99,4.85-5.37.84-2.39.71-4.96-.38-7.23-1.27-2.7-3.53-4.74-6.34-5.74-2.82-1.01-5.89-.86-8.61.44-3.24,1.54-5.68,4.25-6.87,7.63-1.19,3.38-1.01,7.02.54,10.26,1.86,3.89,5.13,6.83,9.2,8.27,1.76.62,3.59.94,5.41.94,2.37,0,4.73-.53,6.93-1.58,2.74-1.31,4.97-3.11,6.73-5.2,4.34-5.18,5.65-12.18,3.78-18.11l-.14-.53c-4.87-18.39-20.45-33.98-38.77-38.8-26.82-7.07-54.39,8.02-63.23,33.89-8.37-6.17-20.23-5.68-28.06,1.69-4.26,4.02-6.71,9.46-6.89,15.32-.17,5.67,5.48,15.27,5.48,15.27v2.16c-7.54,1.15-13.34,7.65-13.34,15.51s5.78,14.34,13.3,15.5c.29,35.56,29.3,64.41,64.93,64.41s64.63-28.83,64.93-64.39c7.61-1.09,13.48-7.63,13.48-15.53,0-8.66-7.05-15.71-15.71-15.71ZM143.34,96.21v-21.3c4.93,1.04,8.64,5.42,8.64,10.65s-3.71,9.61-8.64,10.65ZM4.84,85.56c0-5.18,3.65-9.53,8.51-10.61l-.03,21.22c-4.84-1.1-8.47-5.44-8.47-10.6Z"/></g><g id="forehead"><path id="forehead-2" class="cls-1" d="M99.99,48.04c1.22.52,2.65-.05,3.17-1.28.52-1.23-.05-2.65-1.28-3.17-8.04-3.41-16.59-5.14-25.4-5.14-19.25,0-37.41,8.46-49.82,23.2-.86,1.03-.73,2.55.29,3.41.45.38,1.01.57,1.56.57.69,0,1.37-.29,1.85-.86,11.48-13.65,28.3-21.48,46.11-21.48,8.16,0,16.08,1.6,23.52,4.76Z"/></g><g id="nose"><path id="nose-2" class="cls-1" d="M70.51,97.64c.36.94,1.33,1.5,2.34,1.5h13.31s.03,0,.05,0c.36,0,.72-.06,1.07-.22,1.25-.58,1.8-2.07,1.22-3.32l-6.23-13.72c-.58-1.25-2.07-1.8-3.32-1.22-1.25.58-1.8,2.07-1.22,3.32l4.62,10.16h-9.52c-1.71,0-3.01,1.7-2.31,3.5Z"/></g><g id="mouth"><path id="mouth-2" class="cls-1" d="M114.16,108.14H42.66c-2.93,0-5.16,2.59-4.77,5.49,2.68,19.98,19.8,35.4,40.52,35.4s37.83-15.41,40.51-35.4c.39-2.9-1.84-5.49-4.77-5.49ZM78.41,144.38c-6.49,0-12.76-1.74-18.25-4.99,3.32-6.22,9.86-10.45,17.4-10.45s14.56,4.57,17.74,11.17c-5.06,2.73-10.82,4.27-16.89,4.27Z"/></g><g id="eye-r"><path id="eye-right" class="cls-1" d="M99.34,79.71v7.66c0,6.46,3.8,11.3,9.15,12.15,6.84,1.09,12.74-4.17,12.74-10.8l-5.82-4.5,5.82-4.81c0-6.64-5.9-11.89-12.74-10.8-5.35.85-9.15,5.69-9.15,11.11Z"/></g><g id="eye-l"><path id="eye-left" class="cls-1" d="M37.34,79.71v7.66c0,6.46,3.8,11.3,9.15,12.15,6.84,1.09,12.74-4.17,12.74-10.8l-5.82-4.5,5.82-4.81c0-6.64-5.9-11.89-12.74-10.8-5.35.85-9.15,5.69-9.15,11.11Z"/></g></svg>