<svg id="Layer_1" data-name="Layer 1" xmlns="http://www.w3.org/2000/svg" viewBox="0 0 160.63 72.27"><title>frontend</title><path d="M21.55,9a20.86,20.86,0,0,0-7.22,12.32L11.44,36.08h29.8l-.83,4.33H10.52L4.23,72.27H0L10.31,20.93a25.81,25.81,0,0,1,8.5-15.26A23.77,23.77,0,0,1,34.74,0a40.54,40.54,0,0,1,9.75,1.19,39.88,39.88,0,0,1,8.6,3.14l-2,4.12a32.2,32.2,0,0,0-7.79-3,35,35,0,0,0-8.5-1.13A20.2,20.2,0,0,0,21.55,9Z"/><path d="M30.73,59.3a8.32,8.32,0,0,1-4,2.5l3.06,4.9c-1.18.08-1.77.11-3,.16-1-1.83-1.52-2.74-2.53-4.55-.23,0-.59,0-1.07.07-1.92.08-2.87.11-4.78.14-.48,1.81-.71,2.71-1.19,4.51L14.69,67c1.5-5.67,2.25-8.56,3.76-14.45,2.94-.17,4.41-.29,7.35-.59a8.35,8.35,0,0,1,4.72.55,3,3,0,0,1,1.65,2.86A6,6,0,0,1,30.73,59.3Zm-2.66-.13A3.77,3.77,0,0,0,29.65,56a1.86,1.86,0,0,0-1.11-1.82,6,6,0,0,0-3.19-.34c-1.93.17-2.89.25-4.81.37-.65,2.61-1,3.9-1.64,6.47,1.9-.05,2.85-.08,4.76-.19A7.9,7.9,0,0,0,28.07,59.17Z"/><path d="M49.85,48.87a5.92,5.92,0,0,1,3.23,2.06,5.81,5.81,0,0,1,1.17,3.68,9.31,9.31,0,0,1-1.49,4.93,12.65,12.65,0,0,1-4,4,12.85,12.85,0,0,1-5.41,2,9.59,9.59,0,0,1-4.59-.43,6.85,6.85,0,0,1-3.21-2.27,5.62,5.62,0,0,1-1.17-3.53,8,8,0,0,1,1.49-4.53,13.79,13.79,0,0,1,4-3.78,15.61,15.61,0,0,1,5.4-2.19A9.86,9.86,0,0,1,49.85,48.87Zm-8.75,3.6a10.13,10.13,0,0,0-3,2.92A6.22,6.22,0,0,0,37,58.84a4.26,4.26,0,0,0,.88,2.67,5.1,5.1,0,0,0,2.37,1.71,6.92,6.92,0,0,0,3.33.3A9.26,9.26,0,0,0,47.52,62a9.9,9.9,0,0,0,2.94-3,7.08,7.08,0,0,0,1.1-3.69A4.31,4.31,0,0,0,48.35,51a6.82,6.82,0,0,0-3.29-.1A10.82,10.82,0,0,0,41.1,52.47Z"/><path d="M73.18,42.21l2.55-.7c-1.5,7.64-2.25,11.42-3.76,18.86l-2.6.54c-3.12-4.84-4.68-7.2-7.79-11.79-1.18,5.61-1.78,8.39-3,13.88L56,63.46c1.51-7,2.26-10.55,3.77-17.76,1-.25,1.56-.38,2.6-.65,3.13,4.56,4.69,6.9,7.82,11.71C71.41,51,72,48.09,73.18,42.21Z"/><path d="M93.43,36.54c-.18,1-.27,1.52-.46,2.53L86.9,40.74c-1.32,6.92-2,10.34-3.3,17.12L81,58.43c1.33-6.72,2-10.11,3.31-17l-6,1.65c.17-1,.26-1.45.43-2.41C84.6,39,87.54,38.19,93.43,36.54Z"/><path d="M100.09,43.65l-.35,2c-2.58.62-3.87.94-6.45,1.58l.35-1.92Z"/><path d="M118.78,32.44c-4.2,1-6.3,1.48-10.5,2.55-.46,2.59-.69,3.88-1.15,6.44,3.75-.89,5.62-1.32,9.37-2.13-.18,1.06-.27,1.59-.46,2.65-3.75.79-5.62,1.21-9.37,2.08-.47,2.64-.71,4-1.18,6.58,4.31-.92,6.46-1.36,10.77-2.18l-.43,2.66c-5.36,1-8,1.53-13.4,2.66,1.5-8.2,2.25-12.35,3.76-20.72,5.21-1.39,7.81-2.07,13-3.29C119,30.82,119,31.36,118.78,32.44Z"/><path d="M137.1,26.09l2.55-.42c-1.5,9-2.26,13.52-3.76,22.4l-2.61.31c-3.11-6.33-4.67-9.39-7.78-15.32-1.19,6.8-1.78,10.17-3,16.86l-2.58.44c1.51-8.58,2.26-12.91,3.76-21.66l2.61-.56c3.12,5.91,4.69,9,7.81,15.27C135.33,36.53,135.92,33.07,137.1,26.09Z"/><path d="M156.62,25.08a7.58,7.58,0,0,1,3,3.39,12,12,0,0,1,1,5.07,14.94,14.94,0,0,1-1.54,6.77A12.53,12.53,0,0,1,155,45.14,10.55,10.55,0,0,1,149.32,47c-3.2.13-4.8.24-8,.51,1.49-9,2.23-13.5,3.73-22.63,2.88-.36,4.32-.52,7.19-.77A7.14,7.14,0,0,1,156.62,25.08Zm.59,5.15A5.73,5.73,0,0,0,155,27.75a5.1,5.1,0,0,0-3.17-.71c-1.88.15-2.82.24-4.7.44-1.12,6.85-1.68,10.26-2.79,17,2.17-.16,3.25-.23,5.42-.33a7.34,7.34,0,0,0,4-1.45,9.7,9.7,0,0,0,3-3.66A11.28,11.28,0,0,0,158,34,8.58,8.58,0,0,0,157.21,30.23Z"/></svg>