<svg id="Layer_1" data-name="Layer 1" xmlns="http://www.w3.org/2000/svg" viewBox="0 0 60 80"><defs><style>.cls-1{fill:none;}.cls-2{fill:#181716;}</style></defs><title>hand-sprite-noframes</title><path class="cls-1" d="M45.89,17.58l-.07.05a25.69,25.69,0,0,1-17.72,4,11.4,11.4,0,0,1-6.31-3.06C19,20,16.33,21.25,14,23.4A20.1,20.1,0,0,0,8.5,32.47a21.26,21.26,0,0,0-.23,11.11,5,5,0,0,0,3.2,3.66A8.82,8.82,0,0,0,16,47.15,65.85,65.85,0,0,0,15,35.65c-.28-1.58,2.14-2.26,2.42-.67a62.28,62.28,0,0,1,.93,16.8c-.46,5-1.32,10-1,15,.22,3.8,1.48,10.61,6.91,8.89,1.93-.62,4-1.83,4.44-3.92.53-2.37-.3-5.09-.47-7.48a72.48,72.48,0,0,1,.6-15.37c.14-1,1.85-.76,1.76.24-.22,2.58-.38,5.17-.42,7.76a9.29,9.29,0,0,0,6.18-4.77c1.66-2.87,2.13-6,2.89-9.13a.9.9,0,0,1,1.77.24,20.59,20.59,0,0,1-1.86,8.46A15.15,15.15,0,0,0,41,51a9.87,9.87,0,0,0,3-2.39c1.87-2.3,1.94-4.86,2.16-7.67.07-1,1.61-1.32,1.79-.25a13.13,13.13,0,0,1,.13,3.42A9.09,9.09,0,0,0,51,40.84,15.15,15.15,0,0,0,52.41,33C52.06,27.23,48.93,22.31,45.89,17.58Z"/><path class="cls-1" d="M32.26,19.27c4.53-.08,8.36-1.72,12.25-3.89l.25-.11c1.51-1.42,2.73-2.8,2.49-5.11a6,6,0,0,0-4.51-5,24.66,24.66,0,0,0-13.86-.09c-3.91,1.19-8.07,5-6.62,9.51C23.6,18.75,28.54,19.32,32.26,19.27Zm-7.07-8.56C28.22,7.54,32.79,6.47,37,7c1.89.25,4.32.63,5.85,1.86a3.06,3.06,0,0,1,.87,4.21,1,1,0,0,1-.38.87c-3.26,2.86-7.8,3.19-11.93,2.88-2-.16-4.07-.36-5.68-1.68S23.73,12.22,25.19,10.71Z"/><path class="cls-1" d="M30.12,14.12a30.53,30.53,0,0,0,4.05.21,16.85,16.85,0,0,0,7.72-2.25h0c.2-.7-.07-1.24-.89-1.63a8.68,8.68,0,0,0-1.8-.54,16.82,16.82,0,0,0-4.89-.56,11.06,11.06,0,0,0-4.13.94,11.24,11.24,0,0,0-1.71,1c-.34.23-1.37.81-1.48,1.23C26.7,13.59,29.46,14,30.12,14.12Z"/><path class="cls-2" d="M47.48,16.11a7.31,7.31,0,0,0,2.23-4.17,8,8,0,0,0-2.25-6.85c-2-2-4.86-2.67-7.62-3.08a29.33,29.33,0,0,0-9.21.05c-5.07.85-10.26,4-11.12,9.46a8,8,0,0,0,.9,5.25,22.72,22.72,0,0,0-14.74,17,25.24,25.24,0,0,0-.35,6.72,14.54,14.54,0,0,0,1.39,5.88c1.92,3.5,5.68,4,9.22,3.43,0,1-.12,2-.21,3-.56,5.57-1.45,11.19-.62,16.79.63,4.28,3,9.28,8.13,8.78a10.62,10.62,0,0,0,6.08-3A7.45,7.45,0,0,0,31,69.24c-.37-3.32-.8-6.58-.86-9.93a10.78,10.78,0,0,0,7.45-4.89,1.12,1.12,0,0,0,.27,0,10.16,10.16,0,0,0,4.5-1.59,11.47,11.47,0,0,0,3.55-3,11,11,0,0,0,1.45-2.55l0,0c5.16-2.55,7.48-7.71,7.39-13.33C54.67,27.28,51.15,21.44,47.48,16.11Zm-18.6-11a24.66,24.66,0,0,1,13.86.09,6,6,0,0,1,4.51,5c.24,2.31-1,3.69-2.49,5.11l-.25.11c-3.89,2.17-7.72,3.81-12.25,3.89-3.72.05-8.66-.52-10-4.67C20.81,10.1,25,6.28,28.88,5.09ZM51,40.84a9.09,9.09,0,0,1-2.87,3.24A13.13,13.13,0,0,0,48,40.66c-.18-1.07-1.72-.71-1.79.25-.22,2.81-.29,5.37-2.16,7.67A9.87,9.87,0,0,1,41,51a15.15,15.15,0,0,1-1.91.75,20.59,20.59,0,0,0,1.86-8.46A.9.9,0,0,0,39.17,43c-.76,3.16-1.23,6.26-2.89,9.13a9.29,9.29,0,0,1-6.18,4.77c0-2.59.2-5.18.42-7.76.09-1-1.62-1.24-1.76-.24a72.48,72.48,0,0,0-.6,15.37c.17,2.39,1,5.11.47,7.48-.47,2.09-2.51,3.3-4.44,3.92-5.43,1.72-6.69-5.09-6.91-8.89-.3-5,.56-10,1-15A62.28,62.28,0,0,0,17.37,35c-.28-1.59-2.7-.91-2.42.67A65.85,65.85,0,0,1,16,47.15a8.82,8.82,0,0,1-4.53.09,5,5,0,0,1-3.2-3.66A21.26,21.26,0,0,1,8.5,32.47,20.1,20.1,0,0,1,14,23.4c2.31-2.15,5-3.42,7.77-4.83a11.4,11.4,0,0,0,6.31,3.06,25.69,25.69,0,0,0,17.72-4l.07-.05c3,4.73,6.17,9.65,6.52,15.41A15.15,15.15,0,0,1,51,40.84Z"/><path class="cls-2" d="M25.74,15.17c1.61,1.32,3.68,1.52,5.68,1.68,4.13.31,8.67,0,11.93-2.88a1,1,0,0,0,.38-.87,3.06,3.06,0,0,0-.87-4.21C41.33,7.66,38.9,7.28,37,7c-4.22-.56-8.79.51-11.82,3.68C23.73,12.22,24.25,14,25.74,15.17ZM27,12.51c.11-.42,1.14-1,1.48-1.23a11.24,11.24,0,0,1,1.71-1,11.06,11.06,0,0,1,4.13-.94,16.82,16.82,0,0,1,4.89.56,8.68,8.68,0,0,1,1.8.54c.82.39,1.09.93.89,1.63h0a16.85,16.85,0,0,1-7.72,2.25,30.53,30.53,0,0,1-4.05-.21C29.46,14,26.7,13.59,27,12.51Z"/></svg>