<svg id="Layer_1" data-name="Layer 1" xmlns="http://www.w3.org/2000/svg" viewBox="0 0 240 80"><defs><style>.cls-1{fill:none;}.cls-2{fill:#181716;}</style></defs><title>hand-sprite</title><path class="cls-1" d="M40.66,17.58l-.07.05a25.73,25.73,0,0,1-17.73,4,11.46,11.46,0,0,1-6.31-3.06C13.8,20,11.09,21.25,8.79,23.4a20,20,0,0,0-5.53,9.07A21.16,21.16,0,0,0,3,43.58a5,5,0,0,0,3.19,3.66,8.82,8.82,0,0,0,4.53-.09,64.89,64.89,0,0,0-1-11.5c-.28-1.58,2.14-2.26,2.42-.67a62.69,62.69,0,0,1,.93,16.8c-.47,5-1.32,10-1,15,.23,3.8,1.48,10.61,6.91,8.89,1.94-.62,4-1.83,4.44-3.92.54-2.37-.29-5.09-.47-7.48a72.49,72.49,0,0,1,.61-15.37c.14-1,1.84-.76,1.76.24-.23,2.58-.38,5.17-.42,7.76a9.31,9.31,0,0,0,6.18-4.77c1.66-2.87,2.12-6,2.89-9.13a.91.91,0,0,1,1.77.24,20.75,20.75,0,0,1-1.86,8.46,15,15,0,0,0,1.9-.75,9.63,9.63,0,0,0,3-2.39c1.88-2.3,1.95-4.86,2.17-7.67.07-1,1.6-1.32,1.78-.25a13.14,13.14,0,0,1,.14,3.42,9.19,9.19,0,0,0,2.87-3.24A15.25,15.25,0,0,0,47.18,33C46.83,27.23,43.7,22.31,40.66,17.58Z"/><path class="cls-1" d="M27,19.27c4.52-.08,8.36-1.72,12.25-3.89l.25-.11c1.51-1.42,2.73-2.8,2.49-5.11a6,6,0,0,0-4.51-5,24.66,24.66,0,0,0-13.86-.09c-3.91,1.19-8.07,5-6.62,9.51C18.37,18.75,23.3,19.32,27,19.27ZM20,10.71C23,7.54,27.55,6.47,31.78,7c1.89.25,4.32.63,5.85,1.86a3.07,3.07,0,0,1,.87,4.21,1.06,1.06,0,0,1-.39.87c-3.25,2.86-7.8,3.19-11.92,2.88-2-.16-4.07-.36-5.68-1.68S18.5,12.22,20,10.71Z"/><path class="cls-1" d="M24.89,14.12a30.36,30.36,0,0,0,4.05.21,16.77,16.77,0,0,0,7.71-2.25h0c.2-.7-.08-1.24-.89-1.63A8.68,8.68,0,0,0,34,9.9a16.89,16.89,0,0,0-4.9-.56,11.06,11.06,0,0,0-4.12.94,11.34,11.34,0,0,0-1.72,1c-.34.23-1.37.81-1.48,1.23C21.47,13.59,24.22,14,24.89,14.12Z"/><path class="cls-2" d="M42.25,16.11a7.31,7.31,0,0,0,2.23-4.17,8.07,8.07,0,0,0-2.25-6.85c-2-2-4.87-2.67-7.63-3.08a29.33,29.33,0,0,0-9.21.05c-5.06.85-10.25,4-11.11,9.46a7.9,7.9,0,0,0,.9,5.25,22.7,22.7,0,0,0-14.74,17,24.43,24.43,0,0,0-.35,6.72,14.69,14.69,0,0,0,1.38,5.88c1.92,3.5,5.68,4,9.23,3.43,0,1-.12,2-.22,3C9.93,58.3,9,63.92,9.86,69.52c.64,4.28,3,9.28,8.14,8.78a10.68,10.68,0,0,0,6.08-3,7.45,7.45,0,0,0,1.65-6.09c-.37-3.32-.81-6.58-.86-9.93a10.82,10.82,0,0,0,7.45-4.89,1.09,1.09,0,0,0,.26,0,10.11,10.11,0,0,0,4.5-1.59,11.63,11.63,0,0,0,3.56-3,11,11,0,0,0,1.45-2.55l0,0c5.17-2.55,7.48-7.71,7.4-13.33C49.43,27.28,45.91,21.44,42.25,16.11Zm-18.6-11a24.66,24.66,0,0,1,13.86.09,6,6,0,0,1,4.51,5c.24,2.31-1,3.69-2.49,5.11l-.25.11c-3.89,2.17-7.73,3.81-12.25,3.89-3.73.05-8.66-.52-10-4.67C15.58,10.1,19.74,6.28,23.65,5.09ZM45.73,40.84a9.19,9.19,0,0,1-2.87,3.24,13.14,13.14,0,0,0-.14-3.42c-.18-1.07-1.71-.71-1.78.25-.22,2.81-.29,5.37-2.17,7.67a9.63,9.63,0,0,1-3,2.39,15,15,0,0,1-1.9.75,20.75,20.75,0,0,0,1.86-8.46A.91.91,0,0,0,33.94,43c-.77,3.16-1.23,6.26-2.89,9.13a9.31,9.31,0,0,1-6.18,4.77c0-2.59.19-5.18.42-7.76.08-1-1.62-1.24-1.76-.24a72.49,72.49,0,0,0-.61,15.37c.18,2.39,1,5.11.47,7.48-.47,2.09-2.5,3.3-4.44,3.92C13.52,77.41,12.27,70.6,12,66.8c-.29-5,.56-10,1-15A62.69,62.69,0,0,0,12.14,35c-.28-1.59-2.7-.91-2.42.67a64.89,64.89,0,0,1,1,11.5,8.82,8.82,0,0,1-4.53.09A5,5,0,0,1,3,43.58a21.16,21.16,0,0,1,.22-11.11A20,20,0,0,1,8.79,23.4c2.3-2.15,5-3.42,7.76-4.83a11.46,11.46,0,0,0,6.31,3.06,25.73,25.73,0,0,0,17.73-4l.07-.05c3,4.73,6.17,9.65,6.52,15.41A15.25,15.25,0,0,1,45.73,40.84Z"/><path class="cls-2" d="M20.51,15.17c1.61,1.32,3.67,1.52,5.68,1.68,4.12.31,8.67,0,11.92-2.88a1.06,1.06,0,0,0,.39-.87,3.07,3.07,0,0,0-.87-4.21c-1.53-1.23-4-1.61-5.85-1.86C27.55,6.47,23,7.54,20,10.71,18.5,12.22,19,14,20.51,15.17Zm1.24-2.66c.11-.42,1.14-1,1.48-1.23a11.34,11.34,0,0,1,1.72-1,11.06,11.06,0,0,1,4.12-.94A16.89,16.89,0,0,1,34,9.9a8.68,8.68,0,0,1,1.8.54c.81.39,1.09.93.89,1.63h0a16.77,16.77,0,0,1-7.71,2.25,30.36,30.36,0,0,1-4.05-.21C24.22,14,21.47,13.59,21.75,12.51Z"/><path class="cls-1" d="M88.38,14.11a26.34,26.34,0,0,0,4.35.15,21.54,21.54,0,0,0,7.44-2.06c.34-1.45-1.43-1.88-2.71-2.19a18.85,18.85,0,0,0-4.66-.6,10.54,10.54,0,0,0-4.33.94c-.67.31-3.24,1.55-3.23,2.32S87.72,14,88.38,14.11Z"/><path class="cls-1" d="M90.37,19.23c4.55,0,8.5-1.7,12.53-3.66l.17-.07c1.52-1.53,2.78-3,2.42-5.35a6.13,6.13,0,0,0-4.44-4.8,24.42,24.42,0,0,0-13.84-.13c-3.83,1.15-8,4.85-6.63,9.27C81.89,18.61,86.64,19.26,90.37,19.23ZM83.6,10.58A14.23,14.23,0,0,1,95.73,7.2c1.88.31,4.25.69,5.68,2.06a3,3,0,0,1,.49,4.15,1.31,1.31,0,0,1-.49.86C98,16.86,93.12,17.12,89,16.78A9,9,0,0,1,83.88,15C82.34,13.77,82,12,83.6,10.58Z"/><path class="cls-1" d="M104.26,17.78l-.05,0c-5.45,3-11.54,4.72-17.79,3.76a11.42,11.42,0,0,1-6.28-3c-2.78,1.65-5.62,3-8,5.27a19.8,19.8,0,0,0-5.32,8.85,22.11,22.11,0,0,0-.37,10.75,4.56,4.56,0,0,0,3.25,3.49,11.22,11.22,0,0,0,4.75-.17c0-.9-.09-1.79-.14-2.65-.18-2.86-.59-5.69-1-8.51-.26-1.58,2.16-2.26,2.42-.67.87,5.37,1.79,11.09,1,16.52A8.54,8.54,0,0,1,75,55.51c-.79,1-1.81,1.84-2.58,2.89a7.27,7.27,0,0,0-1.62,5.52,4.94,4.94,0,0,0,4.7,3.94c2.22.23,4-.12,5.45-2a30.18,30.18,0,0,0,3-5.76,47.42,47.42,0,0,0,3-11c.18-1,1.88-.76,1.76.24a53.8,53.8,0,0,1-1.27,7,7.41,7.41,0,0,0,4.07-1,10.06,10.06,0,0,0,2.81-3.17c1.66-2.75,2.16-5.73,3.09-8.74.29-.94,1.83-.8,1.77.24a21.53,21.53,0,0,1-2.27,8.44,15.82,15.82,0,0,0,2-.78,10.15,10.15,0,0,0,3.15-2.45c1.88-2.26,1.89-4.92,2.4-7.67.19-1.07,1.72-.72,1.78.24a15.92,15.92,0,0,1-.09,3.09,10.69,10.69,0,0,0,3-3.32,15.07,15.07,0,0,0,1.54-8.09C110.36,27.35,107.25,22.56,104.26,17.78Z"/><path class="cls-2" d="M105.82,16.25a7.36,7.36,0,0,0,2.2-4.44,8.21,8.21,0,0,0-2.28-6.5c-2-2.11-4.83-2.71-7.61-3.14a28.24,28.24,0,0,0-9,0C84.08,3,78.68,6,77.83,11.55a7.89,7.89,0,0,0,.94,5.24A23.46,23.46,0,0,0,64,33.92a26.3,26.3,0,0,0-.39,6.39,13.31,13.31,0,0,0,1.23,5.81c2,3.65,6,3.74,9.58,3.22A13.43,13.43,0,0,1,74,52.13a7.94,7.94,0,0,1-2.31,3.35,13.25,13.25,0,0,0-3,4.74,7.41,7.41,0,0,0,6.09,9.93c2.28.31,4.49.18,6.36-1.26s2.79-3.62,3.79-5.67a37.74,37.74,0,0,0,1.86-4.64,1.24,1.24,0,0,0,.4.09,9.27,9.27,0,0,0,8.06-3.84.87.87,0,0,0,.37.07,10.6,10.6,0,0,0,4.45-1.56,12,12,0,0,0,3.71-3A10.08,10.08,0,0,0,105.22,48a.66.66,0,0,0,.19-.09A15.1,15.1,0,0,0,111,42.73a16.57,16.57,0,0,0,2-8.62C113,27.35,109.44,21.69,105.82,16.25Zm-18.61-11a24.42,24.42,0,0,1,13.84.13,6.13,6.13,0,0,1,4.44,4.8c.36,2.38-.9,3.82-2.42,5.35l-.17.07c-4,2-8,3.62-12.53,3.66-3.73,0-8.48-.62-9.79-4.74C79.17,10.07,83.38,6.37,87.21,5.22Zm22,36a10.69,10.69,0,0,1-3,3.32,15.92,15.92,0,0,0,.09-3.09c-.06-1-1.59-1.31-1.78-.24-.51,2.75-.52,5.41-2.4,7.67a10.15,10.15,0,0,1-3.15,2.45,15.82,15.82,0,0,1-2,.78,21.53,21.53,0,0,0,2.27-8.44c.06-1-1.48-1.18-1.77-.24-.93,3-1.43,6-3.09,8.74a10.06,10.06,0,0,1-2.81,3.17,7.41,7.41,0,0,1-4.07,1,53.8,53.8,0,0,0,1.27-7c.12-1-1.58-1.23-1.76-.24a47.42,47.42,0,0,1-3,11,30.18,30.18,0,0,1-3,5.76c-1.41,1.88-3.23,2.23-5.45,2a4.94,4.94,0,0,1-4.7-3.94,7.27,7.27,0,0,1,1.62-5.52c.77-1,1.79-1.87,2.58-2.89a8.54,8.54,0,0,0,1.66-4.07c.82-5.43-.1-11.15-1-16.52-.26-1.59-2.68-.91-2.42.67.45,2.82.86,5.65,1,8.51,0,.86.11,1.75.14,2.65a11.22,11.22,0,0,1-4.75.17,4.56,4.56,0,0,1-3.25-3.49,22.11,22.11,0,0,1,.37-10.75,19.8,19.8,0,0,1,5.32-8.85c2.39-2.28,5.23-3.62,8-5.27a11.42,11.42,0,0,0,6.28,3c6.25,1,12.34-.72,17.79-3.76l.05,0c3,4.78,6.1,9.57,6.45,15.38A15.07,15.07,0,0,1,109.17,41.25Z"/><path class="cls-2" d="M83.88,15A9,9,0,0,0,89,16.78c4.11.34,9,.08,12.4-2.51a1.31,1.31,0,0,0,.49-.86,3,3,0,0,0-.49-4.15C100,7.89,97.61,7.51,95.73,7.2A14.23,14.23,0,0,0,83.6,10.58C82,12,82.34,13.77,83.88,15Zm4.59-4.66a10.54,10.54,0,0,1,4.33-.94,18.85,18.85,0,0,1,4.66.6c1.28.31,3.05.74,2.71,2.19a21.54,21.54,0,0,1-7.44,2.06,26.34,26.34,0,0,1-4.35-.15c-.66-.09-3.11-.53-3.14-1.44S87.8,10.66,88.47,10.35Z"/><path class="cls-1" d="M149.22,13.09a3.8,3.8,0,0,0,.88.49,7,7,0,0,0,1.74.49,21.71,21.71,0,0,0,4.34.11,26.82,26.82,0,0,0,7.59-1.93c.27-1.44-1.45-1.88-2.74-2.17a20.14,20.14,0,0,0-4.44-.62,10.3,10.3,0,0,0-4.32.83A9,9,0,0,0,149,12.35C148.67,12.78,148.84,12.76,149.22,13.09Z"/><path class="cls-1" d="M167.88,18c-5.67,2.81-11.88,4.61-18.23,3.5a11,11,0,0,1-5.91-3c-2.75,1.82-5.66,3.22-8.09,5.53a19.11,19.11,0,0,0-5.35,9.18,22.49,22.49,0,0,0-.64,5.54,17.22,17.22,0,0,0,.5,5.17c1.18,3.52,5,2.76,8,2.4,0-.84-.11-1.68-.19-2.51-.28-2.76-.72-5.49-1.12-8.23-.23-1.58,2.18-2.26,2.42-.67.4,2.74.84,5.47,1.14,8.22.25,2.34.61,5,.08,7.29a3.41,3.41,0,0,1-2.42,2.67c-1.34.39-2.69.26-3.91,1.07a5.13,5.13,0,0,0-2,5.39c.67,2.15,2.68,3.44,4.72,4.12s4.4-.57,6.1-1.82A21.24,21.24,0,0,0,147,58.33c2.11-2.54,2.74-5.92,3.43-9,.25-1.15,1.89-.64,1.73.47a28.43,28.43,0,0,1-1.67,6.71,7.24,7.24,0,0,0,4-.76,9.8,9.8,0,0,0,3-3.15c1.75-2.74,2.31-5.74,3.4-8.74.32-.89,1.88-.84,1.77.24a23.59,23.59,0,0,1-2.52,8.41,14.65,14.65,0,0,0,1.88-.73,10.35,10.35,0,0,0,3.17-2.35c2-2.21,2-5,2.71-7.68a.91.91,0,0,1,1.79.24,20.53,20.53,0,0,1-.25,3,11.92,11.92,0,0,0,3.16-3.47,15.21,15.21,0,0,0,1.59-8.1c-.28-5.87-3.33-10.61-6.25-15.47Z"/><path class="cls-1" d="M153.51,19.17c4.69,0,8.82-1.65,13.06-3.46l.12-.05c1.44-1.58,2.74-3,2.37-5.39a6.27,6.27,0,0,0-4.42-4.84A24.34,24.34,0,0,0,151,5.23c-3.8,1.09-8.11,4.57-6.87,9C145.29,18.35,149.82,19.13,153.51,19.17Zm-6.11-8.79a16.68,16.68,0,0,1,5.22-2.88,14.92,14.92,0,0,1,6.68-.23c1.88.31,4.27.68,5.7,2.08a3.07,3.07,0,0,1,.56,4,1.24,1.24,0,0,1-.53,1c-3.56,2.38-8.55,2.77-12.7,2.39A8.87,8.87,0,0,1,147,14.62C145.57,13.32,145.92,11.51,147.4,10.38Z"/><path class="cls-2" d="M171.63,11.52A8.31,8.31,0,0,0,169,5.15c-2-1.94-4.66-2.48-7.31-2.91a27.59,27.59,0,0,0-9.2,0c-4.93.84-10.26,3.86-11.09,9.26a7.8,7.8,0,0,0,1,5.24c-7.34,3-13.37,9.37-14.79,17.29a28.21,28.21,0,0,0-.36,6.49c.11,1.87.2,3.91,1.2,5.55,2.19,3.62,6.2,3.18,9.82,2.78a2.41,2.41,0,0,1-.41,1.56,2,2,0,0,1-1.23.41,11.43,11.43,0,0,0-2.45.55,7.05,7.05,0,0,0-4,4.16c-1.9,4.86,1.56,8.78,6,10.33s8.76-2.19,11.53-5.09a12.7,12.7,0,0,0,1.74-2.27,1.22,1.22,0,0,0,.68.26,9.16,9.16,0,0,0,8.24-3.59,1.1,1.1,0,0,0,.43.08,11.41,11.41,0,0,0,4.4-1.57,12.28,12.28,0,0,0,3.75-2.89,10.11,10.11,0,0,0,1.44-2.27,1.66,1.66,0,0,0,.33-.16,18.26,18.26,0,0,0,5.65-5.24,16.56,16.56,0,0,0,2.18-8.79c0-6.85-3.5-12.46-7.06-18A7.66,7.66,0,0,0,171.63,11.52ZM151,5.23a24.34,24.34,0,0,1,13.64.2,6.27,6.27,0,0,1,4.42,4.84c.37,2.37-.93,3.81-2.37,5.39l-.12.05c-4.24,1.81-8.37,3.5-13.06,3.46-3.69,0-8.22-.82-9.38-4.93C142.89,9.8,147.2,6.32,151,5.23ZM172.58,41.5A11.92,11.92,0,0,1,169.42,45a20.53,20.53,0,0,0,.25-3,.91.91,0,0,0-1.79-.24c-.72,2.71-.74,5.47-2.71,7.68A10.35,10.35,0,0,1,162,51.73a14.65,14.65,0,0,1-1.88.73,23.59,23.59,0,0,0,2.52-8.41c.11-1.08-1.45-1.13-1.77-.24-1.09,3-1.65,6-3.4,8.74a9.8,9.8,0,0,1-3,3.15,7.24,7.24,0,0,1-4,.76,28.43,28.43,0,0,0,1.67-6.71c.16-1.11-1.48-1.62-1.73-.47-.69,3.13-1.32,6.51-3.43,9A21.24,21.24,0,0,1,143,61.85c-1.7,1.25-3.93,2.55-6.1,1.82s-4.05-2-4.72-4.12a5.13,5.13,0,0,1,2-5.39c1.22-.81,2.57-.68,3.91-1.07a3.41,3.41,0,0,0,2.42-2.67c.53-2.32.17-5-.08-7.29-.3-2.75-.74-5.48-1.14-8.22-.24-1.59-2.65-.91-2.42.67.4,2.74.84,5.47,1.12,8.23.08.83.15,1.67.19,2.51-3,.36-6.84,1.12-8-2.4a17.22,17.22,0,0,1-.5-5.17,22.49,22.49,0,0,1,.64-5.54A19.11,19.11,0,0,1,135.65,24c2.43-2.31,5.34-3.71,8.09-5.53a11,11,0,0,0,5.91,3c6.35,1.11,12.56-.69,18.23-3.5l0,0c2.92,4.86,6,9.6,6.25,15.47A15.21,15.21,0,0,1,172.58,41.5Z"/><path class="cls-2" d="M152.33,16.73c4.15.38,9.14,0,12.7-2.39a1.24,1.24,0,0,0,.53-1,3.07,3.07,0,0,0-.56-4c-1.43-1.4-3.82-1.77-5.7-2.08a14.92,14.92,0,0,0-6.68.23,16.68,16.68,0,0,0-5.22,2.88c-1.48,1.13-1.83,2.94-.39,4.24A8.87,8.87,0,0,0,152.33,16.73ZM149,12.35a9,9,0,0,1,3.28-2.06,10.3,10.3,0,0,1,4.32-.83,20.14,20.14,0,0,1,4.44.62c1.29.29,3,.73,2.74,2.17a26.82,26.82,0,0,1-7.59,1.93,21.71,21.71,0,0,1-4.34-.11,7,7,0,0,1-1.74-.49,3.8,3.8,0,0,1-.88-.49C148.84,12.76,148.67,12.78,149,12.35Z"/><path class="cls-1" d="M231.6,18.07h0c-5.79,2.58-12,4.38-18.36,3.26a11.25,11.25,0,0,1-5.92-3c-2.74,1.95-5.73,3.42-8.2,5.79a18.67,18.67,0,0,0-5.28,9.24,23.08,23.08,0,0,0-.55,5.5,14.6,14.6,0,0,0,.51,5.11c1.31,3.16,5.49,1.77,8.43,1.51-.1-1-.28-2-.47-2.94-.48-2.46-1-4.91-1.31-7.41-.16-1.61,2.35-1.59,2.51,0,.27,2.61.95,5.16,1.4,7.74.33,1.9.92,4.4.2,6.28-1.37,3.55-4.6-1.12-6.65-.56a4.27,4.27,0,0,0-2.82,4.3,7.12,7.12,0,0,0,3.3,5.59c2.15,1.33,4.92,1,7.26.53a11.24,11.24,0,0,0,4.19-1.59c2.52-1.75,3.24-5.26,4-8a.89.89,0,0,1,1.72.47,21.89,21.89,0,0,1-2.14,6.61,7.08,7.08,0,0,0,4.18-.64,9.87,9.87,0,0,0,3-3.09c1.86-2.75,2.56-5.85,3.83-8.86.43-1,1.8-.22,1.65.69a24.63,24.63,0,0,1-2.83,8.15,16.39,16.39,0,0,0,1.78-.68,11,11,0,0,0,3.22-2.26c2-2.16,2.15-5,3.08-7.68.31-.91,1.88-.83,1.78.24a27,27,0,0,1-.41,3A13.45,13.45,0,0,0,235.86,42a15.2,15.2,0,0,0,1.82-8.35C237.49,27.66,234.48,23,231.6,18.07Z"/><path class="cls-1" d="M212.2,12.6c.14.25.63.44.89.59a6.72,6.72,0,0,0,1.69.68,15.3,15.3,0,0,0,4.38.25,32.86,32.86,0,0,0,8.21-1.82A1.28,1.28,0,0,0,227,11a3.83,3.83,0,0,0-1.87-.8,22.69,22.69,0,0,0-4.7-.75,10.52,10.52,0,0,0-4.34.71,24,24,0,0,0-3.32,2,.66.66,0,0,1-.54.28C211.92,12.42,211.93,12.48,212.2,12.6Z"/><path class="cls-1" d="M217.54,19.06c4.55,0,8.63-1.68,12.81-3.27,1.44-1.76,2.77-3.3,2.19-5.79a6.45,6.45,0,0,0-4.69-4.64,24.2,24.2,0,0,0-13.65,0c-3.74,1.16-7.93,4.8-6.38,9.14C209.23,18.46,213.89,19.08,217.54,19.06Zm-6.45-8.86a16.65,16.65,0,0,1,5.48-2.8,15.27,15.27,0,0,1,6.28-.09c1.92.32,4.27.67,5.72,2.1a3.1,3.1,0,0,1,.64,3.9,1.14,1.14,0,0,1-.57,1.09c-3.74,2.23-8.95,2.72-13.2,2.23a9.18,9.18,0,0,1-4.93-2.1C208.92,13.16,209.56,11.3,211.09,10.2Z"/><path class="cls-2" d="M233.09,16.41a7.84,7.84,0,0,0,2.11-5A8.61,8.61,0,0,0,232.32,5c-2-1.88-4.84-2.34-7.5-2.76a26.4,26.4,0,0,0-8.69.1c-5,.85-10.4,3.87-11.15,9.34a7.65,7.65,0,0,0,1,5c-7.32,3.25-13.5,9.47-14.82,17.56a29.72,29.72,0,0,0-.29,6.46c.1,1.84.15,3.85,1.26,5.4a5.27,5.27,0,0,0,2.4,1.92,8.48,8.48,0,0,0-.69.79c-3,3.84-.33,9.92,3.67,11.94,3.75,1.9,9.15,1,12.72-1a8.1,8.1,0,0,0,1.8-1.4,1.21,1.21,0,0,0,.81.44,9,9,0,0,0,8.49-3.26,1,1,0,0,0,.48.08,11.94,11.94,0,0,0,4.38-1.56A12.71,12.71,0,0,0,230,51.27a9.82,9.82,0,0,0,1.47-2.18,1.05,1.05,0,0,0,.46-.21,22.06,22.06,0,0,0,5.79-5.44A16.57,16.57,0,0,0,240,34.58C240.06,27.63,236.63,22.07,233.09,16.41Zm-18.89-11a24.2,24.2,0,0,1,13.65,0A6.45,6.45,0,0,1,232.54,10c.58,2.49-.75,4-2.19,5.79-4.18,1.59-8.26,3.24-12.81,3.27-3.65,0-8.31-.6-9.72-4.55C206.27,10.17,210.46,6.53,214.2,5.37ZM235.86,42a13.45,13.45,0,0,1-3.17,3.39,27,27,0,0,0,.41-3c.1-1.07-1.47-1.15-1.78-.24-.93,2.68-1,5.52-3.08,7.68A11,11,0,0,1,225,52.08a16.39,16.39,0,0,1-1.78.68,24.63,24.63,0,0,0,2.83-8.15c.15-.91-1.22-1.71-1.65-.69-1.27,3-2,6.11-3.83,8.86a9.87,9.87,0,0,1-3,3.09,7.08,7.08,0,0,1-4.18.64,21.89,21.89,0,0,0,2.14-6.61.89.89,0,0,0-1.72-.47c-.77,2.77-1.49,6.28-4,8a11.24,11.24,0,0,1-4.19,1.59c-2.34.5-5.11.8-7.26-.53a7.12,7.12,0,0,1-3.3-5.59,4.27,4.27,0,0,1,2.82-4.3c2.05-.56,5.28,4.11,6.65.56.72-1.88.13-4.38-.2-6.28-.45-2.58-1.13-5.13-1.4-7.74-.16-1.59-2.67-1.61-2.51,0,.26,2.5.83,4.95,1.31,7.41.19,1,.37,2,.47,2.94-2.94.26-7.12,1.65-8.43-1.51a14.6,14.6,0,0,1-.51-5.11,23.08,23.08,0,0,1,.55-5.5,18.67,18.67,0,0,1,5.28-9.24c2.47-2.37,5.46-3.84,8.2-5.79a11.25,11.25,0,0,0,5.92,3c6.37,1.12,12.57-.68,18.36-3.26h0c2.88,4.92,5.89,9.59,6.08,15.53A15.2,15.2,0,0,1,235.86,42Z"/><path class="cls-2" d="M210.51,14.53a9.18,9.18,0,0,0,4.93,2.1c4.25.49,9.46,0,13.2-2.23a1.14,1.14,0,0,0,.57-1.09,3.1,3.1,0,0,0-.64-3.9c-1.45-1.43-3.8-1.78-5.72-2.1a15.27,15.27,0,0,0-6.28.09,16.65,16.65,0,0,0-5.48,2.8C209.56,11.3,208.92,13.16,210.51,14.53Zm1.67-2.1a.66.66,0,0,0,.54-.28,24,24,0,0,1,3.32-2,10.52,10.52,0,0,1,4.34-.71,22.69,22.69,0,0,1,4.7.75A3.83,3.83,0,0,1,227,11a1.28,1.28,0,0,1,.42,1.26,32.86,32.86,0,0,1-8.21,1.82,15.3,15.3,0,0,1-4.38-.25,6.72,6.72,0,0,1-1.69-.68c-.26-.15-.75-.34-.89-.59S211.92,12.42,212.18,12.43Z"/></svg>