<svg xmlns="http://www.w3.org/2000/svg" xmlns:xlink="http://www.w3.org/1999/xlink" viewBox="0 0 163.24 573.58"><defs><style>.cls-1{isolation:isolate;}.cls-2{fill:#414042;}.cls-3{fill:#a6a8ab;}.cls-4{fill:url(#linear-gradient);}.cls-5{fill:url(#Ciao);}</style><linearGradient id="linear-gradient" x1="81.62" y1="63.62" x2="81.62" y2="650.59" gradientUnits="userSpaceOnUse"><stop offset="0" stop-color="#9e9e9e"/><stop offset="1" stop-color="#2b2b2b"/></linearGradient><linearGradient id="Ciao" x1="81.56" y1="449.83" x2="81.56" y2="553.79" gradientUnits="userSpaceOnUse"><stop offset="0" stop-color="#292929"/><stop offset="1"/></linearGradient></defs><title>I</title><g class="cls-1"><rect class="cls-2" x="20.12" y="17.76" width="123.11" height="127.75"/><polygon class="cls-2" points="20.12 17.75 20.13 145.5 20.02 555.8 20.01 428.05 20.12 17.75"/><rect class="cls-3" x="20.01" y="428.06" width="123.11" height="127.75"/><rect class="cls-4" x="20.06" y="17.76" width="123.11" height="410.3"/><polygon class="cls-3" points="143.22 17.77 143.23 145.52 143.12 555.82 143.11 428.07 143.22 17.77"/><rect class="cls-5" x="0.01" y="445.81" width="163.11" height="127.75"/><polygon class="cls-2" points="163.23 0.03 163.24 127.78 163.12 573.58 163.11 445.83 163.23 0.03"/><path class="cls-2" d="M.12,0,163.23,0l-.12,445.8L0,445.8Zm143,428.07.11-410.3-123.1,0L20,428.05l123.1,0"/></g></svg>
