<svg id="Layer_1" data-name="Layer 1" xmlns="http://www.w3.org/2000/svg" viewBox="0 0 80 80"><defs><style>.cls-1{fill:#333;}</style></defs><title>linkedin-noframes</title><path class="cls-1" d="M20.1,8.16C14.82,8,9.71,9,8.11,14.72c-2.25,8.06-.72,18.07-.42,26.33q.25,7.35.52,14.68c.13,3.61-.78,9.18,1.1,12.44,3,5.15,13.51,4.11,18.35,4.14q14.91.06,29.81-.08c5.74-.06,13.62,1.31,15-6,.69-3.78,0-7.91-.06-11.72Q72.2,47,72.22,39.57t.21-14.93c.1-3.75.78-8-.74-11.59-2.88-6.8-11.75-5.38-17.78-5.37-11.44,0-22.88.15-34.32.23a1.5,1.5,0,0,0,0,3l27.55-.19c4.15,0,8.3-.11,12.45,0,2.75.09,6.91-.25,8.79,2.37,1.2,1.68,1.16,4.05,1.21,6,.22,8.78-.43,17.62-.35,26.41q0,6.48.25,12.94c.06,2.05.48,4.42.06,6.46-.91,4.38-5.63,4.22-9.1,4.26q-12.91.14-25.83.12c-4.48,0-9,.17-13.51-.14-2-.15-5.1,0-6.87-1.09-3.57-2.3-2.8-6-2.93-9.43-.3-8.52-.67-17-.88-25.57a131.92,131.92,0,0,1,.1-13.92c.18-2.15.26-4.82,2-6.44,2-1.91,5.11-1.65,7.61-1.57,1.93.06,1.93-2.94,0-3Z"/><path class="cls-1" d="M24,16.7c-3.7-.79-6.7,1.91-7.65,5.37-1.05,3.85,1.47,6.89,5.21,7.52s6.48-1.57,7.15-5.32c.6-3.39-1.34-7.57-5.15-7.69-1.93-.06-1.92,2.94,0,3,2.24.07,2.53,3.27,2,4.81A2.82,2.82,0,0,1,22,26.6c-2-.37-3.28-1.6-2.71-3.73.46-1.75,1.92-3.71,4-3.28,1.88.4,2.69-2.49.79-2.89Z"/><path class="cls-1" d="M17.33,34.68Q17,48.56,17.5,62.4a1.53,1.53,0,0,0,1.9,1.45,36.44,36.44,0,0,1,8.73-.1,1.5,1.5,0,0,0,1.5-1.5c-.81-9.51-1.51-19-.75-28.52a1.53,1.53,0,0,0-1.5-1.5,37.31,37.31,0,0,0-8.25.05c-1.9.21-1.92,3.21,0,3a37.93,37.93,0,0,1,8.25-.05l-1.5-1.5c-.76,9.54-.06,19,.75,28.52l1.5-1.5A39.47,39.47,0,0,0,18.6,61l1.9,1.44Q20,48.54,20.33,34.68c.05-1.93-2.95-1.93-3,0Z"/><path class="cls-1" d="M32.59,34.29c-.1,5.08-.17,10.17-.18,15.25,0,3.9-.55,8.36.19,12.19a1.52,1.52,0,0,0,1,1.05c2.76.9,6.77.08,9.62,0a1.51,1.51,0,0,0,1.5-1.5c-.07-4.37-.82-9.33-.2-13.65q.16-6.09,3.65-1.75c2.11.56,3,1.81,2.58,3.74.64,2.3.31,5.38.45,7.77.11,1.79-.37,4.39,1.13,5.72,1.82,1.63,7.35,1,9.61,1.05a1.52,1.52,0,0,0,1.5-1.5,96.47,96.47,0,0,0-1.09-17c-.49-3.64-.9-6.9-3.55-9.62-5.57-5.71-11.65-4.79-17,.38l2.56,1.06c0-6.44-3.81-5.08-9.57-5.36-1.93-.1-1.92,2.9,0,3,2.28.11,6.58-.69,6.57,2.36a1.52,1.52,0,0,0,2.57,1.06c2.8-2.69,6.05-4.51,9.91-2.57,3.26,1.63,4.81,4.82,5.35,8.22a94.21,94.21,0,0,1,1.29,18.44l1.5-1.5c-3.15-.1-6.83.71-7.68-2.8-.81-3.3-.35-7.28-.63-10.69S52,40.71,47.92,40.45c-9.36-.59-6.23,15.64-6.15,20.82l1.5-1.5c-1.9.06-6,1-7.33-.24s-.53-6.36-.53-8.08c0-5.72.06-11.44.18-17.16,0-1.93-3-1.93-3,0Z"/></svg>