<svg id="Layer_1" data-name="Layer 1" xmlns="http://www.w3.org/2000/svg" viewBox="0 0 320 80"><defs><style>.cls-1{fill:#333;}</style></defs><title>linkedin</title><path class="cls-1" d="M20.1,8.16C14.82,8,9.71,9,8.11,14.72c-2.25,8.06-.72,18.07-.42,26.33q.25,7.35.52,14.68c.13,3.61-.78,9.18,1.1,12.44,3,5.15,13.51,4.11,18.35,4.14q14.91.06,29.81-.08c5.74-.06,13.62,1.31,15-6,.69-3.78,0-7.91-.06-11.72Q72.2,47,72.22,39.57t.21-14.93c.1-3.75.78-8-.74-11.59-2.88-6.8-11.75-5.38-17.78-5.37-11.44,0-22.88.15-34.32.23a1.5,1.5,0,0,0,0,3l27.55-.19c4.15,0,8.3-.11,12.45,0,2.75.09,6.91-.25,8.79,2.37,1.2,1.68,1.16,4.05,1.21,6,.22,8.78-.43,17.62-.35,26.41q0,6.48.25,12.94c.06,2.05.48,4.42.06,6.46-.91,4.38-5.63,4.22-9.1,4.26q-12.91.14-25.83.12c-4.48,0-9,.17-13.51-.14-2-.15-5.1,0-6.87-1.09-3.57-2.3-2.8-6-2.93-9.43-.3-8.52-.67-17-.88-25.57a131.92,131.92,0,0,1,.1-13.92c.18-2.15.26-4.82,2-6.44,2-1.91,5.11-1.65,7.61-1.57,1.93.06,1.93-2.94,0-3Z"/><path class="cls-1" d="M24,16.7c-3.7-.79-6.7,1.91-7.65,5.37-1.05,3.85,1.47,6.89,5.21,7.52s6.48-1.57,7.15-5.32c.6-3.39-1.34-7.57-5.15-7.69-1.93-.06-1.92,2.94,0,3,2.24.07,2.53,3.27,2,4.81A2.82,2.82,0,0,1,22,26.6c-2-.37-3.28-1.6-2.71-3.73.46-1.75,1.92-3.71,4-3.28,1.88.4,2.69-2.49.79-2.89Z"/><path class="cls-1" d="M17.33,34.68Q17,48.56,17.5,62.4a1.53,1.53,0,0,0,1.9,1.45,36.44,36.44,0,0,1,8.73-.1,1.5,1.5,0,0,0,1.5-1.5c-.81-9.51-1.51-19-.75-28.52a1.53,1.53,0,0,0-1.5-1.5,37.31,37.31,0,0,0-8.25.05c-1.9.21-1.92,3.21,0,3a37.93,37.93,0,0,1,8.25-.05l-1.5-1.5c-.76,9.54-.06,19,.75,28.52l1.5-1.5A39.47,39.47,0,0,0,18.6,61l1.9,1.44Q20,48.54,20.33,34.68c.05-1.93-2.95-1.93-3,0Z"/><path class="cls-1" d="M32.59,34.29c-.1,5.08-.17,10.17-.18,15.25,0,3.9-.55,8.36.19,12.19a1.52,1.52,0,0,0,1,1.05c2.76.9,6.77.08,9.62,0a1.51,1.51,0,0,0,1.5-1.5c-.07-4.37-.82-9.33-.2-13.65q.16-6.09,3.65-1.75c2.11.56,3,1.81,2.58,3.74.64,2.3.31,5.38.45,7.77.11,1.79-.37,4.39,1.13,5.72,1.82,1.63,7.35,1,9.61,1.05a1.52,1.52,0,0,0,1.5-1.5,96.47,96.47,0,0,0-1.09-17c-.49-3.64-.9-6.9-3.55-9.62-5.57-5.71-11.65-4.79-17,.38l2.56,1.06c0-6.44-3.81-5.08-9.57-5.36-1.93-.1-1.92,2.9,0,3,2.28.11,6.58-.69,6.57,2.36a1.52,1.52,0,0,0,2.57,1.06c2.8-2.69,6.05-4.51,9.91-2.57,3.26,1.63,4.81,4.82,5.35,8.22a94.21,94.21,0,0,1,1.29,18.44l1.5-1.5c-3.15-.1-6.83.71-7.68-2.8-.81-3.3-.35-7.28-.63-10.69S52,40.71,47.92,40.45c-9.36-.59-6.23,15.64-6.15,20.82l1.5-1.5c-1.9.06-6,1-7.33-.24s-.53-6.36-.53-8.08c0-5.72.06-11.44.18-17.16,0-1.93-3-1.93-3,0Z"/><path class="cls-1" d="M180.1,8.16c-5.28-.16-10.39.82-12,6.56-2.25,8.06-.72,18.07-.42,26.33q.26,7.35.52,14.68c.13,3.61-.78,9.18,1.1,12.44,3,5.15,13.51,4.11,18.35,4.14q14.91.06,29.81-.08c5.74-.06,13.62,1.31,15-6,.69-3.78,0-7.91-.06-11.72q-.18-7.45-.16-14.93t.21-14.93c.1-3.75.78-8-.74-11.59-2.88-6.8-11.75-5.38-17.78-5.37-11.44,0-22.88.15-34.32.23a1.5,1.5,0,0,0,0,3l27.55-.19c4.15,0,8.3-.11,12.45,0,2.75.09,6.91-.25,8.79,2.37,1.2,1.68,1.16,4.05,1.21,6,.22,8.78-.43,17.62-.35,26.41q0,6.48.25,12.94c.06,2.05.48,4.42.06,6.46-.91,4.38-5.63,4.22-9.1,4.26q-12.91.14-25.83.12c-4.48,0-9,.17-13.51-.14-2-.15-5.1,0-6.87-1.09-3.57-2.3-2.8-6-2.93-9.43-.3-8.52-.67-17-.88-25.57a131.92,131.92,0,0,1,.1-13.92c.18-2.15.26-4.82,2-6.44,2-1.91,5.11-1.65,7.61-1.57,1.93.06,1.93-2.94,0-3Z"/><path class="cls-1" d="M184,16.7c-3.7-.79-6.7,1.91-7.65,5.37-1.05,3.85,1.47,6.89,5.21,7.52s6.48-1.57,7.15-5.32c.6-3.39-1.34-7.57-5.15-7.69-1.93-.06-1.92,2.94,0,3,2.24.07,2.53,3.27,2,4.81A2.82,2.82,0,0,1,182,26.6c-2-.37-3.28-1.6-2.71-3.73.46-1.75,1.92-3.71,4-3.28,1.88.4,2.69-2.49.79-2.89Z"/><path class="cls-1" d="M177.33,34.68q-.32,13.88.17,27.72a1.53,1.53,0,0,0,1.9,1.45,36.44,36.44,0,0,1,8.73-.1,1.5,1.5,0,0,0,1.5-1.5c-.81-9.51-1.51-19-.75-28.52a1.53,1.53,0,0,0-1.5-1.5,37.31,37.31,0,0,0-8.25.05c-1.9.21-1.92,3.21,0,3a37.93,37.93,0,0,1,8.25-.05l-1.5-1.5c-.76,9.54-.06,19,.75,28.52l1.5-1.5a39.47,39.47,0,0,0-9.53.21l1.9,1.44q-.5-13.86-.17-27.72c0-1.93-3-1.93-3,0Z"/><path class="cls-1" d="M192.59,34.29c-.1,5.08-.17,10.17-.18,15.25,0,3.9-.55,8.36.19,12.19a1.52,1.52,0,0,0,1.05,1.05c2.76.9,6.77.08,9.62,0a1.51,1.51,0,0,0,1.5-1.5c-.07-4.37-.82-9.33-.2-13.65q.17-6.09,3.65-1.75c2.11.56,3,1.81,2.58,3.74.64,2.3.31,5.38.45,7.77.11,1.79-.37,4.39,1.13,5.72,1.82,1.63,7.35,1,9.61,1.05a1.52,1.52,0,0,0,1.5-1.5,96.47,96.47,0,0,0-1.09-17c-.49-3.64-.9-6.9-3.55-9.62-5.57-5.71-11.65-4.79-17,.38l2.56,1.06c0-6.44-3.81-5.08-9.57-5.36-1.93-.1-1.92,2.9,0,3,2.28.11,6.58-.69,6.57,2.36a1.52,1.52,0,0,0,2.57,1.06c2.8-2.69,6.05-4.51,9.91-2.57,3.26,1.63,4.81,4.82,5.35,8.22a94.21,94.21,0,0,1,1.29,18.44l1.5-1.5c-3.15-.1-6.83.71-7.68-2.8-.81-3.3-.35-7.28-.63-10.69s-1.71-6.95-5.76-7.21c-9.36-.59-6.23,15.64-6.15,20.82l1.5-1.5c-1.9.06-6,1-7.33-.24s-.53-6.36-.53-8.08c0-5.72.06-11.44.18-17.16,0-1.93-3-1.93-3,0Z"/><path class="cls-1" d="M91.39,10.8c-5.89,1.39-10.73,3.82-10.12,10.76.8,9,5.16,17.69,7.23,26.46,1,4.41,1.87,8.88,2.79,13.32C92,64.54,92.21,69,94,71.8c3.48,5.3,13.78,2,18.6,1,9.58-2.09,19.13-4.36,28.66-6.67,5.14-1.25,14.05-1.49,14.71-8.35.37-3.78-1.44-7.94-2.36-11.52q-1.89-7.41-3.63-14.88c-1.08-4.66-2.11-9.34-3.06-14-.78-3.84-1-8.33-2.95-11.81C140.14-1.4,131.84,1.66,125.64,3,114,5.38,102.45,8.07,90.88,10.69c-1.89.43-1.09,3.32.79,2.89q13.56-3.08,27.14-6.08c4.41-1,8.81-2,13.25-2.75,3.48-.6,7.27-1.49,9.35,2.28a19.47,19.47,0,0,1,1.53,5.46c1.79,8.76,3.61,17.5,5.72,26.19,1.06,4.34,2.18,8.67,3.29,13,.86,3.37,2,7.24-2.59,9.35-1.78.82-4.2,1-6.1,1.51-8.61,2.11-17.23,4.12-25.87,6.09-4.71,1.07-9.47,2.38-14.31,2.73-2.36.17-5.18.59-6.82-1.82-1-1.49-1.14-4.59-1.52-6.34-1.83-8.39-3.29-16.8-5.87-25-1.24-3.94-2.59-7.85-3.61-11.85-.78-3.1-2.27-7.42.44-10.17,1.59-1.62,4.38-2,6.49-2.47,1.88-.44,1.08-3.34-.8-2.9Z"/><path class="cls-1" d="M96.89,18.16c-3.74.24-6.11,3.22-6.07,6.92,0,3.86,3.08,6.31,6.76,6.48,4.41.2,6.29-3,5.83-7.15-.4-3.51-3.24-6.79-7-6.25-1.91.28-1.1,3.17.79,2.9s3.14,2.61,3.23,4.1c.08,1.28.1,2.72-1.27,3.22a4.61,4.61,0,0,1-2.39.07c-3.86-.73-4.06-7,.08-7.29,1.92-.11,1.93-3.11,0-3Z"/><path class="cls-1" d="M96.44,37.87c2,9.08,2.8,18.37,4.94,27.42a1.52,1.52,0,0,0,1.85,1,45.68,45.68,0,0,1,8.93-2.19,1.5,1.5,0,0,0,1-1.84c-2.74-9.21-3.77-18.78-6-28.11a1.53,1.53,0,0,0-1.84-1.05,48.84,48.84,0,0,0-7.92,1.9c-1.83.59-1,3.49.8,2.89a51,51,0,0,1,7.92-1.9l-1.85-1c2.21,9.33,3.24,18.89,6,28.1l1.05-1.84a44.9,44.9,0,0,0-8.94,2.19l1.85,1c-2.15-9-2.94-18.34-5-27.42-.42-1.88-3.31-1.08-2.89.8Z"/><path class="cls-1" d="M110.65,34c1.92,8.35,2.29,17.45,4.92,25.59,1.54,4.77,7.64,1.13,11.23.16a1.52,1.52,0,0,0,1-1.84c-.92-4-2.32-8.1-2.76-12.15q-2-9.18,5.56-2.54c.37,1.26.73,2.52,1.09,3.78.63,2.21,1.25,4.42,1.89,6.62.51,1.78.59,3.73,2.42,4.41,2.24.83,7.11-.8,9.35-1.23a1.53,1.53,0,0,0,1-1.85,111.63,111.63,0,0,0-4.37-15c-1.31-3.61-2.37-7.28-5.59-9.64-6.71-4.93-12.63-2.83-16.77,3.74l2.74.36c-1.44-6.2-4.73-4.12-10.32-3.09-1.89.35-1.09,3.24.8,2.89,2.34-.43,5.91-2.08,6.63,1a1.52,1.52,0,0,0,2.74.35c2.32-3.68,4.8-5.78,9.34-4.43,4.25,1.25,5.84,5,7.23,8.81a112.65,112.65,0,0,1,4.68,15.79l1.05-1.85c-1.26.25-5.26,1.37-6.21,1-1.58-.55-1.62-1.76-2.15-3.06-1.33-3.28-1.71-6.94-2.95-10.26-1.14-3-3.33-5.54-6.89-4.93-9,1.54-2.62,17-1.45,22L126,56.89c-1.85.5-5.67,2.35-7.22,1.38s-1.72-6.27-2-8c-1-5.7-1.93-11.42-3.23-17.07-.43-1.88-3.33-1.08-2.89.8Z"/><path class="cls-1" d="M271.67,2.59c-5.83-1.47-11.11-2-14,4.27a253.07,253.07,0,0,0-10.23,25.31,114.92,114.92,0,0,0-3.38,13c-.87,4.13-2.6,9-2.53,13.24.12,6.26,9.29,8,13.94,9.17,9.71,2.52,19.54,4.66,29.29,7,5.43,1.32,14.31,5.77,18.25-.37,1.85-2.87,2.16-6.77,3-10,1.2-4.85,2.55-9.68,4-14.47,1.26-4.19,2.6-8.36,4-12.51,1.27-3.82,3.22-7.82,3.66-11.85.95-8.75-7.63-10.43-14.22-12.65C292.7,9.15,282,5.51,271.26,2.27c-1.85-.56-2.64,2.33-.8,2.89,8.41,2.53,16.75,5.3,25.07,8.11,4.08,1.38,8.2,2.68,12.24,4.17,3.81,1.39,7.08,2.71,6.74,7.74a23.59,23.59,0,0,1-1.68,5.91c-2.81,8.3-5.52,16.63-7.85,25.07-1.08,3.94-2.06,7.9-3,11.87s-1,6.06-6.81,6c-2.11,0-4.68-1.13-6.73-1.63-8.65-2.1-17.28-4.22-25.94-6.25A100.73,100.73,0,0,1,250.78,63c-3.53-1.29-6-2.26-5.85-6.74,0-2.12.86-4.49,1.27-6.58a133.44,133.44,0,0,1,8.06-26.82c1.52-3.59,3.12-7.14,4.56-10.76.65-1.62,1.11-3.66,2.09-5.09,2.8-4.11,6.43-2.44,10-1.55,1.87.47,2.67-2.42.79-2.9Z"/><path class="cls-1" d="M273.14,11.57c-3.79-1.57-6.93.55-8.78,3.91-1.67,3.06-1.21,7.1,2.2,8.75,6.71,3.27,14.46-9.34,6.93-12.58-1.76-.76-3.29,1.83-1.52,2.59,4.24,1.82-1.15,9.27-4.3,7.14-1.88-1.27-1.44-3.33-.33-5,1.27-1.95,2.71-2.84,5-1.9,1.78.74,2.56-2.16.8-2.89Z"/><path class="cls-1" d="M258.71,28.35c-4.06,8.94-5.33,18.56-7.55,28a1.53,1.53,0,0,0,1.45,1.9,50.7,50.7,0,0,1,8.64,1.84,1.51,1.51,0,0,0,1.85-1.05c1.33-9.48,2.12-19.13,6.44-27.83a1.53,1.53,0,0,0-.89-2.2,63,63,0,0,0-7.47-2.26c-1.88-.44-2.68,2.45-.8,2.9a62.36,62.36,0,0,1,7.47,2.25l-.9-2.2c-4.45,9-5.37,18.77-6.75,28.55l1.85-1a55.52,55.52,0,0,0-9.44-2l1.44,1.9c2.16-9.2,3.31-18.65,7.25-27.33.79-1.74-1.79-3.27-2.59-1.51Z"/><path class="cls-1" d="M273.37,32a116.38,116.38,0,0,0-6.83,23.67c-.32,1.63-1.08,3.27,0,4.63,1.5,1.82,7.14,1.89,9.34,2.36a1.52,1.52,0,0,0,1.84-1c.82-4,1-9.69,3-13.27,4.63-8.42,5.85.37,5.69,3.41-.13,2.49-1,5.16-1.46,7.62-.32,1.74-1.37,4.18-.26,5.83,1.37,2,6.92,2.77,9.11,3.44a1.52,1.52,0,0,0,1.85-1c1.35-5.47,2.37-11,3.2-16.57.59-3.93,1-7.24-1.11-10.8-4-6.7-9.92-6.54-16.41-3.41l2.21,1.7c2.18-6.26-2-5.94-7.59-7.7-1.84-.58-2.63,2.32-.79,2.89,2.24.71,6.55,1,5.48,4-.46,1.34,1.13,2.21,2.21,1.69,3.24-1.56,6.51-2.86,9.78-.69,3.52,2.34,4,6.85,3.46,10.58a165.24,165.24,0,0,1-3.33,17.51l1.84-1.05c-3-.91-6.87-1.08-6.93-4.63-.06-3.34,1.41-7.19,2-10.48.58-3.13.36-6.42-2.84-8-9.54-4.74-11,13.2-12,18.2l1.84-1.05c-1.83-.39-5.95-.44-7-1.91s.67-5.91,1-7.57A95.45,95.45,0,0,1,276,33.5c.75-1.75-1.83-3.28-2.59-1.51Z"/></svg>