<?xml version="1.0" encoding="utf-8"?>
<!-- Generator: Adobe Illustrator 22.0.1, SVG Export Plug-In . SVG Version: 6.00 Build 0)  -->
<svg version="1.1" id="Layer_1" xmlns="http://www.w3.org/2000/svg" xmlns:xlink="http://www.w3.org/1999/xlink" x="0px" y="0px"
	 viewBox="0 0 461 494.9" style="enable-background:new 0 0 461 494.9;" xml:space="preserve">
<style type="text/css">
	.st0{fill:#191817;}
</style>
<title>logo</title>
<path class="st0" d="M230.5,127.7L0,0v162.5l50.5,28.3v36.8L0,199.3v163.4l230.5,132.2l162.3-93.1l-66-33.2l55.2-31.3l-114-58.8
	v-36.1L461,345V0L230.5,127.7z M72.5,265.1L193,332.5v43L72.5,308.8V265.1z M439,308.4l-127.1-67.5l98.6-54.3V97.2l-164.5,92.4V292
	l89.7,46.3l-32.7,18.5l-57.1-28.7v86.3l57.7-32.7l42.6,21.4l-115.8,66.4L22,350V236.8l28.5,16v69L215,412.9v-93.2L72.5,239.9v-36.8
	L215,282.8v-93.2L50.5,97.2v68.4l-28.5-16V37.3l208.5,115.5L439,37.3V308.4z M268,239.9v-37.5l120.5-67.7v38.8L268,239.9z
	 M280,369.9l-12,6.8v-12.8L280,369.9z M72.5,177.9v-43.1L193,202.5v42.8L72.5,177.9z"/>
</svg>
