<svg xmlns="http://www.w3.org/2000/svg" xmlns:xlink="http://www.w3.org/1999/xlink" viewBox="0 0 545.73 579.01"><defs><style>.cls-1{fill:#a6a8ab;}.cls-2{fill:#414042;}.cls-3{fill:url(#Ciao);}.cls-4{fill:url(#linear-gradient);}.cls-5{fill:url(#Ciao-2);}</style><linearGradient id="Ciao" x1="183.81" y1="236.35" x2="333.92" y2="236.35" gradientUnits="userSpaceOnUse"><stop offset="0" stop-color="#292929"/><stop offset="1"/></linearGradient><linearGradient id="linear-gradient" x1="272.86" y1="13.93" x2="272.86" y2="504.13" gradientUnits="userSpaceOnUse"><stop offset="0" stop-color="#9e9e9e"/><stop offset="1" stop-color="#2b2b2b"/></linearGradient><linearGradient id="Ciao-2" x1="523.53" y1="402.29" x2="47.53" y2="402.29" xlink:href="#Ciao"/></defs><title>O</title><path class="cls-1" d="M507.69,433.41q0-62.68,0-125.36c12-25.28,18-52.87,18-82.37V351C525.72,380.54,519.66,408.14,507.69,433.41Z"/><path class="cls-1" d="M507.69,433.41l-.3.63q0-62.68,0-125.36l.3-.63Q507.68,370.73,507.69,433.41Z"/><path class="cls-1" d="M507,434.87q0-62.67,0-125.36l.41-.83q0,62.67,0,125.36C507.25,434.32,507.12,434.6,507,434.87Z"/><path class="cls-1" d="M482.72,472.79q0-62.68,0-125.36,5.44-6.71,10.31-13.85a188.81,188.81,0,0,0,14-24.07q0,62.69,0,125.36a188.81,188.81,0,0,1-14,24.07Q488.17,466.1,482.72,472.79Z"/><path class="cls-2" d="M525.72,225.68V351c0-39.36-11-75.25-32.62-106.68s-52.06-56.47-90.4-74.43c-38.5-18-82.16-27.14-129.79-27.15-48.08,0-91.86,9.11-130.12,27.1s-68.46,43-90.13,74.4S20,311.59,20,350.94V225.58c0-39.36,11-75.24,32.66-106.67s52-56.46,90.13-74.39,82-27.11,130.12-27.1c47.63,0,91.29,9.14,129.79,27.15,38.34,18,68.77,43,90.4,74.43S525.73,186.32,525.72,225.68Z"/><path class="cls-1" d="M250.31,231.23q0-62.67,0-125.36a135.69,135.69,0,0,1,24.66-2.2,133.54,133.54,0,0,1,27.35,2.77q0,62.69,0,125.37A132.84,132.84,0,0,0,275,229,136.59,136.59,0,0,0,250.31,231.23Z"/><path class="cls-1" d="M250.31,231.23a130.34,130.34,0,0,0-39.53,14.12V120a130.34,130.34,0,0,1,39.53-14.12Q250.3,168.56,250.31,231.23Z"/><path class="cls-1" d="M302.32,231.81q0-62.68,0-125.37a122.56,122.56,0,0,1,35.93,13.65,124.25,124.25,0,0,1,12.57,8.24q0,62.68,0,125.36a124.25,124.25,0,0,0-12.57-8.24A122.26,122.26,0,0,0,302.32,231.81Z"/><path class="cls-1" d="M350.82,253.69q0-62.67,0-125.36,3.3,2.46,6.41,5.12,0,62.69,0,125.37Q354.13,256.15,350.82,253.69Z"/><path class="cls-1" d="M156.54,303.59q0-62.68,0-125.36a117.25,117.25,0,0,1,7.42-14A126.93,126.93,0,0,1,173.4,151q0,62.55,0,125.1,0-62.55,0-125.1a126.22,126.22,0,0,1,37.37-31V245.35A125.76,125.76,0,0,0,164,289.6,117.25,117.25,0,0,0,156.54,303.59Z"/><path class="cls-1" d="M156.54,303.59l-.1.24q0-62.68,0-125.36l.1-.24C156.54,220,165.43,261.8,156.54,303.59Z"/><path class="cls-1" d="M357.23,258.82q0-62.68,0-125.37a120.08,120.08,0,0,1,25.73,31,118.49,118.49,0,0,1,8.17,17.1q0,62.68,0,125.37A118.6,118.6,0,0,0,383,289.85,120.2,120.2,0,0,0,357.23,258.82Z"/><path class="cls-1" d="M156.44,303.83a117,117,0,0,0-9.87,47.73V226.2a117,117,0,0,1,9.87-47.73Q156.43,241.15,156.44,303.83Z"/><path class="cls-3" d="M379.14,226.24V351.61c0-19.68-4.71-37.82-14-53.9A102,102,0,0,0,327.26,260,103.89,103.89,0,0,0,275,246.45a109.64,109.64,0,0,0-53.49,13.62,107.26,107.26,0,0,0-39.91,37.81,100.28,100.28,0,0,0-15,53.69V226.21a100.26,100.26,0,0,1,15-53.69,107.26,107.26,0,0,1,39.91-37.81A109.42,109.42,0,0,1,275,121.09a103.89,103.89,0,0,1,52.3,13.55,102,102,0,0,1,37.85,37.7C374.43,188.43,379.15,206.56,379.14,226.24Z"/><path class="cls-1" d="M391.13,307a9.08,9.08,0,0,1,0-1.38v-22q0-51,0-102a123.82,123.82,0,0,1,8,44.66V351.61A123.72,123.72,0,0,0,391.13,307Z"/><path class="cls-1" d="M32.79,421.21A192.64,192.64,0,0,1,20,350.94V225.58a192.67,192.67,0,0,0,12.78,70.27Q32.8,358.54,32.79,421.21Z"/><path class="cls-1" d="M52.64,458.86a187.73,187.73,0,0,1-19.85-37.65q0-62.68,0-125.36A188,188,0,0,0,52.63,333.5q4.73,6.94,10,13.48,0,62.68,0,125.37Q57.37,465.81,52.64,458.86Z"/><path class="cls-2" d="M399.15,226.25V351.61c0,22.84-5.48,43.82-16.23,62.35a121.72,121.72,0,0,1-45,44.67,124.56,124.56,0,0,1-63,16.72,129.54,129.54,0,0,1-64.26-16.69,127.12,127.12,0,0,1-46.73-44.87,117.11,117.11,0,0,1-17.33-62.23V226.2a117.14,117.14,0,0,0,17.33,62.23,127.2,127.2,0,0,0,46.73,44.87A129.54,129.54,0,0,0,274.89,350a124.55,124.55,0,0,0,63-16.71,121.72,121.72,0,0,0,45-44.67C393.67,270.07,399.14,249.08,399.15,226.25Z"/><path class="cls-2" d="M338.24,120.09A120.12,120.12,0,0,1,383,164.49c10.75,18.54,16.21,39.32,16.2,61.76,0,22.83-5.48,43.82-16.23,62.35a121.72,121.72,0,0,1-45,44.67,124.55,124.55,0,0,1-63,16.71,129.54,129.54,0,0,1-64.26-16.68,127.2,127.2,0,0,1-46.73-44.87,117.14,117.14,0,0,1-17.33-62.23,115.75,115.75,0,0,1,17.38-62A125.8,125.8,0,0,1,210.76,120,131.37,131.37,0,0,1,275,103.67C297.92,103.67,319.22,109.2,338.24,120.09Zm26.83,160.64c9.34-16.07,14.07-34.4,14.07-54.49,0-19.68-4.71-37.81-14-53.9a102,102,0,0,0-37.85-37.7A103.89,103.89,0,0,0,275,121.09a109.42,109.42,0,0,0-53.49,13.62,107.26,107.26,0,0,0-39.91,37.81,100.26,100.26,0,0,0-15,53.69,101.8,101.8,0,0,0,15,54,108.93,108.93,0,0,0,39.94,38.44,107.74,107.74,0,0,0,53.41,13.9,101.35,101.35,0,0,0,51.94-13.82,103.33,103.33,0,0,0,38.24-38"/><path class="cls-1" d="M427.08,521q0-62.67,0-125.36a217.25,217.25,0,0,0,55.64-48.21q0,62.67,0,125.36A217.25,217.25,0,0,1,427.08,521Z"/><path class="cls-1" d="M377.53,544.52q0-62.68,0-125.36a269.77,269.77,0,0,0,25.05-10.31,258.45,258.45,0,0,0,24.5-13.21q0,62.69,0,125.36a256.2,256.2,0,0,1-24.5,13.21A267.05,267.05,0,0,1,377.53,544.52Z"/><path class="cls-1" d="M334.69,556q0-62.68,0-125.37a288.11,288.11,0,0,0,42.84-11.48q0,62.68,0,125.36A288.13,288.13,0,0,1,334.69,556Z"/><path class="cls-1" d="M62.65,472.35c-14.77-41.79,0-83.58,0-125.37,20.65,25.59,47.51,46.34,80.09,61.83,38.22,18.19,82,27.41,130.07,27.42a332.32,332.32,0,0,0,61.88-5.59q0,62.69,0,125.37a333.18,333.18,0,0,1-61.88,5.58c-48.08,0-91.85-9.23-130.07-27.42C110.16,518.68,83.3,497.93,62.65,472.35Z"/><path class="cls-4" d="M493.1,119c21.66,31.43,32.63,67.32,32.62,106.68,0,39.77-11,76.07-32.7,107.9s-52.11,57.16-90.45,75.27-82.15,27.39-129.77,27.38c-48.08,0-91.85-9.23-130.07-27.42S74.3,365.35,52.63,333.5,20,265.36,20,225.58c0-39.36,11-75.24,32.66-106.67s52-56.46,90.13-74.39,82-27.11,130.12-27.1c47.63,0,91.29,9.14,129.79,27.15C441,62.53,471.47,87.56,493.1,119ZM382.91,288.6c10.76-18.54,16.23-39.51,16.24-62.35,0-22.44-5.45-43.22-16.2-61.76a120.12,120.12,0,0,0-44.71-44.4c-19-10.89-40.32-16.42-63.28-16.42A131.31,131.31,0,0,0,210.77,120,125.68,125.68,0,0,0,164,164.24a115.85,115.85,0,0,0-17.39,62,117.23,117.23,0,0,0,17.34,62.23,127.2,127.2,0,0,0,46.73,44.87A129.54,129.54,0,0,0,274.89,350a124.55,124.55,0,0,0,63-16.71,121.62,121.62,0,0,0,45-44.67"/><path class="cls-5" d="M545.72,225.68V351c0,42.94-12,82.24-35.5,116.79s-56.55,62.06-98.12,81.69S323.8,579,272.8,579c-51.46,0-98.45-10-139.65-29.56S59,502.31,35.44,467.74,0,393.88,0,350.94V225.58c0,42.94,11.9,82.24,35.43,116.8s56.39,62.07,97.71,81.71,88.19,29.55,139.65,29.56c51,0,97.87-9.91,139.31-29.49s74.58-47.12,98.12-81.7S545.7,268.62,545.72,225.68Z"/><path class="cls-2" d="M510.26,110c23.53,34.19,35.47,73.09,35.46,115.65,0,42.94-12,82.23-35.5,116.78s-56.55,62.07-98.12,81.7-88.31,29.5-139.31,29.49c-51.46,0-98.45-9.95-139.65-29.56S58.94,377,35.43,342.38,0,268.52,0,225.58C0,183,12,144.12,35.52,109.94S92,48.63,133.28,29.19,221.48,0,272.91,0c51,0,97.82,9.85,139.25,29.23S486.73,75.88,510.26,110ZM493,333.58c21.69-31.83,32.69-68.13,32.7-107.9,0-39.36-11-75.25-32.62-106.68S441,62.53,402.7,44.57c-38.5-18-82.16-27.14-129.79-27.15-48.08,0-91.86,9.11-130.12,27.1s-68.46,43-90.13,74.39S20,186.22,20,225.58c0,39.78,11,76.08,32.63,107.92s52,57.18,90.1,75.31,82,27.41,130.07,27.42c47.62,0,91.29-9.21,129.77-27.38s68.78-43.44,90.45-75.27"/></svg>
