<svg id="Layer_1" data-name="Layer 1" xmlns="http://www.w3.org/2000/svg" viewBox="0 0 271.75 201.35"><defs><style>.cls-1{fill:#fff;}</style></defs><title>the-end</title><path class="cls-1" d="M92,89.58a28.35,28.35,0,0,1,1.77-2.79A8.46,8.46,0,0,1,95,85.4a4.89,4.89,0,0,1,.6-.44l.28,0a.72.72,0,0,0,.24-.1c1.52.38,3,.68,4.37.92a24.27,24.27,0,0,0,4.14.35,15.6,15.6,0,0,0,2.71-.24,13.06,13.06,0,0,0,2.59-.73,10.39,10.39,0,0,0,2.35-1.28,5.71,5.71,0,0,0,1.57-1.63,4.79,4.79,0,0,0,.71-1.68,4.34,4.34,0,0,0,0-1.68,3.61,3.61,0,0,0-1-1.86,2.17,2.17,0,0,0-1.58-.75,1.3,1.3,0,0,0-1,.41,1.38,1.38,0,0,0-.39,1,1.42,1.42,0,0,0,.28.88,1.34,1.34,0,0,0,.69.47,1.62,1.62,0,0,1,.17.33.86.86,0,0,1,0,.53,2.38,2.38,0,0,1-.88,1.47,7.77,7.77,0,0,1-2.11,1.29,11.16,11.16,0,0,1-4.17.71l-1.11,0c-.38,0-.79,0-1.21-.1a29.32,29.32,0,0,1-4-.72c-1.47-.36-3-.72-4.48-1.07-1.19-.3-2.42-.59-3.69-.89s-2.58-.58-3.92-.82a21.06,21.06,0,0,0-4.22-.45,12.88,12.88,0,0,0-2.53.22,8.51,8.51,0,0,0-4.33,2,6.6,6.6,0,0,0-1.1,1.32,7.47,7.47,0,0,0-.77,1.55A6.51,6.51,0,0,0,73,87.12a4.91,4.91,0,0,0,1.53,3.36,3.9,3.9,0,0,0,1.32.89,5.32,5.32,0,0,0,1.51.38,3.34,3.34,0,0,0,2.08-.49,2.41,2.41,0,0,0,1.1-1.56v0a1.31,1.31,0,0,0-1-1.68,1.42,1.42,0,0,0-1.12.17,1.34,1.34,0,0,0-.6.84L77.53,89a2.14,2.14,0,0,1-1-.49,2.18,2.18,0,0,1-.71-1.64A3.91,3.91,0,0,1,76,85.22a4.31,4.31,0,0,1,1.06-1.68,7.53,7.53,0,0,1,5.08-1.49,17.06,17.06,0,0,1,1.71.09c.6.06,1.24.16,1.91.28,1.19.25,2.33.5,3.43.75s2.19.51,3.28.78q-2.42,2.65-5.33,9.22c-.43,1-.86,2.12-1.31,3.3s-.89,2.41-1.34,3.67c-.05.13-.1.26-.15.41s-.1.29-.15.41l0,0c-.63,1.71-1.26,3.44-1.91,5.18s-1.33,3.42-2.07,5a38.67,38.67,0,0,1-2.4,4.53A18.73,18.73,0,0,1,75,119.3a11.85,11.85,0,0,1-3.39,2.36,8.62,8.62,0,0,1-4.09.69,3.53,3.53,0,0,1-.63-.17,6.2,6.2,0,0,1-1.14-.52,6,6,0,0,1-1.2-.94,3.09,3.09,0,0,1-.8-1.47,1.4,1.4,0,0,0-.52-.9,1.32,1.32,0,0,0-1.05-.3,1.38,1.38,0,0,0-.93.55,1.35,1.35,0,0,0-.3,1.06,5.92,5.92,0,0,0,3.51,4.59,6.89,6.89,0,0,0,1.79.63l1,.19a13.12,13.12,0,0,0,3.9-.37,11.29,11.29,0,0,0,3.52-1.57,21,21,0,0,0,2.75-2.43A21.69,21.69,0,0,0,80,117.46a40.71,40.71,0,0,0,2-3.6c.63-1.28,1.24-2.6,1.81-3.94s1.11-2.7,1.62-4.07,1-2.7,1.44-4,.94-2.65,1.42-3.92,1-2.49,1.45-3.65A50.09,50.09,0,0,1,92,89.58Z"/><path class="cls-1" d="M128.76,101.45a1.26,1.26,0,0,0-1,0,1.38,1.38,0,0,0-.75.75,26.71,26.71,0,0,1-2.37,4.7,19.42,19.42,0,0,1-2.63,3.3,12.49,12.49,0,0,1-2.63,2,8.41,8.41,0,0,1-2.33,1,4.19,4.19,0,0,1-1.33,0,1.91,1.91,0,0,1-1.21-.61,4.94,4.94,0,0,1-1.23-3.18,11.1,11.1,0,0,1,.19-2.38l.52.48A2.69,2.69,0,0,0,115,108a6.1,6.1,0,0,0,1.19.13,5.15,5.15,0,0,0,2.06-.38h0a6.35,6.35,0,0,0,2.05-1.53A10.07,10.07,0,0,0,122,103.8a7.73,7.73,0,0,0,.75-2,8.53,8.53,0,0,0,.22-1.86,4.06,4.06,0,0,0,0-.67,4.24,4.24,0,0,0-.11-.56,3.08,3.08,0,0,0-1.19-1.87,3.2,3.2,0,0,0-2.2-.52q-2.18.18-4.59,2.72a14.43,14.43,0,0,0-1.93,2.52.83.83,0,0,1-.07.13,1.2,1.2,0,0,0-.32.49l-.16.39a15.16,15.16,0,0,0-.88,1.88c-.07.16-.11.33-.17.49-.38.8-.76,1.55-1.14,2.22a23.43,23.43,0,0,1-2.22,3.37,10,10,0,0,1-2,2,4.2,4.2,0,0,1-1.65.77,1.69,1.69,0,0,1-1.49-.67,2.89,2.89,0,0,1-.43-.86,3.73,3.73,0,0,1-.13-1,8.21,8.21,0,0,1,.56-2.76c.37-1,.75-2,1.12-2.91s.8-1.89,1.12-2.82a7.87,7.87,0,0,0,.49-2.52,3.78,3.78,0,0,0-.64-2.09,3.31,3.31,0,0,0-2.72-1.42c-1.4,0-3.08.89-5,2.65.52-1.32,1-2.53,1.55-3.64s1-2.08,1.4-2.92.79-1.55,1.12-2.11l.67-1.18A2,2,0,0,0,102,88a1.31,1.31,0,0,0-.5-.88,1.38,1.38,0,0,0-1-.16,1.32,1.32,0,0,0-.86.61c-.07.1-.46.79-1.17,2s-1.58,3.06-2.6,5.38c-.44,1-.94,2.27-1.49,3.67s-1.09,2.94-1.64,4.59-1.09,3.42-1.62,5.3-1,3.81-1.44,5.8a1.52,1.52,0,0,0,.22,1,1.3,1.3,0,0,0,.82.6,1.32,1.32,0,0,0,1-.23,1.55,1.55,0,0,0,.63-.85c.35-1.57.72-3.13,1.12-4.69s.81-3,1.23-4.38c.5-.67,1.09-1.4,1.76-2.18s1.35-1.52,2-2.21a15.2,15.2,0,0,1,2-1.69,3.08,3.08,0,0,1,1.67-.68.62.62,0,0,1,.49.3h0a.93.93,0,0,1,.13.73,5.5,5.5,0,0,1-.26,1.16c-.14.43-.3.9-.5,1.4s-.4,1-.6,1.45c-.35.8-.68,1.63-1,2.5a18.71,18.71,0,0,0-.74,2.5c0,.3-.1.59-.13.88a6.29,6.29,0,0,0-.06.88,5.54,5.54,0,0,0,1.16,3.5,4.87,4.87,0,0,0,1.84,1.44,3.93,3.93,0,0,0,2.22.28,6,6,0,0,0,2.67-1.18,13.65,13.65,0,0,0,2.69-2.65c.24-.29.47-.61.71-.94a7.53,7.53,0,0,0,1.7,3.17,4.74,4.74,0,0,0,1.67,1.17,5.25,5.25,0,0,0,2.09.43,6.83,6.83,0,0,0,1.27-.11,10.79,10.79,0,0,0,3.25-1.25,13.94,13.94,0,0,0,3.17-2.52,22.29,22.29,0,0,0,3.1-4,33.69,33.69,0,0,0,2.5-5,1.44,1.44,0,0,0,0-1A1.17,1.17,0,0,0,128.76,101.45Zm-13.94,2.26a13.88,13.88,0,0,1,1.07-1.66,11.62,11.62,0,0,1,1.34-1.53,7,7,0,0,1,1.31-1,2.57,2.57,0,0,1,1.12-.41c.3,0,.45.09.45.33a3.57,3.57,0,0,1,0,1.48,8.64,8.64,0,0,1-.6,1.75,7.12,7.12,0,0,1-1,1.61,3.78,3.78,0,0,1-1.28,1,2.58,2.58,0,0,1-.77.13,2.06,2.06,0,0,1-.69,0,1,1,0,0,0-.26-.86,1.74,1.74,0,0,0-.74-.5Z"/><path class="cls-1" d="M164.94,116.13a1.3,1.3,0,0,0-1,.39,18.76,18.76,0,0,1-4.29,3.1,13.9,13.9,0,0,1-4.29,1.46l-.53,0a5,5,0,0,1-.52,0,8.06,8.06,0,0,1-2.8-.5,8.63,8.63,0,0,1-2.39-1.36c-.29-.33-.6-.7-.91-1.12a11.76,11.76,0,0,1-.86-1.37,9.54,9.54,0,0,1-.65-1.47,7.66,7.66,0,0,1-.37-1.42,4.58,4.58,0,0,1-.06-.56c0-.2,0-.36,0-.48a10.5,10.5,0,0,1,2-6.05,20.58,20.58,0,0,1,3.45-4,16.76,16.76,0,0,1,3.47-2.37,12.45,12.45,0,0,1,3.23-1.12,16,16,0,0,1,2.72-.28,9.7,9.7,0,0,1,1.63.13c.46.09.77.16.95.21a.1.1,0,0,1,.07,0h.11a1.3,1.3,0,0,0,1-.14,1.56,1.56,0,0,0,.69-.83,1.3,1.3,0,0,0-.13-1,1.66,1.66,0,0,0-.88-.71h-.11a6.92,6.92,0,0,1-2.67-1.27,6.32,6.32,0,0,1-1.51-1.73,5,5,0,0,1-.65-1.87,9.45,9.45,0,0,1-.1-1.7,18.62,18.62,0,0,0,2.32.6A8.65,8.65,0,0,0,163,91c.36,0,.7,0,1,0a5,5,0,0,0,2.47-.56,4.44,4.44,0,0,0,2.38-3l0,0a2.49,2.49,0,0,0,.18-.67,4,4,0,0,0,0-.6,3.62,3.62,0,0,0-.22-1.25,3.1,3.1,0,0,0-.71-1.1v0a4.54,4.54,0,0,0-1.72-1.12,6.27,6.27,0,0,0-2.2-.37,7.28,7.28,0,0,0-2.09.3,12.14,12.14,0,0,0-1.66.7A6.35,6.35,0,0,0,159,84.51h0a6.32,6.32,0,0,0-1.49,2c-1.42-.5-2.88-1-4.38-1.4a15.78,15.78,0,0,0-4.31-.65,12.09,12.09,0,0,0-1.61.11,6.72,6.72,0,0,0-3,1.12,8.1,8.1,0,0,0-1.62,1.53,5.66,5.66,0,0,0-.89,2,6.33,6.33,0,0,0-.12,2.24,6.23,6.23,0,0,0,.58,1.7,4.53,4.53,0,0,0,1.1,1.4,5,5,0,0,0,1.7.93,3.8,3.8,0,0,0,1.92.11,3.94,3.94,0,0,0,1.57-.56,3.74,3.74,0,0,0,1-.91,3.43,3.43,0,0,0,.67-1.92,1.32,1.32,0,0,0-.41-1,1.74,1.74,0,0,0-1-.47,1.28,1.28,0,0,0-1,.41,1.74,1.74,0,0,0-.47,1,.8.8,0,0,1-.15.36.91.91,0,0,1-.71.31,1.56,1.56,0,0,1-1.47-.42,2.44,2.44,0,0,1-.65-1.37,2.79,2.79,0,0,1,0-1.15,2.46,2.46,0,0,1,.51-1,3.88,3.88,0,0,1,2.76-1.49,6.84,6.84,0,0,1,1.19-.11,13.91,13.91,0,0,1,3.83.59c1.35.4,2.72.85,4.08,1.35a4.86,4.86,0,0,0,0,.56v.63a12.61,12.61,0,0,0,.24,2.32,7.69,7.69,0,0,0,.95,2.46v0a13.86,13.86,0,0,0,.9,1.31l-.68.07a18.79,18.79,0,0,0-6,2.46,21.74,21.74,0,0,0-3.27,2.71,25.37,25.37,0,0,0-2.92,3.53,13.35,13.35,0,0,0-2.47,7.61c0,.22,0,.45,0,.67a6.12,6.12,0,0,0,.06.63,12.09,12.09,0,0,0,1.28,4,11.35,11.35,0,0,0,2.52,3.21,11,11,0,0,0,3.25,1.86,10.78,10.78,0,0,0,3.77.67c.25,0,.47,0,.67,0l.63,0a11.44,11.44,0,0,0,2.54-.51,17.3,17.3,0,0,0,2.5-1c.87-.5,1.74-1,2.61-1.66a23.2,23.2,0,0,0,2.58-2.11,1.45,1.45,0,0,0,.43-1,1.31,1.31,0,0,0-.39-1A1.45,1.45,0,0,0,164.94,116.13Zm-4.44-29.2.39-.41h0a4.09,4.09,0,0,1,1.9-1,3.92,3.92,0,0,1,.71-.15c.22,0,.43,0,.63,0a5.21,5.21,0,0,1,1.16.13,1.47,1.47,0,0,1,.78.43c.2.15.24.43.11.82a2.14,2.14,0,0,1-1,1.31l-.54.15a2.77,2.77,0,0,1-.69.07,7.88,7.88,0,0,1-1.7-.2c-.64-.14-1.34-.33-2.11-.58A2.08,2.08,0,0,1,160.5,86.93Z"/><path class="cls-1" d="M209.68,102.16a1.19,1.19,0,0,0-.81-.71h0a1.1,1.1,0,0,0-1,0,1.55,1.55,0,0,0-.74.71,45.85,45.85,0,0,1-2,4.25,30.57,30.57,0,0,1-2,3.36,13.33,13.33,0,0,1-2,2.27,4.39,4.39,0,0,1-1.9,1,2,2,0,0,1-1.87-.64,2.65,2.65,0,0,1-.52-1.9,7.06,7.06,0,0,1,0-.73c0-.28.06-.59.11-.91a.24.24,0,0,1,0-.11.4.4,0,0,0,0-.15,30.34,30.34,0,0,1,1.27-4.4c.6-1.65,1.29-3.35,2.06-5.12s1.6-3.52,2.5-5.28,1.77-3.39,2.65-4.9a1.44,1.44,0,0,0-.56-1.91,1.26,1.26,0,0,0-1-.13,1.44,1.44,0,0,0-.84.54l-.07.08a.2.2,0,0,0-.07.11c-.1.18-.32.54-.64,1.1s-.71,1.27-1.16,2.13-.94,1.84-1.49,3-1.09,2.29-1.64,3.56a5.87,5.87,0,0,0-.9-.6,7.32,7.32,0,0,0-1.19-.48,5.43,5.43,0,0,0-4.66,1.38,13.24,13.24,0,0,0-2.71,3.13c-.17.28-.34.56-.5.85a1.31,1.31,0,0,0-.45.61,48.34,48.34,0,0,1-2.33,5,23,23,0,0,1-2.2,3.34,10,10,0,0,1-2,1.92,4.23,4.23,0,0,1-1.64.75,1.65,1.65,0,0,1-1.5-.67,2.86,2.86,0,0,1-.42-.86,3.35,3.35,0,0,1-.13-1A8.17,8.17,0,0,1,178,108c.38-1,.75-2,1.12-2.91s.8-1.89,1.12-2.82a7.6,7.6,0,0,0,.49-2.52,3.7,3.7,0,0,0-.64-2.09,3.36,3.36,0,0,0-2.72-1.42,5,5,0,0,0-2.33.66A12.07,12.07,0,0,0,172.31,99l.29-.82a1.32,1.32,0,0,0,0-1,1.25,1.25,0,0,0-.72-.74,1.23,1.23,0,0,0-1,.05,1.73,1.73,0,0,0-.79.69q-1.66,4.11-3,8.45t-2.24,8.75v0a1.11,1.11,0,0,0,.15,1,1.39,1.39,0,0,0,.9.62,1.26,1.26,0,0,0,1-.21,1.48,1.48,0,0,0,.61-.87c.35-1.6.72-3.13,1.1-4.59s.79-2.9,1.22-4.3c.47-.67,1.05-1.41,1.73-2.22s1.38-1.56,2.09-2.25a17.35,17.35,0,0,1,2.07-1.76,3.22,3.22,0,0,1,1.72-.71c.12,0,.26.1.41.3a1.06,1.06,0,0,1,.15.73,6,6,0,0,1-.24,1.16c-.14.43-.31.9-.51,1.4s-.4,1-.6,1.45c-.37.8-.72,1.63-1,2.5a15.9,15.9,0,0,0-.71,2.5c0,.3-.09.59-.13.88a6.29,6.29,0,0,0-.06.88,5.54,5.54,0,0,0,1.16,3.5,4.83,4.83,0,0,0,1.85,1.44,3.93,3.93,0,0,0,2.22.28,6,6,0,0,0,2.67-1.18,13.89,13.89,0,0,0,2.68-2.65c.1-.11.19-.24.28-.36a8.11,8.11,0,0,0,.19,1.24,4.5,4.5,0,0,0,.52,1.33,3.67,3.67,0,0,0,.71.85,2.64,2.64,0,0,0,.73.47,2.6,2.6,0,0,0,.65.19q2.51.45,5.93-3.47a4.29,4.29,0,0,0,1.12,2,4.54,4.54,0,0,0,4.37,1.38q2.61-.55,5.15-3.77a36.69,36.69,0,0,0,4.77-8.88A1.44,1.44,0,0,0,209.68,102.16Zm-14.31,2a27,27,0,0,0-.9,3.32l-.11.49a32.56,32.56,0,0,1-2.41,3,15.59,15.59,0,0,1-1.64,1.57,3.12,3.12,0,0,1-1,.58.92.92,0,0,1-.45,0h0c-.1,0-.18-.12-.23-.29s-.1-.34-.15-.49a6.32,6.32,0,0,1-.18-1.49,13.22,13.22,0,0,1,.33-2.76,19.94,19.94,0,0,1,.95-3.06,17.4,17.4,0,0,1,1.5-2.91,9.88,9.88,0,0,1,2-2.32,5.69,5.69,0,0,1,1.27-.71,2,2,0,0,1,1.12-.11h0a2,2,0,0,1,.84.41,4.08,4.08,0,0,1,.66.71Q196,102.39,195.37,104.17Z"/><path class="cls-1" d="M213.54,6.13H141.38L135.25,0l-6.13,6.13H57A.92.92,0,1,0,57,8h72.16l6.13,6.14L141.38,8h72.16a.92.92,0,0,0,0-1.83ZM135.25,11.5,131.71,8h7.07Z"/><path class="cls-1" d="M240.43,6.13h-18.1a.92.92,0,0,0,0,1.83h18.1a.92.92,0,0,0,0-1.83Z"/><path class="cls-1" d="M263.72,6.13h-9a.92.92,0,1,0,0,1.83h9a.92.92,0,1,0,0-1.83Z"/><path class="cls-1" d="M270.83,6.13h-2.19a.92.92,0,1,0,0,1.83h2.19a.92.92,0,1,0,0-1.83Z"/><path class="cls-1" d="M248.24,6.13h-1.05a.92.92,0,0,0,0,1.83h1.05a.92.92,0,1,0,0-1.83Z"/><path class="cls-1" d="M49.42,6.13H31.32a.92.92,0,0,0,0,1.83h18.1a.92.92,0,0,0,0-1.83Z"/><path class="cls-1" d="M17.07,6.13H8A.92.92,0,1,0,8,8h9a.92.92,0,1,0,0-1.83Z"/><path class="cls-1" d="M3.11,6.13H.92A.92.92,0,1,0,.92,8H3.11a.92.92,0,1,0,0-1.83Z"/><path class="cls-1" d="M24.56,6.13h-1a.92.92,0,1,0,0,1.83h1a.92.92,0,0,0,0-1.83Z"/><path class="cls-1" d="M214.45,194.31a.92.92,0,0,0-.91-.92H141.38l-6.13-6.13-6.13,6.13H57a.92.92,0,1,0,0,1.83h72.16l6.13,6.13,6.13-6.13h72.16A.91.91,0,0,0,214.45,194.31Zm-75.67-.92h-7.07l3.54-3.54Z"/><path class="cls-1" d="M240.43,195.22h-18.1a.92.92,0,0,1,0-1.83h18.1a.92.92,0,0,1,0,1.83Z"/><path class="cls-1" d="M263.72,195.22h-9a.92.92,0,1,1,0-1.83h9a.92.92,0,1,1,0,1.83Z"/><path class="cls-1" d="M270.83,195.22h-2.19a.92.92,0,1,1,0-1.83h2.19a.92.92,0,1,1,0,1.83Z"/><path class="cls-1" d="M248.24,195.22h-1.05a.92.92,0,0,1,0-1.83h1.05a.92.92,0,1,1,0,1.83Z"/><path class="cls-1" d="M49.42,195.22H31.32a.92.92,0,0,1,0-1.83h18.1a.92.92,0,0,1,0,1.83Z"/><path class="cls-1" d="M17.07,195.22H8a.92.92,0,1,1,0-1.83h9a.92.92,0,1,1,0,1.83Z"/><path class="cls-1" d="M3.11,195.22H.92a.92.92,0,1,1,0-1.83H3.11a.92.92,0,1,1,0,1.83Z"/><path class="cls-1" d="M24.56,195.22h-1a.92.92,0,1,1,0-1.83h1a.92.92,0,0,1,0,1.83Z"/></svg>