<svg id="Layer_1" data-name="Layer 1" xmlns="http://www.w3.org/2000/svg" viewBox="0 0 320 80"><defs><style>.cls-1{fill:#333;}</style></defs><title>twitter</title><path class="cls-1" d="M41.82,29.86c-.27-4.62.62-9.42,4.1-12.75a10.15,10.15,0,0,1,13.72-.73c1.36,1.12,2.48,2.92,4.47,2.88,2.74-.06,6-3.18,8.21-4.5l-2-2a29.49,29.49,0,0,1-5.89,7c-1.18,1.05.09,2.82,1.46,2.51l8.32-1.9-1.7-2.21c-2,2.81-5.52,4.54-7,7.68-1.14,2.45-1,5.75-1.3,8.37A35.05,35.05,0,0,1,54,55.84c-6.25,6.23-14,10.2-22.86,10.22-8.34,0-16.8-.82-24.17-5l-.76,2.79a40.19,40.19,0,0,0,22-5.92,1.52,1.52,0,0,0-.35-2.74C22.64,53.7,17.47,52,15.07,46.65l-1.29,2.26a21.08,21.08,0,0,0,5.61.05,1.52,1.52,0,0,0,.76-2.8,20.79,20.79,0,0,1-9.21-13.52l-2.2,1.7a15.21,15.21,0,0,0,5.67,2.07c1.3.21,2.76-1.44,1.46-2.5-5.46-4.47-4.83-11.34-3.5-17.59L9.87,17c7.88,9.67,18.26,12.09,29.91,14.72,1.88.43,2.68-2.47.8-2.89-11.12-2.51-21-4.69-28.59-13.95a1.51,1.51,0,0,0-2.51.66c-1.56,7.28-2,15.33,4.27,20.5l1.46-2.51a13.54,13.54,0,0,1-5-1.77,1.52,1.52,0,0,0-2.2,1.69A23.68,23.68,0,0,0,18.63,48.75L19.39,46a21.08,21.08,0,0,1-5.61-.05c-1.26-.17-1.7,1.36-1.3,2.26,2.7,6,8.62,8.22,14.63,9.9l-.36-2.74A37.34,37.34,0,0,1,6.24,60.84a1.51,1.51,0,0,0-.75,2.8c13.8,7.85,33.38,7.88,46.16-1.79A39.54,39.54,0,0,0,65,44.45a47.26,47.26,0,0,0,2.33-11.9c.4-3.77,1-6.06,4-8.64a25.54,25.54,0,0,0,3.73-4.25c.82-1.13-.53-2.47-1.69-2.21l-8.31,1.91,1.46,2.51a32.16,32.16,0,0,0,6.35-7.65,1.51,1.51,0,0,0-2-2.05c-2,1.22-5.54,4.19-7.78,3.26-1.3-.53-2.61-2.41-4-3.11a12.71,12.71,0,0,0-10.18-.52c-7.47,2.77-10.47,10.61-10,18.06.11,1.92,3.11,1.93,3,0Z"/><path class="cls-1" d="M122.58,30c0-4.65.53-9.39,3.84-12.93a10,10,0,0,1,13-1.8c1.66,1.08,3.27,3.63,5.54,3.6,2.69,0,6-3.31,8.15-4.68l-2-2.05a33.17,33.17,0,0,1-5.74,7.23,1.51,1.51,0,0,0,1.46,2.5c2.78-.69,5.56-1.4,8.33-2.1l-1.69-2.21c-2,2.84-5.44,4.67-6.87,7.84-1.1,2.44-1,5.59-1.31,8.22A37.28,37.28,0,0,1,135.25,55C123.63,67.28,104,69.16,88.57,63.36l-.4,3a43.23,43.23,0,0,0,21-8.36c.9-.65,1.06-2.53-.36-2.74-4.48-.67-9.25-1.06-12.23-5l-.89,2.21A31.63,31.63,0,0,0,101,51.2a1.52,1.52,0,0,0,0-2.9,21.67,21.67,0,0,1-10.27-7.93l-1.3,2.26a23.76,23.76,0,0,0,5.84-.36c1.58-.28,1.26-2.45,0-2.89C89.13,37.2,87.62,32,86.77,26.13l-2.2,1.7c11,6.08,24.36,2.75,36.37,4.15,1.91.22,1.9-2.78,0-3-11.32-1.32-24.55,2-34.86-3.74a1.52,1.52,0,0,0-2.2,1.69c1.05,7.29,3.32,12.77,10.58,15.34V39.38a14.49,14.49,0,0,1-5,.25,1.51,1.51,0,0,0-1.29,2.26,25.54,25.54,0,0,0,12.06,9.31V48.3a29.76,29.76,0,0,1-5.26,1.23,1.51,1.51,0,0,0-.9,2.21c3.54,4.66,8.47,5.54,14,6.37l-.36-2.75a40.41,40.41,0,0,1-19.53,8,1.51,1.51,0,0,0-.4,3c14.83,5.57,34.19,4.39,46.46-6.16A41.26,41.26,0,0,0,146,43.21c1.55-4.14,2-8.22,2.51-12.56.64-5.24,4.59-7.5,7.46-11.53.79-1.12-.52-2.51-1.7-2.2-2.77.7-5.55,1.41-8.33,2.1l1.46,2.51a35.88,35.88,0,0,0,6.21-7.83,1.52,1.52,0,0,0-2.06-2.06c-2.5,1.62-5.4,4.33-8.13,3.07-1.53-.71-2.74-2.24-4.35-3a12.32,12.32,0,0,0-9.87-.13c-7.48,3-9.7,11.08-9.62,18.44a1.5,1.5,0,0,0,3,0Z"/><path class="cls-1" d="M203.51,30.25c.15-4.71.51-9.63,3.81-13.34,3.65-4.1,9-4.55,13.49-1.47,1.55,1.07,3.18,3.23,5.31,3.06,2.74-.21,5.69-3.35,7.84-4.83l-2.05-2.05a38.64,38.64,0,0,1-5.53,7.44,1.51,1.51,0,0,0,1.46,2.5c2.78-.77,5.54-1.56,8.31-2.34L234.46,17c-2,2.85-5.34,4.84-6.72,8-1.07,2.47-1,5.48-1.34,8.1a40.64,40.64,0,0,1-9.51,20.62c-5,5.9-11.14,10-18.85,11.43-8.75,1.62-17.84,2.85-26.65,1.12v2.9a42.43,42.43,0,0,0,19.37-11.41,1.52,1.52,0,0,0-1.07-2.56c-3.58.11-7.19.69-10.3-1.46v2.59c1.5-.85,2.92-1.74,4.35-2.7a1.51,1.51,0,0,0-.76-2.79,31,31,0,0,1-9.46-1.37l.36,2.75a41.48,41.48,0,0,0,4.69-3.33c1.23-1-.12-2.83-1.46-2.5-6.16,1.49-8.41-.86-11.57-5.64L164.25,43c5.57,0,10-2.08,14.79-4.8a42.53,42.53,0,0,1,22.83-6,1.5,1.5,0,0,0,0-3c-6.69-.05-13,.71-19.13,3.61S171.43,40.09,164.25,40a1.51,1.51,0,0,0-1.3,2.26c4,6.1,7.5,8.82,15,7l-1.46-2.51a23.48,23.48,0,0,1-4.07,2.86,1.52,1.52,0,0,0,.36,2.74A33.24,33.24,0,0,0,183,53.86l-.75-2.8c-1.43,1-2.86,1.85-4.35,2.7a1.52,1.52,0,0,0,0,2.59c3.63,2.51,7.57,2,11.81,1.87l-1.06-2.56a39.17,39.17,0,0,1-18,10.63c-1.36.37-1.5,2.6,0,2.9,8.87,1.73,17.46.5,26.29-.84A33.88,33.88,0,0,0,216,59.09a47.6,47.6,0,0,0,11.49-17.88C229,37,229,33.06,229.91,28.78s4.71-6.73,7.14-10.25a1.52,1.52,0,0,0-1.69-2.21l-8.31,2.35,1.46,2.51a41.69,41.69,0,0,0,6-8c.71-1.24-.77-2.93-2.05-2.05-2.44,1.67-5.18,4.86-8.09,3.28-1.56-.85-2.79-2.15-4.45-2.92a12.06,12.06,0,0,0-9.91-.11c-7.6,3.2-9.26,11.53-9.49,18.92-.06,1.93,3,1.93,3,0Z"/><path class="cls-1" d="M283.76,30.35c.55-4.71,1-9.76,4.26-13.51,3.65-4.19,8.83-4.58,13.34-1.54,1.51,1,3.29,3.16,5.35,3,2.74-.2,5.69-3.42,7.82-4.92l-2-2.05A43,43,0,0,1,307,18.87a1.51,1.51,0,0,0,1.45,2.51c2.79-.8,5.56-1.62,8.34-2.44l-1.69-2.21c-1.95,2.81-5.28,4.94-6.68,8.05-1,2.14-1,4.72-1.33,7-1,7.9-5.09,15.72-10.19,21.81A32.44,32.44,0,0,1,278.13,65c-8.21,1.87-16,4.5-24.5,4.31l.76,2.8a42.9,42.9,0,0,0,17.24-14.55c.81-1.13-.53-2.48-1.7-2.2-3.21.75-6.14,1.92-9.48,1.26l.66,2.51c1.25-1.2,2.46-2.43,3.66-3.68,1-1,0-3-1.46-2.51a88.63,88.63,0,0,1-9.16,2.64l1.46,2.51c1.29-1.56,2.47-3.18,3.65-4.84.87-1.23-.84-2.84-2.06-2a24.36,24.36,0,0,1-4,2.59c-3.47,1.38-6.09-1.21-8.53-3.25L244,53c6.11-2.24,10.18-6.57,14.72-11.05,6.81-6.72,13.92-9,23.37-9.64,1.92-.13,1.93-3.13,0-3-7.26.49-14.37,1.63-20.4,6-6.47,4.71-10.71,11.93-18.49,14.78a1.52,1.52,0,0,0-.66,2.51c2.38,2,4.82,4.42,8.05,4.68s5.57-1.9,8.14-3.56l-2.05-2c-1,1.45-2.05,2.86-3.18,4.23A1.51,1.51,0,0,0,255,58.45a91.24,91.24,0,0,0,9.16-2.65l-1.46-2.51c-1.2,1.26-2.41,2.49-3.66,3.69a1.52,1.52,0,0,0,.66,2.51c4,.78,7.22-.37,11.08-1.27L269,56a40,40,0,0,1-16.17,13.47c-1.42.65-.62,2.76.76,2.79,8.79.19,16.84-2.49,25.3-4.42C286.2,66.21,291.85,63.45,297,58a54.48,54.48,0,0,0,10.86-17.32c1.66-4.11,1.65-8,2.71-12.21s4.69-6.74,7.13-10.25A1.52,1.52,0,0,0,316,16q-4.15,1.25-8.33,2.45l1.46,2.5a46,46,0,0,0,5.93-8.13c.71-1.23-.78-2.95-2.05-2.06-2.44,1.72-5.14,4.94-8.09,3.38-1.56-.82-2.84-2.11-4.46-2.89a11.56,11.56,0,0,0-9.84-.07c-7.62,3.33-9,11.78-9.87,19.13-.22,1.91,2.78,1.9,3,0Z"/></svg>