<svg id="Layer_1" data-name="Layer 1" xmlns="http://www.w3.org/2000/svg" viewBox="0 0 80 80"><defs><style>.cls-1{fill:#333;}</style></defs><title>twitter-noframes</title><path class="cls-1" d="M41.82,29.86c-.27-4.62.62-9.42,4.1-12.75a10.15,10.15,0,0,1,13.72-.73c1.36,1.12,2.48,2.92,4.47,2.88,2.74-.06,6-3.18,8.21-4.5l-2-2a29.49,29.49,0,0,1-5.89,7c-1.18,1.05.09,2.82,1.46,2.51l8.32-1.9-1.7-2.21c-2,2.81-5.52,4.54-7,7.68-1.14,2.45-1,5.75-1.3,8.37A35.05,35.05,0,0,1,54,55.84c-6.25,6.23-14,10.2-22.86,10.22-8.34,0-16.8-.82-24.17-5l-.76,2.79a40.19,40.19,0,0,0,22-5.92,1.52,1.52,0,0,0-.35-2.74C22.64,53.7,17.47,52,15.07,46.65l-1.29,2.26a21.08,21.08,0,0,0,5.61.05,1.52,1.52,0,0,0,.76-2.8,20.79,20.79,0,0,1-9.21-13.52l-2.2,1.7a15.21,15.21,0,0,0,5.67,2.07c1.3.21,2.76-1.44,1.46-2.5-5.46-4.47-4.83-11.34-3.5-17.59L9.87,17c7.88,9.67,18.26,12.09,29.91,14.72,1.88.43,2.68-2.47.8-2.89-11.12-2.51-21-4.69-28.59-13.95a1.51,1.51,0,0,0-2.51.66c-1.56,7.28-2,15.33,4.27,20.5l1.46-2.51a13.54,13.54,0,0,1-5-1.77,1.52,1.52,0,0,0-2.2,1.69A23.68,23.68,0,0,0,18.63,48.75L19.39,46a21.08,21.08,0,0,1-5.61-.05c-1.26-.17-1.7,1.36-1.3,2.26,2.7,6,8.62,8.22,14.63,9.9l-.36-2.74A37.34,37.34,0,0,1,6.24,60.84a1.51,1.51,0,0,0-.75,2.8c13.8,7.85,33.38,7.88,46.16-1.79A39.54,39.54,0,0,0,65,44.45a47.26,47.26,0,0,0,2.33-11.9c.4-3.77,1-6.06,4-8.64a25.54,25.54,0,0,0,3.73-4.25c.82-1.13-.53-2.47-1.69-2.21l-8.31,1.91,1.46,2.51a32.16,32.16,0,0,0,6.35-7.65,1.51,1.51,0,0,0-2-2.05c-2,1.22-5.54,4.19-7.78,3.26-1.3-.53-2.61-2.41-4-3.11a12.71,12.71,0,0,0-10.18-.52c-7.47,2.77-10.47,10.61-10,18.06.11,1.92,3.11,1.93,3,0Z"/></svg>