<svg id="Layer_1" data-name="Layer 1" xmlns="http://www.w3.org/2000/svg" xmlns:xlink="http://www.w3.org/1999/xlink" viewBox="0 0 1762.71 904.51"><defs><style>.cls-1{fill:url(#Ciao);}.cls-2{fill:url(#Ciao-2);}.cls-3{fill:url(#Ciao-3);}.cls-4{fill:url(#Ciao-4);}.cls-5{fill:url(#linear-gradient);}.cls-6{fill:url(#Ciao-5);}.cls-7{fill:url(#Ciao-6);}.cls-8{fill:url(#Ciao-7);}.cls-9{fill:url(#linear-gradient-2);}.cls-10{fill:url(#Ciao-8);}.cls-11{fill:url(#Ciao-9);}.cls-12{fill:url(#Ciao-10);}.cls-13{fill:url(#Ciao-11);}.cls-14{fill:url(#Ciao-12);}.cls-15{fill:url(#Ciao-13);}.cls-16{fill:url(#Ciao-14);}.cls-17{fill:url(#Ciao-15);}.cls-18{fill:url(#Ciao-16);}.cls-19{fill:url(#linear-gradient-3);}.cls-20{isolation:isolate;}.cls-21{fill:url(#Ciao-17);}.cls-22{fill:url(#Ciao-18);}.cls-23{fill:url(#linear-gradient-4);}.cls-24{fill:url(#Ciao-19);}.cls-25{fill:url(#Ciao-20);}.cls-26{fill:url(#Ciao-21);}.cls-27{fill:url(#Ciao-22);}.cls-28{fill:url(#Ciao-23);}.cls-29{fill:none;}.cls-30{fill:#fff;}.cls-31{fill:#181716;}</style><linearGradient id="Ciao" x1="92.04" y1="481.61" x2="205.63" y2="481.61" gradientUnits="userSpaceOnUse"><stop offset="0" stop-color="#292929"/><stop offset="1"/></linearGradient><linearGradient id="Ciao-2" x1="84.66" y1="683.03" x2="240.3" y2="683.03" xlink:href="#Ciao"/><linearGradient id="Ciao-3" x1="172.47" y1="562.37" x2="320.77" y2="562.37" xlink:href="#Ciao"/><linearGradient id="Ciao-4" x1="304.56" y1="452.01" x2="419.08" y2="452.01" xlink:href="#Ciao"/><linearGradient id="linear-gradient" x1="0.02" y1="463.34" x2="521.75" y2="463.34" gradientUnits="userSpaceOnUse"><stop offset="0" stop-color="#9e9e9e"/><stop offset="1" stop-color="#2b2b2b"/></linearGradient><linearGradient id="Ciao-5" x1="385.46" y1="477.71" x2="589.58" y2="477.71" xlink:href="#Ciao"/><linearGradient id="Ciao-6" x1="297.65" y1="653.42" x2="453.29" y2="653.42" xlink:href="#Ciao"/><linearGradient id="Ciao-7" x1="591.78" y1="436.31" x2="818.49" y2="436.31" xlink:href="#Ciao"/><linearGradient id="linear-gradient-2" x1="503.77" y1="411.24" x2="858.94" y2="411.24" xlink:href="#linear-gradient"/><linearGradient id="Ciao-8" x1="538.61" y1="477.45" x2="926.76" y2="477.45" xlink:href="#Ciao"/><linearGradient id="Ciao-9" x1="976.84" y1="360.16" x2="1052.51" y2="360.16" xlink:href="#Ciao"/><linearGradient id="Ciao-10" x1="984.68" y1="305.88" x2="1155.98" y2="305.88" xlink:href="#Ciao"/><linearGradient id="Ciao-11" x1="971.5" y1="472.89" x2="1102.89" y2="472.89" xlink:href="#Ciao"/><linearGradient id="Ciao-12" x1="964.41" y1="522.15" x2="1039.33" y2="522.15" xlink:href="#Ciao"/><linearGradient id="Ciao-13" x1="878.88" y1="572.93" x2="1032.24" y2="572.93" xlink:href="#Ciao"/><linearGradient id="Ciao-14" x1="1112.53" y1="349.57" x2="1247.67" y2="349.57" xlink:href="#Ciao"/><linearGradient id="Ciao-15" x1="1112.53" y1="489.89" x2="1240.22" y2="489.89" xlink:href="#Ciao"/><linearGradient id="Ciao-16" x1="1075.65" y1="544.8" x2="1240.22" y2="544.8" xlink:href="#Ciao"/><linearGradient id="linear-gradient-3" x1="878.88" y1="370.24" x2="1179.84" y2="370.24" xlink:href="#linear-gradient"/><linearGradient id="Ciao-17" x1="1307.43" y1="267.52" x2="1386.37" y2="267.52" xlink:href="#Ciao"/><linearGradient id="Ciao-18" x1="1299.28" y1="415.35" x2="1411.82" y2="415.35" xlink:href="#Ciao"/><linearGradient id="linear-gradient-4" x1="1207.4" y1="314.51" x2="1540.55" y2="314.51" xlink:href="#linear-gradient"/><linearGradient id="Ciao-19" x1="1408.47" y1="241.64" x2="1608.38" y2="241.64" xlink:href="#Ciao"/><linearGradient id="Ciao-20" x1="1292.93" y1="481.08" x2="1367.11" y2="481.08" xlink:href="#Ciao"/><linearGradient id="Ciao-21" x1="1207.4" y1="527.24" x2="1360.76" y2="527.24" xlink:href="#Ciao"/><linearGradient id="Ciao-22" x1="1420.05" y1="496.5" x2="1590.25" y2="496.5" xlink:href="#Ciao"/><linearGradient id="Ciao-23" x1="1408.47" y1="403.13" x2="1590.25" y2="403.13" xlink:href="#Ciao"/></defs><title>work</title><path class="cls-1" d="M92,332.56l67.83,70.56q22.88,113.77,45.76,227.55L137.8,560.11Q114.91,446.35,92,332.56Z"/><path class="cls-2" d="M172.47,641.64l67.83,70.57-87.81,12.2L84.66,653.85Z"/><path class="cls-3" d="M252.94,412.53l67.83,70.56Q280.54,597.66,240.3,712.21l-67.83-70.57Z"/><path class="cls-4" d="M304.56,303l67.83,70.56Q395.75,487.29,419.08,601l-67.83-70.56Q327.91,416.72,304.56,303Z"/><path class="cls-5" d="M521.75,272.83Q453.61,442.43,385.46,612l-87.81,12.2Q275.29,518.4,252.94,412.53L172.47,641.64,84.66,653.85,0,345.35l92-12.79q22.88,113.78,45.76,227.55Q179.36,437.38,221,314.64L304.56,303q23.35,113.72,46.69,227.43Q392.61,407.73,433.93,285Z"/><path class="cls-6" d="M521.75,272.83l67.83,70.56Q521.43,513,453.29,682.6L385.46,612Q453.59,442.44,521.75,272.83Z"/><path class="cls-7" d="M385.46,612l67.83,70.56-87.81,12.21-67.83-70.57Z"/><path class="cls-8" d="M750.66,334.05l67.83,70.56a57.52,57.52,0,0,0-17.26-12.51,76.17,76.17,0,0,0-32.6-6.84c-3.58,0-7.24.2-11,.56-15.93,1.56-32.31,9.29-46.06,18.74-14.53,10-26.63,24.05-35.65,39a116,116,0,0,0-15.95,50c-1.29,16,1,33.16,8.52,47a81.82,81.82,0,0,0,12.62,17.4l-67.83-70.56A81.88,81.88,0,0,1,600.64,470c-7.56-13.84-9.81-31-8.52-47a116,116,0,0,1,16-50c9-14.94,21.12-29,35.65-39,13.75-9.46,30.13-17.18,46.06-18.74,3.78-.37,7.44-.56,11-.56a76.31,76.31,0,0,1,32.6,6.83A57.73,57.73,0,0,1,750.66,334.05Z"/><path d="M824.81,280.92l67.83,70.57a119.07,119.07,0,0,1,17.17,22.78L842,303.7A119.38,119.38,0,0,0,824.81,280.92Z"/><path class="cls-9" d="M842,303.7c14.34,24.72,18.63,53.49,16.4,81.78-2.45,31.12-12.93,61-29.91,89.14-16.67,27.61-41.33,52-68.31,69.35-28.4,18.31-59.85,30.3-92.13,34.73a201.34,201.34,0,0,1-27.58,1.94,163.5,163.5,0,0,1-61.06-11.32,118.53,118.53,0,0,1-58.74-51.69c-14.26-25.15-18.58-54.28-16.31-82.93,2.43-30.84,12.83-60.71,29.83-88.22,16.7-27,41-51,68.24-68.41a229.51,229.51,0,0,1,92.09-34.28,205.62,205.62,0,0,1,27.88-2,165.08,165.08,0,0,1,60.79,11.11A118.56,118.56,0,0,1,842,303.7ZM755,448.51a127.57,127.57,0,0,0,15.53-50.36c1.28-15.86-1.31-32.56-7.86-46.65-6-12.92-16.92-24.3-29.28-30a76.31,76.31,0,0,0-32.6-6.83c-3.58,0-7.24.19-11,.56-15.93,1.56-32.31,9.28-46.06,18.74-14.53,10-26.63,24.05-35.65,39a116,116,0,0,0-16,50c-1.29,16,1,33.17,8.52,47,6.84,12.53,17.22,24.36,30.19,30.08a79.88,79.88,0,0,0,33.09,7.09,96.89,96.89,0,0,0,10.74-.62c15.48-1.73,32.24-8.88,45.61-18.91,13.91-10.41,26.34-23.88,34.74-39.09"/><path class="cls-10" d="M606.44,612.29l-67.83-70.56a116.7,116.7,0,0,0,40.78,27.59,163.5,163.5,0,0,0,61.06,11.32A201.34,201.34,0,0,0,668,578.7c32.28-4.43,63.73-16.42,92.13-34.73,27-17.38,51.64-41.74,68.31-69.35,17-28.11,27.46-58,29.91-89.14,2.23-28.29-2.06-57.06-16.4-81.78l67.83,70.57c14.34,24.71,18.63,53.49,16.4,81.78-2.45,31.12-12.93,61-29.91,89.13-16.67,27.61-41.33,52-68.31,69.35-28.4,18.32-59.85,30.3-92.13,34.74a202.91,202.91,0,0,1-27.58,1.93,163.69,163.69,0,0,1-61.06-11.31A116.73,116.73,0,0,1,606.44,612.29Z"/><path class="cls-11" d="M984.68,275.22l67.83,70.57q-3.91,49.65-7.85,99.31l-67.82-70.56Q980.76,324.88,984.68,275.22Z"/><path class="cls-12" d="M1088.15,275.51,1156,346.08a26,26,0,0,0-2-1.84c-7.1-6.08-17-8-26.85-8a94.67,94.67,0,0,0-12.55.9l-62.12,8.64-67.83-70.57,62.12-8.63a94.67,94.67,0,0,1,12.55-.9c9.84,0,19.75,1.91,26.85,8C1086.88,274.26,1087.53,274.87,1088.15,275.51Z"/><path class="cls-13" d="M1035.06,433.2l67.83,70.56L1101,504l-61.7,8.57L971.5,442l61.7-8.57Z"/><path class="cls-14" d="M971.5,442l67.83,70.56q-3.54,44.83-7.09,89.68l-67.83-70.56Q968,486.88,971.5,442Z"/><path class="cls-15" d="M964.41,531.71l67.83,70.56-85.53,11.89L878.88,543.6Z"/><path class="cls-16" d="M1158.25,222.15l67.83,70.56c17.63,18.34,23.71,45.23,21,71.69-2.32,22.36-7.79,45.05-19.94,65.18-11.79,19.55-27.93,34.55-46.73,47.41l-67.83-70.56c18.8-12.87,34.94-27.87,46.73-47.41,12.15-20.13,17.62-42.83,19.94-65.18C1182,267.38,1175.88,240.49,1158.25,222.15Z"/><path class="cls-17" d="M1112.53,406.43,1180.36,477l59.86,96.37-67.83-70.56Q1142.47,454.61,1112.53,406.43Z"/><path class="cls-18" d="M1172.39,502.8l67.83,70.56-96.74,13.45-67.83-70.56Z"/><path class="cls-19" d="M1112.53,406.43q29.92,48.18,59.86,96.37l-96.74,13.45-40.59-83.05-1.86.26L971.5,442l-7.09,89.68L878.88,543.6l25.61-324,147.23-20.46a288.86,288.86,0,0,1,33.25-2.22c23.58,0,46.69,4.18,65.11,18,23.9,18,32.27,48.73,29.12,78.93-2.32,22.35-7.79,45.05-19.94,65.18C1147.47,378.56,1131.33,393.56,1112.53,406.43Zm-32.15-59.07c10.45-10.6,16.06-25.58,17.2-39.4,1-12.35-1.9-26.18-11.38-34.29-7.1-6.07-17-8-26.85-8a94.67,94.67,0,0,0-12.55.9l-62.12,8.63-7.84,99.32,62.11-8.63c14.61-2.13,30.46-7.43,41.43-18.55"/><g class="cls-20"><path class="cls-21" d="M1318.54,162l67.83,70.56q-5.56,70.26-11.11,140.52l-67.83-70.56Q1313,232.23,1318.54,162Z"/><path class="cls-22" d="M1344,354.56l67.83,70.57q-22.35,25.5-44.71,51l-67.83-70.56Z"/><path class="cls-23" d="M1540.55,131.12,1408.47,281.6q57,86.25,114,172.51l-102.37,14.23q-38-56.89-76.06-113.78l-44.71,51L1292.93,486,1207.4,497.9l25.61-324L1318.54,162,1307.43,302.5q67-78.81,134-157.61Q1491,138,1540.55,131.12Z"/><path class="cls-24" d="M1540.55,131.12l67.83,70.56L1476.3,352.16l-67.83-70.56Z"/><path class="cls-25" d="M1299.28,405.58l67.83,70.56q-3.18,40.22-6.35,80.44L1292.93,486Q1296.11,445.79,1299.28,405.58Z"/><path class="cls-26" d="M1292.93,486l67.83,70.57-85.53,11.88L1207.4,497.9Z"/><path class="cls-27" d="M1522.42,454.11l67.83,70.56L1487.88,538.9l-67.83-70.56Z"/><path class="cls-28" d="M1408.47,281.6l67.83,70.56q57,86.26,114,172.51l-67.83-70.56Q1465.44,367.86,1408.47,281.6Z"/></g><path class="cls-29" d="M593.5,123.13q-1-3.6-2.16-7.18l-1.29-3.71q-9.07,24-19.59,38.68c-.75,1.05-1.51,2.05-2.26,3a16.34,16.34,0,0,0,2.26,1.09,17.62,17.62,0,0,0,5.4,1.11,14.49,14.49,0,0,0,5.83-.89,19.24,19.24,0,0,0,5.55-3.23,19.56,19.56,0,0,0,4.68-5.91,26,26,0,0,0,2.73-8.09,30.83,30.83,0,0,0,.22-7.59A42.66,42.66,0,0,0,593.5,123.13Z"/><path class="cls-29" d="M134.07,183a3.06,3.06,0,0,1,.8,2.77,1,1,0,0,0,.28.82,5.76,5.76,0,0,0,3.46.24,13.35,13.35,0,0,0,4.32-1.33,19.07,19.07,0,0,0,5.69-5.27,39.57,39.57,0,0,0,4.46-7.54,36.46,36.46,0,0,0,2.59-8,16.09,16.09,0,0,0,.22-6.51c-.39-1.87-1.58-2.51-3.6-1.94a13.69,13.69,0,0,0-5.26,2.68,43.17,43.17,0,0,0-6,5.67,65.48,65.48,0,0,0-6.05,8,68,68,0,0,0-5.26,9.74,4.15,4.15,0,0,1,1.73-.39A3.28,3.28,0,0,1,134.07,183Z"/><path class="cls-29" d="M472.33,132.82a17.1,17.1,0,0,0-.51,6.12,6.65,6.65,0,0,0,.29,2c.19.6.38,1.17.58,1.72a36.55,36.55,0,0,0,1.94-8.91,11.08,11.08,0,0,0-.65-5.38A21,21,0,0,0,472.33,132.82Z"/><path class="cls-29" d="M237.18,168.46a3,3,0,0,1,.79,2.77,1,1,0,0,0,.29.82,5.73,5.73,0,0,0,3.45.24A13.35,13.35,0,0,0,246,171a19.07,19.07,0,0,0,5.69-5.27,39.06,39.06,0,0,0,4.46-7.54,37,37,0,0,0,2.6-8,16.24,16.24,0,0,0,.21-6.51c-.38-1.87-1.58-2.51-3.6-1.94a13.66,13.66,0,0,0-5.25,2.68,42.66,42.66,0,0,0-6,5.67,66.51,66.51,0,0,0-6.05,8q-1.46,2.22-2.74,4.6-.95,2.52-1.91,4.93a2.9,2.9,0,0,1,1.12-.18A3.3,3.3,0,0,1,237.18,168.46Z"/><path class="cls-29" d="M776.16,130.87A284.92,284.92,0,0,0,768,97.74Q764.57,110,762.19,122t-3.45,22.52a125.19,125.19,0,0,0-.65,19,43.19,43.19,0,0,0,2.59,13.82q2,4.75,4.68,5.89a10.36,10.36,0,0,0,4.82,1,15.54,15.54,0,0,0,1.8-1.48,14.13,14.13,0,0,0,2.67-3.9,41.28,41.28,0,0,0,3-9,64.28,64.28,0,0,0,1.15-15.5A166,166,0,0,0,776.16,130.87Z"/><path class="cls-29" d="M788.69,59.92q5.12-4,10.15-8.63a132.83,132.83,0,0,0,9.58-9.84,116.74,116.74,0,0,0,7.92-10,64.46,64.46,0,0,0,5.47-9.34,19.17,19.17,0,0,0,2.09-7.93,7.83,7.83,0,0,0-.79-3.27q-.79-1.68-4.11-2.66-5.47-1.68-13.54,7.37a108.35,108.35,0,0,0-14.39,21.68A260.27,260.27,0,0,0,778,66.82l.86-.41A70.25,70.25,0,0,0,788.69,59.92Z"/><path class="cls-29" d="M731.81,96.35a16.88,16.88,0,0,0-.5,6.12,6.78,6.78,0,0,0,.28,2c.2.6.39,1.17.58,1.72a36.61,36.61,0,0,0,1.94-8.92,11.22,11.22,0,0,0-.64-5.38A20.9,20.9,0,0,0,731.81,96.35Z"/><path d="M122.84,122.18a22.12,22.12,0,0,0-1.08-7.49,16.61,16.61,0,0,0-5.83-9.11,19.54,19.54,0,0,0-10.58-3.84q-15.84-1.51-29.09,9.13a49.5,49.5,0,0,0-12,13.92,43.57,43.57,0,0,0-5.62,14.61A55.79,55.79,0,0,0,58,154a54.28,54.28,0,0,0,3.39,14.29,82.26,82.26,0,0,0,7.7,15A170.71,170.71,0,0,0,81.44,200a31,31,0,0,1,5.26,9.49,49.08,49.08,0,0,1,2.52,11.88,52.15,52.15,0,0,1-.58,13.33,60.54,60.54,0,0,1-3.74,13.06,52,52,0,0,1-13.39,19A53.77,53.77,0,0,1,48,278.56a39.45,39.45,0,0,1-9.21,1.08,28.72,28.72,0,0,1-7.56-1,29.72,29.72,0,0,1-6.12-2.45,26.35,26.35,0,0,1-4.61-3.09,30.14,30.14,0,0,1-8.21-9.87,38,38,0,0,1-3.89-23.5A30.75,30.75,0,0,1,11.75,230q5.46-9.7,17-13.19a4.6,4.6,0,0,0,2.52-2,4.18,4.18,0,0,0,.65-3,3.38,3.38,0,0,0-1.66-2.36A3.46,3.46,0,0,0,27.3,209a41,41,0,0,0-13,6.8,35.62,35.62,0,0,0-9.29,11A38.14,38.14,0,0,0,.66,239.14a44.75,44.75,0,0,0-.29,13.43,45.67,45.67,0,0,0,4.9,15.23,37,37,0,0,0,9.79,11.8,36.2,36.2,0,0,0,14.83,7.13,42.66,42.66,0,0,0,18.86-.35,63.58,63.58,0,0,0,27.51-13.95A60.81,60.81,0,0,0,92.1,250.05a63.51,63.51,0,0,0,5-30.52,55.09,55.09,0,0,0-3.1-14,37.09,37.09,0,0,0-6.26-11.08,173.09,173.09,0,0,1-11.67-15.85,73.18,73.18,0,0,1-7-13.77,47.3,47.3,0,0,1-2.59-25.27A32.37,32.37,0,0,1,68,134.28a36.51,36.51,0,0,1,2.88-6,44.52,44.52,0,0,1,4.25-6,42,42,0,0,1,5.61-5.54,31.12,31.12,0,0,1,22.9-7.11q8.35.86,10.51,8.32a17.92,17.92,0,0,1,.65,5.45,27.18,27.18,0,0,1-.79,5.87,27.66,27.66,0,0,1-2.16,5.78,23.5,23.5,0,0,1-3.32,5A12.17,12.17,0,0,1,103,144a13.91,13.91,0,0,1-5.11.86,6.64,6.64,0,0,1-1.94-.38,1.53,1.53,0,0,1-.8-.53v-.15a3.15,3.15,0,0,0-.93-2.67A3.84,3.84,0,0,0,91.52,140a4.16,4.16,0,0,0-2.81,1.33,5.39,5.39,0,0,0-1.51,2.88A6.8,6.8,0,0,0,88.43,149a8.9,8.9,0,0,0,4.39,3.13,17.11,17.11,0,0,0,10.37-.16,23.94,23.94,0,0,0,10.94-7.15,33.88,33.88,0,0,0,7.49-14.45A33.2,33.2,0,0,0,122.84,122.18Z"/><path d="M412.49,101.48a3.87,3.87,0,0,0,3.1-.29,4.2,4.2,0,0,0,2.09-2.45L419,95.53a3.79,3.79,0,0,0,.15-3A3.3,3.3,0,0,0,417,90.63a3.81,3.81,0,0,0-3,.28,4.84,4.84,0,0,0-2.16,2.47l-1.29,3.2a3.81,3.81,0,0,0-.15,3A3.29,3.29,0,0,0,412.49,101.48Z"/><path d="M635.69,100.64a3.9,3.9,0,0,0-3,.57,4.93,4.93,0,0,0-2,2.59q0,.15-.93,2.58T627,112.74q-1.8,3.93-4.46,8.83a102.1,102.1,0,0,1-6.27,10,89.14,89.14,0,0,1-8.06,9.84,54.13,54.13,0,0,1-9.79,8.22l.43-.64a34.06,34.06,0,0,0,3.53-10.28,41.61,41.61,0,0,0,.43-9.64,47,47,0,0,0-1.51-8.79q-1.15-4.16-2.45-7.86c-1.06-3.12-1.87-5.86-2.45-8.23a17.07,17.07,0,0,1-.43-6.49V97.3a14.34,14.34,0,0,1,2.45-4.81,4,4,0,0,1,.93-.71,3.27,3.27,0,0,1,1.08-.43,4,4,0,0,0,2.67,1,4.06,4.06,0,0,0,2.81-1.19,4.63,4.63,0,0,0,1.51-2.87,3.18,3.18,0,0,0-.94-2.82,5.72,5.72,0,0,0-5.62-1.95A9.14,9.14,0,0,0,596.16,85a13.33,13.33,0,0,0-3.38,2.85,20,20,0,0,0-4.46,9l-6.05,14.39a4.57,4.57,0,0,0-.36,1.37,184.94,184.94,0,0,1-8.93,20,126.13,126.13,0,0,1-9.21,15.12l-.46.6c-1.32-3.1-1.06-6.7.82-10.81a4.08,4.08,0,0,0,.28-3,2.83,2.83,0,0,0-2-2,4.36,4.36,0,0,0-3.1.15,4.19,4.19,0,0,0-2.23,2.33q-4.47,9.42-1.15,17.44a19.89,19.89,0,0,0,1.48,2.69c-.64.62-1.28,1.19-1.91,1.69a20.64,20.64,0,0,1-6.91,4,7.18,7.18,0,0,1-7.64-2.24,10.13,10.13,0,0,1-2.44-6.14,28.12,28.12,0,0,1,.64-8.08,65.42,65.42,0,0,1,2.67-9q1.73-4.63,3.45-9.2c1.16-3,2.26-5.81,3.32-8.6a54.69,54.69,0,0,0,2.37-8,23.75,23.75,0,0,0,.51-7,9.94,9.94,0,0,0-11.81-9.07q-9.66,1.35-24.48,19l3.88-10.62a3.81,3.81,0,0,0,.15-3A3.29,3.29,0,0,0,517,97a3.7,3.7,0,0,0-3.1.36,4.45,4.45,0,0,0-2.08,2.52q-5.1,12.93-9.29,26.09a72.13,72.13,0,0,1-4.68,8.35,38.69,38.69,0,0,1-6.05,7.26,20.43,20.43,0,0,1-6.12,4,28.81,28.81,0,0,1-6.55,1.72q3.88-9.92,3.6-16.93t-4.61-9.86c-2.11-1.34-4.37-1.21-6.77.37a10,10,0,0,0-3.24,3.27,26.69,26.69,0,0,0-2.37,4.72,24.78,24.78,0,0,0-1.44,5.39,34.28,34.28,0,0,0-.44,5.24q.44,7.86,5,12.26a81.83,81.83,0,0,1-5.4,8.89,53.59,53.59,0,0,1-6.26,7.51,31.39,31.39,0,0,1-6.77,5.19,12.44,12.44,0,0,1-6.62,1.8,6.46,6.46,0,0,1-4.32-1.84,12.71,12.71,0,0,1-2.45-5.42,34.08,34.08,0,0,1,0-12.53,71.72,71.72,0,0,1,2.76-11.22c.74-1.64,1.41-3.14,2-4.49.86-2,1.54-3.62,2-4.89.35-.92.56-1.53.66-1.83,1-1.9,2-3.75,3.08-5.54a37.12,37.12,0,0,1,8.35-9.81q8.64-7,13.54-5.94a5.78,5.78,0,0,1,3.1,2.3,17.45,17.45,0,0,1,1.8,2.63,3.5,3.5,0,0,0,4,.44,5.19,5.19,0,0,0,2.37-2.35,3.61,3.61,0,0,0,.22-3,5,5,0,0,0-.5-1.37A11.53,11.53,0,0,0,479,107.9a14.2,14.2,0,0,0-2.66-2.43,10.57,10.57,0,0,0-4.1-1.73q-8.64-1.81-20.74,7.81a51,51,0,0,0-10.08,11.57,77.56,77.56,0,0,0-8.06,16.32c-.45,1.25-.86,2.48-1.25,3.7q-2.85,6.38-6.6,13.1A124,124,0,0,1,416.6,170a35.79,35.79,0,0,1-9.87,9.45,11.91,11.91,0,0,1-8.49,1.62,6.08,6.08,0,0,1-4-3.75,17.55,17.55,0,0,1-.94-8,75.23,75.23,0,0,1,1.58-10.45,116.14,116.14,0,0,1,3.24-11.62c1.35-4,2.74-7.92,4.18-11.67s2.88-7.22,4.32-10.4,2.64-5.79,3.6-7.85a4.28,4.28,0,0,0,.29-3.07,2.89,2.89,0,0,0-1.87-2,4.36,4.36,0,0,0-3.1.15,4.19,4.19,0,0,0-2.23,2.33,23.51,23.51,0,0,0-1.15,2.25q-1,2.08-2.52,5.61t-3.39,8.11c-.71,1.73-1.42,3.54-2.12,5.4a3.34,3.34,0,0,0-.47.87,165.1,165.1,0,0,1-9.5,20.84,114.29,114.29,0,0,1-9.65,14.9,59.14,59.14,0,0,1-9.07,9.55,26.75,26.75,0,0,1-7.92,4.71,12.1,12.1,0,0,1-2.16.59,9,9,0,0,1-8.07-2q-2.73-2.35-2.52-8.86A73.87,73.87,0,0,1,347.33,161q1.47-5.62,3.6-12c.46-1.14.93-2.26,1.37-3.43a4.38,4.38,0,0,0,.38-1.58c.37-1,.74-2,1.13-3.09Q357.92,130,363,118.67l4.32-.61a16.75,16.75,0,0,0,4.32-.6l2.59-.37a4.63,4.63,0,0,0,2.81-1.55,4.21,4.21,0,0,0,1.22-2.9v-.29a3.44,3.44,0,0,0-4-3.18l-7.34,1q3.16-6.92,6.4-13.5t6.56-12.51a4.68,4.68,0,0,0,.36-3.08,3.12,3.12,0,0,0-1.8-2.19,5.59,5.59,0,0,0-2-.15,4.28,4.28,0,0,0-3.46,2.36,23.14,23.14,0,0,1-1.22,2.4c-.82,1.51-1.87,3.56-3.17,6.14s-2.81,5.62-4.53,9.13-3.56,7.32-5.48,11.42l-.57,1.24-17.43,2.45a4.39,4.39,0,0,0-2.66,1.38,4.48,4.48,0,0,0-1.22,2.76v.43a3.23,3.23,0,0,0,1.15,2.58,3.33,3.33,0,0,0,2.73.77l13.68-1.93-3.88,9.19q-4,10-6.86,18.5A128.5,128.5,0,0,1,335,164.65,103.56,103.56,0,0,1,324,179.87a62,62,0,0,1-10.88,9.95,40.34,40.34,0,0,1-9.64,5.18,22.64,22.64,0,0,1-5.91.9,7.58,7.58,0,0,1-5.76-2.29q-4.89-4.63-5.33-13.07a39.45,39.45,0,0,1,2.06-14.18c1.77-3.69,3.42-7.53,4.91-11.52.45-.81.91-1.62,1.39-2.41a78.16,78.16,0,0,1,6.55-9.27,41.84,41.84,0,0,1,6.62-6.55,17.1,17.1,0,0,1,5.83-3.12,16,16,0,0,1,4.47-.56,2.24,2.24,0,0,1,2.45,2,5.8,5.8,0,0,1-.72,3.7,5.92,5.92,0,0,1-1.73,2.26,3.41,3.41,0,0,0-2.81-.76,4.45,4.45,0,0,0-2.81,1.55,4.35,4.35,0,0,0-1.15,3,3.3,3.3,0,0,0,1.15,2.64,6.7,6.7,0,0,0,4.76,1.64,8.74,8.74,0,0,0,5.18-2,15.27,15.27,0,0,0,2.95-3.08,15.85,15.85,0,0,0,2.16-4,18.54,18.54,0,0,0,1-4.54,10.34,10.34,0,0,0-.51-4.39,8,8,0,0,0-1.15-2.21,7.62,7.62,0,0,0-2.59-2.23,13,13,0,0,0-4.46-1.39,18.59,18.59,0,0,0-6.92.61,22.21,22.21,0,0,0-8.63,4.24,56.49,56.49,0,0,0-8.93,8.6,83.79,83.79,0,0,0-7.64,10.93c-.3.52-.57,1-.86,1.56a5.94,5.94,0,0,0-.57,1v0a73.18,73.18,0,0,0-4.32,9.66c-.21.58-.41,1.16-.61,1.73q-2.44,5.07-5.07,9.44a106.65,106.65,0,0,1-10.87,15.21,61.06,61.06,0,0,1-10.8,9.94,40.13,40.13,0,0,1-9.65,5.17,22.91,22.91,0,0,1-6,.91,7.55,7.55,0,0,1-5.69-2.29q-5-4.77-5.47-13.06a39.56,39.56,0,0,1,1.54-12.15l.75-1.69a7.31,7.31,0,0,0,3.18,4.14,8.92,8.92,0,0,0,3.82,1.27,17.84,17.84,0,0,0,4.25-.09,25.8,25.8,0,0,0,4.17-.95,14.42,14.42,0,0,0,3.46-1.57,27.23,27.23,0,0,0,7.85-6.86,50.7,50.7,0,0,0,6.41-10.4,44.73,44.73,0,0,0,3.31-10.84,21.81,21.81,0,0,0-.15-9.05,9.44,9.44,0,0,0-4.24-6q-3.11-1.78-7.71-.71a22.56,22.56,0,0,0-8.57,4.23,56.37,56.37,0,0,0-9,8.6,79.63,79.63,0,0,0-7.56,10.93,76.88,76.88,0,0,0-5.68,12.25c-.57,1.49-1.06,3-1.5,4.41-.74,1.63-1.49,3.22-2.25,4.75A134.8,134.8,0,0,1,211.69,194a61.82,61.82,0,0,1-8.43,10.47,23.47,23.47,0,0,1-8.06,5.46,8.36,8.36,0,0,1-9.07-1.75c-1.73-1.49-2.57-4.15-2.52-8a63.21,63.21,0,0,1,2.09-14q2-8.21,5.54-18.21t8-20.49q4.47-10.48,9.51-21t9.93-19.68a4.23,4.23,0,0,0,.51-3.1,3,3,0,0,0-2-2.17,4.26,4.26,0,0,0-3,.06,4,4,0,0,0-2.31,2.12c0,.1-.71,1.5-2.15,4.2s-3.25,6.26-5.41,10.69-4.58,9.53-7.27,15.28-5.28,11.68-7.77,17.8q-2.87,7.14-5.12,13.48a6.08,6.08,0,0,0-.79,1.31,135.27,135.27,0,0,1-10,20.85,105.87,105.87,0,0,1-10.88,15.21,61.06,61.06,0,0,1-10.8,9.94,39.9,39.9,0,0,1-9.64,5.17,22.91,22.91,0,0,1-6,.91,7.54,7.54,0,0,1-5.69-2.29q-5-4.77-5.47-13.06A41.32,41.32,0,0,1,127.09,189a7.31,7.31,0,0,0,3.31,4.57,8.88,8.88,0,0,0,3.82,1.27,17.84,17.84,0,0,0,4.25-.09,25.8,25.8,0,0,0,4.17-.95,14.6,14.6,0,0,0,3.46-1.57,27.23,27.23,0,0,0,7.85-6.86,50.67,50.67,0,0,0,6.4-10.4,44.33,44.33,0,0,0,3.32-10.84,21.81,21.81,0,0,0-.15-9,9.36,9.36,0,0,0-4.25-6q-3.09-1.8-7.7-.72a22.56,22.56,0,0,0-8.57,4.23,56,56,0,0,0-9,8.61,78.92,78.92,0,0,0-7.56,10.92,77.82,77.82,0,0,0-5.69,12.25,50.88,50.88,0,0,0-3.74,20.4q.72,11.13,7.49,17.66a14.49,14.49,0,0,0,8.21,4,22.61,22.61,0,0,0,10.65-1.21,45.91,45.91,0,0,0,12.6-6.67,76.66,76.66,0,0,0,12.46-11.54,105.12,105.12,0,0,0,7.65-9.91q-1,12.6,4.59,17.4,6.9,5.94,16.13,2.92,10.07-3.57,19.72-17.46c1.36-1.9,2.71-4,4-6.12a24.57,24.57,0,0,0,7,14.06,14.43,14.43,0,0,0,8.21,4,22.61,22.61,0,0,0,10.65-1.21,45.91,45.91,0,0,0,12.6-6.67,76.22,76.22,0,0,0,12.46-11.54,103.56,103.56,0,0,0,7.16-9.2,24.53,24.53,0,0,0,7.38,16.37,14.45,14.45,0,0,0,8.14,4,22.63,22.63,0,0,0,10.73-1.22,46.19,46.19,0,0,0,12.6-6.67A75.73,75.73,0,0,0,330,184.36a109.22,109.22,0,0,0,7-9.15q-.78,12.06,4.64,16.73,5.46,5,13.39,3.59a21.38,21.38,0,0,0,4-1q10.94-3.71,21.74-17.75c1.6-2.06,3.15-4.26,4.67-6.59a27,27,0,0,0,1.38,10.93,11.75,11.75,0,0,0,8.5,7.73q7.2,1.88,14.54-2.62,9.45-5.44,18.8-20.54a33.3,33.3,0,0,0,.64,5,17.34,17.34,0,0,0,4.68,9.07,12.43,12.43,0,0,0,8.43,3.35,22.07,22.07,0,0,0,10.65-2.65,39.1,39.1,0,0,0,10.8-8.58,78.26,78.26,0,0,0,11.81-16.78,29.87,29.87,0,0,0,13.54-3.19,32,32,0,0,0,7.24-5q-3.24,12.31-5.8,24.9a3.24,3.24,0,0,0,3,4.19,4.45,4.45,0,0,0,3-1,4.26,4.26,0,0,0,1.66-2.68q3.89-18.84,9.5-37.77,3-4.6,7.2-10.23t8.64-10.57a80.67,80.67,0,0,1,8.72-8.43c2.83-2.32,5.3-3.62,7.41-3.92a3.23,3.23,0,0,1,3,1.3,4.62,4.62,0,0,1,.86,3.41,26.79,26.79,0,0,1-.94,5.17,64.56,64.56,0,0,1-2.08,6.27c-.87,2.23-1.73,4.42-2.6,6.56q-2.16,5.19-4,10.43A70.67,70.67,0,0,0,531.15,145q-2.6,12.6,3.6,19.37,6,6.78,14.83,4.25,6.45-1.89,12.94-8.27a22.4,22.4,0,0,0,4.2,2.26,32.14,32.14,0,0,0,4,1.16,19,19,0,0,0,4.17.42l1,.15q15-.09,28.23-9.59a83.38,83.38,0,0,0,19.29-20.42q3.6-5.4,6.34-10.54t4.53-9.13c1.2-2.66,2.12-4.86,2.74-6.58a22.13,22.13,0,0,1,1.08-2.74,3.64,3.64,0,0,0-.14-3A3.31,3.31,0,0,0,635.69,100.64Zm-400.39,62q1.29-2.38,2.74-4.6a66.51,66.51,0,0,1,6.05-8,42.66,42.66,0,0,1,6-5.67,13.66,13.66,0,0,1,5.25-2.68c2-.57,3.22.07,3.6,1.94a16.24,16.24,0,0,1-.21,6.51,37,37,0,0,1-2.6,8,39.06,39.06,0,0,1-4.46,7.54A19.07,19.07,0,0,1,246,171a13.35,13.35,0,0,1-4.32,1.33,5.73,5.73,0,0,1-3.45-.24,1,1,0,0,1-.29-.82,3,3,0,0,0-.79-2.77,3.3,3.3,0,0,0-2.67-1.07,2.9,2.9,0,0,0-1.12.18Q234.35,165.16,235.3,162.64Zm-100.36,9.89a65.48,65.48,0,0,1,6.05-8,43.17,43.17,0,0,1,6-5.67,13.69,13.69,0,0,1,5.26-2.68c2-.57,3.21.07,3.6,1.94a16.09,16.09,0,0,1-.22,6.51,36.46,36.46,0,0,1-2.59,8,39.57,39.57,0,0,1-4.46,7.54,19.07,19.07,0,0,1-5.69,5.27,13.35,13.35,0,0,1-4.32,1.33,5.76,5.76,0,0,1-3.46-.24,1,1,0,0,1-.28-.82,3.06,3.06,0,0,0-.8-2.77,3.28,3.28,0,0,0-2.66-1.07,4.15,4.15,0,0,0-1.73.39A68,68,0,0,1,134.94,172.53Zm339.69-38.74a36.55,36.55,0,0,1-1.94,8.91c-.2-.55-.39-1.12-.58-1.72a6.65,6.65,0,0,1-.29-2,17.1,17.1,0,0,1,.51-6.12,21,21,0,0,1,1.65-4.41A11.08,11.08,0,0,1,474.63,133.79Zm120,4.23a26,26,0,0,1-2.73,8.09,19.56,19.56,0,0,1-4.68,5.91,19.24,19.24,0,0,1-5.55,3.23,14.49,14.49,0,0,1-5.83.89,17.62,17.62,0,0,1-5.4-1.11,16.34,16.34,0,0,1-2.26-1.09c.75-1,1.51-2,2.26-3q10.51-14.65,19.59-38.68l1.29,3.71q1.15,3.58,2.16,7.18a42.66,42.66,0,0,1,1.37,7.3A30.83,30.83,0,0,1,594.65,138Z"/><path d="M828.79,76a4.31,4.31,0,0,0-3,.07,4,4,0,0,0-2.31,2.12,64.84,64.84,0,0,1-10.87,15.14q-6.26,6.42-13,8.09a21.3,21.3,0,0,1-10.3.37,19.48,19.48,0,0,1-8.85-4.3A24.63,24.63,0,0,1,776,92.3a26.81,26.81,0,0,1-2.52-5l-1.3-3.85q.57-1.66,1.08-3.39a31.58,31.58,0,0,1,1.22-3.41,43.87,43.87,0,0,0,7.35-3.34,110.27,110.27,0,0,0,16.34-11.58,147.88,147.88,0,0,0,16.2-15.89q2.45-2.79,5.47-6.74a87.83,87.83,0,0,0,5.62-8.28,62,62,0,0,0,4.46-9A23.63,23.63,0,0,0,831.82,13q0-9.79-9.8-12.59Q816.56-1,810.5,2.06A40.72,40.72,0,0,0,800,10.74a98.26,98.26,0,0,0-10.8,15.05,220.13,220.13,0,0,0-10.94,21q-4.9,10.77-9.36,23.35c-1.63.13-2.79-.14-3.46-.82a3.4,3.4,0,0,0-2.81-.75,4.66,4.66,0,0,0-4,4.51,3.31,3.31,0,0,0,1.15,2.65,9.23,9.23,0,0,0,2.59,1.58,14.42,14.42,0,0,0,3.6.86q-1.44,4.38-2.81,8.75c-.05.16-.09.32-.14.48a78.35,78.35,0,0,1-5.69,10.49,38.69,38.69,0,0,1-6,7.26,20.18,20.18,0,0,1-6.12,4,28.68,28.68,0,0,1-6.55,1.72q3.89-9.92,3.6-16.92T737.64,84c-2.11-1.33-4.37-1.21-6.77.38a10.09,10.09,0,0,0-3.24,3.26,26.45,26.45,0,0,0-2.37,4.73,25.71,25.71,0,0,0-1.44,5.38,34.33,34.33,0,0,0-.43,5.25q.42,7.86,5,12.25a85.12,85.12,0,0,1-5.4,8.89,54.34,54.34,0,0,1-6.27,7.51,31.77,31.77,0,0,1-6.77,5.2,12.51,12.51,0,0,1-6.62,1.79,6.5,6.5,0,0,1-4.32-1.84,12.71,12.71,0,0,1-2.45-5.42,34,34,0,0,1,0-12.52,74,74,0,0,1,3.89-14.45,79.33,79.33,0,0,1,6.62-13.53,37.14,37.14,0,0,1,8.36-9.81q8.64-7,13.53-5.94a5.76,5.76,0,0,1,3.1,2.31,16.29,16.29,0,0,1,1.8,2.62,3.5,3.5,0,0,0,4,.44,5.21,5.21,0,0,0,2.38-2.35,3.64,3.64,0,0,0,.21-3,5,5,0,0,0-.5-1.37,11.44,11.44,0,0,0-1.51-2.31A15.36,15.36,0,0,0,735.84,69a10.72,10.72,0,0,0-4.1-1.73q-8.64-1.8-20.74,7.81a51,51,0,0,0-10.08,11.57A78.37,78.37,0,0,0,692.86,103a81.91,81.91,0,0,0-4.25,16.94,42.45,42.45,0,0,0,.22,14.3,17.13,17.13,0,0,0,4.68,9.06,12.34,12.34,0,0,0,8.42,3.35A22.08,22.08,0,0,0,712.59,144a39.34,39.34,0,0,0,10.8-8.57,78.83,78.83,0,0,0,11.8-16.78,30,30,0,0,0,13.54-3.2,32.34,32.34,0,0,0,8.34-6q-1.46,6-2.65,11.89-2.52,12.38-3.68,23.34-2.44,24.39,2.6,36.49a20.91,20.91,0,0,0,3.67,6.11,15.5,15.5,0,0,0,4.39,3.49,13.11,13.11,0,0,0,4.68,1.43,18.28,18.28,0,0,0,4.39,0,2.07,2.07,0,0,0,.87-.27,8.74,8.74,0,0,0,1.15-.45,11.69,11.69,0,0,0,2.37-1.48A23.6,23.6,0,0,0,781,182.6q6.57-11.29,5.71-31.91a163.69,163.69,0,0,0-2.34-20.26q-1.92-11-5.29-23.74a25.6,25.6,0,0,0,3.38,1.62,27.6,27.6,0,0,0,3.68,1.14,30.78,30.78,0,0,0,14.49-.31,39.67,39.67,0,0,0,15.2-8.33,46,46,0,0,0,7.68-8.71,102,102,0,0,0,6.69-10.88,4,4,0,0,0,.44-3.08A3.3,3.3,0,0,0,828.79,76ZM791.07,37.26a108.35,108.35,0,0,1,14.39-21.68q8.07-9,13.54-7.37,3.32,1,4.11,2.66a7.83,7.83,0,0,1,.79,3.27,19.17,19.17,0,0,1-2.09,7.93,64.46,64.46,0,0,1-5.47,9.34,116.74,116.74,0,0,1-7.92,10,132.83,132.83,0,0,1-9.58,9.84q-5,4.66-10.15,8.63a70.25,70.25,0,0,1-9.87,6.49l-.86.41A260.27,260.27,0,0,1,791.07,37.26Zm-57,60.06a36.61,36.61,0,0,1-1.94,8.92c-.19-.55-.38-1.12-.58-1.72a6.78,6.78,0,0,1-.28-2,16.88,16.88,0,0,1,.5-6.12,20.9,20.9,0,0,1,1.66-4.41A11.22,11.22,0,0,1,734.11,97.32Zm43.49,72.59a41.28,41.28,0,0,1-3,9,14.13,14.13,0,0,1-2.67,3.9,15.54,15.54,0,0,1-1.8,1.48,10.36,10.36,0,0,1-4.82-1q-2.67-1.14-4.68-5.89a43.19,43.19,0,0,1-2.59-13.82,125.19,125.19,0,0,1,.65-19Q759.82,134,762.19,122T768,97.74a284.92,284.92,0,0,1,8.14,33.13,166,166,0,0,1,2.59,23.54A64.28,64.28,0,0,1,777.6,169.91Z"/><path class="cls-29" d="M1044.34,838.53c15.06,18.1,33.7,33.5,54.77,44Q1096.8,865.24,1094,848A301.55,301.55,0,0,1,1044.34,838.53Z"/><path class="cls-29" d="M1612,554q.32,9.25-.27,18.52,14.18,2.12,28,5.55Z"/><path class="cls-29" d="M1033.63,835.66a2.66,2.66,0,0,1-.25-.41l-.34-.11-7.39-58.33a201.49,201.49,0,0,1-74.37,57.32,140.68,140.68,0,0,0,69.89,12.57,3.34,3.34,0,0,1,3,5.29,119.45,119.45,0,0,1-44.52,39c37.47,10.17,78.18,9.43,114.89-3.35C1070.66,875.32,1049.77,857.05,1033.63,835.66Z"/><path class="cls-29" d="M1615.35,548.12l39.1,34c1,.3,2,.6,3,.92l2,.63,11.66,92A188.27,188.27,0,0,1,1752,619.53a84.81,84.81,0,0,0-64.12-9.51c-3.47.86-4.6-4-2.43-5.89a192.31,192.31,0,0,1,63.11-37.28C1707.51,546.87,1660.29,539.32,1615.35,548.12Z"/><path class="cls-30" d="M1417.9,704.49a4.87,4.87,0,0,0-3.89.09c-2.29.81-3.43,1.21-5.73,2l1.2,9.53,5.74-2a7,7,0,0,0,3.57-2.55,5.69,5.69,0,0,0,.86-4A3.6,3.6,0,0,0,1417.9,704.49Z"/><path class="cls-30" d="M1337.43,683a3.6,3.6,0,0,0,.65-2.65,2,2,0,0,0-1.22-1.83,3.59,3.59,0,0,0-2.66.27l-6,2.33.76,6,6-2.33A5.28,5.28,0,0,0,1337.43,683Z"/><path class="cls-30" d="M1427.74,645.55a7.08,7.08,0,0,0-4.28.17,9.85,9.85,0,0,0-4,2.6,11.65,11.65,0,0,0-2.62,4.34,11.07,11.07,0,0,0-.54,5A8.2,8.2,0,0,0,1418,662a6.77,6.77,0,0,0,3.46,2.28,7.17,7.17,0,0,0,4.31-.17,9.54,9.54,0,0,0,4-2.59,11.62,11.62,0,0,0,3-9.32,8.73,8.73,0,0,0-1.67-4.28A6.41,6.41,0,0,0,1427.74,645.55Z"/><path class="cls-30" d="M1339.07,690.31a5.21,5.21,0,0,0-3.37.45l-6,2.32c.33,2.61.49,3.92.82,6.52l6-2.32a7.39,7.39,0,0,0,3.15-2.16,3.79,3.79,0,0,0,.89-3A2,2,0,0,0,1339.07,690.31Z"/><path class="cls-30" d="M1226.91,772.65a7.34,7.34,0,0,0-4.31-.09,9.18,9.18,0,0,0-4.06,2.27,10.63,10.63,0,0,0-3.22,9,8.85,8.85,0,0,0,1.75,4.4,7.73,7.73,0,0,0,3.5,2.56,7.2,7.2,0,0,0,4.34.14,8.66,8.66,0,0,0,4-2.32,10.56,10.56,0,0,0,2.56-4.13,10.88,10.88,0,0,0,.5-5,8.94,8.94,0,0,0-1.67-4.33A6.93,6.93,0,0,0,1226.91,772.65Z"/><path class="cls-30" d="M1300.33,748.89a4.9,4.9,0,0,0-3.87.14l-5,1.82,1.2,9.53,5-1.81a7,7,0,0,0,3.57-2.61,5.83,5.83,0,0,0,.86-4.08A3.56,3.56,0,0,0,1300.33,748.89Z"/><path class="cls-30" d="M1248.15,727.83a7.15,7.15,0,0,0,4.31-.1,9.38,9.38,0,0,0,4-2.55,11.57,11.57,0,0,0,3-9.33,8.73,8.73,0,0,0-1.66-4.28,6.48,6.48,0,0,0-3.38-2.33,7.33,7.33,0,0,0-4.29.13,9.76,9.76,0,0,0-4,2.52,11.18,11.18,0,0,0-2.64,4.26,10.72,10.72,0,0,0-.55,5,8.47,8.47,0,0,0,1.74,4.32A7,7,0,0,0,1248.15,727.83Z"/><path class="cls-30" d="M1222.66,726.21a5.3,5.3,0,0,0,.87-4,3.89,3.89,0,0,0-1.77-3.12,5.11,5.11,0,0,0-3.92-.21c-2.32.61-3.48.91-5.8,1.5l1.2,9.53c2.33-.59,3.49-.89,5.8-1.5A6.3,6.3,0,0,0,1222.66,726.21Z"/><path class="cls-30" d="M1495.46,627.4a7.88,7.88,0,0,0-4.44-.24c-2,.43-3,.65-5,1.1l2.25,17.91c2.18-.49,3.26-.72,5.44-1.18a8.62,8.62,0,0,0,4-2,8.46,8.46,0,0,0,2.41-3.7,10.82,10.82,0,0,0,.43-4.85,9.53,9.53,0,0,0-1.67-4.49A7.23,7.23,0,0,0,1495.46,627.4Z"/><path class="cls-30" d="M1513.42,677.2c-2.34.41-3.51.62-5.85,1.06l1.2,9.53c2.34-.44,3.51-.65,5.85-1.06a5.72,5.72,0,0,0,3.66-1.89,4.86,4.86,0,0,0,.9-3.81,4.35,4.35,0,0,0-1.79-3.26A5.34,5.34,0,0,0,1513.42,677.2Z"/><path class="cls-30" d="M1653.45,588.66c-49.26-15.11-101.53-17-159.7-5.95-52.8,10.08-105.57,29.75-156.61,48.78-51.3,19.12-104.34,38.89-157.68,49.07-58.14,11.1-110.55,9.38-160-5.26l19.62,154.81c49.26,15.11,101.53,17.06,159.7,5.95,52.8-10.08,105.58-29.76,156.61-48.78,51.3-19.12,104.34-38.89,157.68-49.07,58.14-11.1,110.56-9.38,160,5.26Zm-554,197.27c-3.82-.3-5.73-.48-9.57-.9q1.53,12.19,3.07,24.38c-3.34-.37-5-.58-8.37-1q-1.55-12.2-3.08-24.38c-3.81-.54-5.72-.83-9.55-1.5l-.85-6.69c9.2,1.44,18.24,2.57,27.51,3.43C1098.93,781.91,1099.1,783.25,1099.43,785.93Zm35.74,25.15c-3.29.09-4.93.12-8.23.12l-1.5-11.92c-5.1,0-7.65,0-12.78-.22.61,4.77.91,7.15,1.51,11.92-3.32-.13-5-.21-8.3-.43q-2-15.54-3.92-31.08c3.33.22,5,.31,8.3.43l1.6,12.68c5.12.2,7.68.24,12.77.23-.63-5.07-.95-7.61-1.59-12.68,3.29,0,4.94,0,8.22-.13Q1133.21,795.54,1135.17,811.08Zm31.19-2.34c-8.31,1-16.73,1.74-25.09,2.1q-2-15.52-3.92-31.07c8.21-.36,16.49-1.06,24.65-2.06.32,2.59.49,3.89.81,6.48-6.56.77-9.86,1.09-16.46,1.56l.73,5.81c6-.42,8.94-.7,14.87-1.38.32,2.57.48,3.86.81,6.43-5.93.69-8.91,1-14.87,1.42l.74,5.86c6.79-.49,10.17-.82,16.91-1.62C1165.87,804.86,1166,806.15,1166.36,808.74Zm276.56-175.88c2.79-.85,4.19-1.27,7-2.08,6.49,5.86,9.74,8.82,16.24,14.82l-2.4-18.7c3-.79,4.44-1.17,7.41-1.92q2,15.54,3.92,31.08c-2.8.7-4.19,1.07-7,1.81-6.48-6-9.71-8.9-16.17-14.72.93,7.44,1.4,11.15,2.34,18.58-3,.87-4.46,1.31-7.43,2.21Q1444.88,648.4,1442.92,632.86ZM1384,653.07l8.83,10.71c2.12-6.37,3.17-9.55,5.29-15.89,3.15-1.14,4.73-1.71,7.89-2.82q-4.14,12.52-8.24,25.06l1.25,9.93c-3.15,1.15-4.72,1.73-7.87,2.9-.49-3.89-.74-5.83-1.23-9.71-5.51-6.91-8.27-10.35-13.78-17.22ZM1350.27,666q11.85-4.61,23.75-9.13c.33,2.59.49,3.89.82,6.48-6.36,2.41-9.54,3.63-15.9,6.08l.73,5.81c5.74-2.21,8.61-3.31,14.35-5.49.33,2.57.49,3.85.81,6.43-5.74,2.19-8.6,3.3-14.34,5.53l.74,5.86c6.53-2.52,9.79-3.77,16.32-6.25.33,2.59.49,3.89.82,6.48q-12.12,4.57-24.18,9.28Q1352.23,681.49,1350.27,666Zm-147,50c5.51-1.3,8.26-2,13.75-3.44,4-1.07,7.29-1,9.75.3s3.9,3.64,4.34,7.1a13.76,13.76,0,0,1-.63,6.45,12.37,12.37,0,0,1-3.55,5.11l7.63,8.35c-3.6,1-5.4,1.55-9,2.53L1220,734.9l-.17.05c-2.3.6-3.46.9-5.76,1.48.43,3.44.65,5.16,1.08,8.61-3.19.8-4.79,1.19-8,2Q1205.19,731.45,1203.23,715.91Zm-26.65,5.48c7.71-1.32,15.41-2.88,23-4.64.31,2.59.46,3.89.77,6.48-5.95,1.36-8.94,2-14.91,3.15.34,2.77.52,4.15.87,6.92,5.52-1.07,8.27-1.65,13.77-2.89.33,2.59.49,3.88.82,6.47-5.5,1.24-8.26,1.82-13.78,2.89l1.42,11.22c-3.22.62-4.83.92-8.06,1.48Q1178.55,736.93,1176.58,721.39Zm25.49,80.4a17.13,17.13,0,0,1-6.63,3,15.53,15.53,0,0,1-8.54-.61,14.56,14.56,0,0,1-6.55-4.84,15.85,15.85,0,0,1-3.16-7.91,16.14,16.14,0,0,1,1.13-8.5,16.94,16.94,0,0,1,5.21-6.71,19.06,19.06,0,0,1,8.17-3.64,17.5,17.5,0,0,1,7,.07,15.49,15.49,0,0,1,6.14,2.7c-1.57,2.69-2.35,4-3.93,6.69a10.56,10.56,0,0,0-3.93-2.3,8.46,8.46,0,0,0-4.23-.31,8.69,8.69,0,0,0-4.1,2,9.13,9.13,0,0,0-2.61,3.78,10,10,0,0,0-.52,4.79,9.23,9.23,0,0,0,1.68,4.39,7.79,7.79,0,0,0,3.42,2.69,7.7,7.7,0,0,0,4.4.37,9.79,9.79,0,0,0,3.83-1.76,14.19,14.19,0,0,0,3.35-3.43c2.13,1.64,3.2,2.45,5.33,4.07A21,21,0,0,1,1202.07,801.79Zm37-15.8a19.67,19.67,0,0,1-5.18,7.47,19.11,19.11,0,0,1-8.17,4.39,16.09,16.09,0,0,1-8.71,0,13.34,13.34,0,0,1-6.68-4.4,15,15,0,0,1-3.21-7.78,16.77,16.77,0,0,1,1.14-8.65,18.63,18.63,0,0,1,5.23-7.13,20.25,20.25,0,0,1,8.18-4.2,17.07,17.07,0,0,1,8.7-.18,12.81,12.81,0,0,1,6.63,4.05,13.92,13.92,0,0,1,3.18,7.54A17.9,17.9,0,0,1,1239,786Zm-4.27-62.46a17.5,17.5,0,0,1,1.12-8.79,20.37,20.37,0,0,1,5.18-7.5,21.27,21.27,0,0,1,8.12-4.71,16.74,16.74,0,0,1,8.63-.64,11.85,11.85,0,0,1,6.6,3.75,13.38,13.38,0,0,1,3.17,7.43,18.56,18.56,0,0,1-1.1,9,21.45,21.45,0,0,1-5.14,7.78,20.55,20.55,0,0,1-8.11,4.85,16,16,0,0,1-8.65.51,12.24,12.24,0,0,1-6.63-4A14.19,14.19,0,0,1,1234.77,723.53Zm46,56.8c-2.79,1-4.19,1.45-7,2.39-1-7.87-1.51-11.8-2.52-19.67-2.26,7.68-3.39,11.51-5.65,19.16l-5.11,1.66c-4-5.64-5.93-8.46-9.88-14.13,1,7.87,1.49,11.81,2.48,19.69-2.83.87-4.24,1.3-7.07,2.14q-2-15.54-3.92-31.08c3.46-1,5.18-1.56,8.63-2.63,4.44,6.17,6.65,9.25,11.08,15.38,2.58-8.4,3.87-12.62,6.44-21.06,3.44-1.16,5.16-1.75,8.6-2.94Q1278.85,764.78,1280.81,780.33Zm26.62-21.77a16.84,16.84,0,0,1-8.57,6.34l-5.38,2c.43,3.44.65,5.16,1.08,8.6-3.15,1.14-4.73,1.7-7.88,2.81q-2-15.54-3.92-31.08c5.31-1.88,8-2.83,13.27-4.77q5.76-2.11,9.31-.45c2.36,1.12,3.76,3.4,4.2,6.86A13.9,13.9,0,0,1,1307.43,758.56Zm.63-43.78c-2.78,1.05-4.18,1.58-7,2.61-1-7.87-1.51-11.8-2.52-19.67-2.24,7.78-3.37,11.67-5.61,19.43l-5.08,1.85L1278,705.19c1,7.87,1.49,11.81,2.48,19.68-2.81,1-4.21,1.49-7,2.46q-1.95-15.54-3.92-31.08c3.44-1.19,5.16-1.79,8.59-3,4.41,6,6.62,9,11,15,2.57-8.53,3.85-12.81,6.41-21.37l8.55-3.2Q1306.11,699.24,1308.06,714.78Zm33.08,29.68a16.67,16.67,0,0,1-4.9,14.22,20.19,20.19,0,0,1-7,4.41,15.12,15.12,0,0,1-7.45,1.12,8.35,8.35,0,0,1-5.4-2.85,11.81,11.81,0,0,1-2.59-6.43l-2.3-18.27,7.86-3,2.3,18.27A5.15,5.15,0,0,0,1324,756a5,5,0,0,0,4.48.14,7.41,7.41,0,0,0,3.88-3.33,8.31,8.31,0,0,0,1-5.32l-2.3-18.27,7.86-3Zm-17.7-35.53q-1.95-15.54-3.91-31.09c5.72-2.19,8.58-3.3,14.3-5.52a17.38,17.38,0,0,1,6-1.33,6.59,6.59,0,0,1,4.23,1.22,5.2,5.2,0,0,1,1.9,3.63,8.31,8.31,0,0,1-.86,4.8,10.39,10.39,0,0,1-3.49,4,5.88,5.88,0,0,1,4.87.94,6.42,6.42,0,0,1,2.3,4.51,9.26,9.26,0,0,1-.84,5.14,13.09,13.09,0,0,1-3.65,4.58,21.61,21.61,0,0,1-6,3.42Zm44.79,12.9-9,3.48q1.55,12.2,3.08,24.39l-7.86,3q-1.53-12.19-3.07-24.39l-8.93,3.46-.85-6.69q12.9-5,25.81-10C1367.73,717.81,1367.89,719.15,1368.23,721.83Zm30.45,14q-12.12,4.49-24.2,9.14-1.95-15.54-3.91-31.09,11.85-4.56,23.77-9c.32,2.59.49,3.89.81,6.48-6.36,2.36-9.55,3.55-15.91,6l.74,5.81c5.74-2.18,8.61-3.26,14.36-5.4.32,2.57.48,3.86.81,6.43-5.75,2.15-8.62,3.24-14.36,5.45l.74,5.85c6.53-2.49,9.8-3.72,16.34-6.14C1398.2,732,1398.36,733.27,1398.68,735.86Zm23-8.26-5.49-7.06-.17.06-5.69,2c.43,3.45.65,5.17,1.08,8.61l-7.88,2.85q-1.95-15.54-3.91-31.08c5.42-2,8.13-3,13.57-4.88q6-2.11,9.65-.38c2.45,1.15,3.89,3.47,4.32,6.92a14.16,14.16,0,0,1-.62,6.53,13.51,13.51,0,0,1-3.51,5.34c3,3.19,4.55,4.79,7.58,8C1427,725.74,1425.22,726.35,1421.65,727.6Zm4.91-56.58a16.46,16.46,0,0,1-8.62.73,11.59,11.59,0,0,1-6.6-3.77,13.68,13.68,0,0,1-3.18-7.51,18.24,18.24,0,0,1,1.11-8.92,21.35,21.35,0,0,1,5.15-7.76,21,21,0,0,1,8.09-4.91,16.14,16.14,0,0,1,8.63-.67,12,12,0,0,1,6.61,3.85,13.66,13.66,0,0,1,3.17,7.49,18.06,18.06,0,0,1-1.1,8.92,21.09,21.09,0,0,1-5.16,7.68A21.36,21.36,0,0,1,1426.56,671Zm39.67,38.35a12.62,12.62,0,0,1-4,4.56,20.25,20.25,0,0,1-6.09,2.94,22.55,22.55,0,0,1-7.69,1,17.33,17.33,0,0,1-6.94-1.65c.9-2.93,1.36-4.39,2.27-7.32a16,16,0,0,0,5.87,1.71,14.68,14.68,0,0,0,5.74-.36,6.25,6.25,0,0,0,2.71-1.5,2.61,2.61,0,0,0,.78-2.25,2,2,0,0,0-1-1.55,4.57,4.57,0,0,0-2.05-.57c-.8-.05-1.92-.05-3.36,0a38.64,38.64,0,0,1-5.38-.21,7.5,7.5,0,0,1-3.84-1.66,6.51,6.51,0,0,1-2.06-4.43,9.92,9.92,0,0,1,.85-5.53,12.64,12.64,0,0,1,3.83-4.68,18.72,18.72,0,0,1,6.25-3.13,22.21,22.21,0,0,1,6.63-1,18.42,18.42,0,0,1,6,.94l-2.18,7.32a23,23,0,0,0-5.5-.9,14.49,14.49,0,0,0-4.74.45,5,5,0,0,0-2.25,1.25,2.24,2.24,0,0,0-.64,1.88,1.87,1.87,0,0,0,.95,1.48,4.74,4.74,0,0,0,2,.56c.76.06,1.89.11,3.35.12a39.06,39.06,0,0,1,5.47.34,7.49,7.49,0,0,1,3.9,1.85,7.07,7.07,0,0,1,2.12,4.62A9.86,9.86,0,0,1,1466.23,709.37Zm26.91-3.87a18.91,18.91,0,0,1-6.6,3.18,16,16,0,0,1-8.47-.07,12.91,12.91,0,0,1-6.49-4.28,14.76,14.76,0,0,1-3.13-7.68,17.38,17.38,0,0,1,1.11-8.74,19,19,0,0,1,13.24-11.45,15.94,15.94,0,0,1,6.91-.14,14.75,14.75,0,0,1,6.15,2.67c-1.57,2.67-2.36,4-3.93,6.7a10,10,0,0,0-3.93-2.23,8.08,8.08,0,0,0-4.21-.16,8.81,8.81,0,0,0-4.06,2.21,10.08,10.08,0,0,0-2.59,4,10.53,10.53,0,0,0-.51,4.87,8.82,8.82,0,0,0,1.67,4.31,7,7,0,0,0,3.4,2.47,7.66,7.66,0,0,0,4.36.14,10.49,10.49,0,0,0,3.81-1.91,14.68,14.68,0,0,0,3.34-3.51c2.14,1.62,3.2,2.43,5.34,4.07A22.43,22.43,0,0,1,1493.14,705.5Zm-12.09-50.92q-2-15.54-3.92-31.08c5.29-1.27,7.93-1.86,13.23-3a17.15,17.15,0,0,1,8.79.23,13.18,13.18,0,0,1,6.48,4.41,15.33,15.33,0,0,1,3.09,7.73,16.37,16.37,0,0,1-1.07,8.48,15.82,15.82,0,0,1-5.21,6.58,21.06,21.06,0,0,1-8.47,3.71C1488.79,652.76,1486.21,653.35,1481.05,654.58Zm40.1,46.45c-2.23-3.15-3.35-4.72-5.58-7.85l-.17,0c-2.33.41-3.49.62-5.82,1.06.44,3.44.65,5.16,1.09,8.6-3.22.6-4.83.92-8,1.59q-2-15.54-3.92-31.08c5.53-1.15,8.3-1.68,13.85-2.65,4.09-.71,7.38-.25,9.87,1.32s4,4.1,4.4,7.56a12.41,12.41,0,0,1-.65,6.25,10.32,10.32,0,0,1-3.61,4.59c3.09,3.66,4.64,5.5,7.73,9.2C1526.64,700.16,1524.81,700.43,1521.15,701Zm38.47-4.25c-8.35.43-16.77,1.22-25.06,2.3q-2-15.54-3.92-31.07c8.15-1.07,16.41-1.85,24.62-2.28.33,2.58.49,3.88.82,6.47-6.62.38-9.92.65-16.5,1.34l.73,5.8c5.94-.62,8.92-.87,14.89-1.24.32,2.57.48,3.86.81,6.43-6,.39-9,.65-14.88,1.29l.73,5.85c6.76-.71,10.15-1,17-1.37C1559.13,692.89,1559.3,694.19,1559.62,696.78Zm30.37-.27c-8.41-.37-16.94-.35-25.35,0l-3.92-31.08c8.26-.37,16.64-.39,24.9,0,.33,2.59.49,3.88.82,6.47-6.7-.26-10-.29-16.69-.19l.73,5.81c6-.09,9-.07,15.06.13.33,2.57.49,3.86.81,6.43-6-.18-9-.2-15-.09l.74,5.85c6.83-.1,10.26-.07,17.14.21C1589.5,692.63,1589.67,693.92,1590,696.51Zm34.71,3.42c-2.94-.47-4.41-.68-7.34-1.07q-8.34-10.14-16.86-20.14c.93,7.43,1.4,11.15,2.34,18.58-3.11-.26-4.67-.37-7.77-.54l-3.92-31.08c2.92.17,4.39.27,7.32.5,5.7,6.71,11.31,13.48,16.92,20.26l-2.4-18.71c3.11.41,4.67.63,7.8,1.13Z"/><path class="cls-31" d="M1187.14,739.77c5.52-1.07,8.28-1.65,13.78-2.89-.33-2.59-.49-3.88-.82-6.47-5.5,1.24-8.25,1.82-13.77,2.89-.35-2.77-.53-4.15-.87-6.92,6-1.16,9-1.79,14.91-3.15-.31-2.59-.46-3.89-.77-6.48-7.61,1.76-15.31,3.32-23,4.64q2,15.54,3.92,31.08c3.23-.56,4.84-.86,8.06-1.48Z"/><path class="cls-31" d="M1214.06,736.43c2.3-.58,3.46-.88,5.76-1.48l.17-.05,5.53,7.41c3.6-1,5.4-1.49,9-2.53l-7.63-8.35a12.37,12.37,0,0,0,3.55-5.11,13.76,13.76,0,0,0,.63-6.45c-.44-3.46-1.89-5.82-4.34-7.1s-5.71-1.37-9.75-.3c-5.49,1.45-8.24,2.14-13.75,3.44q2,15.54,3.92,31.08c3.2-.76,4.8-1.15,8-2C1214.71,741.59,1214.49,739.87,1214.06,736.43Zm-2-16c2.32-.59,3.48-.89,5.8-1.5a5.11,5.11,0,0,1,3.92.21,3.89,3.89,0,0,1,1.77,3.12,5.3,5.3,0,0,1-.87,4,6.3,6.3,0,0,1-3.62,2.25c-2.31.61-3.47.91-5.8,1.5Z"/><path class="cls-31" d="M1244.59,735.19a16,16,0,0,0,8.65-.51,20.55,20.55,0,0,0,8.11-4.85,21.45,21.45,0,0,0,5.14-7.78,18.56,18.56,0,0,0,1.1-9,13.38,13.38,0,0,0-3.17-7.43,11.85,11.85,0,0,0-6.6-3.75,16.74,16.74,0,0,0-8.63.64,21.27,21.27,0,0,0-8.12,4.71,20.37,20.37,0,0,0-5.18,7.5,17.5,17.5,0,0,0-1.12,8.79,14.19,14.19,0,0,0,3.19,7.63A12.24,12.24,0,0,0,1244.59,735.19Zm-1.11-19a11.18,11.18,0,0,1,2.64-4.26,9.76,9.76,0,0,1,4-2.52,7.33,7.33,0,0,1,4.29-.13,6.48,6.48,0,0,1,3.38,2.33,8.73,8.73,0,0,1,1.66,4.28,11.57,11.57,0,0,1-3,9.33,9.38,9.38,0,0,1-4,2.55,7.15,7.15,0,0,1-4.31.1,7,7,0,0,1-3.48-2.38,8.47,8.47,0,0,1-1.74-4.32A10.72,10.72,0,0,1,1243.48,716.15Z"/><path class="cls-31" d="M1289.18,708.27c-4.41-6-6.62-9-11-15-3.43,1.22-5.15,1.82-8.59,3q2,15.54,3.92,31.08c2.82-1,4.22-1.46,7-2.46-1-7.87-1.49-11.81-2.48-19.68l9.85,13.81,5.08-1.85c2.24-7.76,3.37-11.65,5.61-19.43,1,7.87,1.51,11.8,2.52,19.67,2.79-1,4.19-1.56,7-2.61q-1.95-15.54-3.92-31.08l-8.55,3.2C1293,695.46,1291.75,699.74,1289.18,708.27Z"/><path class="cls-31" d="M1348,695.19a9.26,9.26,0,0,0,.84-5.14,6.42,6.42,0,0,0-2.3-4.51,5.88,5.88,0,0,0-4.87-.94,10.39,10.39,0,0,0,3.49-4,8.31,8.31,0,0,0,.86-4.8,5.2,5.2,0,0,0-1.9-3.63,6.59,6.59,0,0,0-4.23-1.22,17.38,17.38,0,0,0-6,1.33c-5.72,2.22-8.58,3.33-14.3,5.52q2,15.54,3.91,31.09l14.86-5.74a21.61,21.61,0,0,0,6-3.42A13.09,13.09,0,0,0,1348,695.19Zm-19.78-14,6-2.33a3.59,3.59,0,0,1,2.66-.27,2,2,0,0,1,1.22,1.83,3.6,3.6,0,0,1-.65,2.65,5.28,5.28,0,0,1-2.47,1.82l-6,2.33Zm11.49,14a7.39,7.39,0,0,1-3.15,2.16l-6,2.32c-.33-2.6-.49-3.91-.82-6.52l6-2.32a5.21,5.21,0,0,1,3.37-.45,2,2,0,0,1,1.49,1.86A3.79,3.79,0,0,1,1339.67,695.12Z"/><path class="cls-31" d="M1377.55,681.27c-6.53,2.48-9.79,3.73-16.32,6.25l-.74-5.86c5.74-2.23,8.6-3.34,14.34-5.53-.32-2.58-.48-3.86-.81-6.43-5.74,2.18-8.61,3.28-14.35,5.49l-.73-5.81c6.36-2.45,9.54-3.67,15.9-6.08-.33-2.59-.49-3.89-.82-6.48q-11.89,4.51-23.75,9.13,1.95,15.54,3.92,31.08,12.07-4.68,24.18-9.28C1378,685.16,1377.88,683.86,1377.55,681.27Z"/><path class="cls-31" d="M1391.14,683c3.15-1.17,4.72-1.75,7.87-2.9l-1.25-9.93q4.11-12.54,8.24-25.06c-3.16,1.11-4.74,1.68-7.89,2.82-2.12,6.34-3.17,9.52-5.29,15.89L1384,653.07l-7.86,3c5.51,6.87,8.27,10.31,13.78,17.22C1390.4,677.13,1390.65,679.07,1391.14,683Z"/><path class="cls-31" d="M1439.82,658.47a18.06,18.06,0,0,0,1.1-8.92,13.66,13.66,0,0,0-3.17-7.49,12,12,0,0,0-6.61-3.85,16.14,16.14,0,0,0-8.63.67,21,21,0,0,0-8.09,4.91,21.35,21.35,0,0,0-5.15,7.76,18.24,18.24,0,0,0-1.11,8.92,13.68,13.68,0,0,0,3.18,7.51,11.59,11.59,0,0,0,6.6,3.77,16.46,16.46,0,0,0,8.62-.73,21.36,21.36,0,0,0,8.1-4.87A21.09,21.09,0,0,0,1439.82,658.47Zm-7.53-1.27a11.35,11.35,0,0,1-2.54,4.29,9.54,9.54,0,0,1-4,2.59,7.17,7.17,0,0,1-4.31.17A6.77,6.77,0,0,1,1418,662a8.2,8.2,0,0,1-1.73-4.29,11.07,11.07,0,0,1,.54-5,11.65,11.65,0,0,1,2.62-4.34,9.85,9.85,0,0,1,4-2.6,7.08,7.08,0,0,1,4.28-.17,6.41,6.41,0,0,1,3.38,2.34,8.73,8.73,0,0,1,1.67,4.28A11.3,11.3,0,0,1,1432.29,657.2Z"/><path class="cls-31" d="M1451.92,643.15c6.46,5.82,9.69,8.76,16.17,14.72,2.79-.74,4.18-1.11,7-1.81q-2-15.54-3.92-31.08c-3,.75-4.45,1.13-7.41,1.92l2.4,18.7c-6.5-6-9.75-9-16.24-14.82-2.79.81-4.19,1.23-7,2.08q1.95,15.54,3.91,31.08c3-.9,4.46-1.34,7.43-2.21C1453.32,654.3,1452.85,650.59,1451.92,643.15Z"/><path class="cls-31" d="M1507.65,641.37a16.37,16.37,0,0,0,1.07-8.48,15.33,15.33,0,0,0-3.09-7.73,13.18,13.18,0,0,0-6.48-4.41,17.15,17.15,0,0,0-8.79-.23c-5.3,1.12-7.94,1.71-13.23,3q2,15.54,3.92,31.08c5.16-1.23,7.74-1.82,12.92-2.92a21.06,21.06,0,0,0,8.47-3.71A15.82,15.82,0,0,0,1507.65,641.37Zm-7.58-2a8.46,8.46,0,0,1-2.41,3.7,8.62,8.62,0,0,1-4,2c-2.18.46-3.26.69-5.44,1.18L1486,628.26c2-.45,3-.67,5-1.1a7.88,7.88,0,0,1,4.44.24,7.23,7.23,0,0,1,3.37,2.59,9.53,9.53,0,0,1,1.67,4.49A10.82,10.82,0,0,1,1500.07,639.33Z"/><path class="cls-31" d="M1071.93,782.49c3.83.67,5.74,1,9.55,1.5q1.55,12.18,3.08,24.38c3.35.46,5,.67,8.37,1q-1.53-12.2-3.07-24.38c3.84.42,5.75.6,9.57.9-.33-2.68-.5-4-.84-6.7-9.27-.86-18.31-2-27.51-3.43Z"/><path class="cls-31" d="M1124.62,792.81c-5.09,0-7.65,0-12.77-.23l-1.6-12.68c-3.31-.12-5-.21-8.3-.43q2,15.54,3.92,31.08c3.32.22,5,.3,8.3.43-.6-4.77-.9-7.15-1.51-11.92,5.13.19,7.68.23,12.78.22l1.5,11.92c3.3,0,4.94,0,8.23-.12q-2-15.54-3.92-31.08c-3.28.09-4.93.12-8.22.13C1123.67,785.2,1124,787.74,1124.62,792.81Z"/><path class="cls-31" d="M1147.89,798c6-.44,8.94-.73,14.87-1.42-.33-2.57-.49-3.86-.81-6.43-5.93.68-8.91,1-14.87,1.38l-.73-5.81c6.6-.47,9.9-.79,16.46-1.56-.32-2.59-.49-3.89-.81-6.48-8.16,1-16.44,1.7-24.65,2.06q2,15.54,3.92,31.07c8.36-.36,16.78-1.07,25.09-2.1-.33-2.59-.49-3.88-.82-6.47-6.74.8-10.12,1.13-16.91,1.62Z"/><path class="cls-31" d="M1198.8,795.63a9.79,9.79,0,0,1-3.83,1.76,7.7,7.7,0,0,1-4.4-.37,7.79,7.79,0,0,1-3.42-2.69,9.23,9.23,0,0,1-1.68-4.39,10,10,0,0,1,.52-4.79,9.13,9.13,0,0,1,2.61-3.78,8.69,8.69,0,0,1,4.1-2,8.46,8.46,0,0,1,4.23.31,10.56,10.56,0,0,1,3.93,2.3c1.58-2.67,2.36-4,3.93-6.69a15.49,15.49,0,0,0-6.14-2.7,17.5,17.5,0,0,0-7-.07,19.06,19.06,0,0,0-8.17,3.64,16.94,16.94,0,0,0-5.21,6.71,16.14,16.14,0,0,0-1.13,8.5,15.85,15.85,0,0,0,3.16,7.91,14.56,14.56,0,0,0,6.55,4.84,15.53,15.53,0,0,0,8.54.61,17.13,17.13,0,0,0,6.63-3,21,21,0,0,0,5.41-5.52c-2.13-1.62-3.2-2.43-5.33-4.07A14.19,14.19,0,0,1,1198.8,795.63Z"/><path class="cls-31" d="M1230.34,765.53a17.07,17.07,0,0,0-8.7.18,20.25,20.25,0,0,0-8.18,4.2,18.63,18.63,0,0,0-5.23,7.13,16.77,16.77,0,0,0-1.14,8.65,15,15,0,0,0,3.21,7.78,13.34,13.34,0,0,0,6.68,4.4,16.09,16.09,0,0,0,8.71,0,19.11,19.11,0,0,0,8.17-4.39A19.67,19.67,0,0,0,1239,786a17.9,17.9,0,0,0,1.11-8.87,13.92,13.92,0,0,0-3.18-7.54A12.81,12.81,0,0,0,1230.34,765.53Zm1.14,18.93a10.56,10.56,0,0,1-2.56,4.13,8.66,8.66,0,0,1-4,2.32,7.2,7.2,0,0,1-4.34-.14,7.73,7.73,0,0,1-3.5-2.56,8.85,8.85,0,0,1-1.75-4.4,10.63,10.63,0,0,1,3.22-9,9.18,9.18,0,0,1,4.06-2.27,7.34,7.34,0,0,1,4.31.09,6.93,6.93,0,0,1,3.4,2.5,8.94,8.94,0,0,1,1.67,4.33A10.88,10.88,0,0,1,1231.48,784.46Z"/><path class="cls-31" d="M1261.86,773.24c-4.43-6.13-6.64-9.21-11.08-15.38-3.45,1.07-5.17,1.6-8.63,2.63q2,15.54,3.92,31.08c2.83-.84,4.24-1.27,7.07-2.14-1-7.88-1.49-11.82-2.48-19.69,3.95,5.67,5.93,8.49,9.88,14.13l5.11-1.66c2.26-7.65,3.39-11.48,5.65-19.16,1,7.87,1.51,11.8,2.52,19.67,2.8-.94,4.2-1.42,7-2.39q-1.95-15.54-3.91-31.09c-3.44,1.19-5.16,1.78-8.6,2.94C1265.73,760.62,1264.44,764.84,1261.86,773.24Z"/><path class="cls-31" d="M1305.34,742q-3.54-1.66-9.31.45c-5.3,1.94-8,2.89-13.27,4.77q2,15.54,3.92,31.08c3.15-1.11,4.73-1.67,7.88-2.81-.43-3.44-.65-5.16-1.08-8.6l5.38-2a16.84,16.84,0,0,0,8.57-6.34,13.9,13.9,0,0,0,2.11-9.73C1309.1,745.37,1307.7,743.09,1305.34,742Zm-4.11,14a7,7,0,0,1-3.57,2.61l-5,1.81-1.2-9.53,5-1.82a4.9,4.9,0,0,1,3.87-.14,3.56,3.56,0,0,1,1.76,3A5.83,5.83,0,0,1,1301.23,756Z"/><path class="cls-31" d="M1333.28,747.5a8.31,8.31,0,0,1-1,5.32,7.41,7.41,0,0,1-3.88,3.33A5,5,0,0,1,1324,756a5.15,5.15,0,0,1-2.27-4.06l-2.3-18.27-7.86,3,2.3,18.27a11.81,11.81,0,0,0,2.59,6.43,8.35,8.35,0,0,0,5.4,2.85,15.12,15.12,0,0,0,7.45-1.12,20.19,20.19,0,0,0,7-4.41,16.67,16.67,0,0,0,4.9-14.22l-2.3-18.27-7.86,3Z"/><path class="cls-31" d="M1342.43,731.82l8.93-3.46q1.53,12.2,3.07,24.39l7.86-3q-1.55-12.19-3.08-24.39l9-3.48c-.34-2.68-.5-4-.84-6.69q-12.92,5-25.81,10Z"/><path class="cls-31" d="M1380.79,729.67c5.74-2.21,8.61-3.3,14.36-5.45-.33-2.57-.49-3.86-.81-6.43-5.75,2.14-8.62,3.22-14.36,5.4l-.74-5.81c6.36-2.42,9.55-3.61,15.91-6-.32-2.59-.49-3.89-.81-6.48q-11.92,4.41-23.77,9,2,15.55,3.91,31.09,12.07-4.65,24.2-9.14c-.32-2.59-.48-3.89-.81-6.48-6.54,2.42-9.81,3.65-16.34,6.14Z"/><path class="cls-31" d="M1426.51,711.19a14.16,14.16,0,0,0,.62-6.53c-.43-3.45-1.87-5.77-4.32-6.92s-5.66-1-9.65.38c-5.44,1.92-8.15,2.89-13.57,4.88q2,15.54,3.91,31.08l7.88-2.85c-.43-3.44-.65-5.16-1.08-8.61l5.69-2,.17-.06,5.49,7.06c3.57-1.25,5.35-1.86,8.93-3.07-3-3.21-4.55-4.81-7.58-8A13.51,13.51,0,0,0,1426.51,711.19Zm-7.72.37a7,7,0,0,1-3.57,2.55l-5.74,2-1.2-9.53c2.3-.83,3.44-1.23,5.73-2a4.87,4.87,0,0,1,3.89-.09,3.6,3.6,0,0,1,1.75,3A5.69,5.69,0,0,1,1418.79,711.56Z"/><path class="cls-31" d="M1461.15,697.15a39.06,39.06,0,0,0-5.47-.34c-1.46,0-2.59-.06-3.35-.12a4.74,4.74,0,0,1-2-.56,1.87,1.87,0,0,1-.95-1.48,2.24,2.24,0,0,1,.64-1.88,5,5,0,0,1,2.25-1.25,14.49,14.49,0,0,1,4.74-.45,23,23,0,0,1,5.5.9l2.18-7.32a18.42,18.42,0,0,0-6-.94,22.21,22.21,0,0,0-6.63,1,18.72,18.72,0,0,0-6.25,3.13,12.64,12.64,0,0,0-3.83,4.68,9.92,9.92,0,0,0-.85,5.53,6.51,6.51,0,0,0,2.06,4.43,7.5,7.5,0,0,0,3.84,1.66,38.64,38.64,0,0,0,5.38.21c1.44,0,2.56,0,3.36,0a4.57,4.57,0,0,1,2.05.57,2,2,0,0,1,1,1.55,2.61,2.61,0,0,1-.78,2.25,6.25,6.25,0,0,1-2.71,1.5,14.68,14.68,0,0,1-5.74.36,16,16,0,0,1-5.87-1.71c-.91,2.93-1.37,4.39-2.27,7.32a17.33,17.33,0,0,0,6.94,1.65,22.55,22.55,0,0,0,7.69-1,20.25,20.25,0,0,0,6.09-2.94,12.62,12.62,0,0,0,4-4.56,9.86,9.86,0,0,0,.94-5.75,7.07,7.07,0,0,0-2.12-4.62A7.49,7.49,0,0,0,1461.15,697.15Z"/><path class="cls-31" d="M1489.87,699.39a10.49,10.49,0,0,1-3.81,1.91,7.66,7.66,0,0,1-4.36-.14,7,7,0,0,1-3.4-2.47,8.82,8.82,0,0,1-1.67-4.31,10.53,10.53,0,0,1,.51-4.87,10.08,10.08,0,0,1,2.59-4,8.81,8.81,0,0,1,4.06-2.21,8.08,8.08,0,0,1,4.21.16,10,10,0,0,1,3.93,2.23c1.57-2.69,2.36-4,3.93-6.7a14.75,14.75,0,0,0-6.15-2.67,15.94,15.94,0,0,0-6.91.14,19,19,0,0,0-13.24,11.45,17.38,17.38,0,0,0-1.11,8.74,14.76,14.76,0,0,0,3.13,7.68,12.91,12.91,0,0,0,6.49,4.28,16,16,0,0,0,8.47.07,18.91,18.91,0,0,0,6.6-3.18,22.43,22.43,0,0,0,5.41-5.55c-2.14-1.64-3.2-2.45-5.34-4.07A14.68,14.68,0,0,1,1489.87,699.39Z"/><path class="cls-31" d="M1526.18,685.86a12.41,12.41,0,0,0,.65-6.25c-.43-3.46-1.9-6-4.4-7.56s-5.78-2-9.87-1.32c-5.55,1-8.32,1.5-13.85,2.65q2,15.54,3.92,31.08c3.21-.67,4.82-1,8-1.59-.44-3.44-.65-5.16-1.09-8.6,2.33-.44,3.49-.65,5.82-1.06l.17,0c2.23,3.13,3.35,4.7,5.58,7.85,3.66-.6,5.49-.87,9.15-1.38-3.09-3.7-4.64-5.54-7.73-9.2A10.32,10.32,0,0,0,1526.18,685.86Zm-7.9-1a5.72,5.72,0,0,1-3.66,1.89c-2.34.41-3.51.62-5.85,1.06l-1.2-9.53c2.34-.44,3.51-.65,5.85-1.06a5.34,5.34,0,0,1,4,.57,4.35,4.35,0,0,1,1.79,3.26A4.86,4.86,0,0,1,1518.28,684.84Z"/><path class="cls-31" d="M1541.13,685.82c5.93-.64,8.91-.9,14.88-1.29-.33-2.57-.49-3.86-.81-6.43-6,.37-9,.62-14.89,1.24l-.73-5.8c6.58-.69,9.88-1,16.5-1.34-.33-2.59-.49-3.89-.82-6.47-8.21.43-16.47,1.21-24.62,2.28q2,15.53,3.92,31.07c8.29-1.08,16.71-1.87,25.06-2.3-.32-2.59-.49-3.89-.81-6.48-6.8.38-10.19.66-17,1.37Z"/><path class="cls-31" d="M1571.3,684c6-.11,9-.09,15,.09-.32-2.57-.48-3.86-.81-6.43-6-.2-9-.22-15.06-.13l-.73-5.81c6.65-.1,10-.07,16.69.19-.33-2.59-.49-3.88-.82-6.47-8.26-.35-16.64-.33-24.9,0l3.92,31.08c8.41-.38,16.94-.4,25.35,0-.32-2.59-.49-3.88-.81-6.47-6.88-.28-10.31-.31-17.14-.21Z"/><path class="cls-31" d="M1615.39,686.44c-5.61-6.78-11.22-13.55-16.92-20.26-2.93-.23-4.4-.33-7.32-.5l3.92,31.08c3.1.17,4.66.28,7.77.54-.94-7.43-1.41-11.15-2.34-18.58q8.52,10,16.86,20.14c2.93.39,4.4.6,7.34,1.07l-3.91-31.07c-3.13-.5-4.69-.72-7.8-1.13Z"/><path class="cls-31" d="M1758.35,564.43C1713,540.34,1659,531.3,1608.67,542.81a3.8,3.8,0,0,0-.72.24,3.61,3.61,0,0,0-2.92,3.72,176.84,176.84,0,0,1,.19,24.79c-35.47-4.52-72.73-3-112.71,4.67-53.34,10.19-106.38,30-157.68,49.08-51,19-103.81,38.69-156.61,48.77-59,11.26-111.86,9.11-161.72-6.57l-4.9-1.55,12.88,101.63h0a194.8,194.8,0,0,1-82.38,63.28c-2.8,1.14-2.44,4.82,0,6.08a147.16,147.16,0,0,0,72.76,16.65,113.21,113.21,0,0,1-45.73,35c-2.44,1-2.83,5.19,0,6.08,43.42,13.78,91.56,13.4,134.15-3.23a3.37,3.37,0,0,0,3.24-3.72q-2.51-19.59-5.67-39.1a347.92,347.92,0,0,0,72.78-1.88q13-1.65,26.43-4.21c53.34-10.19,106.38-30,157.68-49.08,51-19,103.82-38.69,156.61-48.77,59-11.26,111.87-9.11,161.72,6.57l4.91,1.55-8.63-68.08a182.38,182.38,0,0,1,88.43-61.21c2.36-.76,2.67-4.28.75-5.65a91.33,91.33,0,0,0-62.3-16.52,187.61,187.61,0,0,1,59.16-30.84C1761.29,569.58,1760.6,565.62,1758.35,564.43ZM1612,554,1639.73,578q-13.82-3.43-28-5.55Q1612.35,563.21,1612,554ZM979.67,891a119.45,119.45,0,0,0,44.52-39,3.34,3.34,0,0,0-3-5.29,140.68,140.68,0,0,1-69.89-12.57,201.49,201.49,0,0,0,74.37-57.32l7.39,58.33.34.11a2.66,2.66,0,0,0,.25.41c16.14,21.39,37,39.66,60.93,52C1057.85,900.4,1017.14,901.14,979.67,891Zm64.67-52.44A301.55,301.55,0,0,0,1094,848q2.82,17.24,5.11,34.55C1078,872,1059.4,856.63,1044.34,838.53ZM1513,738.21c-53.34,10.18-106.38,29.95-157.68,49.07-51,19-103.81,38.7-156.61,48.78-58.17,11.11-110.44,9.16-159.7-5.95L1019.43,675.3c49.48,14.64,101.89,16.36,160,5.26,53.34-10.18,106.38-29.95,157.68-49.07,51-19,103.81-38.7,156.61-48.78,58.17-11.1,110.44-9.16,159.7,5.95l19.63,154.81C1623.6,728.83,1571.18,727.11,1513,738.21Zm172.41-134.08c-2.17,1.93-1,6.75,2.43,5.89a84.81,84.81,0,0,1,64.12,9.51,188.27,188.27,0,0,0-80.87,56.15l-11.66-92-2-.63c-1-.32-2-.62-3-.92l-39.1-34c44.94-8.8,92.16-1.25,133.21,18.73A192.31,192.31,0,0,0,1685.45,604.13Z"/></svg>