<svg id="Layer_1" data-name="Layer 1" xmlns="http://www.w3.org/2000/svg" viewBox="0 0 461.05 494.94"><defs><style>.cls-1{fill:#fff;}</style></defs><title>logorev</title><path class="cls-1" d="M230.52,127.69,0,0V162.46l50.53,28.29v36.82L0,199.28V362.69L230.52,494.94l162.25-93.08-66-33.17L382,337.37l-114-58.8V242.51L461.05,345V0ZM72.53,265.1,193,332.53v43L72.53,308.8Zm366.52,43.3L311.91,240.89l98.6-54.34V97.19L246.05,189.6V292l89.75,46.31L303.1,356.8l-57.05-28.66v86.28l57.68-32.68,42.6,21.4L230.52,469.58,22,350V236.81l28.53,16v69L215,412.89V319.64L72.53,239.89V203.06L215,282.82V189.6L50.53,97.19v68.35L22,149.56V37.34l208.52,115.5L439.05,37.34V308.4Zm-171-68.46V202.47l120.46-67.68v38.77Zm12,129.92-12,6.81V363.82Zm-207.54-192V134.79L193,202.47v42.82Z"/></svg>