<svg id="Layer_1" data-name="Layer 1" xmlns="http://www.w3.org/2000/svg" viewBox="0 0 500 400"><defs><style>.cls-1{fill:#fff;}.cls-2{fill:#4d4d4d;}</style></defs><title>castle-preview</title><path class="cls-1" d="M255.92,363.84c-2.91,6.72-7.64,11.21-12.09,16a4.22,4.22,0,0,1-7.31-3.19c.81-10.81,9.3-33,15.3-44.42"/><path class="cls-2" d="M252.83,362c-.81,1.26-11.29,15.54-11.92,14.9-1.31-1.32,2.17-10.66,2.64-12.23a176.46,176.46,0,0,1,12.09-30.22c2.59-5.05-5-9.52-7.63-4.47a177.66,177.66,0,0,0-9.52,22.11c-2.62,7.19-5.49,14.94-6.11,22.64-.51,6.27,4.38,12.55,11.2,10,3.6-1.32,6.38-5.36,8.78-8.18a33.23,33.23,0,0,0,7-11.83c1.23-4-4.4-6.09-6.54-2.76Z"/><path class="cls-2" d="M416.57,368.77a46.78,46.78,0,0,1-9.56,2,8,8,0,0,0-6,3.09c-2.34,3.32-1,7.5,1.18,10.52,8.13,11.44,22,4.75,31.72-.7a188.69,188.69,0,0,0,34.86-25.5c9.86-9,20-19.73,24.14-32.76,2.16-6.82,1.5-14.95-4.5-19.62-5.48-4.27-11.43-4.1-17-.42-5.1,3.38-.35,11.64,4.83,8.25,1.82-1.19,2.68-2,4.76-1.07,3.52,1.66,3.77,5.17,3,8.63-1.26,5.64-4.64,11-8,15.6-6.8,9.31-16.13,17.34-25.18,24.39s-19.36,14.19-29.92,19c-2.42,1.1-6.21,2.59-8.87,1.49-1.42-.59-1.93-2.22-3.07-2.91a2.77,2.77,0,0,1-.37-.7c-.22-.64-.35-.2-.4,1.32a10.5,10.5,0,0,0,3.55-.51,22.65,22.65,0,0,0,7.62-3.53c3.17-2.19,1.33-7.76-2.76-6.53Z"/><path class="cls-2" d="M405.84,371.1C400,369,395,365,389.26,362.61a63.69,63.69,0,0,0-17.11-4.36c-13-1.52-25.51,1.91-38.21,4.13a217.69,217.69,0,0,1-41.26,3.12c-11.44-.21-26.36.24-35.71-7.51-10.1-8.39-6.45-21.17,5.14-25.71,10.65-4.16,22.12-.5,33.11-2,8.6-1.14,17-6.43,17.52-15.87.48-8-4.92-16.26-13-18-10.47-2.28-18.95,6-25.37,13-7.74,8.47-16.54,17-28.13,19.55-10,2.22-22.28-.64-26.37-11.05-4.22-10.74,4-18.68,12.16-24.45,8.71-6.14,18.6-10.28,28-15.27,8.66-4.62,16.58-10.37,24.5-16.14,17.16-12.49,34.48-26.32,55-32.7,10.11-3.15,19.16-1.4,28.88,2.35,11.91,4.61,21.56,15.74,31.05,23.94q17.94,15.51,35.84,31.05L453,302.08l8.85,7.67c2.42,2.1,7.49,4.74,5.65,8.27-2.84,5.45,5.4,10.29,8.26,4.83,2.5-4.77,3.17-9.5-.52-13.88-4.73-5.61-11.38-10.14-16.92-15l-34-29.59c-11-9.54-22-19-32.9-28.65-8.94-7.91-18.09-13.28-29.69-16.34C341.1,214,320.64,225.66,304,236.79c-19,12.67-36.33,27.19-56.8,37.46-16.95,8.51-44.17,22.15-36.48,45.57,7.85,23.89,37.89,22.45,55,10.31a86.75,86.75,0,0,0,13.21-11.75c4-4.33,8.2-10.1,13.95-12.26,4.63-1.74,9,.35,10.24,5.12,1.48,5.51-3,8.68-7.81,9.65-5.11,1-10.46.28-15.61.06-6.7-.29-13.66.1-20,2.44-9.75,3.61-18.29,12.5-18,23.46.38,12.87,11.81,21.71,23.32,24.77,14.59,3.88,31.13,3.25,46.06,2.27A237.74,237.74,0,0,0,335.32,371c8.14-1.39,16.21-3.55,24.44-4.31A60.19,60.19,0,0,1,383,369c7.35,2.25,13.6,6.92,20.95,9,4.48,1.28,6.16-5.34,1.9-6.89Z"/><path class="cls-1" d="M253.72,328c23.43-52,42.4-93.18,65.83-145.22,8.8-19.54,17.71-39.27,30.77-56.24,3.35-4.36,10.85-8.25,13.3-3.33.93,1.87.37,4.1-.24,6.1-8,26.27-20.94,50.74-33.43,75.21-22.07,43.24-34.83,70.21-54.73,114.48"/><path class="cls-2" d="M256.81,329.79C283,276.15,305.33,220.69,331.46,167c6.16-12.65,12.68-25.87,21.56-36.89,1.05-1.3,3.48-4.47,5.45-4.55s1.09.66.68,2.52a52.81,52.81,0,0,1-1.71,5.35c-2.64,7.92-5.69,15.71-9,23.35-11.73,26.8-26,52.47-39,78.69-13.25,26.82-25.79,53.95-38,81.24-2.31,5.15,5.3,9.66,7.64,4.47,12.06-26.77,24.31-53.46,37.28-79.8,14.15-28.73,30-56.8,42.32-86.37a249.77,249.77,0,0,0,8.69-23.7c1.57-5.2,1.8-11.81-4.2-14.2-12.13-4.82-21.9,14.11-26.6,21.88-8.22,13.57-14.45,28.12-20.95,42.55q-10.27,22.8-20.61,45.57c-15.06,33.2-30.76,66.19-44.7,99.88-1.54,3.73,4.77,6.39,6.54,2.76Z"/></svg>