<svg id="Layer_1" data-name="Layer 1" xmlns="http://www.w3.org/2000/svg" viewBox="0 0 500 500"><defs><style>.cls-1{fill:#4d4d4d;}.cls-2{fill:#fff;}</style></defs><title>glc-preview</title><path class="cls-1" d="M57.4,358c4.69-20,8.42-40.6,21.66-57.06a60.71,60.71,0,0,1,21.19-17.05c9.58-4.47,19.55-3.62,29.51-1.09,5.56,1.42,7.92-7.13,2.37-8.58-10.64-2.8-21.75-3.72-32.22.28a64.82,64.82,0,0,0-25.11,18c-15.59,17.92-20.56,40.69-25.1,63.35-1,5,6.51,7.16,7.7,2.12Z"/><path class="cls-1" d="M117.62,293.91c7.49-5.08,13.63-11.26,22.86-13a33.62,33.62,0,0,1,15.5,1c5.3,1.5,10,4.81,15.25,6.11,3.69.9,6.83-3.82,3.84-6.61-4.12-3.86-10.58-6.07-16-7.62a43.15,43.15,0,0,0-18.38-1.42c-10.92,1.61-20.12,8-27.27,16.19-2.42,2.77.74,7.72,4.16,5.4Z"/><path class="cls-1" d="M141.27,306.21c9.84-5.14,18.51-11.35,29.45-14.17,5.24-1.36,11.21-2.26,16.56-1s8.95,4.86,12.75,8.42c4.13,3.89,10.06-2.06,6.22-6.22-9.1-9.84-20.44-12.85-33.48-10.37a75.8,75.8,0,0,0-35.63,18c-3,2.69.81,7.08,4.13,5.35Z"/><path class="cls-2" d="M180.69,315.56c21-15.5,29.06-19.74,53.45-27.27,5.74-1.77,10-2.17,15.27-1.07s7.55,3.73,11.16,7.43c5.7,5.83,9.41,12.91,8,21.06-1.49,8.74-8.27,15.12-15.35,17.92-19,7.49-23.38-3.38-41.21,13-13.54,12.45-22.68,24.38-33.21,39"/><path class="cls-1" d="M182.4,318.48c11-7.59,22.15-15.2,34.73-20.06,6.89-2.66,14.19-5.39,21.43-6.91,8.6-1.8,14.44,1.09,20,7.47s8,15.16,2.74,22.72c-4.17,6-11.41,9-18.46,10-4.83.68-9.73.09-14.56.83-5.87.9-10.95,3.77-15.56,7.42-15.05,11.9-26.82,27.88-38,43.32-3.57,4.95,4.63,9.68,8.17,4.78,5.73-7.92,11.55-15.77,18-23.14,6.2-7.12,13-15.07,21.07-20.1,5.12-3.19,10-3.27,15.81-3.44a46.45,46.45,0,0,0,20.31-4.86c15.76-8.28,19.77-27.49,8.83-41.37-5.24-6.65-11.16-11.68-19.8-12.64s-17.21,2.57-25.24,5.43c-16.31,5.82-30,14.56-43.55,25.24-3,2.37.94,7.49,4.1,5.32Z"/><path class="cls-1" d="M117,420.27c29,14.22,64,12.33,89.79-7.68a98.85,98.85,0,0,0,14.68-14.17c4.86-5.73,9.57-11.76,10.51-19.45,1.88-15.29-10.15-24.7-21.37-32.48-5.19-3.6-9.75,4.7-4.88,8.35,8.9,6.69,21.36,14.58,15.67,27.68C219,388.11,214.14,393,210,397.36a79.71,79.71,0,0,1-12.82,10.88,71.56,71.56,0,0,1-34.9,12.23c-14.86,1-28.11-3.57-42.23-7.24-4.09-1.06-7,5.06-3,7Z"/><path class="cls-1" d="M58.33,354.49c-9.18-1.31-18.43-.64-25.74,5.64a29.86,29.86,0,0,0-10.28,24.23c.52,10.7,7,19.67,13.21,27.92a99.52,99.52,0,0,0,22.07,21.19c14.47,10.25,35.13,15.82,51,5.16A30.74,30.74,0,0,0,122,417c1.3-10.11-2.92-19.69-8.89-27.64-13.55-18.07-33.16-29.22-54.65-35.28-6.14-1.73-8.52,7.41-2.61,9.46C70,368.44,83.66,373.71,94.92,384c10.86,9.95,24,26.34,13.72,41.17-8.34,12-25.95,11-37.61,5.15-14.73-7.43-26.54-20-35-34-4.45-7.37-6.12-16.42-1.41-24.13,5.31-8.71,13.34-8.9,22.5-9C62,363.2,63.45,355.22,58.33,354.49Z"/><path class="cls-1" d="M55.32,371c-7.44,0-12.16,5.24-11.87,12.61.29,7.12,5.35,14.15,9.39,19.68,9.59,13.14,23.12,21.36,39.58,22.27,8.23.45,11.76-5.56,10.77-13.05s-5.22-13.17-10-18.66c-9.39-10.72-22-21.54-36.63-23.58-5.82-.81-7.86,6.5-2.41,8.77,9,3.75,17.12,7.17,24.41,13.88a101.78,101.78,0,0,1,9.67,10.25c1.48,1.8,8.08,10.62,5.06,12.85-1.19.88-6.25-.73-7.66-1a41.52,41.52,0,0,1-7.76-2.34A39.65,39.65,0,0,1,65,403.55a70.34,70.34,0,0,1-9.41-12.62c-1.22-2-2.65-4.05-3.2-6.36-.91-3.84.49-5.23,3.92-6.4C60.08,376.87,59.6,371,55.32,371Z"/></svg>