<svg id="Layer_1" data-name="Layer 1" xmlns="http://www.w3.org/2000/svg" viewBox="0 0 500 400"><defs><style>.cls-1{fill:none;stroke:#4d4d4d;stroke-miterlimit:10;stroke-width:10px;}.cls-2{fill:#fff;}.cls-3{fill:#4d4d4d;}</style></defs><title>londonlife-preview</title><polygon class="cls-1" points="571.04 412.69 -68.8 412.69 0 330.13 35.43 287.61 466.81 287.61 571.04 412.69"/><rect class="cls-1" x="35.43" y="31.96" width="431.38" height="254.52"/><rect class="cls-1" x="55.52" y="56.33" width="391.2" height="205.78"/><polygon class="cls-1" points="54.46 306.02 -8.22 387.77 510.46 387.77 447.78 306.02 54.46 306.02"/><polygon class="cls-2" points="109.06 309.64 10.64 359.82 51.16 426.65 99.16 441.4 129.1 386.06 171.71 320.25 109.06 309.64"/><path class="cls-2" d="M26.31,371.06c-6-2.84-12.23-5.72-18.87-6.51s-13.92.87-18.36,5.87C-15,375-16,381.57-16.2,387.71c-.56,17,3.87,34.32,14,47.89s26.34,22.93,43.29,23.19a19,19,0,0,0,8.51-1.45c4.19-2,6.8-6.36,8.25-10.78,3.21-9.74,1.82-20.53-1.8-30.12s-9.36-18.23-15-26.76c-4.6-6.91-8.1-14-14.72-18.62"/><path class="cls-3" d="M28.49,367.33c-9-4.83-19.1-9-29.5-7.2a22.74,22.74,0,0,0-18.14,15.63c-3.06,9.25-2.14,20.17-.6,29.61a77.22,77.22,0,0,0,9.81,27.21C-.3,448.66,16.24,460.63,35,463.11c9.48,1.26,18.73.13,24.37-8.38,5.34-8.07,5.95-18.71,4.52-28-1.88-12.22-8-23.25-14.61-33.5-5.88-9.1-11.29-20.19-20.55-26.32-4.48-3-10,4-5.81,7.53,6,5,9.64,11.29,13.85,17.71,4.64,7.06,9.41,14.07,13,21.77,5.15,11.19,11,40-8.61,40C8.25,454-11.3,420.48-11.5,391c-.05-8.38.9-18.25,10.2-21.11,9.05-2.8,18.25,2,26.46,5.34,4.56,1.84,7.59-5.61,3.33-7.9Z"/><path class="cls-2" d="M11.75,386.06c6.67,5.65,13.35,11.4,18.75,18.28S40,419.39,40.7,428.11a11.72,11.72,0,0,1-.86,6.35c-1.71,3.31-5.92,4.75-9.61,4.18s-6.92-2.75-9.77-5.15A57.7,57.7,0,0,1,1.07,400.36a18.61,18.61,0,0,1-.11-8.2,8,8,0,0,1,5.31-5.84c2.67-.69,5.92,1,6.36,3.68"/><path class="cls-3" d="M9.16,388.65c6.77,7.35,14.72,13.57,20.21,22,2.62,4,12.71,24.66,1.36,23-8.22-1.2-15.69-12.3-19.35-18.94a52.29,52.29,0,0,1-4.94-12.63,22.91,22.91,0,0,1-1-6.71c.09-1.59,1.67-6.47,3.27-3.11,2.39,5,9.22,1.24,8.37-3.53-1.17-6.5-9-9.16-14.5-6.16-7,3.8-7.44,12.11-6.17,19,2.75,15,12,30.12,24.81,38.5,5.76,3.76,13.29,5,19.18.83,6.42-4.58,5.74-13,4-19.77-4.13-16.09-17.27-29.43-30.76-38.32-3.6-2.37-7.19,2.8-4.45,5.76Z"/><path class="cls-2" d="M8.33,363.92c9.26-19,22.64-36.34,40-48.47s38.83-18.83,59.9-16.77c5.85.58,11.73,1.84,16.84,4.75"/><path class="cls-3" d="M11.66,365.87C23,346.5,35.43,328.61,54.93,316.56a91.74,91.74,0,0,1,31.53-12.27c11.69-2.16,25.41-2.31,36.18,3.27,5.46,2.83,10.28-5.33,4.84-8.27-22.71-12.26-54-4.41-75,8s-38.73,33-47.9,55.58c-1.68,4.13,4.9,6.65,7.05,3Z"/><path class="cls-2" d="M85.11,313.88l13.67-3.51c8.8-2.25,17.67-4.52,26.75-4.91s18.48,1.26,26.05,6.26"/><path class="cls-3" d="M85.11,317.51c11-.29,21.82-5,32.65-6.57a60.56,60.56,0,0,1,16.3-.45c6,.74,10.76,3.68,16.38,5.37,4.26,1.28,7-4.14,4.18-7.17-7.86-8.48-23.94-8.76-34.52-7.51a135.84,135.84,0,0,0-19,3.87c-5.91,1.57-12.34,2.89-17.8,5.7-3.21,1.66-1.69,6.85,1.83,6.76Z"/><path class="cls-2" d="M106.39,326.73a199,199,0,0,0,68.37-27.36c4.6-2.93,9.17-6.1,14.42-7.58s11.44-.92,15.35,2.88c5.59,5.44,4.31,14.59,2.47,22.17-1.62,6.69-3.86,14-9.81,17.51"/><path class="cls-3" d="M106.39,330.47c12.27-1,24.45-5,35.86-9.48a205.7,205.7,0,0,0,33.37-16.65c6.68-4.16,25.2-16.43,28-1.51,1.83,9.73-2.78,21.73-9.57,28.38-3,2.91.05,9.11,4.3,7.41,11.06-4.41,14.58-20.88,14.9-31.57.41-13.46-9.65-22.65-23.13-20.24-7.16,1.28-13.18,5.69-19.22,9.47a198.63,198.63,0,0,1-20.08,11c-14.69,7-30.07,10.76-45.44,15.8-3.8,1.25-3.42,7.71,1,7.35Z"/><path class="cls-2" d="M116.54,347.19c15.84-4.46,29-15.51,40-27.8,5.63-6.33,11.9-13.63,20.37-13.9,7.66-.24,14.49,5.94,16.87,13.23s1.07,15.3-1.54,22.51a65.77,65.77,0,0,1-26.47,32.9c-8.23,5.2-17.52,8.5-26.14,13.05S122.7,398,118.73,406.87"/><path class="cls-3" d="M117.58,351c13-3.07,24.24-10.53,33.9-19.63,4.79-4.5,8.91-9.59,13.54-14.23s10.94-9.18,17.54-5.34c13.81,8,6.1,28.32-.28,38.7-7.64,12.43-19,20.1-32,26.13-13.91,6.44-28.88,13.15-35.88,27.76-2.77,5.77,5.84,10.84,8.62,5C130.4,394,147.9,389.27,161.91,382a72,72,0,0,0,31.52-31.27c6.65-13.18,10.35-30.89-.68-42.86a21,21,0,0,0-18-6.94c-7.07.93-12.73,5.57-17.5,10.57-12.46,13.08-24.3,25.62-41.78,31.88-4.7,1.69-2.88,8.72,2.08,7.55Z"/><path class="cls-3" d="M106.71,405.67c6.6,15.33,26.82,16.63,41,16.85,4.33.07,8.91-.18,13.2.61,5.2,1,6.06,4.76,5.75,9.54a24.08,24.08,0,0,1-10.11,17.86c-13.95,9.74-32.49.13-47-3-8.23-1.79-16.3-1.85-24.68-1.54s-17,.73-24.57-3.47c-5.63-3.11-10.67,5.51-5,8.62,13.82,7.66,29,3.59,43.89,4.8s28.81,9,44,8.71a33.73,33.73,0,0,0,31-21c5-12.17,3-28.17-12.13-30.37-17.69-2.58-35.83,2.41-49.27-12.29-3.21-3.51-7.68.95-6.07,4.68Z"/></svg>