<svg id="Layer_1" data-name="Layer 1" xmlns="http://www.w3.org/2000/svg" viewBox="0 0 728 485.33"><defs><style>.cls-1{fill:none;stroke:#1a1a1a;stroke-miterlimit:10;stroke-width:10px;}.cls-2{fill:#1a1a1a;}.cls-3{fill:#fff;}.cls-4{fill:#ffa300;}.cls-5{fill:#afbdc4;}.cls-6{fill:#424242;}</style></defs><title>quadrus-image-2</title><rect class="cls-1" x="13.58" y="20.17" width="700" height="445"/><rect class="cls-2" x="16.5" y="22.67" width="695" height="440"/><path class="cls-3" d="M709,25.17v435H19v-435H709m5-5H14v445H714v-445Z"/><path class="cls-4" d="M179.87,105.34v8.78H178v-3.27a2.31,2.31,0,0,1-.86.76,2.66,2.66,0,0,1-1.18.26,3,3,0,0,1-1.6-.42,2.7,2.7,0,0,1-1.07-1.17,4.16,4.16,0,0,1,0-3.45,2.69,2.69,0,0,1,1.06-1.15,2.94,2.94,0,0,1,1.57-.41,2.4,2.4,0,0,1,2.09,1v-1Zm-2.29,4.54a2.07,2.07,0,0,0,0-2.58,1.49,1.49,0,0,0-1.16-.5,1.51,1.51,0,0,0-1.17.5,2,2,0,0,0,0,2.58,1.51,1.51,0,0,0,1.17.5A1.49,1.49,0,0,0,177.58,109.88Z"/><path class="cls-4" d="M187.85,105.34v6.46H186v-1.14a2.28,2.28,0,0,1-2.16,1.21,2.21,2.21,0,0,1-1.7-.67,2.5,2.5,0,0,1-.63-1.8v-4.06h1.85v3.53a1.37,1.37,0,0,0,.32,1,1.18,1.18,0,0,0,.89.35,1.37,1.37,0,0,0,1-.47,1.82,1.82,0,0,0,.38-1.18v-3.19Z"/><path class="cls-4" d="M193.38,111.8V111a2.1,2.1,0,0,1-.84.62,3,3,0,0,1-1.19.22,2.29,2.29,0,0,1-1.62-.56,1.9,1.9,0,0,1-.6-1.46,1.71,1.71,0,0,1,.64-1.42,2.94,2.94,0,0,1,1.82-.52h1.78v-.12a1,1,0,0,0-.35-.8,1.51,1.51,0,0,0-1-.28,4.05,4.05,0,0,0-1.92.56l-.57-1.27a8,8,0,0,1,1.44-.56,5.64,5.64,0,0,1,1.47-.18,3,3,0,0,1,2,.61,2.16,2.16,0,0,1,.73,1.7v4.22Zm-.52-1.52a1.08,1.08,0,0,0,.51-.69V109h-1.46a1.38,1.38,0,0,0-.79.18.59.59,0,0,0-.26.55.74.74,0,0,0,.27.6,1.11,1.11,0,0,0,.74.22A1.72,1.72,0,0,0,192.86,110.28Z"/><path class="cls-4" d="M203.16,102.89v8.91h-1.84v-1a2.31,2.31,0,0,1-.86.76,2.66,2.66,0,0,1-1.18.26,3,3,0,0,1-1.6-.42,2.7,2.7,0,0,1-1.07-1.17,3.84,3.84,0,0,1-.38-1.74,3.74,3.74,0,0,1,.38-1.71,2.66,2.66,0,0,1,1-1.15,2.94,2.94,0,0,1,1.57-.41,2.39,2.39,0,0,1,2.09,1v-3.4Zm-2.29,7a2.07,2.07,0,0,0,0-2.58,1.6,1.6,0,0,0-2.32,0,2,2,0,0,0,0,2.58,1.6,1.6,0,0,0,2.32,0Z"/><path class="cls-4" d="M207.73,105.59a2.56,2.56,0,0,1,1.26-.32V107h-.29a1.89,1.89,0,0,0-1.35.46,1.61,1.61,0,0,0-.5,1.23v3.11H205v-6.46h1.84v1.16A2.41,2.41,0,0,1,207.73,105.59Z"/><path class="cls-4" d="M216.13,105.34v6.46h-1.84v-1.14a2.27,2.27,0,0,1-2.15,1.21,2.2,2.2,0,0,1-1.7-.67,2.5,2.5,0,0,1-.63-1.8v-4.06h1.84v3.53a1.33,1.33,0,0,0,.33,1,1.15,1.15,0,0,0,.89.35,1.35,1.35,0,0,0,1-.47,1.76,1.76,0,0,0,.38-1.18v-3.19Z"/><path class="cls-4" d="M220.94,106.77a3.36,3.36,0,0,0-.92-.16,1,1,0,0,0-.54.12.39.39,0,0,0-.21.36.46.46,0,0,0,.28.41,4.79,4.79,0,0,0,.9.32,8.76,8.76,0,0,1,1.13.41,2.15,2.15,0,0,1,.77.58,1.6,1.6,0,0,1,.32,1,1.73,1.73,0,0,1-.74,1.49,3.11,3.11,0,0,1-1.89.54,4.88,4.88,0,0,1-1.52-.24,3.74,3.74,0,0,1-1.27-.66l.6-1.25a3.59,3.59,0,0,0,1.09.59,3.55,3.55,0,0,0,1.15.21,1.28,1.28,0,0,0,.6-.12.43.43,0,0,0,.22-.38.48.48,0,0,0-.29-.43,4.18,4.18,0,0,0-.9-.34,9.15,9.15,0,0,1-1.1-.38,2,2,0,0,1-.75-.58,1.57,1.57,0,0,1-.31-1,1.75,1.75,0,0,1,.72-1.49,3,3,0,0,1,1.82-.52,5,5,0,0,1,1.32.18,4.36,4.36,0,0,1,1.2.54l-.63,1.26A5.66,5.66,0,0,0,220.94,106.77Z"/><path class="cls-4" d="M477.35,106.77a3.36,3.36,0,0,0-.92-.16,1,1,0,0,0-.54.12.39.39,0,0,0-.21.36.44.44,0,0,0,.28.41,4.79,4.79,0,0,0,.9.32,9.35,9.35,0,0,1,1.13.41,2,2,0,0,1,.76.58,1.55,1.55,0,0,1,.33,1,1.73,1.73,0,0,1-.74,1.49,3.11,3.11,0,0,1-1.89.54,4.79,4.79,0,0,1-1.52-.24,3.79,3.79,0,0,1-1.28-.66l.6-1.25a3.77,3.77,0,0,0,1.1.59,3.55,3.55,0,0,0,1.15.21,1.23,1.23,0,0,0,.59-.12.41.41,0,0,0,.22-.38.47.47,0,0,0-.28-.43,4.4,4.4,0,0,0-.9-.34,9.15,9.15,0,0,1-1.1-.38,2,2,0,0,1-.75-.58,1.57,1.57,0,0,1-.31-1,1.75,1.75,0,0,1,.72-1.49,3,3,0,0,1,1.82-.52,5,5,0,0,1,1.32.18,4.36,4.36,0,0,1,1.2.54l-.64,1.26A5.58,5.58,0,0,0,477.35,106.77Z"/><path class="cls-4" d="M486.19,105.94a2.49,2.49,0,0,1,.64,1.8v4.06H485v-3.52a1.34,1.34,0,0,0-.34-1,1.26,1.26,0,0,0-.93-.35,1.44,1.44,0,0,0-1.09.47,1.8,1.8,0,0,0-.4,1.19v3.18h-1.85v-8.91h1.85v3.59a2.4,2.4,0,0,1,2.23-1.21A2.29,2.29,0,0,1,486.19,105.94Z"/><path class="cls-4" d="M492.16,111.8V111a2.1,2.1,0,0,1-.84.62,3,3,0,0,1-1.19.22,2.29,2.29,0,0,1-1.62-.56,1.9,1.9,0,0,1-.6-1.46,1.71,1.71,0,0,1,.64-1.42,2.94,2.94,0,0,1,1.82-.52h1.78v-.12a1,1,0,0,0-.35-.8,1.51,1.51,0,0,0-1-.28,4.05,4.05,0,0,0-1.92.56l-.57-1.27a8,8,0,0,1,1.44-.56,5.64,5.64,0,0,1,1.47-.18,3,3,0,0,1,2,.61,2.16,2.16,0,0,1,.73,1.7v4.22Zm-.52-1.52a1.08,1.08,0,0,0,.51-.69V109h-1.46a1.38,1.38,0,0,0-.79.18.59.59,0,0,0-.26.55.74.74,0,0,0,.27.6,1.11,1.11,0,0,0,.74.22A1.72,1.72,0,0,0,491.64,110.28Z"/><path class="cls-4" d="M498.29,105.59a2.56,2.56,0,0,1,1.26-.32V107h-.29a1.89,1.89,0,0,0-1.35.46,1.61,1.61,0,0,0-.5,1.23v3.11h-1.85v-6.46h1.85v1.16A2.41,2.41,0,0,1,498.29,105.59Z"/><path class="cls-4" d="M505.7,106.18a3.62,3.62,0,0,1,.81,2.51c0,.19,0,.34,0,.44h-4.63a1.66,1.66,0,0,0,.6,1,1.72,1.72,0,0,0,1.06.34,2.34,2.34,0,0,0,1.64-.69l1,1a3.18,3.18,0,0,1-1.2.84,3.91,3.91,0,0,1-1.56.3,3.71,3.71,0,0,1-1.78-.41,2.9,2.9,0,0,1-1.18-1.15,3.45,3.45,0,0,1-.41-1.72,3.49,3.49,0,0,1,.42-1.73,3,3,0,0,1,1.17-1.17,3.6,3.6,0,0,1,1.73-.41A3,3,0,0,1,505.7,106.18Zm-.93,1.86a1.48,1.48,0,0,0-.41-1,1.36,1.36,0,0,0-1-.38,1.41,1.41,0,0,0-1,.37,1.77,1.77,0,0,0-.51,1Z"/><path class="cls-4" d="M514.09,102.89v8.91h-1.83v-1a2.34,2.34,0,0,1-.87.76,2.58,2.58,0,0,1-1.17.26,3,3,0,0,1-1.6-.42,2.7,2.7,0,0,1-1.07-1.17,3.84,3.84,0,0,1-.38-1.74,3.74,3.74,0,0,1,.37-1.71,2.69,2.69,0,0,1,1.06-1.15,2.92,2.92,0,0,1,1.57-.41,2.4,2.4,0,0,1,2.09,1v-3.4Zm-2.28,7a2.07,2.07,0,0,0,0-2.58,1.61,1.61,0,0,0-2.33,0,2,2,0,0,0,0,2.58,1.61,1.61,0,0,0,2.33,0Z"/><path class="cls-4" d="M496.85,197.77a3.36,3.36,0,0,0-.92-.16,1,1,0,0,0-.54.12.39.39,0,0,0-.21.36.44.44,0,0,0,.28.41,4.79,4.79,0,0,0,.9.32,9.35,9.35,0,0,1,1.13.41,2,2,0,0,1,.76.58,1.55,1.55,0,0,1,.33,1,1.73,1.73,0,0,1-.74,1.49,3.11,3.11,0,0,1-1.89.54,4.79,4.79,0,0,1-1.52-.24,3.79,3.79,0,0,1-1.28-.66l.6-1.25a3.77,3.77,0,0,0,1.1.59,3.55,3.55,0,0,0,1.15.21,1.23,1.23,0,0,0,.59-.12.41.41,0,0,0,.22-.38.47.47,0,0,0-.28-.43,4.4,4.4,0,0,0-.9-.34,9.15,9.15,0,0,1-1.1-.38,2,2,0,0,1-.75-.58,1.57,1.57,0,0,1-.31-1,1.75,1.75,0,0,1,.72-1.49,3,3,0,0,1,1.82-.52,5,5,0,0,1,1.32.18,4.36,4.36,0,0,1,1.2.54l-.64,1.26A5.58,5.58,0,0,0,496.85,197.77Z"/><path class="cls-4" d="M503.81,202.44a3.36,3.36,0,0,1-.8.33,3.72,3.72,0,0,1-.88.11,2,2,0,0,1-1.46-.52,1.87,1.87,0,0,1-.57-1.47v-3h-.9v-1.27h.9v-1.78h1.84v1.78h1.75v1.28h-1.75v2.67c0,.49.19.74.59.74a2.09,2.09,0,0,0,.9-.24Z"/><path class="cls-4" d="M505.69,205.21a2.75,2.75,0,0,1-.93-.15,2.79,2.79,0,0,1-.82-.48l.78-1.33a1.33,1.33,0,0,0,.84.35.87.87,0,0,0,.85-.58l.18-.36-2.67-6.32h1.91l1.69,4.44,1.52-4.44h1.85l-2.83,7.18A2.41,2.41,0,0,1,505.69,205.21Z"/><path class="cls-4" d="M511.75,193.89h1.85v8.91h-1.85Z"/><path class="cls-4" d="M520.59,197.18a3.62,3.62,0,0,1,.81,2.51c0,.19,0,.34,0,.44h-4.63a1.66,1.66,0,0,0,.6,1,1.73,1.73,0,0,0,1.07.34,2.19,2.19,0,0,0,.87-.18,2.21,2.21,0,0,0,.76-.51l1,1a3.23,3.23,0,0,1-1.19.84,4,4,0,0,1-1.57.3,3.74,3.74,0,0,1-1.78-.41,2.9,2.9,0,0,1-1.18-1.15,3.56,3.56,0,0,1-.41-1.72,3.49,3.49,0,0,1,.42-1.73,3,3,0,0,1,1.17-1.17,3.62,3.62,0,0,1,1.73-.41A3,3,0,0,1,520.59,197.18Zm-.93,1.86a1.43,1.43,0,0,0-.41-1,1.34,1.34,0,0,0-1-.38,1.41,1.41,0,0,0-1,.37,1.77,1.77,0,0,0-.51,1Z"/><path class="cls-4" d="M525.64,197.77a3.49,3.49,0,0,0-.93-.16,1.08,1.08,0,0,0-.54.12.4.4,0,0,0-.2.36.45.45,0,0,0,.27.41,5.25,5.25,0,0,0,.91.32,8.55,8.55,0,0,1,1.12.41,2.07,2.07,0,0,1,.77.58,1.55,1.55,0,0,1,.32,1,1.72,1.72,0,0,1-.73,1.49,3.11,3.11,0,0,1-1.89.54,4.9,4.9,0,0,1-1.53-.24,3.83,3.83,0,0,1-1.27-.66l.6-1.25a3.64,3.64,0,0,0,1.1.59,3.5,3.5,0,0,0,1.14.21,1.28,1.28,0,0,0,.6-.12.41.41,0,0,0,.22-.38.47.47,0,0,0-.28-.43,4.31,4.31,0,0,0-.91-.34,9.81,9.81,0,0,1-1.1-.38,2,2,0,0,1-.75-.58,1.63,1.63,0,0,1-.31-1,1.75,1.75,0,0,1,.72-1.49,3,3,0,0,1,1.83-.52,5,5,0,0,1,1.32.18,4.36,4.36,0,0,1,1.2.54l-.64,1.26A5.58,5.58,0,0,0,525.64,197.77Z"/><path class="cls-4" d="M195.69,197.77a3.49,3.49,0,0,0-.93-.16,1.08,1.08,0,0,0-.54.12.4.4,0,0,0-.2.36.45.45,0,0,0,.27.41,5.4,5.4,0,0,0,.9.32,8.24,8.24,0,0,1,1.13.41,2.07,2.07,0,0,1,.77.58,1.55,1.55,0,0,1,.32,1,1.72,1.72,0,0,1-.73,1.49,3.15,3.15,0,0,1-1.89.54,4.9,4.9,0,0,1-1.53-.24A3.74,3.74,0,0,1,192,202l.6-1.25a3.64,3.64,0,0,0,1.1.59,3.45,3.45,0,0,0,1.14.21,1.28,1.28,0,0,0,.6-.12.41.41,0,0,0,.22-.38.47.47,0,0,0-.28-.43,4.31,4.31,0,0,0-.91-.34,9.81,9.81,0,0,1-1.1-.38,2,2,0,0,1-.75-.58,1.63,1.63,0,0,1-.31-1,1.75,1.75,0,0,1,.72-1.49,3,3,0,0,1,1.83-.52,5,5,0,0,1,1.32.18,4.36,4.36,0,0,1,1.2.54l-.64,1.26A5.58,5.58,0,0,0,195.69,197.77Z"/><path class="cls-4" d="M202.65,202.44a3.36,3.36,0,0,1-.8.33,3.79,3.79,0,0,1-.88.11,2.08,2.08,0,0,1-1.47-.52,1.9,1.9,0,0,1-.56-1.47v-3H198v-1.27h.9v-1.78h1.83v1.78h1.76v1.28h-1.76v2.67c0,.49.2.74.59.74a2.09,2.09,0,0,0,.9-.24Z"/><path class="cls-4" d="M204.53,205.21a2.81,2.81,0,0,1-.94-.15,2.62,2.62,0,0,1-.81-.48l.78-1.33a1.33,1.33,0,0,0,.84.35.88.88,0,0,0,.85-.58l.18-.36-2.68-6.32h1.91l1.69,4.44,1.53-4.44h1.85l-2.84,7.18A2.39,2.39,0,0,1,204.53,205.21Z"/><path class="cls-4" d="M210.59,193.89h1.85v8.91h-1.85Z"/><path class="cls-4" d="M219.43,197.18a3.62,3.62,0,0,1,.81,2.51c0,.19,0,.34,0,.44h-4.64a1.63,1.63,0,0,0,1.67,1.3,2.2,2.2,0,0,0,.88-.18,2.09,2.09,0,0,0,.75-.51l1,1a3.18,3.18,0,0,1-1.2.84,3.94,3.94,0,0,1-1.56.3,3.78,3.78,0,0,1-1.79-.41,2.88,2.88,0,0,1-1.17-1.15,3.45,3.45,0,0,1-.42-1.72,3.49,3.49,0,0,1,.42-1.73,3,3,0,0,1,1.18-1.17,3.6,3.6,0,0,1,1.73-.41A3,3,0,0,1,219.43,197.18ZM218.5,199a1.48,1.48,0,0,0-.41-1,1.37,1.37,0,0,0-1-.38,1.41,1.41,0,0,0-1,.37,1.77,1.77,0,0,0-.51,1Z"/><path class="cls-4" d="M224.47,197.77a3.36,3.36,0,0,0-.92-.16,1.05,1.05,0,0,0-.54.12.38.38,0,0,0-.2.36.45.45,0,0,0,.27.41,5.08,5.08,0,0,0,.9.32,8.76,8.76,0,0,1,1.13.41,2.15,2.15,0,0,1,.77.58,1.6,1.6,0,0,1,.32,1,1.73,1.73,0,0,1-.74,1.49,3.11,3.11,0,0,1-1.89.54,4.88,4.88,0,0,1-1.52-.24,3.74,3.74,0,0,1-1.27-.66l.6-1.25a3.53,3.53,0,0,0,1.1.59,3.45,3.45,0,0,0,1.14.21,1.28,1.28,0,0,0,.6-.12.43.43,0,0,0,.22-.38.48.48,0,0,0-.29-.43,4.18,4.18,0,0,0-.9-.34,9.15,9.15,0,0,1-1.1-.38,2,2,0,0,1-.75-.58,1.57,1.57,0,0,1-.31-1,1.75,1.75,0,0,1,.72-1.49,3,3,0,0,1,1.82-.52,5,5,0,0,1,1.32.18,4.36,4.36,0,0,1,1.2.54l-.63,1.26A5.66,5.66,0,0,0,224.47,197.77Z"/><path class="cls-5" d="M497.57,142.3v-.76a2.1,2.1,0,0,1-.84.62,2.94,2.94,0,0,1-1.19.22,2.29,2.29,0,0,1-1.62-.56,1.9,1.9,0,0,1-.6-1.46,1.74,1.74,0,0,1,.64-1.42,2.94,2.94,0,0,1,1.82-.52h1.78v-.12a1,1,0,0,0-.34-.8,1.56,1.56,0,0,0-1-.28,4.05,4.05,0,0,0-1.92.56l-.57-1.27a8,8,0,0,1,1.44-.56,5.69,5.69,0,0,1,1.47-.18,3,3,0,0,1,2,.61,2.16,2.16,0,0,1,.73,1.7v4.22Zm-.52-1.52a1.08,1.08,0,0,0,.51-.69v-.58h-1.45a1.41,1.41,0,0,0-.8.18.62.62,0,0,0-.26.55.74.74,0,0,0,.27.6,1.13,1.13,0,0,0,.74.22A1.72,1.72,0,0,0,497.05,140.78Z"/><path class="cls-5" d="M504,137.27a3.36,3.36,0,0,0-.92-.16,1,1,0,0,0-.54.12.39.39,0,0,0-.21.36.46.46,0,0,0,.28.41,4.79,4.79,0,0,0,.9.32,8.76,8.76,0,0,1,1.13.41,2.15,2.15,0,0,1,.77.58,1.6,1.6,0,0,1,.32,1,1.73,1.73,0,0,1-.74,1.49,3.11,3.11,0,0,1-1.89.54,4.84,4.84,0,0,1-1.52-.24,3.74,3.74,0,0,1-1.27-.66l.6-1.25a3.59,3.59,0,0,0,1.09.59,3.55,3.55,0,0,0,1.15.21,1.21,1.21,0,0,0,.59-.12.42.42,0,0,0,.23-.38.48.48,0,0,0-.29-.43,4.18,4.18,0,0,0-.9-.34,9.15,9.15,0,0,1-1.1-.38,2,2,0,0,1-.75-.58,1.57,1.57,0,0,1-.31-1,1.75,1.75,0,0,1,.72-1.49,3,3,0,0,1,1.82-.52,5,5,0,0,1,1.32.18,4.36,4.36,0,0,1,1.2.54l-.63,1.26A5.66,5.66,0,0,0,504,137.27Z"/><path class="cls-5" d="M510,137.27a3.36,3.36,0,0,0-.92-.16,1,1,0,0,0-.54.12.39.39,0,0,0-.21.36.44.44,0,0,0,.28.41,4.79,4.79,0,0,0,.9.32,9.35,9.35,0,0,1,1.13.41,2,2,0,0,1,.76.58,1.55,1.55,0,0,1,.33,1,1.73,1.73,0,0,1-.74,1.49,3.11,3.11,0,0,1-1.89.54,4.79,4.79,0,0,1-1.52-.24,3.79,3.79,0,0,1-1.28-.66l.6-1.25a3.77,3.77,0,0,0,1.1.59,3.55,3.55,0,0,0,1.15.21,1.23,1.23,0,0,0,.59-.12.41.41,0,0,0,.22-.38.47.47,0,0,0-.28-.43,4.4,4.4,0,0,0-.9-.34,9.15,9.15,0,0,1-1.1-.38,2,2,0,0,1-.75-.58,1.57,1.57,0,0,1-.31-1,1.75,1.75,0,0,1,.72-1.49,3,3,0,0,1,1.82-.52,5,5,0,0,1,1.32.18,4.36,4.36,0,0,1,1.2.54l-.64,1.26A5.58,5.58,0,0,0,510,137.27Z"/><path class="cls-5" d="M518.1,136.68a3.62,3.62,0,0,1,.81,2.51c0,.19,0,.34,0,.44h-4.63a1.63,1.63,0,0,0,1.67,1.3,2.23,2.23,0,0,0,.88-.18,2.09,2.09,0,0,0,.75-.51l1,1a3.07,3.07,0,0,1-1.19.84,4,4,0,0,1-1.57.3A3.74,3.74,0,0,1,514,142a2.82,2.82,0,0,1-1.17-1.15,3.45,3.45,0,0,1-.42-1.72,3.49,3.49,0,0,1,.42-1.73,3,3,0,0,1,1.18-1.17,3.6,3.6,0,0,1,1.73-.41A3,3,0,0,1,518.1,136.68Zm-.93,1.86a1.52,1.52,0,0,0-.41-1,1.37,1.37,0,0,0-1-.38,1.39,1.39,0,0,0-1,.37,1.77,1.77,0,0,0-.51,1Z"/><path class="cls-5" d="M524.11,141.94a3.29,3.29,0,0,1-.79.33,3.87,3.87,0,0,1-.89.11,2.06,2.06,0,0,1-1.46-.52,1.86,1.86,0,0,1-.56-1.47v-3h-.9v-1.27h.9v-1.78h1.83v1.78H524v1.28h-1.75v2.67c0,.49.2.74.59.74a2.09,2.09,0,0,0,.9-.24Z"/><path class="cls-5" d="M528.25,137.27a3.36,3.36,0,0,0-.92-.16,1.05,1.05,0,0,0-.54.12.38.38,0,0,0-.2.36.45.45,0,0,0,.27.41,5.4,5.4,0,0,0,.9.32,8.76,8.76,0,0,1,1.13.41,2.07,2.07,0,0,1,.77.58,1.6,1.6,0,0,1,.32,1,1.73,1.73,0,0,1-.74,1.49,3.11,3.11,0,0,1-1.89.54,4.88,4.88,0,0,1-1.52-.24,3.74,3.74,0,0,1-1.27-.66l.6-1.25a3.53,3.53,0,0,0,1.1.59,3.45,3.45,0,0,0,1.14.21,1.28,1.28,0,0,0,.6-.12.43.43,0,0,0,.22-.38.49.49,0,0,0-.28-.43,4.54,4.54,0,0,0-.91-.34,9.15,9.15,0,0,1-1.1-.38,2,2,0,0,1-.75-.58,1.57,1.57,0,0,1-.31-1,1.75,1.75,0,0,1,.72-1.49,3,3,0,0,1,1.82-.52,5,5,0,0,1,1.32.18,4.36,4.36,0,0,1,1.2.54l-.63,1.26A5.66,5.66,0,0,0,528.25,137.27Z"/><path class="cls-5" d="M518.36,227.19a2.82,2.82,0,0,1,1.07,1.17,3.9,3.9,0,0,1,.38,1.74,3.71,3.71,0,0,1-.37,1.71,2.73,2.73,0,0,1-1.05,1.15,3,3,0,0,1-1.58.41,2.64,2.64,0,0,1-1.19-.26,2.37,2.37,0,0,1-.89-.75v.94h-1.84v-8.91h1.84v3.4a2.39,2.39,0,0,1,.87-.75,2.64,2.64,0,0,1,1.17-.26A3.08,3.08,0,0,1,518.36,227.19Zm-.87,4.14a1.84,1.84,0,0,0,.45-1.29,1.81,1.81,0,0,0-.45-1.27,1.44,1.44,0,0,0-1.15-.5,1.47,1.47,0,0,0-1.16.5,1.81,1.81,0,0,0-.45,1.27,1.85,1.85,0,0,0,.45,1.3,1.5,1.5,0,0,0,1.16.49A1.44,1.44,0,0,0,517.49,231.33Z"/><path class="cls-5" d="M524.78,233.3v-.76a2.1,2.1,0,0,1-.84.62,3,3,0,0,1-1.19.22,2.29,2.29,0,0,1-1.62-.56,1.9,1.9,0,0,1-.6-1.46,1.71,1.71,0,0,1,.64-1.42,2.94,2.94,0,0,1,1.82-.52h1.78v-.12a1,1,0,0,0-.35-.8,1.51,1.51,0,0,0-1-.28,4.05,4.05,0,0,0-1.92.56l-.57-1.27a8,8,0,0,1,1.44-.56,5.64,5.64,0,0,1,1.47-.18,3,3,0,0,1,2,.61,2.16,2.16,0,0,1,.73,1.7v4.22Zm-.52-1.52a1.08,1.08,0,0,0,.51-.69v-.58h-1.46a1.38,1.38,0,0,0-.79.18.59.59,0,0,0-.26.55.74.74,0,0,0,.27.6,1.11,1.11,0,0,0,.74.22A1.72,1.72,0,0,0,524.26,231.78Z"/><path class="cls-5" d="M531.21,228.27a3.36,3.36,0,0,0-.92-.16,1,1,0,0,0-.54.12.39.39,0,0,0-.21.36.44.44,0,0,0,.28.41,4.79,4.79,0,0,0,.9.32,9.35,9.35,0,0,1,1.13.41,2,2,0,0,1,.76.58,1.55,1.55,0,0,1,.33,1,1.73,1.73,0,0,1-.74,1.49,3.11,3.11,0,0,1-1.89.54,4.79,4.79,0,0,1-1.52-.24,3.79,3.79,0,0,1-1.28-.66l.6-1.25a3.77,3.77,0,0,0,1.1.59,3.55,3.55,0,0,0,1.15.21,1.26,1.26,0,0,0,.59-.12.41.41,0,0,0,.22-.38.47.47,0,0,0-.28-.43,4.4,4.4,0,0,0-.9-.34,9.15,9.15,0,0,1-1.1-.38,2,2,0,0,1-.75-.58,1.57,1.57,0,0,1-.31-1,1.73,1.73,0,0,1,.72-1.49,3,3,0,0,1,1.82-.52,5,5,0,0,1,1.32.18,4.36,4.36,0,0,1,1.2.54l-.64,1.26A5.58,5.58,0,0,0,531.21,228.27Z"/><path class="cls-5" d="M539.32,227.68a3.62,3.62,0,0,1,.81,2.51c0,.19,0,.34,0,.44h-4.63a1.63,1.63,0,0,0,1.67,1.3,2.23,2.23,0,0,0,.88-.18,2.09,2.09,0,0,0,.75-.51l1,1a3.07,3.07,0,0,1-1.19.84,4,4,0,0,1-1.57.3,3.74,3.74,0,0,1-1.78-.41,2.82,2.82,0,0,1-1.17-1.15,3.45,3.45,0,0,1-.42-1.72,3.49,3.49,0,0,1,.42-1.73,3,3,0,0,1,1.18-1.17,3.6,3.6,0,0,1,1.73-.41A3,3,0,0,1,539.32,227.68Zm-.93,1.86a1.52,1.52,0,0,0-.41-1,1.37,1.37,0,0,0-1-.38,1.39,1.39,0,0,0-1,.37,1.77,1.77,0,0,0-.51,1Z"/><path class="cls-6" d="M493.31,222.71h6.85a1.44,1.44,0,0,1,1.44,1.45v11.61a1.43,1.43,0,0,1-1.44,1.44H481.22a1.44,1.44,0,0,1-1.45-1.44v-14.2a1.45,1.45,0,0,1,1.45-1.44h9.51a1.29,1.29,0,0,1,1.29,1.29h0A1.29,1.29,0,0,0,493.31,222.71Z"/><path class="cls-5" d="M515.69,258.68a1.46,1.46,0,0,0-1.13.48,1.78,1.78,0,0,0-.44,1.25,1.89,1.89,0,0,0,.43,1.27,1.43,1.43,0,0,0,1.11.48,1.68,1.68,0,0,0,1.5-.75l1.27.86a2.69,2.69,0,0,1-1.15,1.06,3.73,3.73,0,0,1-1.72.37,3.49,3.49,0,0,1-1.71-.41,2.8,2.8,0,0,1-1.16-1.15,3.45,3.45,0,0,1-.42-1.72,3.49,3.49,0,0,1,.42-1.73,2.82,2.82,0,0,1,1.16-1.16,3.5,3.5,0,0,1,1.74-.42,3.63,3.63,0,0,1,1.64.36,2.86,2.86,0,0,1,1.15,1l-1.25.9A1.74,1.74,0,0,0,515.69,258.68Z"/><path class="cls-5" d="M524.1,257.52a3,3,0,0,1,1.22,1.15,3.39,3.39,0,0,1,.43,1.73,3.35,3.35,0,0,1-.43,1.72,3.05,3.05,0,0,1-1.22,1.17,4.2,4.2,0,0,1-3.62,0,3,3,0,0,1-1.22-1.17,3.35,3.35,0,0,1-.43-1.72,3.39,3.39,0,0,1,.43-1.73,3,3,0,0,1,1.22-1.15,4.2,4.2,0,0,1,3.62,0Zm-3,1.62a2.06,2.06,0,0,0,0,2.57,1.5,1.5,0,0,0,1.17.49,1.48,1.48,0,0,0,1.16-.49,2.06,2.06,0,0,0,0-2.57,1.48,1.48,0,0,0-1.16-.49A1.5,1.5,0,0,0,521.12,259.14Z"/><path class="cls-5" d="M537.22,257.77a2.5,2.5,0,0,1,.63,1.8v4.06H536v-3.52a1.32,1.32,0,0,0-.34-1,1.2,1.2,0,0,0-.91-.35,1.33,1.33,0,0,0-1,.47,1.75,1.75,0,0,0-.39,1.18v3.19H531.5v-3.52a1.33,1.33,0,0,0-.33-1,1.17,1.17,0,0,0-.91-.36,1.37,1.37,0,0,0-1,.47,1.75,1.75,0,0,0-.39,1.18v3.19H527v-6.46h1.85v1.12a2.62,2.62,0,0,1,3.57-.8,2.16,2.16,0,0,1,.8,1.1,2.35,2.35,0,0,1,.91-1.11,2.78,2.78,0,0,1,1.42-.38A2.21,2.21,0,0,1,537.22,257.77Z"/><path class="cls-5" d="M545,257.53a2.7,2.7,0,0,1,1.07,1.17,3.84,3.84,0,0,1,.38,1.74,3.77,3.77,0,0,1-.38,1.71,2.63,2.63,0,0,1-1,1.14,3,3,0,0,1-1.57.41,2.71,2.71,0,0,1-1.2-.26,2.34,2.34,0,0,1-.88-.75V266H539.5v-8.79h1.85v.95a2.24,2.24,0,0,1,.87-.75,2.64,2.64,0,0,1,1.17-.26A3,3,0,0,1,545,257.53Zm-.87,4.14a1.92,1.92,0,0,0,.44-1.29,1.88,1.88,0,0,0-.44-1.28,1.58,1.58,0,0,0-2.31,0,2.06,2.06,0,0,0,0,2.57,1.61,1.61,0,0,0,2.31,0Z"/><path class="cls-5" d="M552.37,257.52a3,3,0,0,1,1.22,1.15,3.39,3.39,0,0,1,.43,1.73,3.35,3.35,0,0,1-.43,1.72,3,3,0,0,1-1.22,1.17,4.2,4.2,0,0,1-3.62,0,3,3,0,0,1-1.22-1.17,3.35,3.35,0,0,1-.43-1.72,3.39,3.39,0,0,1,.43-1.73,3,3,0,0,1,1.22-1.15,4.2,4.2,0,0,1,3.62,0Zm-3,1.62a2,2,0,0,0,0,2.57,1.62,1.62,0,0,0,2.32,0,2.06,2.06,0,0,0,0-2.57,1.62,1.62,0,0,0-2.32,0Z"/><path class="cls-5" d="M561.05,257.77a2.49,2.49,0,0,1,.64,1.8v4.06h-1.85v-3.52a1.3,1.3,0,0,0-.34-1,1.23,1.23,0,0,0-.93-.36,1.38,1.38,0,0,0-1.08.48,1.75,1.75,0,0,0-.4,1.18v3.18h-1.84v-6.46h1.84v1.13a2.44,2.44,0,0,1,2.24-1.2A2.26,2.26,0,0,1,561.05,257.77Z"/><path class="cls-5" d="M568.43,258a3.62,3.62,0,0,1,.81,2.51c0,.19,0,.34,0,.44h-4.64a1.77,1.77,0,0,0,.6,1,1.71,1.71,0,0,0,1.07.34,2.42,2.42,0,0,0,.88-.17,2.38,2.38,0,0,0,.75-.51l1,1a3.2,3.2,0,0,1-1.19.85,4.14,4.14,0,0,1-1.57.29,3.77,3.77,0,0,1-1.78-.41,2.76,2.76,0,0,1-1.17-1.15,3.45,3.45,0,0,1-.42-1.72,3.49,3.49,0,0,1,.42-1.73,2.87,2.87,0,0,1,1.18-1.16,3.49,3.49,0,0,1,1.73-.42A3,3,0,0,1,568.43,258Zm-.93,1.86a1.48,1.48,0,0,0-.41-1,1.41,1.41,0,0,0-1-.38,1.36,1.36,0,0,0-1,.38,1.72,1.72,0,0,0-.51,1Z"/><path class="cls-5" d="M576.25,257.77a2.49,2.49,0,0,1,.64,1.8v4.06h-1.84v-3.52a1.3,1.3,0,0,0-.35-1,1.21,1.21,0,0,0-.93-.36,1.41,1.41,0,0,0-1.08.48,1.75,1.75,0,0,0-.39,1.18v3.18h-1.85v-6.46h1.85v1.13a2.42,2.42,0,0,1,2.23-1.2A2.26,2.26,0,0,1,576.25,257.77Z"/><path class="cls-5" d="M582.48,263.27a3.29,3.29,0,0,1-.79.33,3.79,3.79,0,0,1-.88.11,2.1,2.1,0,0,1-1.47-.51,1.94,1.94,0,0,1-.56-1.48v-3h-.9v-1.27h.9v-1.78h1.83v1.78h1.75v1.28h-1.75v2.67c0,.49.2.74.59.74a2.09,2.09,0,0,0,.9-.24Z"/><path class="cls-5" d="M586.63,258.61a3.17,3.17,0,0,0-.93-.17,1.2,1.2,0,0,0-.54.12.38.38,0,0,0-.2.36.44.44,0,0,0,.27.41,5.24,5.24,0,0,0,.9.33,8.37,8.37,0,0,1,1.13.4,2.09,2.09,0,0,1,.77.59,1.52,1.52,0,0,1,.32,1,1.75,1.75,0,0,1-.73,1.5,3.22,3.22,0,0,1-1.89.53,5.2,5.2,0,0,1-1.53-.23,3.94,3.94,0,0,1-1.27-.67l.6-1.25a3.67,3.67,0,0,0,1.1.6,3.45,3.45,0,0,0,1.14.21,1.27,1.27,0,0,0,.6-.13.4.4,0,0,0,.22-.38.47.47,0,0,0-.28-.43,5,5,0,0,0-.91-.34,8.14,8.14,0,0,1-1.1-.38,2,2,0,0,1-.75-.58,1.63,1.63,0,0,1-.31-1,1.73,1.73,0,0,1,.72-1.48,3,3,0,0,1,1.83-.53,4.87,4.87,0,0,1,1.31.18,4.59,4.59,0,0,1,1.21.54l-.64,1.26A4.94,4.94,0,0,0,586.63,258.61Z"/><path class="cls-6" d="M493.31,253.05h6.85a1.43,1.43,0,0,1,1.44,1.44V266.1a1.44,1.44,0,0,1-1.44,1.45H481.22a1.45,1.45,0,0,1-1.45-1.45V251.91a1.45,1.45,0,0,1,1.45-1.45h9.51a1.29,1.29,0,0,1,1.29,1.29h0A1.3,1.3,0,0,0,493.31,253.05Z"/><path class="cls-5" d="M515.69,288.68a1.46,1.46,0,0,0-1.13.48,1.78,1.78,0,0,0-.44,1.25,1.89,1.89,0,0,0,.43,1.27,1.43,1.43,0,0,0,1.11.48,1.68,1.68,0,0,0,1.5-.75l1.27.86a2.69,2.69,0,0,1-1.15,1.06,3.73,3.73,0,0,1-1.72.37,3.49,3.49,0,0,1-1.71-.41,2.8,2.8,0,0,1-1.16-1.15,3.45,3.45,0,0,1-.42-1.72,3.49,3.49,0,0,1,.42-1.73,2.82,2.82,0,0,1,1.16-1.16,3.5,3.5,0,0,1,1.74-.42,3.63,3.63,0,0,1,1.64.36,2.86,2.86,0,0,1,1.15,1l-1.25.9A1.74,1.74,0,0,0,515.69,288.68Z"/><path class="cls-5" d="M524.1,287.52a3,3,0,0,1,1.22,1.15,3.39,3.39,0,0,1,.43,1.73,3.35,3.35,0,0,1-.43,1.72,3.05,3.05,0,0,1-1.22,1.17,4.2,4.2,0,0,1-3.62,0,3,3,0,0,1-1.22-1.17,3.35,3.35,0,0,1-.43-1.72,3.39,3.39,0,0,1,.43-1.73,3,3,0,0,1,1.22-1.15,4.2,4.2,0,0,1,3.62,0Zm-3,1.62a2.06,2.06,0,0,0,0,2.57,1.5,1.5,0,0,0,1.17.49,1.48,1.48,0,0,0,1.16-.49,2.06,2.06,0,0,0,0-2.57,1.48,1.48,0,0,0-1.16-.49A1.5,1.5,0,0,0,521.12,289.14Z"/><path class="cls-5" d="M532.78,287.77a2.54,2.54,0,0,1,.64,1.8v4.06h-1.85v-3.52a1.3,1.3,0,0,0-.34-1,1.23,1.23,0,0,0-.93-.36,1.38,1.38,0,0,0-1.08.48,1.71,1.71,0,0,0-.4,1.18v3.18H527v-6.46h1.85v1.13a2.43,2.43,0,0,1,2.23-1.2A2.28,2.28,0,0,1,532.78,287.77Z"/><path class="cls-5" d="M537.41,286.36a.7.7,0,0,0-.21.56v.54h1.52v1.28H537.2v4.89h-1.84v-4.89h-.86v-1.28h.86v-.61a2.22,2.22,0,0,1,.32-1.2,2,2,0,0,1,.86-.75,2.78,2.78,0,0,1,1.2-.26,3.47,3.47,0,0,1,1.27.26l-.28,1.44a3.4,3.4,0,0,0-.38-.12,1.36,1.36,0,0,0-.38-.06A.82.82,0,0,0,537.41,286.36Zm3.8-1.77a1.13,1.13,0,0,1,0,1.49,1,1,0,0,1-.72.29,1,1,0,0,1-.72-.3,1,1,0,0,1-.28-.73,1,1,0,0,1,.28-.75,1,1,0,0,1,1.44,0Zm-1.64,2.58h1.85v6.46h-1.85Z"/><path class="cls-5" d="M549.25,287.17V293a2.87,2.87,0,0,1-.44,1.59,2.75,2.75,0,0,1-1.21,1,4.11,4.11,0,0,1-1.8.37,4.91,4.91,0,0,1-1.5-.23,5.26,5.26,0,0,1-1.31-.62l.69-1.3a3.39,3.39,0,0,0,2,.65,1.9,1.9,0,0,0,1.26-.39,1.3,1.3,0,0,0,.47-1.05v-.73a2.18,2.18,0,0,1-.82.69,2.49,2.49,0,0,1-1.12.24,2.74,2.74,0,0,1-1.47-.39,2.61,2.61,0,0,1-1-1.1,3.52,3.52,0,0,1-.35-1.63,3.4,3.4,0,0,1,.35-1.6,2.59,2.59,0,0,1,1-1.07,2.74,2.74,0,0,1,1.47-.39,2.52,2.52,0,0,1,1.11.25,2.22,2.22,0,0,1,.83.69v-.88ZM547,291.43a2,2,0,0,0,0-2.42,1.5,1.5,0,0,0-2.18,0,1.9,1.9,0,0,0,0,2.42,1.53,1.53,0,0,0,2.19,0Z"/><path class="cls-6" d="M493.31,283.05h6.85a1.43,1.43,0,0,1,1.44,1.44V296.1a1.44,1.44,0,0,1-1.44,1.45H481.22a1.45,1.45,0,0,1-1.45-1.45V281.91a1.45,1.45,0,0,1,1.45-1.45h9.51a1.29,1.29,0,0,1,1.29,1.29h0A1.3,1.3,0,0,0,493.31,283.05Z"/><path class="cls-5" d="M518.36,349.19a2.82,2.82,0,0,1,1.07,1.17,3.9,3.9,0,0,1,.38,1.74,3.71,3.71,0,0,1-.37,1.71,2.73,2.73,0,0,1-1.05,1.15,3,3,0,0,1-1.58.41,2.64,2.64,0,0,1-1.19-.26,2.37,2.37,0,0,1-.89-.75v3.26h-1.84v-8.78h1.84v1a2.39,2.39,0,0,1,.87-.75,2.64,2.64,0,0,1,1.17-.26A3.08,3.08,0,0,1,518.36,349.19Zm-.87,4.14a1.84,1.84,0,0,0,.45-1.29,1.81,1.81,0,0,0-.45-1.27,1.44,1.44,0,0,0-1.15-.5,1.47,1.47,0,0,0-1.16.5,1.81,1.81,0,0,0-.45,1.27,1.85,1.85,0,0,0,.45,1.3,1.5,1.5,0,0,0,1.16.49A1.44,1.44,0,0,0,517.49,353.33Z"/><path class="cls-5" d="M524.78,355.3v-.76a2.1,2.1,0,0,1-.84.62,3,3,0,0,1-1.19.22,2.29,2.29,0,0,1-1.62-.56,1.9,1.9,0,0,1-.6-1.46,1.71,1.71,0,0,1,.64-1.42,2.94,2.94,0,0,1,1.82-.52h1.78v-.12a1,1,0,0,0-.35-.8,1.51,1.51,0,0,0-1-.28,4.05,4.05,0,0,0-1.92.56l-.57-1.27a8,8,0,0,1,1.44-.56,5.64,5.64,0,0,1,1.47-.18,3,3,0,0,1,2,.61,2.16,2.16,0,0,1,.73,1.7v4.22Zm-.52-1.52a1.08,1.08,0,0,0,.51-.69v-.58h-1.46a1.38,1.38,0,0,0-.79.18.59.59,0,0,0-.26.55.74.74,0,0,0,.27.6,1.11,1.11,0,0,0,.74.22A1.72,1.72,0,0,0,524.26,353.78Z"/><path class="cls-5" d="M530.91,349.09a2.56,2.56,0,0,1,1.26-.32v1.74h-.29a1.89,1.89,0,0,0-1.35.46,1.61,1.61,0,0,0-.5,1.23v3.11h-1.84v-6.46H530V350A2.41,2.41,0,0,1,530.91,349.09Z"/><path class="cls-5" d="M537.17,354.94a3.29,3.29,0,0,1-.79.33,3.87,3.87,0,0,1-.89.11,2.06,2.06,0,0,1-1.46-.52,1.86,1.86,0,0,1-.56-1.47v-3h-.9v-1.27h.9v-1.78h1.83v1.78h1.75v1.28H535.3v2.67c0,.49.2.74.59.74a2.09,2.09,0,0,0,.9-.24Z"/><path class="cls-5" d="M539.93,346.26a1.13,1.13,0,0,1,0,1.49,1,1,0,0,1-.73.29.93.93,0,0,1-.71-.3,1.12,1.12,0,0,1,0-1.48,1,1,0,0,1,.71-.29A1,1,0,0,1,539.93,346.26Zm-1.64,2.58h1.85v6.46h-1.85Z"/><path class="cls-5" d="M545.66,355.3v-.76a2.1,2.1,0,0,1-.84.62,3,3,0,0,1-1.19.22,2.29,2.29,0,0,1-1.62-.56,1.9,1.9,0,0,1-.6-1.46,1.71,1.71,0,0,1,.64-1.42,2.94,2.94,0,0,1,1.82-.52h1.78v-.12a1,1,0,0,0-.35-.8,1.51,1.51,0,0,0-1-.28,4.05,4.05,0,0,0-1.92.56l-.57-1.27a8,8,0,0,1,1.44-.56,5.64,5.64,0,0,1,1.47-.18,3,3,0,0,1,2,.61,2.16,2.16,0,0,1,.73,1.7v4.22Zm-.52-1.52a1.08,1.08,0,0,0,.51-.69v-.58h-1.46a1.38,1.38,0,0,0-.79.18.59.59,0,0,0-.26.55.74.74,0,0,0,.27.6,1.11,1.11,0,0,0,.74.22A1.72,1.72,0,0,0,545.14,353.78Z"/><path class="cls-5" d="M549.13,346.39H551v8.91h-1.84Z"/><path class="cls-5" d="M555.85,350.27a3.49,3.49,0,0,0-.93-.16,1.08,1.08,0,0,0-.54.12.38.38,0,0,0-.2.36.45.45,0,0,0,.27.41,5.4,5.4,0,0,0,.9.32,8.24,8.24,0,0,1,1.13.41,2.07,2.07,0,0,1,.77.58,1.55,1.55,0,0,1,.32,1,1.72,1.72,0,0,1-.73,1.49,3.16,3.16,0,0,1-1.9.54,4.88,4.88,0,0,1-1.52-.24,3.74,3.74,0,0,1-1.27-.66l.6-1.25a3.64,3.64,0,0,0,1.1.59A3.45,3.45,0,0,0,555,354a1.28,1.28,0,0,0,.6-.12.43.43,0,0,0,.22-.38.47.47,0,0,0-.28-.43,4.31,4.31,0,0,0-.91-.34,9.15,9.15,0,0,1-1.1-.38,2,2,0,0,1-.75-.58,1.57,1.57,0,0,1-.31-1,1.75,1.75,0,0,1,.72-1.49,3,3,0,0,1,1.83-.52,4.92,4.92,0,0,1,1.31.18,4.11,4.11,0,0,1,1.2.54l-.63,1.26A5.58,5.58,0,0,0,555.85,350.27Z"/><path class="cls-6" d="M493.31,344.71h6.85a1.44,1.44,0,0,1,1.44,1.45v11.61a1.43,1.43,0,0,1-1.44,1.44H481.22a1.44,1.44,0,0,1-1.45-1.44v-14.2a1.45,1.45,0,0,1,1.45-1.44h9.51a1.29,1.29,0,0,1,1.29,1.29h0A1.29,1.29,0,0,0,493.31,344.71Z"/><path class="cls-5" d="M523.07,319.26a2.5,2.5,0,0,1,.63,1.8v4.06h-1.84V321.6a1.36,1.36,0,0,0-.33-1,1.24,1.24,0,0,0-.92-.35,1.35,1.35,0,0,0-1,.47,1.76,1.76,0,0,0-.38,1.18v3.19h-1.84V321.6a1.35,1.35,0,0,0-.33-1,1.17,1.17,0,0,0-.91-.36,1.37,1.37,0,0,0-1.05.47,1.77,1.77,0,0,0-.39,1.18v3.19h-1.84v-6.46h1.84v1.12a2.62,2.62,0,0,1,3.57-.8,2.16,2.16,0,0,1,.8,1.1A2.28,2.28,0,0,1,520,319a2.69,2.69,0,0,1,1.42-.39A2.21,2.21,0,0,1,523.07,319.26Z"/><path class="cls-5" d="M530,319a2.92,2.92,0,0,1,1.21,1.15,3.4,3.4,0,0,1,.44,1.73,3.36,3.36,0,0,1-.44,1.72,3,3,0,0,1-1.21,1.17,4.22,4.22,0,0,1-3.63,0,3.05,3.05,0,0,1-1.22-1.17,3.46,3.46,0,0,1-.43-1.72,3.49,3.49,0,0,1,.43-1.73,3,3,0,0,1,1.22-1.15,4.22,4.22,0,0,1,3.63,0Zm-3,1.62a2.06,2.06,0,0,0,0,2.57,1.63,1.63,0,0,0,2.33,0,2.06,2.06,0,0,0,0-2.57,1.63,1.63,0,0,0-2.33,0Z"/><path class="cls-5" d="M539.26,316.22v8.9h-1.83v-.95a2.26,2.26,0,0,1-.87.76,2.46,2.46,0,0,1-1.17.26,3.13,3.13,0,0,1-1.61-.41,2.8,2.8,0,0,1-1.06-1.17,4.18,4.18,0,0,1,0-3.46,2.74,2.74,0,0,1,1.06-1.15,3,3,0,0,1,1.57-.41,2.4,2.4,0,0,1,2.09,1v-3.39Zm-2.28,7a1.88,1.88,0,0,0,.45-1.29,1.84,1.84,0,0,0-.45-1.29,1.61,1.61,0,0,0-2.33,0,1.85,1.85,0,0,0-.46,1.29,1.88,1.88,0,0,0,.46,1.29,1.63,1.63,0,0,0,2.33,0Z"/><path class="cls-5" d="M547.24,318.66v6.46h-1.83V324a2.27,2.27,0,0,1-2.16,1.21,2.23,2.23,0,0,1-1.7-.66,2.54,2.54,0,0,1-.63-1.81v-4.06h1.85v3.53a1.33,1.33,0,0,0,.32,1,1.17,1.17,0,0,0,.89.35,1.3,1.3,0,0,0,1-.47,1.72,1.72,0,0,0,.39-1.17v-3.2Z"/><path class="cls-5" d="M549.09,316.22h1.85v8.9h-1.85Z"/><path class="cls-5" d="M557.93,319.5a3.62,3.62,0,0,1,.81,2.51c0,.19,0,.34,0,.45h-4.64a1.78,1.78,0,0,0,.6,1,1.71,1.71,0,0,0,1.07.34,2.42,2.42,0,0,0,.88-.17,2.38,2.38,0,0,0,.75-.51l1,1a3.2,3.2,0,0,1-1.19.85,4.14,4.14,0,0,1-1.57.29,3.65,3.65,0,0,1-1.78-.41,2.76,2.76,0,0,1-1.17-1.15,3.41,3.41,0,0,1-.42-1.71,3.5,3.5,0,0,1,.42-1.74,2.87,2.87,0,0,1,1.18-1.16,3.49,3.49,0,0,1,1.73-.42A3,3,0,0,1,557.93,319.5Zm-.93,1.86a1.48,1.48,0,0,0-.41-1,1.41,1.41,0,0,0-1-.38,1.4,1.4,0,0,0-1,.38,1.72,1.72,0,0,0-.51,1Z"/><path class="cls-5" d="M563,320.1a3,3,0,0,0-.92-.16,1.05,1.05,0,0,0-.54.12.38.38,0,0,0-.2.36.44.44,0,0,0,.27.4,4.93,4.93,0,0,0,.9.33,8.9,8.9,0,0,1,1.13.4,2.18,2.18,0,0,1,.77.59,1.58,1.58,0,0,1,.32,1,1.76,1.76,0,0,1-.74,1.5,3.18,3.18,0,0,1-1.89.53,5.18,5.18,0,0,1-1.52-.23,3.94,3.94,0,0,1-1.27-.67l.6-1.25a3.55,3.55,0,0,0,1.1.6,3.45,3.45,0,0,0,1.14.21,1.16,1.16,0,0,0,.6-.13.42.42,0,0,0,.22-.38.49.49,0,0,0-.29-.43,4.93,4.93,0,0,0-.9-.33,9,9,0,0,1-1.1-.39,2,2,0,0,1-.75-.58,1.56,1.56,0,0,1-.31-1,1.74,1.74,0,0,1,.72-1.49,3,3,0,0,1,1.82-.53,4.63,4.63,0,0,1,1.32.19,4.34,4.34,0,0,1,1.2.53l-.63,1.26A5.6,5.6,0,0,0,563,320.1Z"/><path class="cls-6" d="M493.31,314.54h6.85A1.43,1.43,0,0,1,501.6,316v11.61a1.44,1.44,0,0,1-1.44,1.45H481.22a1.45,1.45,0,0,1-1.45-1.45V313.4a1.45,1.45,0,0,1,1.45-1.45h9.51a1.29,1.29,0,0,1,1.29,1.29h0A1.3,1.3,0,0,0,493.31,314.54Z"/><path class="cls-5" d="M516.82,385.27a3.2,3.2,0,0,1-.8.33,3.72,3.72,0,0,1-.88.11,2.08,2.08,0,0,1-1.46-.51,1.91,1.91,0,0,1-.57-1.48v-3h-.9v-1.27h.9v-1.78H515v1.78h1.75v1.28H515v2.67c0,.49.2.74.59.74a2.09,2.09,0,0,0,.9-.24Z"/><path class="cls-5" d="M523,380a3.62,3.62,0,0,1,.81,2.51c0,.19,0,.34,0,.44H519.2a1.63,1.63,0,0,0,1.67,1.3,2.36,2.36,0,0,0,.87-.17,2.54,2.54,0,0,0,.76-.51l1,1a3.37,3.37,0,0,1-1.19.85,4.14,4.14,0,0,1-1.57.29,3.74,3.74,0,0,1-1.78-.41,2.84,2.84,0,0,1-1.18-1.15,3.56,3.56,0,0,1-.41-1.72,3.49,3.49,0,0,1,.42-1.73,2.9,2.9,0,0,1,1.17-1.16,3.52,3.52,0,0,1,1.73-.42A3,3,0,0,1,523,380Zm-.93,1.86a1.43,1.43,0,0,0-.41-1,1.53,1.53,0,0,0-2,0,1.72,1.72,0,0,0-.51,1Z"/><path class="cls-5" d="M535.3,379.77a2.5,2.5,0,0,1,.63,1.8v4.06h-1.84v-3.52a1.32,1.32,0,0,0-.34-1,1.2,1.2,0,0,0-.91-.35,1.33,1.33,0,0,0-1,.47,1.75,1.75,0,0,0-.39,1.18v3.19h-1.83v-3.52a1.33,1.33,0,0,0-.33-1,1.17,1.17,0,0,0-.91-.36,1.37,1.37,0,0,0-1.05.47,1.75,1.75,0,0,0-.39,1.18v3.19h-1.85v-6.46h1.85v1.12a2.62,2.62,0,0,1,3.57-.8,2.16,2.16,0,0,1,.8,1.1,2.35,2.35,0,0,1,.91-1.11,2.78,2.78,0,0,1,1.42-.38A2.21,2.21,0,0,1,535.3,379.77Z"/><path class="cls-5" d="M543.06,379.53a2.7,2.7,0,0,1,1.07,1.17,3.84,3.84,0,0,1,.38,1.74,3.77,3.77,0,0,1-.38,1.71,2.63,2.63,0,0,1-1,1.14,3,3,0,0,1-1.57.41,2.71,2.71,0,0,1-1.2-.26,2.34,2.34,0,0,1-.88-.75V388h-1.85v-8.79h1.85v.95a2.24,2.24,0,0,1,.87-.75,2.64,2.64,0,0,1,1.17-.26A3,3,0,0,1,543.06,379.53Zm-.87,4.14a1.92,1.92,0,0,0,.44-1.29,1.88,1.88,0,0,0-.44-1.28,1.58,1.58,0,0,0-2.31,0,2.06,2.06,0,0,0,0,2.57,1.61,1.61,0,0,0,2.31,0Z"/><path class="cls-5" d="M545.79,376.72h1.85v8.91h-1.85Z"/><path class="cls-5" d="M553.23,385.63v-.76a2.22,2.22,0,0,1-.84.63,3.12,3.12,0,0,1-1.19.21,2.25,2.25,0,0,1-1.62-.56,1.88,1.88,0,0,1-.6-1.45,1.72,1.72,0,0,1,.64-1.43,3,3,0,0,1,1.82-.52h1.78v-.12a1,1,0,0,0-.34-.8,1.62,1.62,0,0,0-1-.28,4,4,0,0,0-1.92.57l-.57-1.28a8,8,0,0,1,1.44-.56,5.69,5.69,0,0,1,1.47-.18,3,3,0,0,1,2,.61,2.17,2.17,0,0,1,.73,1.71v4.21Zm-.52-1.51a1.12,1.12,0,0,0,.51-.7v-.58h-1.45a1.39,1.39,0,0,0-.8.18.62.62,0,0,0-.26.56.74.74,0,0,0,.27.59,1.11,1.11,0,0,0,.74.22A1.79,1.79,0,0,0,552.71,384.12Z"/><path class="cls-5" d="M560.63,385.27a3.29,3.29,0,0,1-.79.33,3.87,3.87,0,0,1-.89.11,2.1,2.1,0,0,1-1.46-.51,1.9,1.9,0,0,1-.56-1.48v-3H556v-1.27h.9v-1.78h1.83v1.78h1.75v1.28h-1.75v2.67c0,.49.2.74.59.74a2.09,2.09,0,0,0,.9-.24Z"/><path class="cls-5" d="M566.84,380a3.62,3.62,0,0,1,.81,2.51c0,.19,0,.34,0,.44H563a1.63,1.63,0,0,0,1.67,1.3,2.36,2.36,0,0,0,.87-.17,2.54,2.54,0,0,0,.76-.51l1,1a3.29,3.29,0,0,1-1.19.85,4.14,4.14,0,0,1-1.57.29,3.74,3.74,0,0,1-1.78-.41,2.84,2.84,0,0,1-1.18-1.15,3.56,3.56,0,0,1-.41-1.72,3.49,3.49,0,0,1,.42-1.73,2.9,2.9,0,0,1,1.17-1.16,3.52,3.52,0,0,1,1.73-.42A3,3,0,0,1,566.84,380Zm-.93,1.86a1.47,1.47,0,0,0-.4-1,1.42,1.42,0,0,0-1-.38,1.37,1.37,0,0,0-1,.38,1.84,1.84,0,0,0-.51,1Z"/><path class="cls-5" d="M571.89,380.61a3.06,3.06,0,0,0-.92-.17,1.14,1.14,0,0,0-.54.12.39.39,0,0,0-.21.36.43.43,0,0,0,.28.41,4.65,4.65,0,0,0,.9.33,8.69,8.69,0,0,1,1.12.4,2,2,0,0,1,.77.59,1.53,1.53,0,0,1,.33,1,1.76,1.76,0,0,1-.74,1.5,3.18,3.18,0,0,1-1.89.53,5.08,5.08,0,0,1-1.52-.23,4,4,0,0,1-1.28-.67l.6-1.25a3.79,3.79,0,0,0,1.1.6,3.55,3.55,0,0,0,1.15.21,1.26,1.26,0,0,0,.59-.13.4.4,0,0,0,.22-.38.47.47,0,0,0-.28-.43,5.09,5.09,0,0,0-.9-.34,7.68,7.68,0,0,1-1.1-.38,1.86,1.86,0,0,1-.75-.58,1.57,1.57,0,0,1-.31-1,1.71,1.71,0,0,1,.72-1.48,2.91,2.91,0,0,1,1.82-.53,5,5,0,0,1,1.32.18,4.68,4.68,0,0,1,1.2.54l-.64,1.26A4.94,4.94,0,0,0,571.89,380.61Z"/><path class="cls-6" d="M493.31,375.05h6.85a1.43,1.43,0,0,1,1.44,1.44V388.1a1.44,1.44,0,0,1-1.44,1.45H481.22a1.45,1.45,0,0,1-1.45-1.45V373.91a1.45,1.45,0,0,1,1.45-1.45h9.51a1.29,1.29,0,0,1,1.29,1.29h0A1.3,1.3,0,0,0,493.31,375.05Z"/><path class="cls-5" d="M519,409.51V416h-1.84v-1.14a2.53,2.53,0,0,1-3.86.55,2.54,2.54,0,0,1-.63-1.81v-4.05h1.85V413a1.33,1.33,0,0,0,.33,1,1.11,1.11,0,0,0,.88.35,1.33,1.33,0,0,0,1-.47,1.77,1.77,0,0,0,.38-1.17v-3.19Z"/><path class="cls-5" d="M524.74,415.6a2.59,2.59,0,0,1-.8.33,3.28,3.28,0,0,1-.88.12,2.08,2.08,0,0,1-1.46-.52,1.89,1.89,0,0,1-.57-1.48v-3h-.9v-1.28h.9V408h1.84v1.77h1.75v1.29h-1.75v2.66c0,.5.2.75.59.75a2.09,2.09,0,0,0,.9-.24Z"/><path class="cls-5" d="M527.5,406.93a1.12,1.12,0,0,1,0,1.48,1,1,0,0,1-1.44,0,1,1,0,0,1-.29-.74,1,1,0,0,1,.29-.74.91.91,0,0,1,.71-.29A1,1,0,0,1,527.5,406.93Zm-1.64,2.58h1.85V416h-1.85Z"/><path class="cls-5" d="M529.54,407.06h1.85V416h-1.85Z"/><path class="cls-5" d="M536.26,410.94a3,3,0,0,0-.92-.16,1,1,0,0,0-.54.12.39.39,0,0,0-.21.36.47.47,0,0,0,.28.41,5.64,5.64,0,0,0,.9.32,10.8,10.8,0,0,1,1.13.4,2.18,2.18,0,0,1,.77.59,1.59,1.59,0,0,1,.32,1,1.74,1.74,0,0,1-.74,1.49,3.11,3.11,0,0,1-1.89.53,4.79,4.79,0,0,1-1.52-.23,4.1,4.1,0,0,1-1.28-.67l.61-1.24a3.82,3.82,0,0,0,1.09.59,3.55,3.55,0,0,0,1.15.21,1.12,1.12,0,0,0,.59-.13.4.4,0,0,0,.23-.37.49.49,0,0,0-.29-.44,4.93,4.93,0,0,0-.9-.33,9,9,0,0,1-1.1-.39,1.91,1.91,0,0,1-.75-.58,1.56,1.56,0,0,1-.31-1,1.74,1.74,0,0,1,.72-1.49,3,3,0,0,1,1.82-.53,4.63,4.63,0,0,1,1.32.19,4.34,4.34,0,0,1,1.2.53l-.63,1.26A5.89,5.89,0,0,0,536.26,410.94Z"/><path class="cls-6" d="M493.31,405.38h6.85a1.44,1.44,0,0,1,1.44,1.44v11.61a1.44,1.44,0,0,1-1.44,1.45H481.22a1.45,1.45,0,0,1-1.45-1.45V404.24a1.44,1.44,0,0,1,1.45-1.44h9.51a1.29,1.29,0,0,1,1.29,1.29h0A1.29,1.29,0,0,0,493.31,405.38Z"/><path class="cls-5" d="M217.2,227.19a2.82,2.82,0,0,1,1.07,1.17,3.9,3.9,0,0,1,.38,1.74,3.71,3.71,0,0,1-.38,1.71,2.6,2.6,0,0,1-1.05,1.15,3,3,0,0,1-1.57.41,2.71,2.71,0,0,1-1.2-.26,2.34,2.34,0,0,1-.88-.75v.94h-1.85v-8.91h1.85v3.4a2.24,2.24,0,0,1,.87-.75,2.64,2.64,0,0,1,1.17-.26A3.08,3.08,0,0,1,217.2,227.19Zm-.87,4.14a1.84,1.84,0,0,0,.44-1.29,1.8,1.8,0,0,0-.44-1.27,1.45,1.45,0,0,0-1.15-.5,1.47,1.47,0,0,0-1.16.5,1.81,1.81,0,0,0-.45,1.27,1.85,1.85,0,0,0,.45,1.3,1.5,1.5,0,0,0,1.16.49A1.45,1.45,0,0,0,216.33,231.33Z"/><path class="cls-5" d="M223.61,233.3v-.76a2,2,0,0,1-.84.62,2.92,2.92,0,0,1-1.18.22,2.29,2.29,0,0,1-1.62-.56,1.9,1.9,0,0,1-.6-1.46,1.71,1.71,0,0,1,.64-1.42,2.92,2.92,0,0,1,1.82-.52h1.77v-.12a1,1,0,0,0-.34-.8,1.53,1.53,0,0,0-1-.28,4.05,4.05,0,0,0-1.92.56l-.58-1.27a8,8,0,0,1,1.44-.56,5.72,5.72,0,0,1,1.48-.18,3,3,0,0,1,2,.61,2.15,2.15,0,0,1,.72,1.7l0,4.22Zm-.51-1.52a1,1,0,0,0,.5-.69v-.58h-1.45a1.41,1.41,0,0,0-.8.18.62.62,0,0,0-.26.55.74.74,0,0,0,.27.6,1.13,1.13,0,0,0,.74.22A1.73,1.73,0,0,0,223.1,231.78Z"/><path class="cls-5" d="M230.05,228.27a3.49,3.49,0,0,0-.93-.16,1.08,1.08,0,0,0-.54.12.38.38,0,0,0-.2.36.45.45,0,0,0,.27.41,5.4,5.4,0,0,0,.9.32,8.24,8.24,0,0,1,1.13.41,2.07,2.07,0,0,1,.77.58,1.55,1.55,0,0,1,.32,1,1.72,1.72,0,0,1-.73,1.49,3.15,3.15,0,0,1-1.89.54,4.9,4.9,0,0,1-1.53-.24,3.74,3.74,0,0,1-1.27-.66l.6-1.25a3.64,3.64,0,0,0,1.1.59,3.45,3.45,0,0,0,1.14.21,1.28,1.28,0,0,0,.6-.12.41.41,0,0,0,.22-.38.47.47,0,0,0-.28-.43,4.31,4.31,0,0,0-.91-.34,9.81,9.81,0,0,1-1.1-.38,2,2,0,0,1-.75-.58,1.63,1.63,0,0,1-.31-1,1.75,1.75,0,0,1,.72-1.49,3,3,0,0,1,1.83-.52,4.87,4.87,0,0,1,1.31.18,4.29,4.29,0,0,1,1.21.54l-.64,1.26A5.58,5.58,0,0,0,230.05,228.27Z"/><path class="cls-5" d="M238.15,227.68a3.62,3.62,0,0,1,.81,2.51c0,.19,0,.34,0,.44h-4.63a1.66,1.66,0,0,0,.6,1,1.73,1.73,0,0,0,1.07.34,2.19,2.19,0,0,0,.87-.18,2.21,2.21,0,0,0,.76-.51l1,1a3.23,3.23,0,0,1-1.19.84,4,4,0,0,1-1.57.3,3.74,3.74,0,0,1-1.78-.41,2.9,2.9,0,0,1-1.18-1.15,3.56,3.56,0,0,1-.41-1.72,3.49,3.49,0,0,1,.42-1.73,3,3,0,0,1,1.17-1.17,3.62,3.62,0,0,1,1.73-.41A3,3,0,0,1,238.15,227.68Zm-.93,1.86a1.43,1.43,0,0,0-.41-1,1.34,1.34,0,0,0-1-.38,1.41,1.41,0,0,0-1,.37,1.77,1.77,0,0,0-.51,1Z"/><path class="cls-6" d="M192.15,222.71H199a1.45,1.45,0,0,1,1.44,1.45v11.61a1.44,1.44,0,0,1-1.44,1.44H180.05a1.43,1.43,0,0,1-1.44-1.44v-14.2a1.44,1.44,0,0,1,1.44-1.44h9.52a1.29,1.29,0,0,1,1.29,1.29h0A1.29,1.29,0,0,0,192.15,222.71Z"/><path class="cls-6" d="M473.65,130.89h6.84a1.44,1.44,0,0,1,1.45,1.44v11.61a1.45,1.45,0,0,1-1.45,1.45H461.55a1.45,1.45,0,0,1-1.45-1.45V129.75a1.45,1.45,0,0,1,1.45-1.45h9.51a1.29,1.29,0,0,1,1.29,1.3h0A1.3,1.3,0,0,0,473.65,130.89Z"/><path class="cls-5" d="M496.85,168.76a3.36,3.36,0,0,0-.92-.16,1,1,0,0,0-.54.12.39.39,0,0,0-.21.36.44.44,0,0,0,.28.41,4.79,4.79,0,0,0,.9.32,9.35,9.35,0,0,1,1.13.41,2,2,0,0,1,.76.58,1.55,1.55,0,0,1,.33,1,1.73,1.73,0,0,1-.74,1.49,3.11,3.11,0,0,1-1.89.54,4.79,4.79,0,0,1-1.52-.24,3.79,3.79,0,0,1-1.28-.66l.6-1.25a3.77,3.77,0,0,0,1.1.59,3.55,3.55,0,0,0,1.15.21,1.23,1.23,0,0,0,.59-.12.41.41,0,0,0,.22-.38.47.47,0,0,0-.28-.43,4.4,4.4,0,0,0-.9-.34,9.15,9.15,0,0,1-1.1-.38,2,2,0,0,1-.75-.58,1.57,1.57,0,0,1-.31-1,1.75,1.75,0,0,1,.72-1.49,3,3,0,0,1,1.82-.52,5,5,0,0,1,1.32.18,4.36,4.36,0,0,1,1.2.54l-.64,1.26A5.58,5.58,0,0,0,496.85,168.76Z"/><path class="cls-5" d="M502.68,168.84a1.46,1.46,0,0,0-1.13.48,1.76,1.76,0,0,0-.44,1.25,1.84,1.84,0,0,0,.43,1.27,1.43,1.43,0,0,0,1.11.48,1.68,1.68,0,0,0,1.5-.75l1.27.86a2.74,2.74,0,0,1-1.15,1.06,3.86,3.86,0,0,1-1.72.37,3.56,3.56,0,0,1-1.72-.41,2.89,2.89,0,0,1-1.15-1.15,3.45,3.45,0,0,1-.42-1.72,3.49,3.49,0,0,1,.42-1.73,2.9,2.9,0,0,1,1.16-1.17,3.6,3.6,0,0,1,1.73-.41,3.77,3.77,0,0,1,1.65.35,2.88,2.88,0,0,1,1.15,1l-1.25.9A1.76,1.76,0,0,0,502.68,168.84Z"/><path class="cls-5" d="M509.29,167.58a2.56,2.56,0,0,1,1.26-.32V169h-.28a1.89,1.89,0,0,0-1.35.46,1.58,1.58,0,0,0-.5,1.23v3.11h-1.85v-6.46h1.85v1.16A2.31,2.31,0,0,1,509.29,167.58Z"/><path class="cls-5" d="M513.2,164.75a1.13,1.13,0,0,1,0,1.49,1,1,0,0,1-.73.29.94.94,0,0,1-.71-.3,1.12,1.12,0,0,1,0-1.48,1,1,0,0,1,.71-.29A1,1,0,0,1,513.2,164.75Zm-1.64,2.58h1.85v6.46h-1.85Z"/><path class="cls-5" d="M520.72,167.68a2.82,2.82,0,0,1,1.07,1.17,3.9,3.9,0,0,1,.38,1.74,3.71,3.71,0,0,1-.37,1.71,2.73,2.73,0,0,1-1,1.15,3,3,0,0,1-1.58.41,2.64,2.64,0,0,1-1.19-.26,2.37,2.37,0,0,1-.89-.75v3.26h-1.84v-8.78h1.84v.95a2.39,2.39,0,0,1,.87-.75,2.64,2.64,0,0,1,1.17-.26A3.08,3.08,0,0,1,520.72,167.68Zm-.87,4.14a1.84,1.84,0,0,0,.45-1.29,1.81,1.81,0,0,0-.45-1.27,1.44,1.44,0,0,0-1.15-.5,1.47,1.47,0,0,0-1.16.5,1.81,1.81,0,0,0-.45,1.27,1.85,1.85,0,0,0,.45,1.3,1.5,1.5,0,0,0,1.16.49A1.44,1.44,0,0,0,519.85,171.82Z"/><path class="cls-5" d="M527.39,173.43a3.36,3.36,0,0,1-.8.33,3.72,3.72,0,0,1-.88.11,2,2,0,0,1-1.46-.52,1.87,1.87,0,0,1-.57-1.47v-3h-.9v-1.27h.9v-1.78h1.84v1.78h1.75v1.28h-1.75v2.67c0,.49.19.74.58.74a2.1,2.1,0,0,0,.91-.24Z"/><path class="cls-5" d="M531.53,168.76a3.36,3.36,0,0,0-.92-.16,1,1,0,0,0-.54.12.39.39,0,0,0-.21.36.44.44,0,0,0,.28.41,4.79,4.79,0,0,0,.9.32,9.35,9.35,0,0,1,1.13.41,2,2,0,0,1,.76.58,1.55,1.55,0,0,1,.33,1,1.73,1.73,0,0,1-.74,1.49,3.11,3.11,0,0,1-1.89.54,4.79,4.79,0,0,1-1.52-.24,3.79,3.79,0,0,1-1.28-.66l.6-1.25a3.77,3.77,0,0,0,1.1.59,3.55,3.55,0,0,0,1.15.21,1.23,1.23,0,0,0,.59-.12.41.41,0,0,0,.22-.38.47.47,0,0,0-.28-.43,4.4,4.4,0,0,0-.9-.34,9.15,9.15,0,0,1-1.1-.38,2,2,0,0,1-.75-.58,1.57,1.57,0,0,1-.31-1,1.75,1.75,0,0,1,.72-1.49,3,3,0,0,1,1.82-.52,5,5,0,0,1,1.32.18,4.36,4.36,0,0,1,1.2.54l-.64,1.26A5.58,5.58,0,0,0,531.53,168.76Z"/><path class="cls-6" d="M473.65,162.38h6.84a1.45,1.45,0,0,1,1.45,1.44v11.61a1.45,1.45,0,0,1-1.45,1.45H461.55a1.45,1.45,0,0,1-1.45-1.45V161.24a1.44,1.44,0,0,1,1.45-1.44h9.51a1.28,1.28,0,0,1,1.29,1.29h0A1.3,1.3,0,0,0,473.65,162.38Z"/><path class="cls-5" d="M198.07,142.3v-.76a2,2,0,0,1-.84.62,2.94,2.94,0,0,1-1.19.22,2.29,2.29,0,0,1-1.62-.56,1.9,1.9,0,0,1-.6-1.46,1.72,1.72,0,0,1,.65-1.42,2.89,2.89,0,0,1,1.81-.52h1.78v-.12a1,1,0,0,0-.34-.8,1.53,1.53,0,0,0-1-.28,4.05,4.05,0,0,0-1.92.56l-.58-1.27a8,8,0,0,1,1.44-.56,5.72,5.72,0,0,1,1.48-.18,3,3,0,0,1,2,.61,2.19,2.19,0,0,1,.72,1.7v4.22Zm-.51-1.52a1.06,1.06,0,0,0,.5-.69v-.58h-1.45a1.41,1.41,0,0,0-.8.18.62.62,0,0,0-.26.55.74.74,0,0,0,.27.6,1.13,1.13,0,0,0,.74.22A1.75,1.75,0,0,0,197.56,140.78Z"/><path class="cls-5" d="M204.5,137.27a3.36,3.36,0,0,0-.92-.16,1.08,1.08,0,0,0-.54.12.38.38,0,0,0-.2.36.45.45,0,0,0,.27.41,5.4,5.4,0,0,0,.9.32,8.76,8.76,0,0,1,1.13.41,2.07,2.07,0,0,1,.77.58,1.6,1.6,0,0,1,.32,1,1.71,1.71,0,0,1-.74,1.49,3.11,3.11,0,0,1-1.89.54,4.88,4.88,0,0,1-1.52-.24,3.74,3.74,0,0,1-1.27-.66l.6-1.25a3.64,3.64,0,0,0,1.1.59,3.45,3.45,0,0,0,1.14.21,1.28,1.28,0,0,0,.6-.12.43.43,0,0,0,.22-.38.49.49,0,0,0-.28-.43,4.31,4.31,0,0,0-.91-.34,9.15,9.15,0,0,1-1.1-.38,2,2,0,0,1-.75-.58,1.57,1.57,0,0,1-.31-1,1.75,1.75,0,0,1,.72-1.49,3,3,0,0,1,1.82-.52,5,5,0,0,1,1.32.18,4.36,4.36,0,0,1,1.2.54l-.63,1.26A5.38,5.38,0,0,0,204.5,137.27Z"/><path class="cls-5" d="M210.49,137.27a3.36,3.36,0,0,0-.92-.16,1,1,0,0,0-.54.12.39.39,0,0,0-.21.36.46.46,0,0,0,.28.41,4.79,4.79,0,0,0,.9.32,8.76,8.76,0,0,1,1.13.41,2.15,2.15,0,0,1,.77.58,1.6,1.6,0,0,1,.32,1,1.73,1.73,0,0,1-.74,1.49,3.11,3.11,0,0,1-1.89.54,4.84,4.84,0,0,1-1.52-.24,3.74,3.74,0,0,1-1.27-.66l.6-1.25a3.59,3.59,0,0,0,1.09.59,3.55,3.55,0,0,0,1.15.21,1.21,1.21,0,0,0,.59-.12.42.42,0,0,0,.23-.38.48.48,0,0,0-.29-.43,4.18,4.18,0,0,0-.9-.34,9.15,9.15,0,0,1-1.1-.38,2,2,0,0,1-.75-.58,1.57,1.57,0,0,1-.31-1,1.75,1.75,0,0,1,.72-1.49,3,3,0,0,1,1.82-.52,5,5,0,0,1,1.32.18,4.36,4.36,0,0,1,1.2.54l-.63,1.26A5.66,5.66,0,0,0,210.49,137.27Z"/><path class="cls-5" d="M218.6,136.68a3.62,3.62,0,0,1,.81,2.51c0,.19,0,.34,0,.44h-4.64a1.63,1.63,0,0,0,1.67,1.3,2.2,2.2,0,0,0,.88-.18,2.09,2.09,0,0,0,.75-.51l1,1a3.18,3.18,0,0,1-1.2.84,3.94,3.94,0,0,1-1.56.3,3.78,3.78,0,0,1-1.79-.41,2.88,2.88,0,0,1-1.17-1.15,3.45,3.45,0,0,1-.42-1.72,3.49,3.49,0,0,1,.42-1.73,3,3,0,0,1,1.18-1.17,3.6,3.6,0,0,1,1.73-.41A3,3,0,0,1,218.6,136.68Zm-.93,1.86a1.48,1.48,0,0,0-.41-1,1.37,1.37,0,0,0-1-.38,1.41,1.41,0,0,0-1,.37,1.77,1.77,0,0,0-.51,1Z"/><path class="cls-5" d="M224.62,141.94a3.36,3.36,0,0,1-.8.33,3.79,3.79,0,0,1-.88.11,2.08,2.08,0,0,1-1.47-.52,1.9,1.9,0,0,1-.56-1.47v-3H220v-1.27h.9v-1.78h1.83v1.78h1.76v1.28h-1.76v2.67c0,.49.2.74.59.74a2.09,2.09,0,0,0,.9-.24Z"/><path class="cls-5" d="M228.76,137.27a3.49,3.49,0,0,0-.93-.16,1.08,1.08,0,0,0-.54.12.38.38,0,0,0-.2.36.45.45,0,0,0,.27.41,5.4,5.4,0,0,0,.9.32,8.24,8.24,0,0,1,1.13.41,2.07,2.07,0,0,1,.77.58,1.55,1.55,0,0,1,.32,1,1.72,1.72,0,0,1-.73,1.49,3.16,3.16,0,0,1-1.9.54,4.88,4.88,0,0,1-1.52-.24,3.74,3.74,0,0,1-1.27-.66l.6-1.25a3.64,3.64,0,0,0,1.1.59,3.45,3.45,0,0,0,1.14.21,1.28,1.28,0,0,0,.6-.12.41.41,0,0,0,.22-.38.47.47,0,0,0-.28-.43,4.31,4.31,0,0,0-.91-.34,9.81,9.81,0,0,1-1.1-.38,2,2,0,0,1-.75-.58,1.63,1.63,0,0,1-.31-1,1.75,1.75,0,0,1,.72-1.49,3,3,0,0,1,1.83-.52,4.92,4.92,0,0,1,1.31.18,4.29,4.29,0,0,1,1.21.54l-.64,1.26A5.58,5.58,0,0,0,228.76,137.27Z"/><path class="cls-4" d="M153.82,100.89h6.84a1.44,1.44,0,0,1,1.45,1.44v11.61a1.45,1.45,0,0,1-1.45,1.45H141.72a1.45,1.45,0,0,1-1.45-1.45V99.75a1.45,1.45,0,0,1,1.45-1.45h9.51a1.29,1.29,0,0,1,1.29,1.3h0A1.3,1.3,0,0,0,153.82,100.89Z"/><path class="cls-6" d="M174.15,130.89H181a1.44,1.44,0,0,1,1.44,1.44v11.61a1.45,1.45,0,0,1-1.44,1.45H162.05a1.44,1.44,0,0,1-1.44-1.45V129.75a1.44,1.44,0,0,1,1.44-1.45h9.52a1.3,1.3,0,0,1,1.29,1.3h0A1.29,1.29,0,0,0,174.15,130.89Z"/><path class="cls-5" d="M197.35,168.76a3.36,3.36,0,0,0-.92-.16,1,1,0,0,0-.54.12.39.39,0,0,0-.21.36.46.46,0,0,0,.28.41,4.79,4.79,0,0,0,.9.32,8.76,8.76,0,0,1,1.13.41,2.15,2.15,0,0,1,.77.58,1.6,1.6,0,0,1,.32,1,1.73,1.73,0,0,1-.74,1.49,3.11,3.11,0,0,1-1.89.54,4.84,4.84,0,0,1-1.52-.24,3.74,3.74,0,0,1-1.27-.66l.6-1.25a3.59,3.59,0,0,0,1.09.59,3.55,3.55,0,0,0,1.15.21,1.21,1.21,0,0,0,.59-.12.42.42,0,0,0,.23-.38.48.48,0,0,0-.29-.43,4.18,4.18,0,0,0-.9-.34,9.15,9.15,0,0,1-1.1-.38,2,2,0,0,1-.75-.58,1.57,1.57,0,0,1-.31-1,1.75,1.75,0,0,1,.72-1.49,3,3,0,0,1,1.82-.52,5,5,0,0,1,1.32.18,4.36,4.36,0,0,1,1.2.54l-.63,1.26A5.66,5.66,0,0,0,197.35,168.76Z"/><path class="cls-5" d="M203.18,168.84a1.46,1.46,0,0,0-1.13.48,1.76,1.76,0,0,0-.44,1.25,1.89,1.89,0,0,0,.43,1.27,1.43,1.43,0,0,0,1.11.48,1.68,1.68,0,0,0,1.5-.75l1.27.86a2.69,2.69,0,0,1-1.15,1.06,3.86,3.86,0,0,1-1.72.37,3.49,3.49,0,0,1-1.71-.41,2.85,2.85,0,0,1-1.16-1.15,3.45,3.45,0,0,1-.42-1.72,3.49,3.49,0,0,1,.42-1.73,2.9,2.9,0,0,1,1.16-1.17,3.61,3.61,0,0,1,1.74-.41,3.76,3.76,0,0,1,1.64.35,2.88,2.88,0,0,1,1.15,1l-1.25.9A1.74,1.74,0,0,0,203.18,168.84Z"/><path class="cls-5" d="M209.8,167.58a2.56,2.56,0,0,1,1.26-.32V169h-.29a1.89,1.89,0,0,0-1.35.46,1.61,1.61,0,0,0-.5,1.23v3.11h-1.85v-6.46h1.85v1.16A2.34,2.34,0,0,1,209.8,167.58Z"/><path class="cls-5" d="M213.7,164.75a1.13,1.13,0,0,1,0,1.49,1,1,0,0,1-.72.29,1,1,0,0,1-.72-.3,1.12,1.12,0,0,1,0-1.48,1,1,0,0,1,1.44,0Zm-1.64,2.58h1.85v6.46h-1.85Z"/><path class="cls-5" d="M221.23,167.68a2.8,2.8,0,0,1,1.06,1.17,3.77,3.77,0,0,1,.38,1.74,3.71,3.71,0,0,1-.37,1.71,2.73,2.73,0,0,1-1.05,1.15,3,3,0,0,1-1.58.41,2.67,2.67,0,0,1-1.19-.26,2.34,2.34,0,0,1-.88-.75v3.26h-1.85v-8.78h1.85v.95a2.24,2.24,0,0,1,.87-.75,2.58,2.58,0,0,1,1.17-.26A3.11,3.11,0,0,1,221.23,167.68Zm-.88,4.14a1.84,1.84,0,0,0,.45-1.29,1.81,1.81,0,0,0-.45-1.27,1.42,1.42,0,0,0-1.15-.5,1.45,1.45,0,0,0-1.15.5,1.81,1.81,0,0,0-.45,1.27,1.85,1.85,0,0,0,.45,1.3,1.48,1.48,0,0,0,1.15.49A1.42,1.42,0,0,0,220.35,171.82Z"/><path class="cls-5" d="M227.89,173.43a3.2,3.2,0,0,1-.8.33,3.72,3.72,0,0,1-.88.11,2,2,0,0,1-1.46-.52,1.87,1.87,0,0,1-.57-1.47v-3h-.9v-1.27h.9v-1.78H226v1.78h1.75v1.28H226v2.67c0,.49.2.74.59.74a2.09,2.09,0,0,0,.9-.24Z"/><path class="cls-5" d="M232,168.76a3.36,3.36,0,0,0-.92-.16,1,1,0,0,0-.54.12.39.39,0,0,0-.21.36.46.46,0,0,0,.28.41,4.79,4.79,0,0,0,.9.32,8.76,8.76,0,0,1,1.13.41,2.15,2.15,0,0,1,.77.58,1.6,1.6,0,0,1,.32,1,1.73,1.73,0,0,1-.74,1.49,3.11,3.11,0,0,1-1.89.54,4.84,4.84,0,0,1-1.52-.24,3.74,3.74,0,0,1-1.27-.66l.6-1.25a3.59,3.59,0,0,0,1.09.59,3.55,3.55,0,0,0,1.15.21,1.21,1.21,0,0,0,.59-.12A.42.42,0,0,0,232,172a.48.48,0,0,0-.29-.43,4.18,4.18,0,0,0-.9-.34,9.15,9.15,0,0,1-1.1-.38,2,2,0,0,1-.75-.58,1.57,1.57,0,0,1-.31-1,1.75,1.75,0,0,1,.72-1.49,3,3,0,0,1,1.82-.52,5,5,0,0,1,1.32.18,4.36,4.36,0,0,1,1.2.54l-.63,1.26A5.66,5.66,0,0,0,232,168.76Z"/><path class="cls-6" d="M174.15,162.38H181a1.45,1.45,0,0,1,1.44,1.44v11.61a1.45,1.45,0,0,1-1.44,1.45H162.05a1.44,1.44,0,0,1-1.44-1.45V161.24a1.43,1.43,0,0,1,1.44-1.44h9.52a1.29,1.29,0,0,1,1.29,1.29h0A1.29,1.29,0,0,0,174.15,162.38Z"/><path class="cls-5" d="M214.53,258.68a1.46,1.46,0,0,0-1.13.48,1.74,1.74,0,0,0-.44,1.25,1.84,1.84,0,0,0,.43,1.27,1.43,1.43,0,0,0,1.1.48,1.65,1.65,0,0,0,1.5-.75l1.28.86a2.8,2.8,0,0,1-1.15,1.06,3.76,3.76,0,0,1-1.72.37,3.56,3.56,0,0,1-1.72-.41,2.92,2.92,0,0,1-1.16-1.15,3.56,3.56,0,0,1-.41-1.72,3.6,3.6,0,0,1,.41-1.73,2.9,2.9,0,0,1,1.17-1.16,3.49,3.49,0,0,1,1.73-.42,3.64,3.64,0,0,1,1.65.36,2.86,2.86,0,0,1,1.15,1l-1.25.9A1.76,1.76,0,0,0,214.53,258.68Z"/><path class="cls-5" d="M222.94,257.52a2.92,2.92,0,0,1,1.21,1.15,3.4,3.4,0,0,1,.44,1.73,3.36,3.36,0,0,1-.44,1.72,3,3,0,0,1-1.21,1.17,4.22,4.22,0,0,1-3.63,0,3.05,3.05,0,0,1-1.22-1.17,3.46,3.46,0,0,1-.43-1.72,3.49,3.49,0,0,1,.43-1.73,3,3,0,0,1,1.22-1.15,4.22,4.22,0,0,1,3.63,0Zm-3,1.62a2.06,2.06,0,0,0,0,2.57,1.63,1.63,0,0,0,2.33,0,2.06,2.06,0,0,0,0-2.57,1.63,1.63,0,0,0-2.33,0Z"/><path class="cls-5" d="M236.05,257.77a2.5,2.5,0,0,1,.63,1.8v4.06h-1.83v-3.52a1.36,1.36,0,0,0-.34-1,1.21,1.21,0,0,0-.91-.35,1.37,1.37,0,0,0-1,.47,1.8,1.8,0,0,0-.38,1.18v3.19h-1.84v-3.52a1.33,1.33,0,0,0-.33-1,1.16,1.16,0,0,0-.9-.36,1.37,1.37,0,0,0-1,.47,1.75,1.75,0,0,0-.39,1.18v3.19h-1.85v-6.46h1.85v1.12a2.61,2.61,0,0,1,3.56-.8,2,2,0,0,1,.8,1.1,2.41,2.41,0,0,1,.91-1.11,2.8,2.8,0,0,1,1.42-.38A2.21,2.21,0,0,1,236.05,257.77Z"/><path class="cls-5" d="M243.81,257.53a2.7,2.7,0,0,1,1.07,1.17,3.72,3.72,0,0,1,.38,1.74,3.77,3.77,0,0,1-.37,1.71,2.76,2.76,0,0,1-1,1.14,3,3,0,0,1-1.58.41,2.67,2.67,0,0,1-1.19-.26,2.34,2.34,0,0,1-.88-.75V266h-1.85v-8.79h1.85v.95a2.24,2.24,0,0,1,.87-.75,2.58,2.58,0,0,1,1.17-.26A3,3,0,0,1,243.81,257.53Zm-.87,4.14a1.88,1.88,0,0,0,.45-1.29,1.84,1.84,0,0,0-.45-1.28,1.46,1.46,0,0,0-1.15-.5,1.48,1.48,0,0,0-1.15.5,2.06,2.06,0,0,0,0,2.57,1.48,1.48,0,0,0,1.15.49A1.45,1.45,0,0,0,242.94,261.67Z"/><path class="cls-5" d="M251.21,257.52a3,3,0,0,1,1.22,1.15,3.49,3.49,0,0,1,.43,1.73,3.46,3.46,0,0,1-.43,1.72,3.05,3.05,0,0,1-1.22,1.17,4.22,4.22,0,0,1-3.63,0,3.05,3.05,0,0,1-1.22-1.17,3.46,3.46,0,0,1-.43-1.72,3.49,3.49,0,0,1,.43-1.73,3,3,0,0,1,1.22-1.15,4.22,4.22,0,0,1,3.63,0Zm-3,1.62a2.06,2.06,0,0,0,0,2.57,1.63,1.63,0,0,0,2.33,0,2.06,2.06,0,0,0,0-2.57,1.63,1.63,0,0,0-2.33,0Z"/><path class="cls-5" d="M259.88,257.77a2.5,2.5,0,0,1,.65,1.8v4.06h-1.85v-3.52a1.34,1.34,0,0,0-.34-1,1.23,1.23,0,0,0-.93-.36,1.38,1.38,0,0,0-1.08.48,1.71,1.71,0,0,0-.4,1.18v3.18h-1.85v-6.46h1.85v1.13a2.43,2.43,0,0,1,2.23-1.2A2.24,2.24,0,0,1,259.88,257.77Z"/><path class="cls-5" d="M267.26,258a3.62,3.62,0,0,1,.81,2.51c0,.19,0,.34,0,.44h-4.63a1.63,1.63,0,0,0,1.67,1.3,2.36,2.36,0,0,0,.87-.17,2.54,2.54,0,0,0,.76-.51l1,1a3.29,3.29,0,0,1-1.19.85,4.14,4.14,0,0,1-1.57.29,3.74,3.74,0,0,1-1.78-.41,2.84,2.84,0,0,1-1.18-1.15,3.56,3.56,0,0,1-.41-1.72,3.49,3.49,0,0,1,.42-1.73,2.9,2.9,0,0,1,1.17-1.16,3.52,3.52,0,0,1,1.73-.42A3,3,0,0,1,267.26,258Zm-.93,1.86a1.47,1.47,0,0,0-.4-1,1.42,1.42,0,0,0-1-.38,1.37,1.37,0,0,0-1,.38,1.84,1.84,0,0,0-.51,1Z"/><path class="cls-5" d="M275.09,257.77a2.49,2.49,0,0,1,.64,1.8v4.06h-1.85v-3.52a1.3,1.3,0,0,0-.34-1,1.23,1.23,0,0,0-.93-.36,1.38,1.38,0,0,0-1.08.48,1.75,1.75,0,0,0-.4,1.18v3.18h-1.85v-6.46h1.85v1.13a2.43,2.43,0,0,1,2.23-1.2A2.27,2.27,0,0,1,275.09,257.77Z"/><path class="cls-5" d="M281.32,263.27a3.36,3.36,0,0,1-.8.33,3.72,3.72,0,0,1-.88.11,2.08,2.08,0,0,1-1.46-.51,1.91,1.91,0,0,1-.57-1.48v-3h-.9v-1.27h.9v-1.78h1.84v1.78h1.75v1.28h-1.75v2.67c0,.49.2.74.59.74a2.09,2.09,0,0,0,.9-.24Z"/><path class="cls-5" d="M285.46,258.61a3.06,3.06,0,0,0-.92-.17,1.14,1.14,0,0,0-.54.12.39.39,0,0,0-.21.36.45.45,0,0,0,.28.41,4.65,4.65,0,0,0,.9.33,8.9,8.9,0,0,1,1.13.4,2.18,2.18,0,0,1,.77.59,1.58,1.58,0,0,1,.32,1,1.76,1.76,0,0,1-.74,1.5,3.18,3.18,0,0,1-1.89.53,5.08,5.08,0,0,1-1.52-.23,3.94,3.94,0,0,1-1.27-.67l.6-1.25a3.62,3.62,0,0,0,1.09.6,3.55,3.55,0,0,0,1.15.21,1.2,1.2,0,0,0,.59-.13.41.41,0,0,0,.23-.38.48.48,0,0,0-.29-.43,4.8,4.8,0,0,0-.9-.34,7.68,7.68,0,0,1-1.1-.38,2,2,0,0,1-.75-.58,1.57,1.57,0,0,1-.31-1,1.73,1.73,0,0,1,.72-1.48,3,3,0,0,1,1.82-.53,5,5,0,0,1,1.32.18,4.68,4.68,0,0,1,1.2.54l-.63,1.26A5,5,0,0,0,285.46,258.61Z"/><path class="cls-6" d="M192.15,253.05H199a1.44,1.44,0,0,1,1.44,1.44V266.1a1.45,1.45,0,0,1-1.44,1.45H180.05a1.44,1.44,0,0,1-1.44-1.45V251.91a1.44,1.44,0,0,1,1.44-1.45h9.52a1.29,1.29,0,0,1,1.29,1.29h0A1.3,1.3,0,0,0,192.15,253.05Z"/><path class="cls-5" d="M214.53,288.68a1.46,1.46,0,0,0-1.13.48,1.74,1.74,0,0,0-.44,1.25,1.84,1.84,0,0,0,.43,1.27,1.43,1.43,0,0,0,1.1.48,1.65,1.65,0,0,0,1.5-.75l1.28.86a2.8,2.8,0,0,1-1.15,1.06,3.76,3.76,0,0,1-1.72.37,3.56,3.56,0,0,1-1.72-.41,2.92,2.92,0,0,1-1.16-1.15,3.56,3.56,0,0,1-.41-1.72,3.6,3.6,0,0,1,.41-1.73,2.9,2.9,0,0,1,1.17-1.16,3.49,3.49,0,0,1,1.73-.42,3.64,3.64,0,0,1,1.65.36,2.86,2.86,0,0,1,1.15,1l-1.25.9A1.76,1.76,0,0,0,214.53,288.68Z"/><path class="cls-5" d="M222.94,287.52a2.92,2.92,0,0,1,1.21,1.15,3.4,3.4,0,0,1,.44,1.73,3.36,3.36,0,0,1-.44,1.72,3,3,0,0,1-1.21,1.17,4.22,4.22,0,0,1-3.63,0,3.05,3.05,0,0,1-1.22-1.17,3.46,3.46,0,0,1-.43-1.72,3.49,3.49,0,0,1,.43-1.73,3,3,0,0,1,1.22-1.15,4.22,4.22,0,0,1,3.63,0Zm-3,1.62a2.06,2.06,0,0,0,0,2.57,1.63,1.63,0,0,0,2.33,0,2.06,2.06,0,0,0,0-2.57,1.63,1.63,0,0,0-2.33,0Z"/><path class="cls-5" d="M231.61,287.77a2.49,2.49,0,0,1,.64,1.8v4.06h-1.84v-3.52a1.3,1.3,0,0,0-.35-1,1.21,1.21,0,0,0-.93-.36,1.41,1.41,0,0,0-1.08.48,1.75,1.75,0,0,0-.39,1.18v3.18h-1.85v-6.46h1.85v1.13a2.42,2.42,0,0,1,2.23-1.2A2.26,2.26,0,0,1,231.61,287.77Z"/><path class="cls-5" d="M236.25,286.36a.68.68,0,0,0-.22.56v.54h1.53v1.28H236v4.89H234.2v-4.89h-.87v-1.28h.87v-.61a2.13,2.13,0,0,1,.32-1.2,2,2,0,0,1,.85-.75,2.78,2.78,0,0,1,1.2-.26,3.52,3.52,0,0,1,1.28.26l-.28,1.44c-.12,0-.25-.09-.38-.12a1.43,1.43,0,0,0-.39-.06A.79.79,0,0,0,236.25,286.36Zm3.8-1.77a1.13,1.13,0,0,1,0,1.49,1,1,0,0,1-.73.29.93.93,0,0,1-.71-.3,1,1,0,0,1-.28-.73,1,1,0,0,1,.28-.75,1,1,0,0,1,.71-.29A1,1,0,0,1,240.05,284.59Zm-1.64,2.58h1.85v6.46h-1.85Z"/><path class="cls-5" d="M248.08,287.17V293a2.87,2.87,0,0,1-.43,1.59,2.8,2.8,0,0,1-1.21,1,4.11,4.11,0,0,1-1.8.37,5,5,0,0,1-1.51-.23,5.2,5.2,0,0,1-1.3-.62l.68-1.3a3.42,3.42,0,0,0,2,.65,1.9,1.9,0,0,0,1.26-.39,1.3,1.3,0,0,0,.47-1.05v-.73a2.18,2.18,0,0,1-.82.69,2.54,2.54,0,0,1-1.13.24,2.78,2.78,0,0,1-1.47-.39,2.52,2.52,0,0,1-1-1.1,3.53,3.53,0,0,1-.36-1.63,3.4,3.4,0,0,1,.36-1.6,2.5,2.5,0,0,1,1-1.07,2.78,2.78,0,0,1,1.47-.39,2.53,2.53,0,0,1,1.12.25,2.3,2.3,0,0,1,.83.69v-.88Zm-2.25,4.26a2,2,0,0,0,0-2.42,1.51,1.51,0,0,0-2.19,0,1.92,1.92,0,0,0,0,2.42,1.41,1.41,0,0,0,1.09.46A1.45,1.45,0,0,0,245.83,291.43Z"/><path class="cls-6" d="M192.15,283.05H199a1.44,1.44,0,0,1,1.44,1.44V296.1a1.45,1.45,0,0,1-1.44,1.45H180.05a1.44,1.44,0,0,1-1.44-1.45V281.91a1.44,1.44,0,0,1,1.44-1.45h9.52a1.29,1.29,0,0,1,1.29,1.29h0A1.3,1.3,0,0,0,192.15,283.05Z"/><path class="cls-5" d="M217.2,349.19a2.82,2.82,0,0,1,1.07,1.17,3.9,3.9,0,0,1,.38,1.74,3.71,3.71,0,0,1-.38,1.71,2.6,2.6,0,0,1-1.05,1.15,3,3,0,0,1-1.57.41,2.71,2.71,0,0,1-1.2-.26,2.34,2.34,0,0,1-.88-.75v3.26h-1.85v-8.78h1.85v1a2.24,2.24,0,0,1,.87-.75,2.64,2.64,0,0,1,1.17-.26A3.08,3.08,0,0,1,217.2,349.19Zm-.87,4.14a1.84,1.84,0,0,0,.44-1.29,1.8,1.8,0,0,0-.44-1.27,1.45,1.45,0,0,0-1.15-.5,1.47,1.47,0,0,0-1.16.5,1.81,1.81,0,0,0-.45,1.27,1.85,1.85,0,0,0,.45,1.3,1.5,1.5,0,0,0,1.16.49A1.45,1.45,0,0,0,216.33,353.33Z"/><path class="cls-5" d="M223.61,355.3v-.76a2,2,0,0,1-.84.62,2.92,2.92,0,0,1-1.18.22,2.29,2.29,0,0,1-1.62-.56,1.9,1.9,0,0,1-.6-1.46,1.71,1.71,0,0,1,.64-1.42,2.92,2.92,0,0,1,1.82-.52h1.77v-.12a1,1,0,0,0-.34-.8,1.53,1.53,0,0,0-1-.28,4.05,4.05,0,0,0-1.92.56l-.58-1.27a8,8,0,0,1,1.44-.56,5.72,5.72,0,0,1,1.48-.18,3,3,0,0,1,2,.61,2.15,2.15,0,0,1,.72,1.7l0,4.22Zm-.51-1.52a1,1,0,0,0,.5-.69v-.58h-1.45a1.41,1.41,0,0,0-.8.18.62.62,0,0,0-.26.55.74.74,0,0,0,.27.6,1.13,1.13,0,0,0,.74.22A1.73,1.73,0,0,0,223.1,353.78Z"/><path class="cls-5" d="M229.75,349.09a2.5,2.5,0,0,1,1.26-.32v1.74h-.29a1.89,1.89,0,0,0-1.35.46,1.61,1.61,0,0,0-.5,1.23v3.11H227v-6.46h1.85V350A2.34,2.34,0,0,1,229.75,349.09Z"/><path class="cls-5" d="M236,354.94a3.36,3.36,0,0,1-.8.33,3.72,3.72,0,0,1-.88.11,2,2,0,0,1-1.46-.52,1.87,1.87,0,0,1-.57-1.47v-3h-.9v-1.27h.9v-1.78h1.84v1.78h1.75v1.28h-1.75v2.67c0,.49.19.74.59.74a2.09,2.09,0,0,0,.9-.24Z"/><path class="cls-5" d="M238.76,346.26a1.1,1.1,0,0,1,0,1.49,1,1,0,0,1-.72.29,1,1,0,0,1-.72-.3,1.12,1.12,0,0,1,0-1.48A1,1,0,0,1,238,346,1,1,0,0,1,238.76,346.26Zm-1.63,2.58H239v6.46h-1.84Z"/><path class="cls-5" d="M244.49,355.3v-.76a2,2,0,0,1-.84.62,2.92,2.92,0,0,1-1.18.22,2.29,2.29,0,0,1-1.62-.56,1.9,1.9,0,0,1-.6-1.46,1.71,1.71,0,0,1,.64-1.42,2.92,2.92,0,0,1,1.82-.52h1.77v-.12a1,1,0,0,0-.34-.8,1.53,1.53,0,0,0-1-.28,4.05,4.05,0,0,0-1.92.56l-.58-1.27a8,8,0,0,1,1.44-.56,5.72,5.72,0,0,1,1.48-.18,3,3,0,0,1,2,.61,2.15,2.15,0,0,1,.72,1.7l0,4.22Zm-.51-1.52a1,1,0,0,0,.5-.69v-.58H243a1.41,1.41,0,0,0-.8.18.62.62,0,0,0-.26.55.74.74,0,0,0,.27.6,1.13,1.13,0,0,0,.74.22A1.73,1.73,0,0,0,244,353.78Z"/><path class="cls-5" d="M248,346.39h1.85v8.91H248Z"/><path class="cls-5" d="M254.68,350.27a3.36,3.36,0,0,0-.92-.16,1,1,0,0,0-.54.12.39.39,0,0,0-.21.36.44.44,0,0,0,.28.41,4.79,4.79,0,0,0,.9.32,8.76,8.76,0,0,1,1.13.41,2.15,2.15,0,0,1,.77.58,1.6,1.6,0,0,1,.32,1,1.73,1.73,0,0,1-.74,1.49,3.11,3.11,0,0,1-1.89.54,4.79,4.79,0,0,1-1.52-.24,3.88,3.88,0,0,1-1.28-.66l.61-1.25a3.59,3.59,0,0,0,1.09.59,3.55,3.55,0,0,0,1.15.21,1.23,1.23,0,0,0,.59-.12.42.42,0,0,0,.23-.38.48.48,0,0,0-.29-.43,4.18,4.18,0,0,0-.9-.34,9.15,9.15,0,0,1-1.1-.38,2,2,0,0,1-.75-.58,1.57,1.57,0,0,1-.31-1,1.75,1.75,0,0,1,.72-1.49,3,3,0,0,1,1.82-.52,5,5,0,0,1,1.32.18,4.36,4.36,0,0,1,1.2.54l-.63,1.26A6,6,0,0,0,254.68,350.27Z"/><path class="cls-6" d="M192.15,344.71H199a1.45,1.45,0,0,1,1.44,1.45v11.61a1.44,1.44,0,0,1-1.44,1.44H180.05a1.43,1.43,0,0,1-1.44-1.44v-14.2a1.44,1.44,0,0,1,1.44-1.44h9.52a1.29,1.29,0,0,1,1.29,1.29h0A1.29,1.29,0,0,0,192.15,344.71Z"/><path class="cls-5" d="M221.9,319.26a2.5,2.5,0,0,1,.63,1.8v4.06H220.7V321.6a1.32,1.32,0,0,0-.34-1,1.21,1.21,0,0,0-.91-.35,1.33,1.33,0,0,0-1,.47,1.77,1.77,0,0,0-.39,1.18v3.19h-1.83V321.6a1.35,1.35,0,0,0-.33-1,1.18,1.18,0,0,0-.91-.36,1.37,1.37,0,0,0-1,.47,1.77,1.77,0,0,0-.39,1.18v3.19h-1.85v-6.46h1.85v1.12a2.38,2.38,0,0,1,2.18-1.19,2.34,2.34,0,0,1,1.38.39,2.12,2.12,0,0,1,.81,1.1,2.31,2.31,0,0,1,.9-1.1,2.72,2.72,0,0,1,1.43-.39A2.19,2.19,0,0,1,221.9,319.26Z"/><path class="cls-5" d="M228.85,319a3,3,0,0,1,1.22,1.15,3.39,3.39,0,0,1,.43,1.73,3.35,3.35,0,0,1-.43,1.72,3,3,0,0,1-1.22,1.17,3.85,3.85,0,0,1-1.8.41,3.91,3.91,0,0,1-1.82-.41,3,3,0,0,1-1.22-1.17,3.35,3.35,0,0,1-.43-1.72,3.39,3.39,0,0,1,.43-1.73,3,3,0,0,1,1.22-1.15,3.91,3.91,0,0,1,1.82-.41A3.85,3.85,0,0,1,228.85,319Zm-3,1.62a2.06,2.06,0,0,0,0,2.57,1.5,1.5,0,0,0,1.17.49,1.48,1.48,0,0,0,1.15-.49,2.06,2.06,0,0,0,0-2.57,1.48,1.48,0,0,0-1.15-.49A1.5,1.5,0,0,0,225.88,320.63Z"/><path class="cls-5" d="M238.1,316.22v8.9h-1.84v-.95a2.23,2.23,0,0,1-.86.76,2.53,2.53,0,0,1-1.18.26,3.1,3.1,0,0,1-1.6-.41,2.82,2.82,0,0,1-1.07-1.17,3.9,3.9,0,0,1-.38-1.74,3.79,3.79,0,0,1,.38-1.72,2.72,2.72,0,0,1,1-1.15,3,3,0,0,1,1.57-.41,2.39,2.39,0,0,1,2.09,1v-3.39Zm-2.29,7a1.88,1.88,0,0,0,.45-1.29,1.84,1.84,0,0,0-.45-1.29,1.46,1.46,0,0,0-1.16-.5,1.48,1.48,0,0,0-1.17.5,1.9,1.9,0,0,0-.46,1.29,1.93,1.93,0,0,0,.46,1.29,1.5,1.5,0,0,0,1.17.49A1.48,1.48,0,0,0,235.81,323.21Z"/><path class="cls-5" d="M246.08,318.66v6.46h-1.84V324a2.53,2.53,0,0,1-3.86.55,2.54,2.54,0,0,1-.63-1.81v-4.06h1.85v3.53a1.33,1.33,0,0,0,.33,1,1.14,1.14,0,0,0,.88.35,1.33,1.33,0,0,0,1.05-.47,1.77,1.77,0,0,0,.38-1.17v-3.2Z"/><path class="cls-5" d="M247.93,316.22h1.84v8.9h-1.84Z"/><path class="cls-5" d="M256.76,319.5a3.62,3.62,0,0,1,.81,2.51c0,.19,0,.34,0,.45h-4.63a1.64,1.64,0,0,0,1.67,1.29,2.36,2.36,0,0,0,.87-.17,2.54,2.54,0,0,0,.76-.51l1,1a3.29,3.29,0,0,1-1.19.85,4.14,4.14,0,0,1-1.57.29,3.63,3.63,0,0,1-1.78-.41,2.84,2.84,0,0,1-1.18-1.15,3.79,3.79,0,0,1,0-3.45,2.9,2.9,0,0,1,1.17-1.16,3.52,3.52,0,0,1,1.73-.42A3,3,0,0,1,256.76,319.5Zm-.93,1.86a1.47,1.47,0,0,0-.4-1,1.55,1.55,0,0,0-2,0,1.84,1.84,0,0,0-.51,1Z"/><path class="cls-5" d="M261.81,320.1a3,3,0,0,0-.92-.16,1,1,0,0,0-.54.12.39.39,0,0,0-.21.36.43.43,0,0,0,.28.4,4.65,4.65,0,0,0,.9.33,8.69,8.69,0,0,1,1.12.4,2,2,0,0,1,.77.59,1.53,1.53,0,0,1,.33,1,1.76,1.76,0,0,1-.74,1.5,3.18,3.18,0,0,1-1.89.53,5.08,5.08,0,0,1-1.52-.23,4,4,0,0,1-1.28-.67l.6-1.25a3.79,3.79,0,0,0,1.1.6,3.55,3.55,0,0,0,1.15.21,1.15,1.15,0,0,0,.59-.13.4.4,0,0,0,.22-.38.48.48,0,0,0-.28-.43,5.24,5.24,0,0,0-.9-.33,9,9,0,0,1-1.1-.39,1.86,1.86,0,0,1-.75-.58,1.56,1.56,0,0,1-.31-1,1.71,1.71,0,0,1,.72-1.49,3,3,0,0,1,1.82-.53,4.63,4.63,0,0,1,1.32.19,4.34,4.34,0,0,1,1.2.53l-.64,1.26A5.52,5.52,0,0,0,261.81,320.1Z"/><path class="cls-6" d="M192.15,314.54H199a1.44,1.44,0,0,1,1.44,1.44v11.61A1.45,1.45,0,0,1,199,329H180.05a1.44,1.44,0,0,1-1.44-1.45V313.4a1.44,1.44,0,0,1,1.44-1.45h9.52a1.29,1.29,0,0,1,1.29,1.29h0A1.3,1.3,0,0,0,192.15,314.54Z"/><path class="cls-5" d="M215.66,385.27a3.36,3.36,0,0,1-.8.33,3.79,3.79,0,0,1-.88.11,2.12,2.12,0,0,1-1.47-.51,1.94,1.94,0,0,1-.56-1.48v-3h-.9v-1.27h.9v-1.78h1.84v1.78h1.75v1.28h-1.75v2.67c0,.49.19.74.58.74a2,2,0,0,0,.9-.24Z"/><path class="cls-5" d="M221.87,380a3.62,3.62,0,0,1,.81,2.51c0,.19,0,.34,0,.44H218a1.77,1.77,0,0,0,.6,1,1.71,1.71,0,0,0,1.07.34,2.23,2.23,0,0,0,1.63-.68l1,1a3.32,3.32,0,0,1-1.2.85,4.13,4.13,0,0,1-1.56.29,3.78,3.78,0,0,1-1.79-.41,2.82,2.82,0,0,1-1.17-1.15,3.45,3.45,0,0,1-.42-1.72,3.49,3.49,0,0,1,.42-1.73,2.93,2.93,0,0,1,1.18-1.16,3.49,3.49,0,0,1,1.73-.42A3,3,0,0,1,221.87,380Zm-.93,1.86a1.48,1.48,0,0,0-.41-1,1.41,1.41,0,0,0-1-.38,1.37,1.37,0,0,0-1,.38,1.72,1.72,0,0,0-.51,1Z"/><path class="cls-5" d="M234.13,379.77a2.5,2.5,0,0,1,.63,1.8v4.06h-1.83v-3.52a1.36,1.36,0,0,0-.34-1,1.21,1.21,0,0,0-.91-.35,1.37,1.37,0,0,0-1.05.47,1.8,1.8,0,0,0-.38,1.18v3.19h-1.84v-3.52a1.33,1.33,0,0,0-.33-1,1.16,1.16,0,0,0-.9-.36,1.37,1.37,0,0,0-1.05.47,1.75,1.75,0,0,0-.39,1.18v3.19h-1.85v-6.46h1.85v1.12a2.37,2.37,0,0,1,2.18-1.19,2.34,2.34,0,0,1,1.38.39,2,2,0,0,1,.8,1.1,2.41,2.41,0,0,1,.91-1.11,2.8,2.8,0,0,1,1.42-.38A2.2,2.2,0,0,1,234.13,379.77Z"/><path class="cls-5" d="M241.9,379.53A2.74,2.74,0,0,1,243,380.7a3.72,3.72,0,0,1,.38,1.74,3.77,3.77,0,0,1-.37,1.71,2.76,2.76,0,0,1-1.05,1.14,3,3,0,0,1-1.58.41,2.67,2.67,0,0,1-1.19-.26,2.34,2.34,0,0,1-.88-.75V388h-1.85v-8.79h1.85v.95a2.24,2.24,0,0,1,.87-.75,2.58,2.58,0,0,1,1.17-.26A3,3,0,0,1,241.9,379.53Zm-.88,4.14a1.88,1.88,0,0,0,.45-1.29,1.84,1.84,0,0,0-.45-1.28,1.46,1.46,0,0,0-1.15-.5,1.48,1.48,0,0,0-1.15.5,2.06,2.06,0,0,0,0,2.57,1.48,1.48,0,0,0,1.15.49A1.45,1.45,0,0,0,241,383.67Z"/><path class="cls-5" d="M244.63,376.72h1.84v8.91h-1.84Z"/><path class="cls-5" d="M252.06,385.63v-.76a2.11,2.11,0,0,1-.83.63,3.19,3.19,0,0,1-1.19.21,2.25,2.25,0,0,1-1.62-.56,1.88,1.88,0,0,1-.6-1.45,1.72,1.72,0,0,1,.64-1.43,3,3,0,0,1,1.82-.52h1.77v-.12a1,1,0,0,0-.34-.8,1.59,1.59,0,0,0-1-.28,4,4,0,0,0-1.92.57l-.58-1.28a8.3,8.3,0,0,1,1.44-.56,5.72,5.72,0,0,1,1.48-.18,3,3,0,0,1,2,.61,2.16,2.16,0,0,1,.72,1.71l0,4.21Zm-.51-1.51a1.07,1.07,0,0,0,.5-.7v-.58H250.6a1.44,1.44,0,0,0-.8.18.62.62,0,0,0-.25.56.76.76,0,0,0,.26.59,1.13,1.13,0,0,0,.74.22A1.8,1.8,0,0,0,251.55,384.12Z"/><path class="cls-5" d="M259.47,385.27a3.36,3.36,0,0,1-.8.33,3.72,3.72,0,0,1-.88.11,2.08,2.08,0,0,1-1.46-.51,1.91,1.91,0,0,1-.57-1.48v-3h-.9v-1.27h.9v-1.78h1.84v1.78h1.75v1.28H257.6v2.67c0,.49.19.74.59.74a2.09,2.09,0,0,0,.9-.24Z"/><path class="cls-5" d="M265.68,380a3.62,3.62,0,0,1,.81,2.51c0,.19,0,.34,0,.44h-4.63a1.61,1.61,0,0,0,1.66,1.3,2.38,2.38,0,0,0,.88-.17,2.54,2.54,0,0,0,.76-.51l1,1a3.32,3.32,0,0,1-1.2.85,4.13,4.13,0,0,1-1.56.29,3.78,3.78,0,0,1-1.79-.41,2.88,2.88,0,0,1-1.17-1.15,3.45,3.45,0,0,1-.42-1.72,3.49,3.49,0,0,1,.42-1.73,3,3,0,0,1,1.18-1.16,3.49,3.49,0,0,1,1.73-.42A3,3,0,0,1,265.68,380Zm-.93,1.86a1.48,1.48,0,0,0-.41-1,1.41,1.41,0,0,0-1-.38,1.37,1.37,0,0,0-1,.38,1.72,1.72,0,0,0-.51,1Z"/><path class="cls-5" d="M270.73,380.61a3.17,3.17,0,0,0-.93-.17,1.2,1.2,0,0,0-.54.12.38.38,0,0,0-.2.36.44.44,0,0,0,.27.41,5.24,5.24,0,0,0,.9.33,8.9,8.9,0,0,1,1.13.4,2.09,2.09,0,0,1,.77.59,1.52,1.52,0,0,1,.32,1,1.75,1.75,0,0,1-.73,1.5,3.23,3.23,0,0,1-1.9.53,5.18,5.18,0,0,1-1.52-.23,3.94,3.94,0,0,1-1.27-.67l.6-1.25a3.67,3.67,0,0,0,1.1.6,3.45,3.45,0,0,0,1.14.21,1.27,1.27,0,0,0,.6-.13.42.42,0,0,0,.22-.38.47.47,0,0,0-.28-.43,5,5,0,0,0-.91-.34,7.68,7.68,0,0,1-1.1-.38,2,2,0,0,1-.75-.58,1.57,1.57,0,0,1-.31-1,1.73,1.73,0,0,1,.72-1.48,3,3,0,0,1,1.83-.53,4.92,4.92,0,0,1,1.31.18,4.39,4.39,0,0,1,1.2.54l-.63,1.26A4.94,4.94,0,0,0,270.73,380.61Z"/><path class="cls-6" d="M192.15,375.05H199a1.44,1.44,0,0,1,1.44,1.44V388.1a1.45,1.45,0,0,1-1.44,1.45H180.05a1.44,1.44,0,0,1-1.44-1.45V373.91a1.44,1.44,0,0,1,1.44-1.45h9.52a1.29,1.29,0,0,1,1.29,1.29h0A1.3,1.3,0,0,0,192.15,375.05Z"/><path class="cls-5" d="M217.79,409.51V416H216v-1.14a2.53,2.53,0,0,1-3.86.55,2.54,2.54,0,0,1-.63-1.81v-4.05h1.85V413a1.37,1.37,0,0,0,.32,1,1.13,1.13,0,0,0,.89.35,1.3,1.3,0,0,0,1-.47,1.72,1.72,0,0,0,.39-1.17v-3.19Z"/><path class="cls-5" d="M223.58,415.6a2.7,2.7,0,0,1-.8.33,3.33,3.33,0,0,1-.88.12,2.13,2.13,0,0,1-1.47-.52,1.92,1.92,0,0,1-.56-1.48v-3H219v-1.28h.9V408h1.84v1.77h1.75v1.29h-1.75v2.66c0,.5.19.75.58.75a2,2,0,0,0,.9-.24Z"/><path class="cls-5" d="M226.33,406.93a1.12,1.12,0,0,1,0,1.48.94.94,0,0,1-.72.29,1,1,0,0,1-.72-.29,1,1,0,0,1-.28-.74,1,1,0,0,1,.28-.74,1,1,0,0,1,1.44,0Zm-1.64,2.58h1.85V416h-1.85Z"/><path class="cls-5" d="M228.38,407.06h1.85V416h-1.85Z"/><path class="cls-5" d="M235.1,410.94a3.13,3.13,0,0,0-.93-.16,1.08,1.08,0,0,0-.54.12.4.4,0,0,0-.2.36.46.46,0,0,0,.27.41,6.51,6.51,0,0,0,.9.32,10,10,0,0,1,1.13.4,2.09,2.09,0,0,1,.77.59,1.53,1.53,0,0,1,.32,1,1.73,1.73,0,0,1-.73,1.49,3.11,3.11,0,0,1-1.89.53,4.89,4.89,0,0,1-1.53-.23,4,4,0,0,1-1.27-.67l.6-1.24a3.88,3.88,0,0,0,1.1.59,3.5,3.5,0,0,0,1.14.21,1.16,1.16,0,0,0,.6-.13.4.4,0,0,0,.22-.37.48.48,0,0,0-.28-.44,5.1,5.1,0,0,0-.91-.33,9.64,9.64,0,0,1-1.1-.39,1.91,1.91,0,0,1-.75-.58,1.62,1.62,0,0,1-.31-1,1.74,1.74,0,0,1,.72-1.49,3,3,0,0,1,1.83-.53,4.63,4.63,0,0,1,1.32.19,4.34,4.34,0,0,1,1.2.53l-.64,1.26A5.52,5.52,0,0,0,235.1,410.94Z"/><path class="cls-6" d="M192.15,405.38H199a1.45,1.45,0,0,1,1.44,1.44v11.61a1.45,1.45,0,0,1-1.44,1.45H180.05a1.44,1.44,0,0,1-1.44-1.45V404.24a1.43,1.43,0,0,1,1.44-1.44h9.52a1.29,1.29,0,0,1,1.29,1.29h0A1.29,1.29,0,0,0,192.15,405.38Z"/><rect class="cls-2" x="142.48" y="103.17" width="17.13" height="9.63"/><path class="cls-4" d="M454.65,100.89h6.84a1.44,1.44,0,0,1,1.45,1.44v11.61a1.45,1.45,0,0,1-1.45,1.45H442.55a1.45,1.45,0,0,1-1.45-1.45V99.75a1.45,1.45,0,0,1,1.45-1.45h9.51a1.29,1.29,0,0,1,1.29,1.3h0A1.3,1.3,0,0,0,454.65,100.89Z"/><rect class="cls-2" x="443.31" y="103.17" width="17.13" height="9.63"/><path class="cls-4" d="M473.65,192.55h6.84a1.44,1.44,0,0,1,1.45,1.44V205.6a1.45,1.45,0,0,1-1.45,1.45H461.55a1.45,1.45,0,0,1-1.45-1.45V191.41a1.45,1.45,0,0,1,1.45-1.45h9.51a1.29,1.29,0,0,1,1.29,1.29h0A1.3,1.3,0,0,0,473.65,192.55Z"/><rect class="cls-2" x="462.31" y="194.83" width="17.13" height="9.63"/><path class="cls-4" d="M173.15,192.55H180a1.44,1.44,0,0,1,1.44,1.44V205.6a1.45,1.45,0,0,1-1.44,1.45H161.05a1.44,1.44,0,0,1-1.44-1.45V191.41a1.44,1.44,0,0,1,1.44-1.45h9.52a1.29,1.29,0,0,1,1.29,1.29h0A1.3,1.3,0,0,0,173.15,192.55Z"/><rect class="cls-2" x="161.82" y="194.83" width="17.13" height="9.63"/><path class="cls-3" d="M318.27,183.84h14.3v33.5H325V190.26h-6.74Z"/><path class="cls-3" d="M345.66,197a3.76,3.76,0,0,1,1,2.73,3.84,3.84,0,0,1-1,2.75,3.75,3.75,0,0,1-5.29,0,3.82,3.82,0,0,1-1.05-2.73,3.69,3.69,0,0,1,1.05-2.73,3.86,3.86,0,0,1,5.29,0Zm0,14.21a3.76,3.76,0,0,1,1,2.73,3.84,3.84,0,0,1-1,2.75,3.75,3.75,0,0,1-5.29,0,3.82,3.82,0,0,1-1.05-2.73,3.69,3.69,0,0,1,1.05-2.73,3.86,3.86,0,0,1,5.29,0Z"/><path class="cls-3" d="M348.31,183.84h14.31v33.5h-7.56V190.26h-6.75Z"/><path class="cls-3" d="M148.66,66.53a2.63,2.63,0,0,1,1.2,2.28,2.76,2.76,0,0,1-.58,1.74,3,3,0,0,1-1.58,1,3.11,3.11,0,0,1,1.91,1.08,3.18,3.18,0,0,1,.69,2.08A3,3,0,0,1,149,77.25a5.74,5.74,0,0,1-3.45.93h-5.94V65.69h5.74A5.62,5.62,0,0,1,148.66,66.53Zm-2.15,3.82a1.24,1.24,0,0,0,.46-1,1.21,1.21,0,0,0-.46-1,1.91,1.91,0,0,0-1.26-.34h-2.78v2.73h2.78A1.91,1.91,0,0,0,146.51,70.35Zm.31,5.13a1.29,1.29,0,0,0,.57-1.12,1.23,1.23,0,0,0-.57-1.07,2.6,2.6,0,0,0-1.57-.37h-2.78v3h2.78A2.74,2.74,0,0,0,146.82,75.48Z"/><path class="cls-3" d="M160,78.18l-2-3.57h-2.87v3.57h-2.83V65.69h5.43a5.65,5.65,0,0,1,3.78,1.13A3.94,3.94,0,0,1,162.9,70a5,5,0,0,1-.59,2.48,3.87,3.87,0,0,1-1.75,1.56l2.67,4.12Zm-4.85-5.93h2.6a2.7,2.7,0,0,0,1.81-.54,2,2,0,0,0,.64-1.6,1.89,1.89,0,0,0-.64-1.56,2.75,2.75,0,0,0-1.81-.53h-2.6Z"/><path class="cls-3" d="M174.5,78.18l-1-2.43h-5.78l-1,2.43h-2.91l5.42-12.49h2.91l5.34,12.49Zm-5.83-4.69h3.94l-2-4.86Z"/><path class="cls-3" d="M187.46,65.69h2.68V78.18h-2.57l-6-8v8h-2.7V65.69h2.57l6.07,8.06Z"/><path class="cls-3" d="M201.6,66.48a5.84,5.84,0,0,1,2.33,2.21,6.35,6.35,0,0,1,.83,3.24,6.21,6.21,0,0,1-.85,3.24,5.84,5.84,0,0,1-2.37,2.22,7.32,7.32,0,0,1-3.46.79h-5.19V65.69h5.3A7.18,7.18,0,0,1,201.6,66.48Zm-1.48,8.84a3.43,3.43,0,0,0,1.3-1.37,4.19,4.19,0,0,0,.46-2,4.11,4.11,0,0,0-.49-2,3.56,3.56,0,0,0-1.34-1.38,3.7,3.7,0,0,0-1.91-.49h-2.43v7.75h2.55A3.64,3.64,0,0,0,200.12,75.32Z"/><path class="cls-3" d="M449.49,66.53a2.63,2.63,0,0,1,1.2,2.28,2.76,2.76,0,0,1-.58,1.74,3,3,0,0,1-1.58,1,3.11,3.11,0,0,1,1.91,1.08,3.18,3.18,0,0,1,.69,2.08,3,3,0,0,1-1.26,2.53,5.74,5.74,0,0,1-3.45.93h-5.94V65.69h5.75A5.58,5.58,0,0,1,449.49,66.53Zm-2.15,3.82a1.21,1.21,0,0,0,.46-1,1.19,1.19,0,0,0-.46-1,1.91,1.91,0,0,0-1.26-.34H443.3v2.73h2.78A1.91,1.91,0,0,0,447.34,70.35Zm.31,5.13a1.3,1.3,0,0,0,.58-1.12,1.24,1.24,0,0,0-.58-1.07,2.6,2.6,0,0,0-1.57-.37H443.3v3h2.78A2.74,2.74,0,0,0,447.65,75.48Z"/><path class="cls-3" d="M462.41,78.18l-1-2.43h-5.78l-1,2.43h-2.91l5.43-12.49h2.9l5.34,12.49Zm-5.83-4.69h3.94l-2-4.86Z"/><path class="cls-3" d="M472.85,68.23a6.29,6.29,0,0,0-1.85-.35,2.14,2.14,0,0,0-1.16.27.86.86,0,0,0-.43.78,1.09,1.09,0,0,0,.62,1,8.89,8.89,0,0,0,1.9.73,16.51,16.51,0,0,1,2.11.75,3.67,3.67,0,0,1,1.42,1.12,3.13,3.13,0,0,1,.59,2,3.38,3.38,0,0,1-.63,2.06,3.91,3.91,0,0,1-1.74,1.31,6.66,6.66,0,0,1-2.52.45,8.75,8.75,0,0,1-3-.53,8,8,0,0,1-2.53-1.47l1.12-2.3A7.52,7.52,0,0,0,469,75.41a5.77,5.77,0,0,0,2.24.52,2.52,2.52,0,0,0,1.37-.32,1,1,0,0,0,.49-.93,1,1,0,0,0-.33-.79,2.48,2.48,0,0,0-.84-.51c-.34-.13-.8-.28-1.4-.45a14.94,14.94,0,0,1-2.1-.71,3.76,3.76,0,0,1-1.4-1.09,3,3,0,0,1-.59-1.95,3.36,3.36,0,0,1,.61-2,3.88,3.88,0,0,1,1.7-1.3,6.56,6.56,0,0,1,2.53-.46,8.83,8.83,0,0,1,2.54.38,8.45,8.45,0,0,1,2.21,1l-1.09,2.34A9,9,0,0,0,472.85,68.23Z"/><path class="cls-3" d="M478,65.69h9.51V68h-6.69v2.72h6v2.34h-6v2.76h6.89v2.34H478Z"/></svg>