<svg id="Layer_1" data-name="Layer 1" xmlns="http://www.w3.org/2000/svg" viewBox="0 0 500 400"><defs><style>.cls-1{fill:#4d4d4d;}.cls-2,.cls-3{fill:#fff;}.cls-2{stroke:#4d4d4d;stroke-miterlimit:10;stroke-width:10px;}</style></defs><title>quadrus-preview</title><path class="cls-1" d="M134.66,206.11c-6.64-2.33-11.21-8.75-18.85-8.11-6.75.56-11.23,6.35-13.68,12.15-5.88,13.91-5.38,31.06-1.35,45.36,4.07,14.46,12.63,29.22,25.36,37.68,11.43,7.6,30.4,7.8,37.23-6.24,2.7-5.55-5-10.17-8.33-4.87-6.91,10.9-20.58,6.44-28.34-.87-8.62-8.11-14.35-19.12-17.22-30.52a65.44,65.44,0,0,1,.44-34.33c1.33-4.44,4.13-10.79,9.71-8.37,4.92,2.14,8.15,6.17,13.94,6.12,4.75,0,5.33-6.5,1.09-8Z"/><path class="cls-1" d="M143.09,239.74c-3.38-14.78-4.74-29.06-.79-43.93a76,76,0,0,1,8.52-20c3.28-5.41,10.57-11.13,10.67-17.73.09-5.14-6.64-5.3-8.34-1.13-1.44,3.52-5.13,6.6-7.33,9.72a76,76,0,0,0-5.56,9.18,84.92,84.92,0,0,0-7.73,22.07c-2.94,14.67-2.57,31,3.71,44.74,1.83,4,7.76,1.08,6.85-2.89Z"/><path class="cls-1" d="M202.73,160.22c28.28-2.29,52.08-31.45,81.79-19.79,5.18,2,9-6.81,3.82-9.05-14.12-6.15-29.36-3.56-43.2,2.11-6.9,2.83-13.47,6.34-20.14,9.65a177.56,177.56,0,0,1-23.32,9.3c-4,1.33-3.64,8.16,1,7.78Z"/><path class="cls-1" d="M281.59,173.22c-9.18-2.22-17.8-.54-26.57,2.54a4.11,4.11,0,0,0,0,7.84c4,1.46,7.5-.68,11.35-1.69a42.53,42.53,0,0,1,14.18-1c4.44.35,5.31-6.68,1-7.72Z"/><path class="cls-1" d="M240.07,171.16c4.41,3.56,8.74,7,12.13,11.6s5.27,9.74,7.21,15.16,9.68,3.32,8.74-2.41c-2-12.23-12.09-25.39-23.42-30.4-3.61-1.59-8.38,3.06-4.66,6Z"/><path class="cls-1" d="M285.33,265.72a17.29,17.29,0,0,1-2.22,22.12c-6.73,6.78-17.16,8.47-26.31,8.41-9.43-.07-20.11-2.46-25.33-11.12-2.17-3.62-4-10.17.62-12.61,4.94-2.61,11.06-3,16.52-3.17,6-.14,6-9,0-9.34-7.19-.47-15.7.8-22,4.42-6.1,3.49-7.89,10.5-6.78,17.1,2.56,15.08,17.22,22.78,31.16,24.23,13.51,1.4,29.73-1.23,39.35-11.66,8.16-8.87,10.54-24.24,1.23-33.16-3.11-3-8.84,1-6.2,4.78Z"/><path class="cls-1" d="M219.94,279.1c-9.84,9.86-24.5,7.1-36.81,4.59-12.11-2.48-22.48-7.17-27.32-19.15-1.73-4.28-9.69-4.39-9,1.22,2,16.5,19.25,24.45,33.7,27.39,15.21,3.1,35.85,6.14,45.54-9.32,2.37-3.78-3-7.84-6.12-4.73Z"/><path class="cls-1" d="M202.16,163.7c1.94,7.44,4.11,14.41,4.49,22.17a62.58,62.58,0,0,1-26.49,54.67l6.46,1.69-.33-.43c-.57-5.8-9.28-6.06-9.23,0a9.26,9.26,0,0,0,1.4,5.2c1.17,2.08,4.4,3.17,6.47,1.7a73.08,73.08,0,0,0,27.67-37.43c4.94-15.66,4.91-35.94-3.9-50.33-2.11-3.44-7.58-1.21-6.54,2.76Z"/><rect class="cls-2" x="178.64" y="69.39" width="138.22" height="261.22" rx="10.99" ry="10.99" transform="translate(26.03 -28.51) rotate(6.95)"/><rect class="cls-2" x="188.26" y="87.56" width="118.99" height="224.88" rx="10.99" ry="10.99" transform="translate(26.03 -28.51) rotate(6.95)"/><path class="cls-3" d="M353,253a23.72,23.72,0,0,1-6.45,27.32c-8.23,6.7-19.9,7-29.38,11.74-3.16,1.58-6.12,3.69-9.53,4.61-8.47,2.29-17.72-3.93-20.46-12.26s.11-17.77,5.6-24.6"/><path class="cls-1" d="M349,254.08c2.26,8,1.35,16.87-5.48,22.41-7.1,5.77-17.25,6.35-25.5,9.75-3.93,1.62-7.58,4.59-11.71,5.61s-8.45-.9-11.3-3.92c-7.1-7.52-3.3-18.36,1.68-25.86,2.82-4.24-3.72-9.38-7.12-5.49-8.3,9.51-11.81,24.21-4.16,35.24a24,24,0,0,0,14.19,9.79c6.08,1.34,11.46-.54,16.74-3.46,11-6.08,25.24-6.33,34.67-15.32,8.37-8,11.23-21.66,5.57-31.94-2.27-4.12-8.87-1.33-7.58,3.19Z"/><path class="cls-3" d="M151.13,168.64c1.92-11.76,3.73-24.38-1.39-35.15-3-6.21-8.2-11.84-8.05-18.72.2-9,10-15.17,19-15.72,16.12-1,31.44,11,36.56,26.35,7.08,21.18-3.81,49.34-23.28,60.46"/><path class="cls-1" d="M155,169.69c1.94-8.65,3.3-17.71,2.19-26.58-1-8.44-5.31-14.39-8.93-21.79-4.15-8.49,1-15.14,9.64-17.11,7.3-1.67,15,.75,21.08,4.78,26.2,17.34,16.42,58.16-7.48,72.58-5.47,3.3-.53,11.82,5,8.59,23.08-13.45,34.93-46.63,23.33-71.16-5.95-12.57-18.35-22.39-32.22-24.33-12.72-1.78-29.66,4.64-30.52,19.43-.54,9.53,7,16.07,9.79,24.54,3.23,9.69,1.32,20.1.33,30-.45,4.45,6.81,5.38,7.78,1.05Z"/><path class="cls-3" d="M337.12,210.09c-13.42.64-28.24,1.89-37.54,11.59a31.52,31.52,0,0,0-7.31,13.1c-1.64,5.6-1.84,12.1,1.56,16.84,4.86,6.79,14.94,7.27,22.93,4.81S332,249.32,340.28,248c3.9-.63,8-.51,11.62-2.09,5.38-2.36,8.55-8,10.55-13.49,2.2-6.09,2.61-14.47-3.13-17.48"/><path class="cls-1" d="M337.12,205.81c-12.84.11-27.07,1.42-37.54,9.64-10.12,8-17.49,25-10.7,37.24,6.19,11.15,20.89,11.41,31.54,7.61,7-2.51,13.68-6.46,21.15-7.62,7.23-1.13,13.69-1.41,18.94-7.19,7.81-8.61,13.52-27.35,1.26-34.75-5.37-3.23-10.12,5-4.89,8.37,4.12,2.64,1.81,9.83.34,13.39-2.91,7-7.06,9.46-14.41,10.31a62,62,0,0,0-17.61,5.12c-5.67,2.43-11.45,5.17-17.76,5-16.19-.33-12.47-19.56-4.56-28,8.58-9.14,22.61-9.56,34.24-10.61,5.4-.49,5.61-8.61,0-8.56Z"/><path class="cls-3" d="M326,216.36c-9-.31-21.66-4.6-26.53-12.93-3.91-6.68,2.16-18.25,8.59-21.91a25.18,25.18,0,0,1,7.44-2.37A126.8,126.8,0,0,1,351,176.77c6.92.54,14.55,4.18,16,11,1.36,6.44-3.43,12.52-8.52,16.68C349.32,211.87,337.76,216.76,326,216.36Z"/><path class="cls-1" d="M326,212.4c-7.67-1-24.9-5.46-22.89-16,2.72-14.29,20.42-14.39,31.89-15,7.05-.35,33.92-1.39,25.82,13-6.37,11.3-22.64,16.92-34.82,17-6.39,0-6.37,9.71,0,9.91,14.39.44,30.32-6.27,39.9-17.13,4.28-4.85,7.4-11.14,5.84-17.75-1.4-6-6.26-10.2-11.73-12.45-6.62-2.71-14.23-2.56-21.26-2.37a135.27,135.27,0,0,0-25.28,3.13c-11.47,2.52-22,14.12-19.59,26.62,2.57,13.22,20.42,19.18,32.12,19C331.23,220.22,330.92,213,326,212.4Z"/><path class="cls-1" d="M329.33,131.88c11.81-1.57,23.26-4.55,35.2-5.24,6.71-.39,14.47-1.46,20.94.85,7.46,2.67,9.18,9.3,4.36,15.42-8.21,10.45-22,17.07-34.83,19.47-10.77,2-22.6-.49-32.83,3.94-4,1.73-2.08,9,2.28,8.4,14.32-1.9,28.77-.49,42.61-5.43a73.29,73.29,0,0,0,20.7-11.39c5.67-4.47,11.86-10.13,13.89-17.34,2-6.93-.86-13.78-6.34-18.19-6.28-5.05-14.45-5.63-22.2-5.37-15.24.51-30.34,2.83-44.71,8-3.38,1.23-3.23,7.38.93,6.83Z"/></svg>